<svg width="32" height="31" viewBox="0 0 32 31" fill="none" xmlns="http://www.w3.org/2000/svg">
<g clip-path="url(#clip0_523_3936)">
<path d="M11.9518 9.40734C17.9138 9.40734 22.747 7.56038 22.747 5.28204C22.747 3.0037 17.9138 1.15674 11.9518 1.15674C5.98978 1.15674 1.15662 3.0037 1.15662 5.28204C1.15662 7.56038 5.98978 9.40734 11.9518 9.40734Z" stroke="white" stroke-width="2.31325" stroke-linecap="round" stroke-linejoin="round"/>
<path d="M22.747 12.792C20.5997 12.792 18.5404 13.645 17.022 15.1634C15.5036 16.6817 14.6506 18.7411 14.6506 20.8884C14.6506 23.0357 15.5036 25.095 17.022 26.6134C18.5404 28.1318 20.5997 28.9848 22.747 28.9848C24.8943 28.9848 26.9537 28.1318 28.472 26.6134C29.9904 25.095 30.8434 23.0357 30.8434 20.8884C30.8434 18.7411 29.9904 16.6817 28.472 15.1634C26.9537 13.645 24.8943 12.792 22.747 12.792V12.792Z" stroke="white" stroke-width="2.31325" stroke-linecap="round" stroke-linejoin="round"/>
<path d="M25.4612 18.3286H24.6285L24.2583 20.5956H23.5798L23.1788 18.6293H22.3538L21.9759 20.5956H21.3205L20.9272 18.3286H20.0328L20.5571 20.5956H20.3644L19.8092 20.6419V21.012H20.6574L21.2049 23.3715H22.0299L22.4926 21.012H23.0092L23.4795 23.3715H24.3509L24.8675 21.012H25.6771V20.5956H24.9678L25.4612 18.3286ZM21.814 21.413L21.6443 22.4231L21.4979 21.413L21.4207 20.9889H21.9297L21.814 21.413ZM22.5851 20.5725L22.7624 19.3233L22.9475 20.5725H22.5851ZM24.1273 21.413L23.973 22.4231H23.9345L23.7648 21.413L23.6723 20.9889H24.1967L24.1273 21.413Z" fill="white"/>
<path d="M1.27223 12.3913C1.31731 12.5022 1.36881 12.6104 1.42645 12.7152C1.42645 12.7615 1.48813 12.8077 1.51126 12.8463C1.53439 12.8848 1.66548 13.0545 1.75801 13.1624C1.7959 13.1964 1.83194 13.2325 1.86598 13.2704C1.98236 13.3885 2.10596 13.4992 2.23608 13.6019L2.32089 13.6636C3.23359 14.2969 4.24814 14.769 5.32042 15.0593C6.30981 15.3491 7.32047 15.5605 8.34306 15.6916H8.41247C8.94452 15.761 9.492 15.8149 10.0626 15.8535H10.2014C10.772 15.8535 11.3503 15.9075 11.9518 15.9075C12.5532 15.9075 13.1238 15.9075 13.6944 15.8535H13.8409C14.4038 15.8149 14.959 15.761 15.4833 15.6916H15.5527C15.9383 15.6376 16.3238 15.5682 16.6708 15.4988C17.398 14.6797 18.2845 14.0172 19.2761 13.5519C20.2677 13.0866 21.3437 12.8281 22.4385 12.7923V12.746C22.4992 12.6428 22.5508 12.5344 22.5927 12.4222C22.6103 12.3819 22.6257 12.3407 22.639 12.2988C22.6871 12.1492 22.7131 11.9933 22.7161 11.8362V5.33594C22.7133 5.49059 22.6874 5.64393 22.639 5.79085C22.6278 5.83948 22.6096 5.88622 22.585 5.92964C22.5453 6.03776 22.4989 6.14337 22.4462 6.24581L22.346 6.3846C22.2756 6.48739 22.1983 6.58529 22.1147 6.67762C22.0776 6.72495 22.0363 6.76881 21.9913 6.80869C21.8843 6.91858 21.7682 7.01919 21.6443 7.10942C21.6443 7.10942 21.5749 7.17882 21.5286 7.20967C21.3667 7.32533 21.1971 7.441 21.0043 7.55666C20.243 7.98656 19.4326 8.32311 18.5908 8.55906V8.55906C17.6175 8.83823 16.6254 9.04696 15.6221 9.18364H15.4602C14.9513 9.24533 14.4347 9.29931 13.918 9.33787H13.6636C13.1161 9.33787 12.5609 9.39185 11.9903 9.39185C11.4197 9.39185 10.8568 9.39184 10.3094 9.33787H10.0549C9.51513 9.33787 8.9985 9.24533 8.51272 9.18364H8.35077C7.34751 9.04696 6.35541 8.83823 5.38212 8.55906V8.55906C4.53734 8.32449 3.72427 7.98788 2.9609 7.55666C2.76813 7.441 2.5985 7.32533 2.43657 7.20967L2.32089 7.10942L1.97394 6.80869L1.85054 6.67762C1.76689 6.58529 1.68961 6.48739 1.61922 6.3846C1.58574 6.34015 1.55485 6.29381 1.5267 6.24581C1.46842 6.14507 1.41938 6.03923 1.38019 5.92964L1.32621 5.79085C1.28045 5.64353 1.25708 5.4902 1.25684 5.33594V11.8362C1.25723 11.993 1.28059 12.1488 1.32621 12.2988C1.30693 12.3289 1.28892 12.3597 1.27223 12.3913V12.3913Z" stroke="white" stroke-width="2.31325" stroke-linecap="round" stroke-linejoin="round"/>
<path d="M1.75036 6.62358C1.66671 6.53126 1.58943 6.43336 1.51904 6.33057C1.58943 6.43336 1.66671 6.53126 1.75036 6.62358V6.62358Z" stroke="white" stroke-width="2.31325" stroke-linecap="round" stroke-linejoin="round"/>
<path d="M15.4449 9.20654C14.936 9.26823 14.4193 9.32222 13.9027 9.36077C14.4193 9.32222 14.936 9.26823 15.4449 9.20654Z" stroke="white" stroke-width="2.31325" stroke-linecap="round" stroke-linejoin="round"/>
<path d="M22.0222 6.77783C21.9135 6.88588 21.7976 6.98637 21.6752 7.07857C21.7991 6.98834 21.9152 6.88772 22.0222 6.77783V6.77783Z" stroke="white" stroke-width="2.31325" stroke-linecap="round" stroke-linejoin="round"/>
<path d="M13.625 9.37646C13.0776 9.37646 12.5224 9.43045 11.9518 9.43045C12.5224 9.43045 13.0776 9.40731 13.625 9.37646Z" stroke="white" stroke-width="2.31325" stroke-linecap="round" stroke-linejoin="round"/>
<path d="M18.5832 8.55908C17.6099 8.83824 16.6178 9.04698 15.6145 9.18366C16.6178 9.04698 17.6099 8.83824 18.5832 8.55908V8.55908Z" stroke="white" stroke-width="2.31325" stroke-linecap="round" stroke-linejoin="round"/>
<path d="M20.9966 7.54883C20.2353 7.97872 19.425 8.31528 18.5831 8.55123C19.425 8.31528 20.2353 7.97872 20.9966 7.54883Z" stroke="white" stroke-width="2.31325" stroke-linecap="round" stroke-linejoin="round"/>
<path d="M21.5595 7.17871C21.3976 7.29437 21.2279 7.41005 21.0352 7.52571C21.2279 7.39462 21.3976 7.29437 21.5595 7.17871Z" stroke="white" stroke-width="2.31325" stroke-linecap="round" stroke-linejoin="round"/>
<path d="M11.9518 9.43045C11.3812 9.43045 10.8182 9.43044 10.2708 9.37646C10.8182 9.40731 11.3812 9.43045 11.9518 9.43045Z" stroke="white" stroke-width="2.31325" stroke-linecap="round" stroke-linejoin="round"/>
<path d="M1.42654 6.21505C1.36826 6.11431 1.31922 6.00851 1.28003 5.89893C1.31922 6.00851 1.36826 6.11431 1.42654 6.21505V6.21505Z" stroke="white" stroke-width="2.31325" stroke-linecap="round" stroke-linejoin="round"/>
<path d="M1.15662 5.30518C1.15686 5.45944 1.18023 5.61281 1.22599 5.76014C1.18023 5.61281 1.15686 5.45944 1.15662 5.30518Z" stroke="white" stroke-width="2.31325" stroke-linecap="round" stroke-linejoin="round"/>
<path d="M2.22078 7.07857C2.09998 6.98441 1.98415 6.88402 1.87378 6.77783L2.22078 7.07857Z" stroke="white" stroke-width="2.31325" stroke-linecap="round" stroke-linejoin="round"/>
<path d="M8.28926 9.18366C7.286 9.04698 6.29384 8.83824 5.32056 8.55908C6.29384 8.83824 7.286 9.04698 8.28926 9.18366V9.18366Z" stroke="white" stroke-width="2.31325" stroke-linecap="round" stroke-linejoin="round"/>
<path d="M5.32051 8.55123C4.47573 8.31665 3.66266 7.98005 2.89929 7.54883C3.66266 7.98005 4.47573 8.31665 5.32051 8.55123V8.55123Z" stroke="white" stroke-width="2.31325" stroke-linecap="round" stroke-linejoin="round"/>
<path d="M2.86076 7.52571C2.66799 7.41005 2.49835 7.29437 2.33643 7.17871C2.49835 7.29437 2.66799 7.39462 2.86076 7.52571Z" stroke="white" stroke-width="2.31325" stroke-linecap="round" stroke-linejoin="round"/>
<path d="M10.0164 9.36077C9.48436 9.36077 8.96003 9.26823 8.47424 9.20654C8.96003 9.26823 9.47665 9.32222 10.0164 9.36077Z" stroke="white" stroke-width="2.31325" stroke-linecap="round" stroke-linejoin="round"/>
<path d="M22.3768 6.354C22.3064 6.4568 22.2292 6.5547 22.1455 6.64702C22.2292 6.5547 22.3064 6.4568 22.3768 6.354V6.354Z" stroke="white" stroke-width="2.31325" stroke-linecap="round" stroke-linejoin="round"/>
<path d="M22.616 5.89893C22.5762 6.00705 22.5299 6.11261 22.4772 6.21505C22.5299 6.11261 22.5762 6.00705 22.616 5.89893Z" stroke="white" stroke-width="2.31325" stroke-linecap="round" stroke-linejoin="round"/>
<path d="M22.7471 5.30518C22.7443 5.45983 22.7183 5.61321 22.6699 5.76014C22.7183 5.61321 22.7443 5.45983 22.7471 5.30518V5.30518Z" stroke="white" stroke-width="2.31325" stroke-linecap="round" stroke-linejoin="round"/>
<path d="M1.28008 18.9149C1.31848 19.0161 1.36489 19.114 1.41887 19.2079L1.52683 19.3698C1.59664 19.4661 1.67126 19.5587 1.75043 19.6474L1.88922 19.7939C1.98947 19.8921 2.09504 19.9848 2.20539 20.0715L2.3519 20.1872C2.50194 20.3022 2.65902 20.4078 2.82225 20.5033L2.91478 20.5573C3.66499 20.9802 4.46205 21.314 5.28973 21.5519H5.3591C6.30368 21.8273 7.26775 22.031 8.243 22.1611L8.4897 22.1997C8.97548 22.2614 9.46898 22.3076 9.98561 22.3462H10.3326C10.8261 22.3462 11.3273 22.3924 11.8748 22.3924H12.0984C12.6073 22.3924 13.1162 22.3925 13.6406 22.3462H13.9875L14.8511 22.2614C14.7648 21.7882 14.7209 21.3081 14.7201 20.8271C14.7171 18.8662 15.43 16.9716 16.7249 15.499C16.3702 15.5684 16.0001 15.6223 15.6222 15.6763H15.4989C14.9668 15.7457 14.4194 15.8074 13.8565 15.8382H13.71C13.1394 15.8382 12.561 15.8922 11.9673 15.8922C11.3736 15.8922 10.7876 15.8922 10.217 15.8382H10.0781C9.50753 15.8382 8.9601 15.7457 8.42805 15.6763H8.35863C6.21855 15.4887 4.15406 14.7935 2.33646 13.6483L2.25166 13.5867C2.12057 13.4787 1.9895 13.363 1.88155 13.2551C1.84752 13.2172 1.81147 13.1812 1.77359 13.1472C1.68106 13.0392 1.60394 12.9389 1.52683 12.831C1.44973 12.723 1.46516 12.7462 1.44203 12.6999C1.38438 12.595 1.33288 12.4869 1.2878 12.3761C1.27027 12.3358 1.25483 12.2946 1.24154 12.2527C1.19592 12.1027 1.17251 11.9468 1.17212 11.79V18.3057C1.17313 18.4574 1.19654 18.6081 1.24154 18.7529C1.24154 18.8146 1.26466 18.8609 1.28008 18.9149Z" stroke="white" stroke-width="2.31325" stroke-linecap="round" stroke-linejoin="round"/>
<path d="M22.6236 12.3914C22.5817 12.5036 22.5301 12.612 22.4694 12.7153C22.4694 12.7153 22.4694 12.7153 22.4694 12.7615H22.7624V11.8208C22.7594 11.978 22.7334 12.1338 22.6853 12.2835C22.6665 12.3204 22.6459 12.3564 22.6236 12.3914V12.3914Z" stroke="white" stroke-width="2.31325" stroke-linecap="round" stroke-linejoin="round"/>
<path d="M1.42657 12.715C1.36892 12.6101 1.31742 12.502 1.27234 12.3911C1.31742 12.502 1.36892 12.6101 1.42657 12.715V12.715Z" stroke="white" stroke-width="2.31325" stroke-linecap="round" stroke-linejoin="round"/>
<path d="M10.2014 15.8765C10.772 15.8765 11.3503 15.9304 11.9518 15.9304C12.5532 15.9304 13.1238 15.9304 13.6944 15.8765C13.1238 15.8765 12.5455 15.9304 11.9518 15.9304C11.3581 15.9304 10.772 15.8765 10.2014 15.8765Z" stroke="white" stroke-width="2.31325" stroke-linecap="round" stroke-linejoin="round"/>
<path d="M15.5529 15.6915C15.9307 15.6375 16.3239 15.5836 16.6555 15.5142C16.27 15.5681 15.9384 15.6375 15.5529 15.6915Z" stroke="white" stroke-width="2.31325" stroke-linecap="round" stroke-linejoin="round"/>
<path d="M2.32092 13.6636C4.13851 14.8088 6.20301 15.504 8.34309 15.6915C7.32051 15.5604 6.30984 15.349 5.32045 15.0592C4.24818 14.7689 3.23362 14.2969 2.32092 13.6636Z" stroke="white" stroke-width="2.31325" stroke-linecap="round" stroke-linejoin="round"/>
<path d="M22.7471 11.8052C22.7441 11.9623 22.718 12.1182 22.6699 12.2679C22.718 12.1182 22.7441 11.9623 22.7471 11.8052V11.8052Z" stroke="white" stroke-width="2.31325" stroke-linecap="round" stroke-linejoin="round"/>
<path d="M1.75811 13.1623C1.66558 13.0544 1.58846 12.9541 1.51135 12.8462C1.6193 12.9541 1.66558 13.0544 1.75811 13.1623Z" stroke="white" stroke-width="2.31325" stroke-linecap="round" stroke-linejoin="round"/>
<path d="M15.4987 15.6992C14.9744 15.7686 14.4192 15.8226 13.8563 15.8611C14.4038 15.8303 14.9513 15.7686 15.4987 15.6992Z" stroke="white" stroke-width="2.31325" stroke-linecap="round" stroke-linejoin="round"/>
<path d="M10.1012 15.8768C9.53058 15.8382 8.9831 15.7842 8.45105 15.7148C8.94454 15.7688 9.49202 15.8305 10.1012 15.8768Z" stroke="white" stroke-width="2.31325" stroke-linecap="round" stroke-linejoin="round"/>
<path d="M2.23619 13.6021C2.10607 13.4993 1.98247 13.3886 1.86609 13.2705C1.97404 13.3785 2.10511 13.4941 2.23619 13.6021Z" stroke="white" stroke-width="2.31325" stroke-linecap="round" stroke-linejoin="round"/>
<path d="M1.15662 11.8052C1.15701 11.962 1.18037 12.1179 1.22599 12.2679C1.18037 12.1179 1.15701 11.962 1.15662 11.8052V11.8052Z" stroke="white" stroke-width="2.31325" stroke-linecap="round" stroke-linejoin="round"/>
<path d="M14.7817 22.2844L13.9181 22.3615H13.5711C13.0776 22.3615 12.5687 22.4077 12.029 22.4077H11.8054C11.2965 22.4077 10.7953 22.4077 10.2632 22.3615H9.91621C9.39958 22.3615 8.90608 22.2766 8.4203 22.215L8.17355 22.1764C7.19816 22.047 6.23408 21.8434 5.2897 21.5673H5.22028C4.3926 21.3293 3.59558 20.9955 2.84538 20.5726L2.7528 20.5186C2.58958 20.4231 2.43249 20.3175 2.28245 20.2024L2.13594 20.0868C2.02559 20.0001 1.92007 19.9074 1.81982 19.8092L1.68103 19.6627C1.60186 19.574 1.52719 19.4813 1.45739 19.3851L1.34947 19.2232C1.29549 19.1294 1.24903 19.0314 1.21063 18.9302C1.21063 18.8762 1.21067 18.8299 1.1567 18.7837C1.1117 18.6388 1.08829 18.4881 1.08728 18.3364V24.8289C1.08728 27.1036 5.91427 28.9543 11.8825 28.9543C14.2314 28.9805 16.5708 28.653 18.8222 27.9827C17.7664 27.3943 16.8556 26.5772 16.1565 25.5912C15.4574 24.6053 14.9877 23.4754 14.7817 22.2844V22.2844Z" stroke="white" stroke-width="2.31325" stroke-linecap="round" stroke-linejoin="round"/>
<path d="M13.9567 22.3613L14.8203 22.2842L13.9567 22.3613Z" stroke="white" stroke-width="2.31325" stroke-linecap="round" stroke-linejoin="round"/>
<path d="M11.8361 22.4305C11.3272 22.4305 10.826 22.4305 10.2939 22.3843C10.826 22.4074 11.3272 22.4305 11.8361 22.4305Z" stroke="white" stroke-width="2.31325" stroke-linecap="round" stroke-linejoin="round"/>
<path d="M13.5711 22.3843C13.0776 22.3843 12.5687 22.4305 12.0289 22.4305C12.5687 22.4305 13.0776 22.4074 13.5711 22.3843Z" stroke="white" stroke-width="2.31325" stroke-linecap="round" stroke-linejoin="round"/>
<path d="M1.15662 18.3208C1.15763 18.4725 1.18099 18.6232 1.22599 18.768C1.18099 18.6232 1.15763 18.4725 1.15662 18.3208Z" stroke="white" stroke-width="2.31325" stroke-linecap="round" stroke-linejoin="round"/>
<path d="M1.41882 19.2076C1.36484 19.1137 1.31843 19.0158 1.28003 18.9146C1.31843 19.0158 1.36484 19.1137 1.41882 19.2076V19.2076Z" stroke="white" stroke-width="2.31325" stroke-linecap="round" stroke-linejoin="round"/>
<path d="M1.75033 19.6472C1.67116 19.5585 1.59654 19.4659 1.52673 19.3696C1.59654 19.4659 1.67116 19.5585 1.75033 19.6472V19.6472Z" stroke="white" stroke-width="2.31325" stroke-linecap="round" stroke-linejoin="round"/>
<path d="M2.20533 20.071C2.09498 19.9843 1.98941 19.8917 1.88916 19.7935C1.98941 19.8917 2.09498 19.9843 2.20533 20.071Z" stroke="white" stroke-width="2.31325" stroke-linecap="round" stroke-linejoin="round"/>
<path d="M5.28963 21.5518C4.46194 21.3139 3.66488 20.9801 2.91467 20.5571C3.66488 20.9801 4.46194 21.3139 5.28963 21.5518Z" stroke="white" stroke-width="2.31325" stroke-linecap="round" stroke-linejoin="round"/>
<path d="M8.2429 22.1765C7.26765 22.0464 6.30359 21.8428 5.35901 21.5674C6.30339 21.8435 7.26752 22.0472 8.2429 22.1765V22.1765Z" stroke="white" stroke-width="2.31325" stroke-linecap="round" stroke-linejoin="round"/>
<path d="M2.82216 20.5031C2.65893 20.4077 2.50185 20.3021 2.35181 20.187C2.50185 20.3021 2.65893 20.4077 2.82216 20.5031Z" stroke="white" stroke-width="2.31325" stroke-linecap="round" stroke-linejoin="round"/>
<path d="M9.98553 22.3614C9.4689 22.3614 8.97541 22.2765 8.48962 22.2148C8.97541 22.2765 9.4689 22.3228 9.98553 22.3614Z" stroke="white" stroke-width="2.31325" stroke-linecap="round" stroke-linejoin="round"/>
<path d="M9.95473 6.68548H11.0265L11.6203 5.31293H12.2911L12.908 6.68548H14.0337L14.7046 5.31293H15.7533V5.08161H14.828L15.4757 3.75537H14.3962L13.9104 5.08161H13.0313L12.5147 3.94042H11.4429L10.9571 5.08161H10.1012L9.59234 3.75537H8.428L9.11423 5.08161H8.8598H8.1427V5.29754H9.24535L9.95473 6.68548ZM13.8102 5.31293L13.7253 5.55968L13.5171 6.14571H13.4709L13.255 5.55968L13.1393 5.31293H13.8102ZM11.9287 4.33368H11.975L12.214 5.10477H11.6974L11.9287 4.33368ZM10.8492 5.31293L10.7413 5.55968L10.5176 6.14571L10.3248 5.55968L10.2246 5.31293H10.8492Z" fill="white"/>
</g>
<defs>
<clipPath id="clip0_523_3936">
<rect width="32" height="30.0954" fill="white"/>
</clipPath>
</defs>
</svg>
