<svg width="24" height="24" viewBox="0 0 24 24" fill="none" xmlns="http://www.w3.org/2000/svg">
<path fill-rule="evenodd" clip-rule="evenodd" d="M22.0129 13.1279C22.7939 12.3469 22.7939 11.0806 22.0129 10.2995C21.2318 9.51846 19.9655 9.51846 19.1845 10.2995L12.1136 17.3704L5.04268 10.2994C4.26163 9.51837 2.9953 9.51837 2.21425 10.2994C1.4332 11.0805 1.4332 12.3468 2.21425 13.1278L10.6741 21.5876C10.6823 21.5962 10.6907 21.6047 10.6992 21.6132C11.2133 22.1273 11.9377 22.303 12.5955 22.1403C12.9372 22.0559 13.2609 21.8802 13.528 21.6131C13.5345 21.6066 13.541 21.5999 13.5475 21.5933L22.0129 13.1279Z" fill="white"/>
</svg>
