<svg width="14" height="14" viewBox="0 0 14 14" fill="none" xmlns="http://www.w3.org/2000/svg">
<path fill-rule="evenodd" clip-rule="evenodd" d="M7.8749 0.875096C7.39165 0.391847 6.60815 0.391847 6.1249 0.875096C5.64165 1.35835 5.64165 2.14185 6.1249 2.6251L10.4998 7L6.1249 11.3749C5.64165 11.8582 5.64165 12.6417 6.1249 13.1249C6.60815 13.6082 7.39165 13.6082 7.8749 13.1249L13.1116 7.88817C13.1161 7.88385 13.1205 7.87949 13.1249 7.8751C13.3656 7.63439 13.4864 7.31919 13.4873 7.00371C13.4883 6.68575 13.3675 6.36749 13.1249 6.1249C13.1205 6.12047 13.116 6.11608 13.1115 6.11174L7.8749 0.875096Z" fill="white"/>
</svg>
