<svg width="57" height="40" viewBox="0 0 57 40" fill="none" xmlns="http://www.w3.org/2000/svg">
<g clip-path="url(#clip0_60:853)">
<path d="M56.9247 35.2628C56.4709 36.5364 55.5089 37.2927 54.3533 37.8523C52.2357 38.8673 49.9759 39.3059 47.6768 39.563C43.5732 40.0168 39.4756 39.9548 35.4385 39.0155C34.1168 38.683 32.8283 38.2303 31.589 37.6632C30.6316 37.2443 29.8496 36.5485 29.4911 35.4866C29.4533 35.3732 29.2188 35.2643 29.0721 35.2598C26.8531 35.1796 24.6463 34.9996 22.4697 34.5277C22.27 34.4838 21.9841 34.6411 21.7951 34.7818C16.8399 38.4604 10.0862 38.4528 5.31856 34.5761C0.805025 30.9066 -0.883011 26.0829 0.612929 20.4622C2.10887 14.8415 5.96594 11.5682 11.6548 10.5745C13.1008 10.3234 14.6285 10.5367 16.1683 10.5367C16.1683 10.4414 16.1895 10.2826 16.1849 10.1237C16.1426 8.49771 16.1048 6.87169 16.0473 5.24567C16.0155 4.33812 16.3967 3.6378 17.0441 3.05243C18.115 2.08438 19.4279 1.58523 20.7847 1.20103C24.489 0.151303 28.281 -0.0528953 32.1033 0.142227C34.7866 0.278359 37.4442 0.612639 39.9838 1.54136C40.8145 1.84405 41.6093 2.23716 42.354 2.71361C43.434 3.4094 43.9422 4.44854 43.9332 5.76297C43.912 9.3508 43.9256 12.9371 43.9256 16.525V17.1618C44.9965 17.2404 46.0251 17.2934 47.0476 17.3947C49.3331 17.6201 51.5853 17.9997 53.7301 18.88C54.289 19.1208 54.8281 19.405 55.3425 19.7301C56.0838 20.1926 56.6426 20.8968 56.9247 21.7237V35.2628ZM13.665 12.6755C7.56473 12.5756 2.49608 17.5898 2.37508 23.8443C2.25407 29.9884 7.29852 35.1493 13.5077 35.2356C19.7168 35.3218 24.852 30.3288 24.9458 24.1438C25.0456 17.8545 20.0541 12.7783 13.665 12.6755ZM29.8859 2.34757C26.9636 2.38387 24.1275 2.58807 21.3776 3.41696C20.6169 3.64102 19.879 3.93627 19.1738 4.29879C18.0635 4.87962 18.0651 5.28197 19.1435 5.89002C19.6744 6.18679 20.2314 6.43437 20.8074 6.62968C22.9386 7.36176 25.153 7.67033 27.3901 7.79285C31.1927 8.00158 34.9727 7.83974 38.6452 6.73404C39.5164 6.47085 40.3453 6.02616 41.1379 5.57087C41.6688 5.26835 41.6583 4.99155 41.1288 4.66332C40.4933 4.25592 39.8152 3.91914 39.1065 3.65897C36.101 2.61227 32.97 2.39597 29.8874 2.34757H29.8859ZM42.8335 25.0015C45.5562 24.9833 48.1563 24.8411 50.6823 24.1514C51.8647 23.8068 53.0118 23.351 54.1083 22.7901C54.8404 22.4301 54.8086 22.0837 54.0962 21.6511C53.5446 21.3171 52.9608 21.0395 52.3537 20.8222C49.9109 19.951 47.3622 19.6726 44.7908 19.5516C41.6613 19.4004 38.5499 19.5516 35.4869 20.2716C34.2103 20.5741 32.9413 20.919 31.8567 21.7131C31.3243 22.1049 31.2956 22.3756 31.8567 22.7175C32.5555 23.1647 33.303 23.5306 34.0848 23.808C36.9587 24.7534 39.9415 24.9682 42.835 25.0015H42.8335ZM31.6646 31.7037C31.6646 32.6354 31.6359 33.6156 31.6828 34.5912C31.6976 34.733 31.7416 34.8703 31.8122 34.9942C31.8827 35.1182 31.9783 35.2261 32.0927 35.3112C32.6762 35.6952 33.2988 36.0162 33.9501 36.2686C36.4444 37.1762 39.0521 37.4333 41.6794 37.5377C44.7938 37.6617 47.8916 37.4832 50.9062 36.6801C51.9982 36.3881 53.0313 35.8663 54.0705 35.4004C54.3125 35.293 54.6195 34.9935 54.6316 34.7697C54.6906 33.6746 54.6589 32.5749 54.6589 31.5524C46.9674 34.2131 39.3334 34.1994 31.6646 31.7037ZM54.6906 25.1512C50.9515 26.8377 47.0597 27.2174 43.127 27.2355C39.1943 27.2537 35.2706 26.8861 31.5618 25.2495C31.5618 26.2705 31.5875 27.2431 31.5512 28.2142C31.5331 28.6921 31.7146 29.0098 32.1124 29.1958C32.8293 29.5316 33.5357 29.9234 34.2905 30.1336C39.5588 31.6054 44.8785 31.5872 50.2104 30.5329C51.5187 30.2743 52.7893 29.8856 53.9419 29.1807C54.3563 28.9251 54.6785 28.6029 54.6861 28.0901C54.6936 27.1327 54.6831 26.1752 54.6831 25.1512H54.6906ZM18.4931 8.28897C18.4931 9.13602 18.478 10.0768 18.5082 11.0116C18.5082 11.1508 18.7109 11.3247 18.8607 11.4124C19.7985 11.96 20.7433 12.496 21.6952 13.0203C21.9579 13.1837 22.2426 13.3085 22.5408 13.3909C27.3009 14.424 32.07 14.3937 36.8437 13.4771C38.258 13.2064 39.6526 12.8237 40.8868 12.0356C41.1273 11.8844 41.4631 11.6514 41.4919 11.4306C41.6189 10.3143 41.6567 9.18745 41.7218 8.11351C33.8881 10.8014 26.1997 10.8241 18.4931 8.28897ZM24.9185 16.1665C25.4858 17.4491 26.0469 18.7379 26.6353 20.0251C26.6813 20.1047 26.7443 20.1731 26.8199 20.2254C26.8955 20.2777 26.9818 20.3126 27.0725 20.3276C27.9377 20.382 28.8059 20.4062 29.6741 20.4123C29.8483 20.3854 30.0128 20.3146 30.1521 20.2066C30.7934 19.8118 31.3909 19.3263 32.07 19.0162C34.2965 17.9982 36.6864 17.6276 39.1005 17.3962C39.9233 17.3176 40.7492 17.2767 41.5811 17.2177V14.3605C36.1494 16.6293 30.5166 16.6535 24.9185 16.1665ZM29.305 28.9886C28.34 28.9342 27.443 28.8676 26.5431 28.8495C26.4145 28.8495 26.2405 29.0536 26.1558 29.2019C25.7187 29.9703 25.3148 30.7568 24.8762 31.5237C24.6811 31.8655 24.4224 32.1741 24.1547 32.5674C25.091 32.6763 25.929 32.7943 26.7699 32.8699C27.6109 32.9455 28.4807 32.9712 29.305 33.0211V28.9886ZM29.1538 22.6766H27.2449C27.1768 23.9895 27.1103 25.2722 27.0407 26.6214H29.1991C29.1991 25.3993 29.1991 24.2013 29.1991 23.0018C29.1896 22.8935 29.1735 22.7859 29.1507 22.6796L29.1538 22.6766Z" fill="white" stroke="white" stroke-width="0.151258" stroke-miterlimit="10"/>
<path d="M12.5605 30.8477C11.6439 30.5452 10.8815 30.0732 10.3098 29.3351C9.74968 28.6377 9.4312 27.7772 9.40223 26.8832C9.38105 26.1163 9.78642 25.6172 10.452 25.5869C11.1175 25.5567 11.5758 25.9847 11.6469 26.7546C11.7891 28.3005 13.3107 29.1748 14.6221 28.4563C15.004 28.2417 15.3068 27.91 15.4858 27.5102C15.6647 27.1104 15.7103 26.6636 15.6159 26.2358C15.5174 25.8086 15.2797 25.4262 14.9402 25.1489C14.6007 24.8715 14.1786 24.7149 13.7403 24.7036C11.9691 24.6234 10.6108 23.8747 9.81667 22.2608C9.56031 21.7361 9.41522 21.1641 9.39051 20.5807C9.3658 19.9972 9.46202 19.415 9.6731 18.8705C9.88418 18.3261 10.2056 17.8312 10.6171 17.4168C11.0286 17.0025 11.5213 16.6778 12.0644 16.4631C12.3926 16.3315 12.5605 16.2105 12.5635 15.8111C12.5582 15.6621 12.5832 15.5135 12.637 15.3744C12.6908 15.2354 12.7723 15.1087 12.8765 15.002C12.9807 14.8954 13.1056 14.811 13.2434 14.754C13.3812 14.6971 13.5292 14.6687 13.6783 14.6706C13.8271 14.6676 13.975 14.6946 14.1132 14.7501C14.2513 14.8057 14.3767 14.8886 14.482 14.9938C14.5872 15.0991 14.6701 15.2245 14.7257 15.3627C14.7812 15.5008 14.8082 15.6487 14.8052 15.7975C14.8157 16.2029 14.9746 16.3526 15.324 16.5054C16.8804 17.1846 17.7259 18.4052 17.9135 20.0857C18.0043 20.8964 17.6034 21.4727 16.9107 21.5408C16.2179 21.6088 15.7354 21.1445 15.6522 20.3111C15.5433 19.2371 14.787 18.4778 13.7585 18.4113C13.2925 18.3905 12.8337 18.5311 12.4594 18.8094C12.0852 19.0878 11.8185 19.4867 11.7044 19.939C11.6346 20.2125 11.6238 20.4978 11.6728 20.7759C11.7218 21.0539 11.8295 21.3183 11.9886 21.5515C12.1477 21.7848 12.3546 21.9815 12.5956 22.1285C12.8366 22.2756 13.1062 22.3696 13.3864 22.4045C13.8644 22.439 14.3395 22.5067 14.8082 22.6071C16.5839 23.0836 17.7849 24.5962 17.9317 26.4839C17.9808 27.348 17.7622 28.2063 17.3055 28.9415C16.8488 29.6767 16.1764 30.2531 15.3799 30.592C14.911 30.7857 14.8036 31.0262 14.8067 31.4905C14.8072 31.8538 14.7117 32.2107 14.5299 32.5251C14.2894 32.9214 13.8447 33.0228 13.3985 32.9018C13.1704 32.8485 12.9657 32.7227 12.8152 32.5432C12.6646 32.3638 12.5763 32.1404 12.5635 31.9065C12.5442 31.5538 12.5432 31.2004 12.5605 30.8477Z" fill="white" stroke="white" stroke-width="0.151258" stroke-miterlimit="10"/>
</g>
<defs>
<clipPath id="clip0_60:853">
<rect width="57" height="39.9139" fill="white"/>
</clipPath>
</defs>
</svg>
