<svg width="32" height="32" viewBox="0 0 32 32" fill="none" xmlns="http://www.w3.org/2000/svg">
<g clip-path="url(#clip0_523_4022)">
<path d="M28.0889 7.23193H3.91109C2.34015 7.23193 1.06665 8.50543 1.06665 10.0764V27.143C1.06665 28.714 2.34015 29.9875 3.91109 29.9875H28.0889C29.6598 29.9875 30.9333 28.714 30.9333 27.143V10.0764C30.9333 8.50543 29.6598 7.23193 28.0889 7.23193Z" stroke="white" stroke-width="2.13333" stroke-linecap="round" stroke-linejoin="round"/>
<path d="M1.06668 10.6237C1.06668 10.4673 1.06668 9.25129 1.06668 9.08774C1.0337 8.52097 1.19656 7.9601 1.52801 7.49917C1.85946 7.03825 2.33934 6.70531 2.88713 6.55618L23.0613 1.15174C23.6911 0.986069 24.3608 1.07533 24.9252 1.40013C25.4896 1.72493 25.9033 2.2591 26.0764 2.88685L26.5245 7.23175" stroke="white" stroke-width="2.13333" stroke-linecap="round" stroke-linejoin="round"/>
<path d="M23.4453 20.0319C24.2308 20.0319 24.8675 19.3952 24.8675 18.6097C24.8675 17.8243 24.2308 17.1875 23.4453 17.1875C22.6598 17.1875 22.0231 17.8243 22.0231 18.6097C22.0231 19.3952 22.6598 20.0319 23.4453 20.0319Z" fill="white"/>
<path d="M23.1111 15.0537H30.9333V22.1648H23.1111C22.1681 22.1648 21.2637 21.7902 20.5969 21.1234C19.9301 20.4566 19.5555 19.5523 19.5555 18.6093V18.6093C19.5555 17.6663 19.9301 16.7619 20.5969 16.0951C21.2637 15.4283 22.1681 15.0537 23.1111 15.0537V15.0537Z" stroke="white" stroke-width="2.13333" stroke-linecap="round" stroke-linejoin="round"/>
</g>
<defs>
<clipPath id="clip0_523_4022">
<rect width="32" height="31.0542" fill="white"/>
</clipPath>
</defs>
</svg>
