<svg width="32" height="32" viewBox="0 0 32 32" fill="none" xmlns="http://www.w3.org/2000/svg">
<path d="M28.0889 1.06689H3.91109C2.34015 1.06689 1.06665 2.3404 1.06665 3.91134V17.2376C1.06665 18.8085 2.34015 20.082 3.91109 20.082H28.0889C29.6598 20.082 30.9333 18.8085 30.9333 17.2376V3.91134C30.9333 2.3404 29.6598 1.06689 28.0889 1.06689Z" stroke="white" stroke-width="2.13333" stroke-linecap="round" stroke-linejoin="round"/>
<path d="M16 20.082L22.2649 30.9336" stroke="white" stroke-width="2.13333" stroke-linecap="round" stroke-linejoin="round"/>
<path d="M16 20.082L9.73511 30.9336" stroke="white" stroke-width="2.13333" stroke-linecap="round" stroke-linejoin="round"/>
<path d="M23.1112 14.8407C24.6821 14.8407 25.9556 13.5672 25.9556 11.9963C25.9556 10.4254 24.6821 9.15186 23.1112 9.15186C21.5402 9.15186 20.2667 10.4254 20.2667 11.9963C20.2667 13.5672 21.5402 14.8407 23.1112 14.8407Z" stroke="white" stroke-width="2.13333" stroke-linecap="round" stroke-linejoin="round"/>
<path d="M4.80713 10.2544H13.696" stroke="white" stroke-width="2.13333" stroke-linecap="round" stroke-linejoin="round"/>
<path d="M4.80713 5.34766H17.7636" stroke="white" stroke-width="2.13333" stroke-linecap="round" stroke-linejoin="round"/>
<path d="M4.80713 15.168H12.3662" stroke="white" stroke-width="2.13333" stroke-linecap="round" stroke-linejoin="round"/>
</svg>
