<svg width="32" height="32" viewBox="0 0 32 32" fill="none" xmlns="http://www.w3.org/2000/svg">
<g clip-path="url(#clip0_590_3848)">
<path d="M27.3778 32H4.62222C3.39691 31.9981 2.22233 31.5105 1.3559 30.6441C0.489475 29.7777 0.00188076 28.6031 0 27.3778V4.62222C0 3.39633 0.486985 2.22061 1.35382 1.35378C2.22065 0.486941 3.39633 0 4.62222 0H27.3778C28.6031 0.00188076 29.7777 0.489432 30.6441 1.35586C31.5105 2.22229 31.9981 3.39691 32 4.62222V27.3778C31.9981 28.6031 31.5105 29.7777 30.6441 30.6441C29.7777 31.5105 28.6031 31.9981 27.3778 32ZM4.62222 2.13333C3.96213 2.13333 3.32908 2.39553 2.86233 2.86228C2.39557 3.32904 2.13333 3.96213 2.13333 4.62222V27.3778C2.13333 28.0379 2.39557 28.6709 2.86233 29.1377C3.32908 29.6044 3.96213 29.8667 4.62222 29.8667H27.3778C28.0379 29.8667 28.6709 29.6044 29.1377 29.1377C29.6044 28.6709 29.8667 28.0379 29.8667 27.3778V4.62222C29.8667 3.96213 29.6044 3.32904 29.1377 2.86228C28.6709 2.39553 28.0379 2.13333 27.3778 2.13333H4.62222Z" fill="white"/>
<path d="M6.59914 28.4445C6.31624 28.4445 6.04492 28.332 5.84488 28.132C5.64485 27.932 5.53247 27.6607 5.53247 27.3778V20.1458C5.53247 19.8629 5.64485 19.5916 5.84488 19.3915C6.04492 19.1915 6.31624 19.0791 6.59914 19.0791C6.88204 19.0791 7.15331 19.1915 7.35335 19.3915C7.55339 19.5916 7.6658 19.8629 7.6658 20.1458V27.3564C7.66864 27.4983 7.64314 27.6393 7.5908 27.7712C7.53847 27.9031 7.46036 28.0232 7.36103 28.1245C7.2617 28.2258 7.14311 28.3063 7.01229 28.3613C6.88146 28.4162 6.74103 28.4445 6.59914 28.4445Z" fill="white"/>
<path d="M12.864 28.4445C12.5811 28.4445 12.3098 28.3321 12.1098 28.1321C11.9097 27.932 11.7974 27.6608 11.7974 27.3779V15.7085C11.7974 15.4256 11.9097 15.1543 12.1098 14.9543C12.3098 14.7542 12.5811 14.6418 12.864 14.6418C13.1469 14.6418 13.4182 14.7542 13.6182 14.9543C13.8183 15.1543 13.9307 15.4256 13.9307 15.7085V27.3565C13.9335 27.4984 13.908 27.6394 13.8557 27.7713C13.8034 27.9032 13.7253 28.0233 13.6259 28.1246C13.5266 28.2259 13.408 28.3064 13.2772 28.3613C13.1464 28.4163 13.0059 28.4446 12.864 28.4445Z" fill="white"/>
<path d="M19.1289 28.4444C18.8472 28.437 18.5799 28.3183 18.3854 28.1145C18.1909 27.9106 18.0849 27.6381 18.0907 27.3564V6.55641C18.0907 6.27352 18.203 6.0022 18.4031 5.80216C18.6031 5.60212 18.8744 5.48975 19.1573 5.48975C19.4402 5.48975 19.7116 5.60212 19.9116 5.80216C20.1116 6.0022 20.224 6.27352 20.224 6.55641V27.3564C20.2269 27.5007 20.2006 27.6441 20.1465 27.7779C20.0924 27.9117 20.0117 28.0331 19.9093 28.1348C19.807 28.2366 19.685 28.3164 19.5509 28.3697C19.4167 28.4229 19.2732 28.4483 19.1289 28.4444Z" fill="white"/>
<path d="M25.4009 28.4443C25.118 28.4443 24.8467 28.3319 24.6466 28.1319C24.4466 27.9318 24.3342 27.6606 24.3342 27.3777V11.4487C24.3342 11.1658 24.4466 10.8945 24.6466 10.6945C24.8467 10.4945 25.118 10.3821 25.4009 10.3821C25.6838 10.3821 25.9551 10.4945 26.1551 10.6945C26.3551 10.8945 26.4676 11.1658 26.4676 11.4487V27.3563C26.4704 27.4982 26.4449 27.6392 26.3926 27.7711C26.3402 27.9029 26.2621 28.023 26.1627 28.1244C26.0634 28.2257 25.9449 28.3062 25.814 28.3611C25.6832 28.4161 25.5428 28.4443 25.4009 28.4443Z" fill="white"/>
</g>
<defs>
<clipPath id="clip0_590_3848">
<rect width="32" height="32" fill="white"/>
</clipPath>
</defs>
</svg>
