<svg width="32" height="22" viewBox="0 0 32 22" fill="none" xmlns="http://www.w3.org/2000/svg">
<g clip-path="url(#clip0_590_3868)">
<path d="M21.4516 21.5272H4.73019C4.49872 21.5272 4.27674 21.4353 4.11307 21.2716C3.9494 21.1079 3.85746 20.8859 3.85746 20.6545C3.85746 19.8629 3.54298 19.1037 2.98324 18.544C2.42349 17.9842 1.66433 17.6697 0.872727 17.6697C0.641266 17.6697 0.419279 17.5778 0.255611 17.4141C0.0919427 17.2505 0 17.0285 0 16.797V10.5425C0 10.311 0.0919427 10.089 0.255611 9.92536C0.419279 9.76169 0.641266 9.66975 0.872727 9.66975C1.66332 9.66975 2.4216 9.35608 2.98118 8.79759C3.54076 8.2391 3.85592 7.48143 3.85746 6.69084C3.85746 6.45938 3.9494 6.23739 4.11307 6.07373C4.27674 5.91006 4.49872 5.81812 4.73019 5.81812H6.69091C6.92237 5.81812 7.14436 5.91006 7.30803 6.07373C7.47169 6.23739 7.56364 6.45938 7.56364 6.69084C7.56364 6.9223 7.47169 7.14429 7.30803 7.30796C7.14436 7.47163 6.92237 7.56357 6.69091 7.56357H5.52727C5.34843 8.49875 4.89286 9.35868 4.2196 10.0319C3.54635 10.7052 2.68646 11.1607 1.75128 11.3396V15.9941C2.68646 16.1729 3.54635 16.6285 4.2196 17.3018C4.89286 17.975 5.34843 18.8349 5.52727 19.7701H20.6545C20.8334 18.8349 21.2889 17.975 21.9622 17.3018C22.6354 16.6285 23.4954 16.1729 24.4305 15.9941V14.8305C24.4305 14.599 24.5225 14.377 24.6862 14.2134C24.8498 14.0497 25.0718 13.9577 25.3033 13.9577C25.5347 13.9577 25.7567 14.0497 25.9204 14.2134C26.0841 14.377 26.176 14.599 26.176 14.8305V16.7912C26.176 17.0227 26.0841 17.2446 25.9204 17.4083C25.7567 17.572 25.5347 17.6639 25.3033 17.6639C24.5117 17.6639 23.7525 17.9784 23.1928 18.5381C22.633 19.0979 22.3185 19.8571 22.3185 20.6487C22.3193 20.7633 22.2975 20.8769 22.2543 20.9831C22.2112 21.0893 22.1475 21.1859 22.067 21.2675C21.9865 21.3491 21.8908 21.414 21.7852 21.4586C21.6796 21.5031 21.5662 21.5264 21.4516 21.5272Z" fill="white"/>
<path d="M13.0909 18.3971C12.0858 18.4 11.106 18.0814 10.2948 17.4879C9.48356 16.8944 8.88336 16.0571 8.58182 15.0982C8.54775 14.9882 8.53576 14.8725 8.54659 14.7579C8.55743 14.6432 8.59088 14.5318 8.64496 14.4301C8.69905 14.3285 8.7727 14.2385 8.86172 14.1654C8.95074 14.0924 9.05337 14.0376 9.16364 14.0044C9.27365 13.9703 9.38932 13.9584 9.50398 13.9692C9.61864 13.98 9.73 14.0135 9.83168 14.0675C9.93336 14.1216 10.0233 14.1953 10.0964 14.2843C10.1695 14.3734 10.2242 14.4759 10.2575 14.5862C10.4476 15.1909 10.8264 15.7188 11.3384 16.0926C11.8504 16.4664 12.4686 16.6664 13.1025 16.6633C13.7364 16.6664 14.3547 16.4664 14.8667 16.0926C15.3786 15.7188 15.7575 15.1909 15.9476 14.5862C15.9809 14.4759 16.0356 14.3734 16.1087 14.2843C16.1817 14.1953 16.2717 14.1216 16.3734 14.0675C16.4751 14.0135 16.5864 13.98 16.7011 13.9692C16.8158 13.9584 16.9314 13.9703 17.0414 14.0044C17.1517 14.0376 17.2543 14.0924 17.3433 14.1654C17.4323 14.2385 17.506 14.3285 17.5601 14.4301C17.6142 14.5318 17.6476 14.6432 17.6585 14.7579C17.6693 14.8725 17.6573 14.9882 17.6233 15.0982C17.3197 16.0604 16.7158 16.8999 15.9001 17.4937C15.0843 18.0874 14.0998 18.404 13.0909 18.3971Z" fill="white"/>
<path d="M0.872727 11.4152C0.641266 11.4152 0.419279 11.3233 0.255611 11.1596C0.0919427 10.9959 0 10.7739 0 10.5425V7.85448C0 7.3144 0.214521 6.79646 0.596413 6.41456C0.978306 6.03267 1.49629 5.81812 2.03636 5.81812H4.73018C4.96165 5.81812 5.18363 5.91006 5.3473 6.07373C5.51097 6.23739 5.60291 6.45938 5.60291 6.69084C5.60137 7.94436 5.10233 9.146 4.21541 10.0318C3.3285 10.9176 2.12624 11.4152 0.872727 11.4152ZM2.03636 7.56357C1.95968 7.56506 1.88655 7.59619 1.83232 7.65043C1.77808 7.70467 1.74694 7.77779 1.74545 7.85448V9.54177C2.211 9.39739 2.63439 9.14182 2.97905 8.79716C3.3237 8.45251 3.57924 8.02911 3.72361 7.56357H2.03636Z" fill="white"/>
<path d="M4.73018 21.5272H2.03636C1.49629 21.5272 0.978306 21.3127 0.596413 20.9308C0.214521 20.5489 0 20.0309 0 19.4909V16.797C0 16.5656 0.0919427 16.3436 0.255611 16.1799C0.419279 16.0163 0.641266 15.9243 0.872727 15.9243C2.12678 15.9259 3.32902 16.4247 4.21577 17.3115C5.10251 18.1982 5.60137 19.4005 5.60291 20.6545C5.60291 20.886 5.51097 21.1079 5.3473 21.2716C5.18363 21.4353 4.96165 21.5272 4.73018 21.5272ZM1.74545 17.8036V19.4909C1.74694 19.5676 1.77808 19.6407 1.83232 19.6949C1.88655 19.7491 1.95968 19.7803 2.03636 19.7818H3.70036C3.56238 19.3141 3.31211 18.8872 2.97138 18.5383C2.63064 18.1895 2.20979 17.9293 1.74545 17.7803V17.8036Z" fill="white"/>
<path d="M24.1454 21.5272H21.4516C21.2201 21.5272 20.9981 21.4353 20.8345 21.2716C20.6708 21.1079 20.5789 20.886 20.5789 20.6545C20.5804 19.4005 21.0793 18.1982 21.966 17.3115C22.8528 16.4247 24.055 15.9259 25.309 15.9243C25.5405 15.9243 25.7625 16.0163 25.9262 16.1799C26.0898 16.3436 26.1818 16.5656 26.1818 16.797V19.4909C26.1818 20.0309 25.9672 20.5489 25.5853 20.9308C25.2034 21.3127 24.6855 21.5272 24.1454 21.5272ZM22.4581 19.7818H24.1454C24.2221 19.7803 24.2952 19.7491 24.3495 19.6949C24.4037 19.6407 24.4348 19.5676 24.4363 19.4909V17.7803C23.9677 17.926 23.5421 18.1848 23.1971 18.5338C22.8521 18.8829 22.5983 19.3115 22.4581 19.7818Z" fill="white"/>
<path d="M27.2699 15.7091H25.3091C25.0777 15.7091 24.8557 15.6171 24.692 15.4535C24.5284 15.2898 24.4364 15.0678 24.4364 14.8364V7.85455C24.4349 7.77786 24.4038 7.70473 24.3496 7.6505C24.2953 7.59626 24.2222 7.56513 24.1455 7.56364H22.5862C22.4004 7.56444 22.2192 7.50548 22.0694 7.39549C21.9196 7.2855 21.8091 7.13029 21.7542 6.95273C21.5643 6.34742 21.1857 5.81872 20.6738 5.44396C20.1619 5.0692 19.5436 4.86802 18.9091 4.86982C18.2747 4.86802 17.6564 5.0692 17.1445 5.44396C16.6326 5.81872 16.254 6.34742 16.064 6.95273C16.0084 7.12981 15.8977 7.28449 15.748 7.39435C15.5984 7.50422 15.4177 7.56352 15.2321 7.56364H6.69096C6.4595 7.56364 6.23752 7.47169 6.07385 7.30803C5.91018 7.14436 5.81824 6.92237 5.81824 6.69091V4.72436C5.81824 4.4929 5.91018 4.27091 6.07385 4.10724C6.23752 3.94358 6.4595 3.85163 6.69096 3.85163C7.48156 3.85163 8.23984 3.53796 8.79942 2.97947C9.35899 2.42099 9.67415 1.66332 9.67569 0.872727C9.67569 0.641266 9.76764 0.419279 9.93131 0.255611C10.095 0.0919427 10.317 0 10.5484 0H27.2699C27.5013 0 27.7233 0.0919427 27.887 0.255611C28.0507 0.419279 28.1426 0.641266 28.1426 0.872727C28.1441 1.66332 28.4593 2.42099 29.0188 2.97947C29.5784 3.53796 30.3367 3.85163 31.1273 3.85163C31.3588 3.85163 31.5808 3.94358 31.7444 4.10724C31.9081 4.27091 32.0001 4.4929 32.0001 4.72436V10.9789C32.0001 11.2104 31.9081 11.4324 31.7444 11.596C31.5808 11.7597 31.3588 11.8516 31.1273 11.8516C30.3357 11.8516 29.5765 12.1661 29.0168 12.7259C28.457 13.2856 28.1426 14.0448 28.1426 14.8364C28.1426 15.0678 28.0507 15.2898 27.887 15.4535C27.7233 15.6171 27.5013 15.7091 27.2699 15.7091ZM26.1819 13.9636H26.4786C26.6574 13.0285 27.113 12.1685 27.7862 11.4953C28.4595 10.822 29.3194 10.3665 30.2546 10.1876V5.5331C29.3194 5.35426 28.4595 4.89868 27.7862 4.22543C27.113 3.55217 26.6574 2.69228 26.4786 1.7571H11.3513C11.1725 2.69228 10.7169 3.55217 10.0437 4.22543C9.37041 4.89868 8.51048 5.35426 7.5753 5.5331V5.82983H14.6386C15.0216 5.02198 15.6265 4.33974 16.3827 3.86275C17.1388 3.38576 18.0151 3.1337 18.9091 3.13601C19.8032 3.1337 20.6794 3.38576 21.4356 3.86275C22.1918 4.33974 22.7967 5.02198 23.1797 5.82983H24.1455C24.6856 5.82983 25.2035 6.04435 25.5854 6.42624C25.9673 6.80814 26.1819 7.32612 26.1819 7.86619V13.9636Z" fill="white"/>
<path d="M22.5862 7.56356H15.232C15.0945 7.56359 14.9589 7.5309 14.8364 7.46817C14.714 7.40545 14.6083 7.3145 14.528 7.20283C14.4478 7.09278 14.3944 6.96547 14.3722 6.8311C14.3499 6.69673 14.3595 6.55903 14.4 6.429C14.7005 5.46906 15.3003 4.63047 16.1116 4.03586C16.9229 3.44124 17.9032 3.1218 18.9091 3.12428C19.915 3.1218 20.8953 3.44124 21.7066 4.03586C22.5179 4.63047 23.1177 5.46906 23.4182 6.429C23.4587 6.55903 23.4682 6.69673 23.446 6.8311C23.4238 6.96547 23.3704 7.09278 23.2902 7.20283C23.2095 7.31415 23.1037 7.40485 22.9814 7.46753C22.8591 7.53022 22.7237 7.56312 22.5862 7.56356ZM16.7273 5.8181H21.0909C20.8126 5.51778 20.4749 5.27842 20.0994 5.11519C19.7239 4.95196 19.3186 4.86838 18.9091 4.86974C18.4996 4.86838 18.0943 4.95196 17.7188 5.11519C17.3432 5.27842 17.0056 5.51778 16.7273 5.8181Z" fill="white"/>
<path d="M25.3091 11.4152C24.6539 11.4174 24.0053 11.2835 23.4044 11.0221C22.8035 10.7607 22.2634 10.3775 21.8182 9.89667C21.0073 9.02603 20.5562 7.88061 20.5557 6.69084C20.5557 6.45938 20.6476 6.23739 20.8113 6.07373C20.975 5.91006 21.1969 5.81812 21.4284 5.81812H24.1222C24.6623 5.81812 25.1803 6.03267 25.5622 6.41456C25.9441 6.79646 26.1586 7.3144 26.1586 7.85448V10.5425C26.1587 10.77 26.0699 10.9885 25.9112 11.1515C25.7526 11.3145 25.5365 11.4091 25.3091 11.4152ZM22.4582 7.56357C22.5875 7.99701 22.8144 8.39507 23.1215 8.72721C23.4785 9.11592 23.9323 9.40301 24.4364 9.5592V7.87192C24.4349 7.79523 24.4038 7.7221 24.3496 7.66787C24.2953 7.61363 24.2222 7.5825 24.1455 7.58101L22.4582 7.56357Z" fill="white"/>
<path d="M6.69096 5.59709C6.4595 5.59709 6.23752 5.50515 6.07385 5.34148C5.91018 5.17781 5.81824 4.95582 5.81824 4.72436V2.03636C5.81824 1.49629 6.03276 0.978341 6.41465 0.596449C6.79654 0.214557 7.31452 0 7.8546 0H10.5484C10.7799 0 11.0019 0.0919427 11.1655 0.255611C11.3292 0.419279 11.4211 0.641266 11.4211 0.872727C11.4196 2.12624 10.9206 3.32788 10.0336 4.21371C9.14673 5.09953 7.94448 5.59709 6.69096 5.59709ZM7.8546 1.74545C7.77791 1.74694 7.70479 1.77808 7.65055 1.83232C7.59632 1.88655 7.56518 1.95968 7.56369 2.03636V3.72365C8.02924 3.57927 8.45263 3.3237 8.79728 2.97905C9.14194 2.63439 9.39747 2.211 9.54185 1.74545H7.8546Z" fill="white"/>
<path d="M31.1273 5.59709C29.8738 5.59709 28.6715 5.09953 27.7846 4.21371C26.8977 3.32788 26.3986 2.12624 26.3971 0.872727C26.3971 0.641266 26.489 0.419279 26.6527 0.255611C26.8164 0.0919427 27.0384 0 27.2698 0H29.9636C30.5037 0 31.0217 0.214557 31.4036 0.596449C31.7854 0.978341 32 1.49629 32 2.03636V4.72436C32 4.95582 31.9081 5.17781 31.7444 5.34148C31.5807 5.50515 31.3587 5.59709 31.1273 5.59709ZM28.2764 1.74545C28.4207 2.211 28.6763 2.63439 29.021 2.97905C29.3656 3.3237 29.789 3.57927 30.2546 3.72365V2.03636C30.2531 1.95968 30.2219 1.88655 30.1677 1.83232C30.1135 1.77808 30.0403 1.74694 29.9636 1.74545H28.2764Z" fill="white"/>
<path d="M13.0909 18.3972C12.0858 18.4001 11.106 18.0815 10.2948 17.488C9.48355 16.8944 8.88336 16.0571 8.58181 15.0983C8.43576 14.6372 8.3612 14.1565 8.36072 13.6728C8.36008 13.0623 8.47865 12.4575 8.7098 11.8925C9.06193 11.0195 9.66744 10.2719 10.4483 9.74615C11.2291 9.2204 12.1496 8.94054 13.0909 8.94264C14.345 8.94418 15.5472 9.44304 16.4339 10.3298C17.3207 11.2165 17.8196 12.4188 17.8211 13.6728C17.8202 14.1564 17.7456 14.6371 17.6 15.0983C17.2977 16.0567 16.6972 16.8934 15.8862 17.4868C15.0751 18.0802 14.0958 18.3991 13.0909 18.3972ZM13.0909 10.6881C12.497 10.6869 11.9163 10.8636 11.4237 11.1954C10.9311 11.5273 10.5493 11.999 10.3273 12.5499C10.182 12.9065 10.1069 13.2878 10.1062 13.6728C10.1056 13.977 10.1527 14.2793 10.2458 14.5688C10.4349 15.1746 10.8133 15.7038 11.3254 16.0787C11.8375 16.4536 12.4563 16.6544 13.0909 16.6517C13.7248 16.6548 14.343 16.4548 14.855 16.0811C15.367 15.7073 15.7458 15.1793 15.936 14.5746C16.0281 14.2829 16.0752 13.9788 16.0756 13.6728C16.0756 12.8812 15.7612 12.1221 15.2014 11.5623C14.6417 11.0026 13.8825 10.6881 13.0909 10.6881Z" fill="white"/>
<path d="M29.9636 15.7091H27.2698C27.0384 15.7091 26.8164 15.6172 26.6527 15.4535C26.489 15.2898 26.3971 15.0678 26.3971 14.8364C26.3986 13.5823 26.8975 12.3801 27.7842 11.4933C28.671 10.6066 29.8732 10.1077 31.1273 10.1062C31.3587 10.1062 31.5807 10.1981 31.7444 10.3618C31.9081 10.5255 32 10.7475 32 10.9789V13.6727C32 14.2128 31.7854 14.7308 31.4036 15.1127C31.0217 15.4946 30.5037 15.7091 29.9636 15.7091ZM28.2764 13.9637H29.9636C30.0403 13.9622 30.1135 13.931 30.1677 13.8768C30.2219 13.8226 30.2531 13.7494 30.2546 13.6727V11.9622C29.7859 12.1079 29.3603 12.3667 29.0153 12.7157C28.6703 13.0648 28.4165 13.4933 28.2764 13.9637Z" fill="white"/>
</g>
<defs>
<clipPath id="clip0_590_3868">
<rect width="32" height="21.5273" fill="white"/>
</clipPath>
</defs>
</svg>
