<svg width="41" height="57" viewBox="0 0 41 57" fill="none" xmlns="http://www.w3.org/2000/svg">
<g clip-path="url(#clip0_366_4025)">
<path d="M0.119999 56.4099C0.088173 56.4099 0.057653 56.3972 0.0351486 56.3747C0.0126443 56.3522 0 56.3217 0 56.2899V48.4799C0 48.4099 0.0499989 48.3799 0.119999 48.3599H2.56C5.25 48.3599 5.56 49.1899 5.56 50.5899C5.57483 50.9229 5.49424 51.2532 5.32771 51.5419C5.16119 51.8307 4.91565 52.0659 4.62 52.2199C4.96088 52.3695 5.25151 52.6141 5.4572 52.9244C5.66288 53.2347 5.77494 53.5976 5.78 53.9699C5.78 55.3699 5.42 56.4199 2.51 56.4099H0.119999ZM2.58 51.6399C3.98 51.6399 4.22 51.1199 4.22 50.4799C4.22 49.8399 3.99 49.4799 2.59 49.4199H1.43V51.6299L2.58 51.6399ZM1.41 52.7999V55.2499H2.57C4.2 55.2499 4.44 54.7299 4.44 54.0899C4.44 53.4499 4.21 52.8099 2.58 52.7999H1.41Z" fill="white"/>
<path d="M7.69996 52.96C7.66813 52.96 7.63761 52.9474 7.6151 52.9249C7.5926 52.9024 7.57996 52.8719 7.57996 52.84V51.9101C7.57996 51.8401 7.57996 51.79 7.69996 51.79H10.62C10.6353 51.79 10.6505 51.7931 10.6645 51.7993C10.6785 51.8054 10.6911 51.8144 10.7015 51.8257C10.7119 51.837 10.7197 51.8503 10.7246 51.8649C10.7295 51.8794 10.7314 51.8948 10.73 51.9101V52.84C10.73 52.8719 10.7173 52.9024 10.6948 52.9249C10.6723 52.9474 10.6418 52.96 10.61 52.96H7.69996Z" fill="white"/>
<path d="M13.01 56.4499C12.9948 56.4513 12.9794 56.4495 12.9648 56.4446C12.9503 56.4397 12.937 56.4318 12.9257 56.4215C12.9144 56.4111 12.9054 56.3985 12.8992 56.3845C12.8931 56.3704 12.89 56.3552 12.89 56.3399L12.91 48.5299C12.91 48.4599 12.91 48.4299 13.02 48.4199H15.47C18.15 48.4199 18.47 49.2499 18.47 50.6499C18.4801 50.9821 18.3975 51.3105 18.2315 51.5984C18.0654 51.8863 17.8226 52.1223 17.53 52.2799C17.8709 52.4296 18.1615 52.6741 18.3672 52.9844C18.5729 53.2947 18.685 53.6577 18.69 54.0299C18.69 55.4299 18.33 56.4799 15.41 56.4699L13.01 56.4499ZM15.47 51.6799C16.87 51.6799 17.1 51.1599 17.11 50.5199C17.12 49.8799 16.88 49.4699 15.48 49.4599H14.31V51.6799H15.47ZM14.3 52.8399V55.2899H15.47C17.1 55.2899 17.34 54.7799 17.34 54.1299C17.34 53.4799 17.11 52.8499 15.48 52.8499L14.3 52.8399Z" fill="white"/>
<path d="M24.34 50.7799C24.34 50.7799 24.45 51.6599 24.45 51.7099C24.45 51.7252 24.4469 51.7404 24.4407 51.7544C24.4346 51.7685 24.4256 51.7811 24.4143 51.7914C24.403 51.8018 24.3897 51.8097 24.3751 51.8146C24.3606 51.8195 24.3452 51.8213 24.33 51.8199C24.27 51.8199 23.6 51.7099 23.4 51.6999C22.4 51.6999 21.88 52.1799 21.88 53.0999V56.3599C21.88 56.3917 21.8673 56.4222 21.8448 56.4447C21.8223 56.4672 21.7918 56.4799 21.76 56.4799H20.64C20.57 56.4799 20.47 56.4799 20.47 56.3599V50.7599C20.47 50.6899 20.57 50.6499 20.64 50.6499H21.64C21.6704 50.654 21.6985 50.668 21.7202 50.6896C21.7419 50.7113 21.7559 50.7395 21.76 50.7699L21.85 51.1799C22.0455 50.9687 22.2843 50.8022 22.5501 50.6917C22.8159 50.5813 23.1023 50.5295 23.39 50.5399C23.6667 50.552 23.9414 50.5922 24.21 50.6599C24.2401 50.667 24.268 50.6818 24.2907 50.7028C24.3135 50.7238 24.3305 50.7504 24.34 50.7799V50.7799Z" fill="white"/>
<path d="M26.4999 48.3898C26.6856 48.3898 26.8637 48.4635 26.9949 48.5948C27.1262 48.7261 27.2 48.9041 27.2 49.0898C27.2 49.1812 27.1818 49.2718 27.1465 49.3562C27.1112 49.4405 27.0595 49.517 26.9943 49.5812C26.9292 49.6454 26.8519 49.6961 26.7671 49.7301C26.6822 49.7642 26.5914 49.7811 26.4999 49.7798C26.4017 49.7916 26.302 49.7824 26.2076 49.7529C26.1131 49.7233 26.026 49.6741 25.9519 49.6084C25.8779 49.5428 25.8186 49.4621 25.778 49.3719C25.7374 49.2816 25.7164 49.1837 25.7164 49.0848C25.7164 48.9858 25.7374 48.8879 25.778 48.7977C25.8186 48.7074 25.8779 48.6268 25.9519 48.5611C26.026 48.4954 26.1131 48.4462 26.2076 48.4167C26.302 48.3871 26.4017 48.378 26.4999 48.3898V48.3898ZM25.77 50.6098C25.7792 50.5814 25.7986 50.5575 25.8245 50.5428C25.8504 50.528 25.8808 50.5233 25.91 50.5298H27.07C27.0857 50.5298 27.1013 50.5329 27.1159 50.5389C27.1304 50.5449 27.1437 50.5538 27.1548 50.5649C27.1659 50.576 27.1748 50.5893 27.1808 50.6038C27.1868 50.6184 27.1899 50.634 27.1899 50.6498V55.6498V56.4598C27.1899 56.4755 27.1868 56.4911 27.1808 56.5057C27.1748 56.5202 27.1659 56.5335 27.1548 56.5446C27.1437 56.5558 27.1304 56.5646 27.1159 56.5706C27.1013 56.5767 27.0857 56.5798 27.07 56.5798H25.91C25.881 56.5762 25.8538 56.5637 25.8323 56.544C25.8108 56.5243 25.796 56.4983 25.7899 56.4698V55.5298L25.77 50.6098Z" fill="white"/>
<path d="M33.46 55.3499C33.46 55.3499 33.58 56.2399 33.58 56.2899C33.5755 56.3191 33.5611 56.346 33.5393 56.366C33.5175 56.386 33.4895 56.3979 33.46 56.3999C32.8879 56.5463 32.3004 56.6235 31.71 56.6299C29.14 56.6299 28.71 55.2599 28.71 53.6299C28.71 51.9999 29.18 50.6299 31.71 50.6299C32.2707 50.6411 32.824 50.7599 33.34 50.9799C33.3683 50.9885 33.3941 51.0039 33.415 51.0248C33.4359 51.0458 33.4514 51.0716 33.46 51.0999C33.46 51.0999 33.57 51.9799 33.57 52.0299C33.57 52.0617 33.5573 52.0922 33.5348 52.1147C33.5123 52.1372 33.4818 52.1499 33.45 52.1499C32.8903 51.947 32.3042 51.8257 31.71 51.7899C30.25 51.7899 30.07 52.5899 30.07 53.6499C30.07 54.7099 30.35 55.5199 31.69 55.5199C32.2436 55.5149 32.7945 55.441 33.33 55.2999C33.41 55.2399 33.45 55.2799 33.46 55.3499Z" fill="white"/>
<path d="M40.5701 56.4301C40.5716 56.4449 40.5699 56.4599 40.5649 56.474C40.5599 56.488 40.5519 56.5008 40.5413 56.5113C40.5308 56.5219 40.518 56.5299 40.5039 56.5349C40.4899 56.5399 40.4749 56.5416 40.4601 56.5401H39.06C39.0135 56.5401 38.9675 56.5292 38.9259 56.5084C38.8842 56.4876 38.848 56.4573 38.8201 56.4201L36.62 53.8501V56.4101C36.6097 56.4408 36.5912 56.4682 36.5666 56.4894C36.5419 56.5105 36.512 56.5245 36.48 56.5301H35.33C35.3143 56.5301 35.2987 56.527 35.2841 56.5209C35.2696 56.5149 35.2563 56.5061 35.2452 56.4949C35.234 56.4838 35.2252 56.4705 35.2192 56.456C35.2132 56.4414 35.2101 56.4258 35.2101 56.4101V55.5901V48.4101C35.2087 48.3948 35.2105 48.3794 35.2154 48.3649C35.2203 48.3504 35.2282 48.337 35.2385 48.3257C35.2489 48.3144 35.2615 48.3054 35.2755 48.2993C35.2896 48.2931 35.3047 48.29 35.3201 48.2901H36.49C36.523 48.2871 36.5558 48.2969 36.5818 48.3173C36.6078 48.3378 36.6251 48.3674 36.63 48.4001V52.7901L38.74 50.7901C38.8027 50.7293 38.8834 50.6907 38.97 50.6801H40.49C40.5054 50.68 40.5205 50.6831 40.5346 50.6893C40.5486 50.6954 40.5612 50.7044 40.5716 50.7157C40.5819 50.727 40.5898 50.7404 40.5947 50.7549C40.5996 50.7694 40.6014 50.7848 40.6 50.8001C40.6 50.9101 37.79 53.2401 37.79 53.2401C37.79 53.2401 40.5701 56.3101 40.5701 56.4301Z" fill="white"/>
<path d="M0 2.52985V7.52985L4.28 10.0199L8.57 7.52985V2.52985H8.51H0ZM8.51 2.52985L4.3 0.0898438L0 2.52985" fill="white"/>
<path d="M15.98 2.52985V7.52985L20.26 10.0199L24.55 7.52985V2.52985H24.49H15.98ZM24.49 2.52985L20.28 0.0898438L15.98 2.52985" fill="white"/>
<path d="M32.01 2.52985V7.52985L36.29 10.0199L40.59 7.52985V2.52985H40.52H32.01ZM40.52 2.52985L36.31 0.0898438L32.02 2.52985" fill="white"/>
<path d="M0 18.0899V23.0899L4.28 25.5799L8.55 23.0999V18.0999H8.49L0 18.0899ZM8.49 18.0999L4.28 15.6499L0.00999832 18.1399" fill="white"/>
<path d="M15.98 18.0899V23.0899L20.26 25.5799L24.53 23.0999V18.0999H24.47L15.98 18.0899ZM24.47 18.0999L20.26 15.6499L15.99 18.1399" fill="white"/>
<path d="M32.01 18.0899V23.0899L36.29 25.5799L40.56 23.0999V18.0999H40.49L32.01 18.0899ZM40.49 18.0999L36.28 15.6499L32.02 18.1399" fill="white"/>
<path d="M0 33.6102V38.6102L4.28 41.1002L8.55 38.6202V33.6202H8.49L0 33.6102ZM8.49 33.6202L4.28 31.1802L0.00999832 33.6702" fill="white"/>
<path d="M15.98 33.6102V38.6102L20.26 41.1002L24.53 38.6202V33.6202H24.47L15.98 33.6102ZM24.47 33.6202L20.26 31.1802L15.99 33.6702" fill="white"/>
<path d="M32.01 33.6102V38.6102L36.29 41.1002L40.56 38.6202V33.6202H40.49L32.01 33.6102ZM40.49 33.6202L36.28 31.1802L32.02 33.6702" fill="white"/>
<path d="M4.81002 5.24023H3.77002V21.5302H4.81002V5.24023Z" fill="white"/>
<path d="M20.67 19.71H19.63V36H20.67V19.71Z" fill="white"/>
<path d="M19.5799 21.1098L2.93994 20.9498L3.15994 20.0698H19.5799V21.1098Z" fill="white"/>
<path d="M19.58 35.5898H3.16003V36.6298H19.58V35.5898Z" fill="white"/>
</g>
<defs>
<clipPath id="clip0_366_4025">
<rect width="40.59" height="56.63" fill="white"/>
</clipPath>
</defs>
</svg>
