<svg width="18" height="18" viewBox="0 0 18 18" fill="none" xmlns="http://www.w3.org/2000/svg">
<path fill-rule="evenodd" clip-rule="evenodd" d="M7.6542 16.51C8.23999 17.0958 9.18973 17.0958 9.77552 16.51C10.3613 15.9242 10.3613 14.9744 9.77552 14.3887L4.47238 9.08552L9.77559 3.78231C10.3614 3.19653 10.3614 2.24678 9.77559 1.66099C9.18981 1.0752 8.24006 1.0752 7.65427 1.66099L1.3092 8.00606C1.30284 8.01221 1.29652 8.01842 1.29024 8.0247C0.896666 8.41827 0.767524 8.97614 0.902816 9.47754C0.907032 9.49317 0.911505 9.50874 0.916235 9.52425C0.985612 9.75188 1.1103 9.96626 1.29031 10.1463C1.29503 10.151 1.29978 10.1557 1.30455 10.1603L7.6542 16.51Z" fill="white"/>
</svg>
