<svg width="37" height="40" viewBox="0 0 37 40" fill="none" xmlns="http://www.w3.org/2000/svg">
<path d="M18.4564 21.5436C23.8532 21.5436 28.2281 17.1686 28.2281 11.7718C28.2281 6.37498 23.8532 2 18.4564 2C13.0596 2 8.68457 6.37498 8.68457 11.7718C8.68457 17.1686 13.0596 21.5436 18.4564 21.5436Z" stroke="#D7D7D7" stroke-width="2.4" stroke-linecap="round" stroke-linejoin="round"/>
<path d="M2 38C2 33.6356 3.73376 29.4499 6.81988 26.3638C9.90599 23.2777 14.0917 21.5439 18.4561 21.5439C22.8205 21.5439 27.0062 23.2777 30.0923 26.3638C33.1784 29.4499 34.9122 33.6356 34.9122 38" stroke="#D7D7D7" stroke-width="2.4" stroke-linecap="round" stroke-linejoin="round"/>
<path d="M14.2949 22.0767L16.6066 25.5168H18.456" stroke="#D7D7D7" stroke-width="2.4" stroke-linecap="round" stroke-linejoin="round"/>
<path d="M18.4557 25.5166H17.2567H16.6063L15.3604 36.0172L18.4557 37.9997" stroke="#D7D7D7" stroke-width="2.4" stroke-linecap="round" stroke-linejoin="round"/>
<path d="M22.6092 22.0767L20.3054 25.5168H18.4561" stroke="#D7D7D7" stroke-width="2.4" stroke-linecap="round" stroke-linejoin="round"/>
<path d="M18.4561 25.5166H19.655H20.3054L21.5514 36.0172L18.4561 37.9997" stroke="#D7D7D7" stroke-width="2.4" stroke-linecap="round" stroke-linejoin="round"/>
</svg>
