<svg width="37" height="40" viewBox="0 0 37 40" fill="none" xmlns="http://www.w3.org/2000/svg">
<path d="M32.9125 6.48779H4.68848V21.5038H32.9125V6.48779Z" stroke="#D7D7D7" stroke-width="2.4" stroke-linecap="round" stroke-linejoin="round"/>
<path d="M33.352 2H4.248C3.00646 2 2 3.00646 2 4.248C2 5.48953 3.00646 6.496 4.248 6.496H33.352C34.5935 6.496 35.6 5.48953 35.6 4.248C35.6 3.00646 34.5935 2 33.352 2Z" stroke="#D7D7D7" stroke-width="2.4" stroke-linecap="round" stroke-linejoin="round"/>
<path d="M33.352 21.5039H4.248C3.00646 21.5039 2 22.5104 2 23.7519C2 24.9934 3.00646 25.9999 4.248 25.9999H33.352C34.5935 25.9999 35.6 24.9934 35.6 23.7519C35.6 22.5104 34.5935 21.5039 33.352 21.5039Z" stroke="#D7D7D7" stroke-width="2.4" stroke-linecap="round" stroke-linejoin="round"/>
<path d="M18.7998 26L25.8558 38" stroke="#D7D7D7" stroke-width="2.4" stroke-linecap="round" stroke-linejoin="round"/>
<path d="M18.8 26L11.752 38" stroke="#D7D7D7" stroke-width="2.4" stroke-linecap="round" stroke-linejoin="round"/>
<path d="M10.7041 17.4797L16.0801 13.1037L18.9441 16.4397L25.2321 10.8877" stroke="#D7D7D7" stroke-width="2.4" stroke-linecap="round" stroke-linejoin="round"/>
<path d="M22.7676 10.52H25.4796" stroke="#D7D7D7" stroke-width="2.4" stroke-linecap="round" stroke-linejoin="round"/>
<path d="M25.4795 10.52V13.232" stroke="#D7D7D7" stroke-width="2.4" stroke-linecap="round" stroke-linejoin="round"/>
</svg>
