<svg width="37" height="40" viewBox="0 0 37 40" fill="none" xmlns="http://www.w3.org/2000/svg">
<path d="M11.1983 23.815L16.3799 26.8939L19.2816 28.6078C19.5552 28.7893 19.8622 28.9114 20.1837 28.9665C20.5051 29.0216 20.8342 29.0086 21.1505 28.9283C21.4669 28.848 21.7638 28.702 22.0229 28.4995C22.282 28.297 22.4979 28.0422 22.6571 27.7508L30.7997 10.832C31.0432 10.2586 31.0655 9.61201 30.8622 9.02241C30.6589 8.43281 30.2451 7.94403 29.7041 7.65451L27.8535 6.56249L22.6719 3.48358L20.8139 2.38396C20.2984 2.04995 19.6787 1.92765 19.079 2.04154C18.4792 2.15543 17.9435 2.49711 17.5791 2.99822L7.33425 18.6733C7.16801 18.9601 7.06084 19.2787 7.01939 19.6095C6.97795 19.9403 7.0031 20.2762 7.09326 20.5967C7.18343 20.9171 7.33672 21.2153 7.54366 21.4727C7.75061 21.7302 8.00684 21.9414 8.29655 22.0935L11.1983 23.815Z" stroke="#D7D7D7" stroke-width="2.4" stroke-linecap="round" stroke-linejoin="round"/>
<path d="M8.56366 29L13 31.8811L11.9374 33.9581L6 34L8.56366 29Z" stroke="#D7D7D7" stroke-width="2.4" stroke-linecap="round" stroke-linejoin="round"/>
<path d="M8.65168 28.9191C8.79729 29.2787 9.05598 29.5781 9.38668 29.7699L11.0772 30.7713L12.7676 31.7726C13.0955 31.9621 13.4751 32.0362 13.8481 31.9834L17.9126 31.4037C18.168 31.3672 18.4119 31.2717 18.6258 31.1243C18.8398 30.9769 19.0182 30.7815 19.1474 30.5529L20 29.0471L14.0392 25.5236L8.07105 22L7.22579 23.5058C7.09776 23.7322 7.02193 23.9855 7.00409 24.2465C6.98626 24.5074 7.02688 24.7692 7.12288 25.0116L8.65168 28.9191Z" stroke="#D7D7D7" stroke-width="2.4" stroke-linecap="round" stroke-linejoin="round"/>
<path d="M2 38H34.8507" stroke="#D7D7D7" stroke-width="2.4" stroke-linecap="round" stroke-linejoin="round"/>
</svg>
