<svg width="165" height="44" viewBox="0 0 165 44" fill="none" xmlns="http://www.w3.org/2000/svg">
<rect width="165" height="44" rx="22" fill="white" fill-opacity="0.3"/>
<path d="M46.262 24.152H49.398V26H43.868V16.172H46.262V24.152ZM57.9039 21.968C57.9039 22.192 57.8899 22.4253 57.8619 22.668H52.4439C52.4812 23.1533 52.6352 23.5267 52.9059 23.788C53.1859 24.04 53.5265 24.166 53.9279 24.166C54.5252 24.166 54.9405 23.914 55.1739 23.41H57.7219C57.5912 23.9233 57.3532 24.3853 57.0079 24.796C56.6719 25.2067 56.2472 25.5287 55.7339 25.762C55.2205 25.9953 54.6465 26.112 54.0119 26.112C53.2465 26.112 52.5652 25.9487 51.9679 25.622C51.3705 25.2953 50.9039 24.8287 50.5679 24.222C50.2319 23.6153 50.0639 22.906 50.0639 22.094C50.0639 21.282 50.2272 20.5727 50.5539 19.966C50.8899 19.3593 51.3565 18.8927 51.9539 18.566C52.5512 18.2393 53.2372 18.076 54.0119 18.076C54.7679 18.076 55.4399 18.2347 56.0279 18.552C56.6159 18.8693 57.0732 19.322 57.3999 19.91C57.7359 20.498 57.9039 21.184 57.9039 21.968ZM55.4539 21.338C55.4539 20.9273 55.3139 20.6007 55.0339 20.358C54.7539 20.1153 54.4039 19.994 53.9839 19.994C53.5825 19.994 53.2419 20.1107 52.9619 20.344C52.6912 20.5773 52.5232 20.9087 52.4579 21.338H55.4539ZM58.6908 22.08C58.6908 21.2773 58.8402 20.5727 59.1388 19.966C59.4468 19.3593 59.8622 18.8927 60.3848 18.566C60.9075 18.2393 61.4908 18.076 62.1348 18.076C62.6855 18.076 63.1662 18.188 63.5768 18.412C63.9968 18.636 64.3188 18.93 64.5428 19.294V18.188H66.9368V26H64.5428V24.894C64.3095 25.258 63.9828 25.552 63.5628 25.776C63.1522 26 62.6715 26.112 62.1208 26.112C61.4862 26.112 60.9075 25.9487 60.3848 25.622C59.8622 25.286 59.4468 24.8147 59.1388 24.208C58.8402 23.592 58.6908 22.8827 58.6908 22.08ZM64.5428 22.094C64.5428 21.4967 64.3748 21.0253 64.0388 20.68C63.7122 20.3347 63.3108 20.162 62.8348 20.162C62.3588 20.162 61.9528 20.3347 61.6168 20.68C61.2902 21.016 61.1268 21.4827 61.1268 22.08C61.1268 22.6773 61.2902 23.1533 61.6168 23.508C61.9528 23.8533 62.3588 24.026 62.8348 24.026C63.3108 24.026 63.7122 23.8533 64.0388 23.508C64.3748 23.1627 64.5428 22.6913 64.5428 22.094ZM71.0628 19.49C71.3428 19.0607 71.6928 18.7247 72.1128 18.482C72.5328 18.23 72.9994 18.104 73.5128 18.104V20.638H72.8548C72.2574 20.638 71.8094 20.7687 71.5108 21.03C71.2121 21.282 71.0628 21.73 71.0628 22.374V26H68.6688V18.188H71.0628V19.49ZM79.4171 18.104C80.3317 18.104 81.0597 18.4027 81.6011 19C82.1517 19.588 82.4271 20.4 82.4271 21.436V26H80.0471V21.758C80.0471 21.2353 79.9117 20.8293 79.6411 20.54C79.3704 20.2507 79.0064 20.106 78.5491 20.106C78.0917 20.106 77.7277 20.2507 77.4571 20.54C77.1864 20.8293 77.0511 21.2353 77.0511 21.758V26H74.6571V18.188H77.0511V19.224C77.2937 18.8787 77.6204 18.608 78.0311 18.412C78.4417 18.2067 78.9037 18.104 79.4171 18.104ZM98.1875 16.172V26H95.7935V20.106L93.5955 26H91.6635L89.4515 20.092V26H87.0575V16.172H89.8855L92.6435 22.976L95.3735 16.172H98.1875ZM103.465 26.112C102.7 26.112 102.009 25.9487 101.393 25.622C100.786 25.2953 100.306 24.8287 99.951 24.222C99.6057 23.6153 99.433 22.906 99.433 22.094C99.433 21.2913 99.6103 20.5867 99.965 19.98C100.32 19.364 100.805 18.8927 101.421 18.566C102.037 18.2393 102.728 18.076 103.493 18.076C104.258 18.076 104.949 18.2393 105.565 18.566C106.181 18.8927 106.666 19.364 107.021 19.98C107.376 20.5867 107.553 21.2913 107.553 22.094C107.553 22.8967 107.371 23.606 107.007 24.222C106.652 24.8287 106.162 25.2953 105.537 25.622C104.921 25.9487 104.23 26.112 103.465 26.112ZM103.465 24.04C103.922 24.04 104.31 23.872 104.627 23.536C104.954 23.2 105.117 22.7193 105.117 22.094C105.117 21.4687 104.958 20.988 104.641 20.652C104.333 20.316 103.95 20.148 103.493 20.148C103.026 20.148 102.639 20.316 102.331 20.652C102.023 20.9787 101.869 21.4593 101.869 22.094C101.869 22.7193 102.018 23.2 102.317 23.536C102.625 23.872 103.008 24.04 103.465 24.04ZM111.217 19.49C111.497 19.0607 111.847 18.7247 112.267 18.482C112.687 18.23 113.154 18.104 113.667 18.104V20.638H113.009C112.412 20.638 111.964 20.7687 111.665 21.03C111.366 21.282 111.217 21.73 111.217 22.374V26H108.823V18.188H111.217V19.49ZM122.175 21.968C122.175 22.192 122.161 22.4253 122.133 22.668H116.715C116.753 23.1533 116.907 23.5267 117.177 23.788C117.457 24.04 117.798 24.166 118.199 24.166C118.797 24.166 119.212 23.914 119.445 23.41H121.993C121.863 23.9233 121.625 24.3853 121.279 24.796C120.943 25.2067 120.519 25.5287 120.005 25.762C119.492 25.9953 118.918 26.112 118.283 26.112C117.518 26.112 116.837 25.9487 116.239 25.622C115.642 25.2953 115.175 24.8287 114.839 24.222C114.503 23.6153 114.335 22.906 114.335 22.094C114.335 21.282 114.499 20.5727 114.825 19.966C115.161 19.3593 115.628 18.8927 116.225 18.566C116.823 18.2393 117.509 18.076 118.283 18.076C119.039 18.076 119.711 18.2347 120.299 18.552C120.887 18.8693 121.345 19.322 121.671 19.91C122.007 20.498 122.175 21.184 122.175 21.968ZM119.725 21.338C119.725 20.9273 119.585 20.6007 119.305 20.358C119.025 20.1153 118.675 19.994 118.255 19.994C117.854 19.994 117.513 20.1107 117.233 20.344C116.963 20.5773 116.795 20.9087 116.729 21.338H119.725Z" fill="white"/>
</svg>
