<svg width="165" height="44" viewBox="0 0 165 44" fill="none" xmlns="http://www.w3.org/2000/svg">
<rect width="165" height="44" rx="22" fill="white" fill-opacity="0.7"/>
<path opacity="0.3" d="M46.262 25.152H49.398V27H43.868V17.172H46.262V25.152ZM57.9039 22.968C57.9039 23.192 57.8899 23.4253 57.8619 23.668H52.4439C52.4812 24.1533 52.6352 24.5267 52.9059 24.788C53.1859 25.04 53.5265 25.166 53.9279 25.166C54.5252 25.166 54.9405 24.914 55.1739 24.41H57.7219C57.5912 24.9233 57.3532 25.3853 57.0079 25.796C56.6719 26.2067 56.2472 26.5287 55.7339 26.762C55.2205 26.9953 54.6465 27.112 54.0119 27.112C53.2465 27.112 52.5652 26.9487 51.9679 26.622C51.3705 26.2953 50.9039 25.8287 50.5679 25.222C50.2319 24.6153 50.0639 23.906 50.0639 23.094C50.0639 22.282 50.2272 21.5727 50.5539 20.966C50.8899 20.3593 51.3565 19.8927 51.9539 19.566C52.5512 19.2393 53.2372 19.076 54.0119 19.076C54.7679 19.076 55.4399 19.2347 56.0279 19.552C56.6159 19.8693 57.0732 20.322 57.3999 20.91C57.7359 21.498 57.9039 22.184 57.9039 22.968ZM55.4539 22.338C55.4539 21.9273 55.3139 21.6007 55.0339 21.358C54.7539 21.1153 54.4039 20.994 53.9839 20.994C53.5825 20.994 53.2419 21.1107 52.9619 21.344C52.6912 21.5773 52.5232 21.9087 52.4579 22.338H55.4539ZM58.6908 23.08C58.6908 22.2773 58.8402 21.5727 59.1388 20.966C59.4468 20.3593 59.8622 19.8927 60.3848 19.566C60.9075 19.2393 61.4908 19.076 62.1348 19.076C62.6855 19.076 63.1662 19.188 63.5768 19.412C63.9968 19.636 64.3188 19.93 64.5428 20.294V19.188H66.9368V27H64.5428V25.894C64.3095 26.258 63.9828 26.552 63.5628 26.776C63.1522 27 62.6715 27.112 62.1208 27.112C61.4862 27.112 60.9075 26.9487 60.3848 26.622C59.8622 26.286 59.4468 25.8147 59.1388 25.208C58.8402 24.592 58.6908 23.8827 58.6908 23.08ZM64.5428 23.094C64.5428 22.4967 64.3748 22.0253 64.0388 21.68C63.7122 21.3347 63.3108 21.162 62.8348 21.162C62.3588 21.162 61.9528 21.3347 61.6168 21.68C61.2902 22.016 61.1268 22.4827 61.1268 23.08C61.1268 23.6773 61.2902 24.1533 61.6168 24.508C61.9528 24.8533 62.3588 25.026 62.8348 25.026C63.3108 25.026 63.7122 24.8533 64.0388 24.508C64.3748 24.1627 64.5428 23.6913 64.5428 23.094ZM71.0628 20.49C71.3428 20.0607 71.6928 19.7247 72.1128 19.482C72.5328 19.23 72.9994 19.104 73.5128 19.104V21.638H72.8548C72.2574 21.638 71.8094 21.7687 71.5108 22.03C71.2121 22.282 71.0628 22.73 71.0628 23.374V27H68.6688V19.188H71.0628V20.49ZM79.4171 19.104C80.3317 19.104 81.0597 19.4027 81.6011 20C82.1517 20.588 82.4271 21.4 82.4271 22.436V27H80.0471V22.758C80.0471 22.2353 79.9117 21.8293 79.6411 21.54C79.3704 21.2507 79.0064 21.106 78.5491 21.106C78.0917 21.106 77.7277 21.2507 77.4571 21.54C77.1864 21.8293 77.0511 22.2353 77.0511 22.758V27H74.6571V19.188H77.0511V20.224C77.2937 19.8787 77.6204 19.608 78.0311 19.412C78.4417 19.2067 78.9037 19.104 79.4171 19.104ZM98.1875 17.172V27H95.7935V21.106L93.5955 27H91.6635L89.4515 21.092V27H87.0575V17.172H89.8855L92.6435 23.976L95.3735 17.172H98.1875ZM103.465 27.112C102.7 27.112 102.009 26.9487 101.393 26.622C100.786 26.2953 100.306 25.8287 99.951 25.222C99.6057 24.6153 99.433 23.906 99.433 23.094C99.433 22.2913 99.6103 21.5867 99.965 20.98C100.32 20.364 100.805 19.8927 101.421 19.566C102.037 19.2393 102.728 19.076 103.493 19.076C104.258 19.076 104.949 19.2393 105.565 19.566C106.181 19.8927 106.666 20.364 107.021 20.98C107.376 21.5867 107.553 22.2913 107.553 23.094C107.553 23.8967 107.371 24.606 107.007 25.222C106.652 25.8287 106.162 26.2953 105.537 26.622C104.921 26.9487 104.23 27.112 103.465 27.112ZM103.465 25.04C103.922 25.04 104.31 24.872 104.627 24.536C104.954 24.2 105.117 23.7193 105.117 23.094C105.117 22.4687 104.958 21.988 104.641 21.652C104.333 21.316 103.95 21.148 103.493 21.148C103.026 21.148 102.639 21.316 102.331 21.652C102.023 21.9787 101.869 22.4593 101.869 23.094C101.869 23.7193 102.018 24.2 102.317 24.536C102.625 24.872 103.008 25.04 103.465 25.04ZM111.217 20.49C111.497 20.0607 111.847 19.7247 112.267 19.482C112.687 19.23 113.154 19.104 113.667 19.104V21.638H113.009C112.412 21.638 111.964 21.7687 111.665 22.03C111.366 22.282 111.217 22.73 111.217 23.374V27H108.823V19.188H111.217V20.49ZM122.175 22.968C122.175 23.192 122.161 23.4253 122.133 23.668H116.715C116.753 24.1533 116.907 24.5267 117.177 24.788C117.457 25.04 117.798 25.166 118.199 25.166C118.797 25.166 119.212 24.914 119.445 24.41H121.993C121.863 24.9233 121.625 25.3853 121.279 25.796C120.943 26.2067 120.519 26.5287 120.005 26.762C119.492 26.9953 118.918 27.112 118.283 27.112C117.518 27.112 116.837 26.9487 116.239 26.622C115.642 26.2953 115.175 25.8287 114.839 25.222C114.503 24.6153 114.335 23.906 114.335 23.094C114.335 22.282 114.499 21.5727 114.825 20.966C115.161 20.3593 115.628 19.8927 116.225 19.566C116.823 19.2393 117.509 19.076 118.283 19.076C119.039 19.076 119.711 19.2347 120.299 19.552C120.887 19.8693 121.345 20.322 121.671 20.91C122.007 21.498 122.175 22.184 122.175 22.968ZM119.725 22.338C119.725 21.9273 119.585 21.6007 119.305 21.358C119.025 21.1153 118.675 20.994 118.255 20.994C117.854 20.994 117.513 21.1107 117.233 21.344C116.963 21.5773 116.795 21.9087 116.729 22.338H119.725Z" fill="#09213D"/>
</svg>
