<svg width="784" height="214" viewBox="0 0 784 214" fill="none" xmlns="http://www.w3.org/2000/svg">
<path d="M504 71H586L573.452 59" stroke="white"/>
<path d="M586 99L504 99L516.548 111" stroke="white"/>
<path d="M512.218 80.576V89H510.166V80.576H512.218ZM517.785 82.232C518.569 82.232 519.193 82.488 519.657 83C520.129 83.504 520.365 84.2 520.365 85.088V89H518.325V85.364C518.325 84.916 518.209 84.568 517.977 84.32C517.745 84.072 517.433 83.948 517.041 83.948C516.649 83.948 516.337 84.072 516.105 84.32C515.873 84.568 515.757 84.916 515.757 85.364V89H513.705V82.304H515.757V83.192C515.965 82.896 516.245 82.664 516.597 82.496C516.949 82.32 517.345 82.232 517.785 82.232ZM524.803 87.08L526.255 82.304H528.439L526.063 89H523.531L521.155 82.304H523.351L524.803 87.08ZM535.615 85.544C535.615 85.736 535.603 85.936 535.579 86.144H530.935C530.967 86.56 531.099 86.88 531.331 87.104C531.571 87.32 531.863 87.428 532.207 87.428C532.719 87.428 533.075 87.212 533.275 86.78H535.459C535.347 87.22 535.143 87.616 534.847 87.968C534.559 88.32 534.195 88.596 533.755 88.796C533.315 88.996 532.823 89.096 532.279 89.096C531.623 89.096 531.039 88.956 530.527 88.676C530.015 88.396 529.615 87.996 529.327 87.476C529.039 86.956 528.895 86.348 528.895 85.652C528.895 84.956 529.035 84.348 529.315 83.828C529.603 83.308 530.003 82.908 530.515 82.628C531.027 82.348 531.615 82.208 532.279 82.208C532.927 82.208 533.503 82.344 534.007 82.616C534.511 82.888 534.903 83.276 535.183 83.78C535.471 84.284 535.615 84.872 535.615 85.544ZM533.515 85.004C533.515 84.652 533.395 84.372 533.155 84.164C532.915 83.956 532.615 83.852 532.255 83.852C531.911 83.852 531.619 83.952 531.379 84.152C531.147 84.352 531.003 84.636 530.947 85.004H533.515ZM539.421 89.096C538.837 89.096 538.317 88.996 537.861 88.796C537.405 88.596 537.045 88.324 536.781 87.98C536.517 87.628 536.369 87.236 536.337 86.804H538.365C538.389 87.036 538.497 87.224 538.689 87.368C538.881 87.512 539.117 87.584 539.397 87.584C539.653 87.584 539.849 87.536 539.985 87.44C540.129 87.336 540.201 87.204 540.201 87.044C540.201 86.852 540.101 86.712 539.901 86.624C539.701 86.528 539.377 86.424 538.929 86.312C538.449 86.2 538.049 86.084 537.729 85.964C537.409 85.836 537.133 85.64 536.901 85.376C536.669 85.104 536.553 84.74 536.553 84.284C536.553 83.9 536.657 83.552 536.865 83.24C537.081 82.92 537.393 82.668 537.801 82.484C538.217 82.3 538.709 82.208 539.277 82.208C540.117 82.208 540.777 82.416 541.257 82.832C541.745 83.248 542.025 83.8 542.097 84.488H540.201C540.169 84.256 540.065 84.072 539.889 83.936C539.721 83.8 539.497 83.732 539.217 83.732C538.977 83.732 538.793 83.78 538.665 83.876C538.537 83.964 538.473 84.088 538.473 84.248C538.473 84.44 538.573 84.584 538.773 84.68C538.981 84.776 539.301 84.872 539.733 84.968C540.229 85.096 540.633 85.224 540.945 85.352C541.257 85.472 541.529 85.672 541.761 85.952C542.001 86.224 542.125 86.592 542.133 87.056C542.133 87.448 542.021 87.8 541.797 88.112C541.581 88.416 541.265 88.656 540.849 88.832C540.441 89.008 539.965 89.096 539.421 89.096ZM547.121 87.26V89H546.077C545.333 89 544.753 88.82 544.337 88.46C543.921 88.092 543.713 87.496 543.713 86.672V84.008H542.897V82.304H543.713V80.672H545.765V82.304H547.109V84.008H545.765V86.696C545.765 86.896 545.813 87.04 545.909 87.128C546.005 87.216 546.165 87.26 546.389 87.26H547.121ZM556.808 82.232C557.64 82.232 558.3 82.484 558.788 82.988C559.284 83.492 559.532 84.192 559.532 85.088V89H557.492V85.364C557.492 84.932 557.376 84.6 557.144 84.368C556.92 84.128 556.608 84.008 556.208 84.008C555.808 84.008 555.492 84.128 555.26 84.368C555.036 84.6 554.924 84.932 554.924 85.364V89H552.884V85.364C552.884 84.932 552.768 84.6 552.536 84.368C552.312 84.128 552 84.008 551.6 84.008C551.2 84.008 550.884 84.128 550.652 84.368C550.428 84.6 550.316 84.932 550.316 85.364V89H548.264V82.304H550.316V83.144C550.524 82.864 550.796 82.644 551.132 82.484C551.468 82.316 551.848 82.232 552.272 82.232C552.776 82.232 553.224 82.34 553.616 82.556C554.016 82.772 554.328 83.08 554.552 83.48C554.784 83.112 555.1 82.812 555.5 82.58C555.9 82.348 556.336 82.232 556.808 82.232ZM567.279 85.544C567.279 85.736 567.267 85.936 567.243 86.144H562.599C562.631 86.56 562.763 86.88 562.995 87.104C563.235 87.32 563.527 87.428 563.871 87.428C564.383 87.428 564.739 87.212 564.939 86.78H567.123C567.011 87.22 566.807 87.616 566.511 87.968C566.223 88.32 565.859 88.596 565.419 88.796C564.979 88.996 564.487 89.096 563.943 89.096C563.287 89.096 562.703 88.956 562.191 88.676C561.679 88.396 561.279 87.996 560.991 87.476C560.703 86.956 560.559 86.348 560.559 85.652C560.559 84.956 560.699 84.348 560.979 83.828C561.267 83.308 561.667 82.908 562.179 82.628C562.691 82.348 563.279 82.208 563.943 82.208C564.591 82.208 565.167 82.344 565.671 82.616C566.175 82.888 566.567 83.276 566.847 83.78C567.135 84.284 567.279 84.872 567.279 85.544ZM565.179 85.004C565.179 84.652 565.059 84.372 564.819 84.164C564.579 83.956 564.279 83.852 563.919 83.852C563.575 83.852 563.283 83.952 563.043 84.152C562.811 84.352 562.667 84.636 562.611 85.004H565.179ZM572.441 82.232C573.225 82.232 573.849 82.488 574.313 83C574.785 83.504 575.021 84.2 575.021 85.088V89H572.981V85.364C572.981 84.916 572.865 84.568 572.633 84.32C572.401 84.072 572.089 83.948 571.697 83.948C571.305 83.948 570.993 84.072 570.761 84.32C570.529 84.568 570.413 84.916 570.413 85.364V89H568.361V82.304H570.413V83.192C570.621 82.896 570.901 82.664 571.253 82.496C571.605 82.32 572.001 82.232 572.441 82.232ZM580.179 87.26V89H579.135C578.391 89 577.811 88.82 577.395 88.46C576.979 88.092 576.771 87.496 576.771 86.672V84.008H575.955V82.304H576.771V80.672H578.823V82.304H580.167V84.008H578.823V86.696C578.823 86.896 578.871 87.04 578.967 87.128C579.063 87.216 579.223 87.26 579.447 87.26H580.179Z" fill="white"/>
<path d="M198 71H280L267.452 59" stroke="white"/>
<path d="M280 99L198 99L210.548 111" stroke="white"/>
<path d="M206.218 80.576V89H204.166V80.576H206.218ZM211.785 82.232C212.569 82.232 213.193 82.488 213.657 83C214.129 83.504 214.365 84.2 214.365 85.088V89H212.325V85.364C212.325 84.916 212.209 84.568 211.977 84.32C211.745 84.072 211.433 83.948 211.041 83.948C210.649 83.948 210.337 84.072 210.105 84.32C209.873 84.568 209.757 84.916 209.757 85.364V89H207.705V82.304H209.757V83.192C209.965 82.896 210.245 82.664 210.597 82.496C210.949 82.32 211.345 82.232 211.785 82.232ZM218.803 87.08L220.255 82.304H222.439L220.063 89H217.531L215.155 82.304H217.351L218.803 87.08ZM229.615 85.544C229.615 85.736 229.603 85.936 229.579 86.144H224.935C224.967 86.56 225.099 86.88 225.331 87.104C225.571 87.32 225.863 87.428 226.207 87.428C226.719 87.428 227.075 87.212 227.275 86.78H229.459C229.347 87.22 229.143 87.616 228.847 87.968C228.559 88.32 228.195 88.596 227.755 88.796C227.315 88.996 226.823 89.096 226.279 89.096C225.623 89.096 225.039 88.956 224.527 88.676C224.015 88.396 223.615 87.996 223.327 87.476C223.039 86.956 222.895 86.348 222.895 85.652C222.895 84.956 223.035 84.348 223.315 83.828C223.603 83.308 224.003 82.908 224.515 82.628C225.027 82.348 225.615 82.208 226.279 82.208C226.927 82.208 227.503 82.344 228.007 82.616C228.511 82.888 228.903 83.276 229.183 83.78C229.471 84.284 229.615 84.872 229.615 85.544ZM227.515 85.004C227.515 84.652 227.395 84.372 227.155 84.164C226.915 83.956 226.615 83.852 226.255 83.852C225.911 83.852 225.619 83.952 225.379 84.152C225.147 84.352 225.003 84.636 224.947 85.004H227.515ZM233.421 89.096C232.837 89.096 232.317 88.996 231.861 88.796C231.405 88.596 231.045 88.324 230.781 87.98C230.517 87.628 230.369 87.236 230.337 86.804H232.365C232.389 87.036 232.497 87.224 232.689 87.368C232.881 87.512 233.117 87.584 233.397 87.584C233.653 87.584 233.849 87.536 233.985 87.44C234.129 87.336 234.201 87.204 234.201 87.044C234.201 86.852 234.101 86.712 233.901 86.624C233.701 86.528 233.377 86.424 232.929 86.312C232.449 86.2 232.049 86.084 231.729 85.964C231.409 85.836 231.133 85.64 230.901 85.376C230.669 85.104 230.553 84.74 230.553 84.284C230.553 83.9 230.657 83.552 230.865 83.24C231.081 82.92 231.393 82.668 231.801 82.484C232.217 82.3 232.709 82.208 233.277 82.208C234.117 82.208 234.777 82.416 235.257 82.832C235.745 83.248 236.025 83.8 236.097 84.488H234.201C234.169 84.256 234.065 84.072 233.889 83.936C233.721 83.8 233.497 83.732 233.217 83.732C232.977 83.732 232.793 83.78 232.665 83.876C232.537 83.964 232.473 84.088 232.473 84.248C232.473 84.44 232.573 84.584 232.773 84.68C232.981 84.776 233.301 84.872 233.733 84.968C234.229 85.096 234.633 85.224 234.945 85.352C235.257 85.472 235.529 85.672 235.761 85.952C236.001 86.224 236.125 86.592 236.133 87.056C236.133 87.448 236.021 87.8 235.797 88.112C235.581 88.416 235.265 88.656 234.849 88.832C234.441 89.008 233.965 89.096 233.421 89.096ZM241.121 87.26V89H240.077C239.333 89 238.753 88.82 238.337 88.46C237.921 88.092 237.713 87.496 237.713 86.672V84.008H236.897V82.304H237.713V80.672H239.765V82.304H241.109V84.008H239.765V86.696C239.765 86.896 239.813 87.04 239.909 87.128C240.005 87.216 240.165 87.26 240.389 87.26H241.121ZM250.808 82.232C251.64 82.232 252.3 82.484 252.788 82.988C253.284 83.492 253.532 84.192 253.532 85.088V89H251.492V85.364C251.492 84.932 251.376 84.6 251.144 84.368C250.92 84.128 250.608 84.008 250.208 84.008C249.808 84.008 249.492 84.128 249.26 84.368C249.036 84.6 248.924 84.932 248.924 85.364V89H246.884V85.364C246.884 84.932 246.768 84.6 246.536 84.368C246.312 84.128 246 84.008 245.6 84.008C245.2 84.008 244.884 84.128 244.652 84.368C244.428 84.6 244.316 84.932 244.316 85.364V89H242.264V82.304H244.316V83.144C244.524 82.864 244.796 82.644 245.132 82.484C245.468 82.316 245.848 82.232 246.272 82.232C246.776 82.232 247.224 82.34 247.616 82.556C248.016 82.772 248.328 83.08 248.552 83.48C248.784 83.112 249.1 82.812 249.5 82.58C249.9 82.348 250.336 82.232 250.808 82.232ZM261.279 85.544C261.279 85.736 261.267 85.936 261.243 86.144H256.599C256.631 86.56 256.763 86.88 256.995 87.104C257.235 87.32 257.527 87.428 257.871 87.428C258.383 87.428 258.739 87.212 258.939 86.78H261.123C261.011 87.22 260.807 87.616 260.511 87.968C260.223 88.32 259.859 88.596 259.419 88.796C258.979 88.996 258.487 89.096 257.943 89.096C257.287 89.096 256.703 88.956 256.191 88.676C255.679 88.396 255.279 87.996 254.991 87.476C254.703 86.956 254.559 86.348 254.559 85.652C254.559 84.956 254.699 84.348 254.979 83.828C255.267 83.308 255.667 82.908 256.179 82.628C256.691 82.348 257.279 82.208 257.943 82.208C258.591 82.208 259.167 82.344 259.671 82.616C260.175 82.888 260.567 83.276 260.847 83.78C261.135 84.284 261.279 84.872 261.279 85.544ZM259.179 85.004C259.179 84.652 259.059 84.372 258.819 84.164C258.579 83.956 258.279 83.852 257.919 83.852C257.575 83.852 257.283 83.952 257.043 84.152C256.811 84.352 256.667 84.636 256.611 85.004H259.179ZM266.441 82.232C267.225 82.232 267.849 82.488 268.313 83C268.785 83.504 269.021 84.2 269.021 85.088V89H266.981V85.364C266.981 84.916 266.865 84.568 266.633 84.32C266.401 84.072 266.089 83.948 265.697 83.948C265.305 83.948 264.993 84.072 264.761 84.32C264.529 84.568 264.413 84.916 264.413 85.364V89H262.361V82.304H264.413V83.192C264.621 82.896 264.901 82.664 265.253 82.496C265.605 82.32 266.001 82.232 266.441 82.232ZM274.179 87.26V89H273.135C272.391 89 271.811 88.82 271.395 88.46C270.979 88.092 270.771 87.496 270.771 86.672V84.008H269.955V82.304H270.771V80.672H272.823V82.304H274.167V84.008H272.823V86.696C272.823 86.896 272.871 87.04 272.967 87.128C273.063 87.216 273.223 87.26 273.447 87.26H274.179Z" fill="white"/>
<circle cx="391.794" cy="84.7943" r="84.2943" fill="white" fill-opacity="0.2" stroke="white"/>
<path d="M349.726 103.776C349.726 106.296 351.478 108.06 353.962 108.06C355.966 108.06 357.478 106.944 357.958 105.12H355.702C355.354 105.84 354.718 106.2 353.938 106.2C352.678 106.2 351.814 105.264 351.814 103.776C351.814 102.288 352.678 101.352 353.938 101.352C354.718 101.352 355.354 101.712 355.702 102.432H357.958C357.478 100.608 355.966 99.48 353.962 99.48C351.478 99.48 349.726 101.256 349.726 103.776ZM365.767 104.652C365.767 102.528 364.255 101.208 362.287 101.208C360.331 101.208 358.807 102.528 358.807 104.652C358.807 106.776 360.295 108.096 362.263 108.096C364.231 108.096 365.767 106.776 365.767 104.652ZM360.895 104.652C360.895 103.512 361.543 102.984 362.287 102.984C363.007 102.984 363.679 103.512 363.679 104.652C363.679 105.78 362.995 106.32 362.263 106.32C361.519 106.32 360.895 105.78 360.895 104.652ZM366.855 108H368.907V99.12H366.855V108ZM370.394 108H372.446V99.12H370.394V108ZM376.885 102.852C377.569 102.852 378.145 103.272 378.145 104.004H375.577C375.697 103.26 376.213 102.852 376.885 102.852ZM380.089 105.78H377.905C377.737 106.14 377.413 106.428 376.837 106.428C376.177 106.428 375.637 106.02 375.565 105.144H380.209C380.233 104.94 380.245 104.736 380.245 104.544C380.245 102.504 378.865 101.208 376.909 101.208C374.917 101.208 373.525 102.528 373.525 104.652C373.525 106.776 374.941 108.096 376.909 108.096C378.577 108.096 379.765 107.088 380.089 105.78ZM380.92 104.652C380.92 106.776 382.312 108.096 384.28 108.096C385.96 108.096 387.148 107.124 387.496 105.576H385.312C385.132 106.068 384.808 106.344 384.244 106.344C383.512 106.344 383.008 105.768 383.008 104.652C383.008 103.536 383.512 102.96 384.244 102.96C384.808 102.96 385.144 103.26 385.312 103.728H387.496C387.148 102.132 385.96 101.208 384.28 101.208C382.312 101.208 380.92 102.54 380.92 104.652ZM388.918 105.672C388.918 107.412 389.89 108 391.282 108H392.326V106.26H391.594C391.138 106.26 390.97 106.092 390.97 105.696V103.008H392.314V101.304H390.97V99.672H388.918V101.304H388.102V103.008H388.918V105.672ZM400.464 102.312C400.464 102.972 400.104 103.368 399.336 103.368H398.064V101.28H399.336C400.104 101.28 400.464 101.688 400.464 102.312ZM396.012 99.576V108H398.064V104.82H398.556L400.308 108H402.624L400.68 104.664C401.976 104.28 402.552 103.284 402.552 102.228C402.552 100.764 401.52 99.576 399.456 99.576H396.012ZM406.792 102.852C407.476 102.852 408.052 103.272 408.052 104.004H405.484C405.604 103.26 406.12 102.852 406.792 102.852ZM409.996 105.78H407.812C407.644 106.14 407.32 106.428 406.744 106.428C406.084 106.428 405.544 106.02 405.472 105.144H410.116C410.14 104.94 410.152 104.736 410.152 104.544C410.152 102.504 408.772 101.208 406.816 101.208C404.824 101.208 403.432 102.528 403.432 104.652C403.432 106.776 404.848 108.096 406.816 108.096C408.484 108.096 409.672 107.088 409.996 105.78ZM411.558 105.672C411.558 107.412 412.53 108 413.922 108H414.966V106.26H414.234C413.778 106.26 413.61 106.092 413.61 105.696V103.008H414.954V101.304H413.61V99.672H411.558V101.304H410.742V103.008H411.558V105.672ZM422.721 101.304H420.669V104.94C420.669 105.852 420.165 106.356 419.373 106.356C418.605 106.356 418.089 105.852 418.089 104.94V101.304H416.049V105.216C416.049 107.004 417.093 108.072 418.641 108.072C419.541 108.072 420.261 107.664 420.669 107.088V108H422.721V101.304ZM426.247 104.892C426.247 103.74 426.811 103.404 427.783 103.404H428.347V101.232C427.447 101.232 426.715 101.712 426.247 102.42V101.304H424.195V108H426.247V104.892ZM433.948 108H435.988V104.088C435.988 102.288 434.956 101.232 433.408 101.232C432.508 101.232 431.788 101.628 431.38 102.192V101.304H429.328V108H431.38V104.364C431.38 103.452 431.884 102.948 432.664 102.948C433.444 102.948 433.948 103.452 433.948 104.364V108Z" fill="white"/>
<g clip-path="url(#clip0_870_6561)">
<path d="M399.022 85H383.911C382.609 84.998 381.361 84.4799 380.441 83.5594C379.52 82.6388 379.002 81.3908 379 80.0889V55.9111C379.002 54.6092 379.52 53.3612 380.441 52.4406C381.361 51.5201 382.609 51.002 383.911 51H399.022C400.324 51.002 401.572 51.5201 402.493 52.4406C403.413 53.3612 403.931 54.6092 403.933 55.9111V80.0889C403.933 81.3914 403.416 82.6406 402.495 83.5616C401.574 84.4826 400.325 85 399.022 85ZM383.911 53.2667C383.21 53.2687 382.539 53.5479 382.043 54.0434C381.548 54.5389 381.269 55.2104 381.267 55.9111V80.0889C381.269 80.7896 381.548 81.4611 382.043 81.9566C382.539 82.4521 383.21 82.7313 383.911 82.7333H399.022C399.724 82.7333 400.396 82.4547 400.892 81.9588C401.388 81.4629 401.667 80.7902 401.667 80.0889V55.9111C401.667 55.2098 401.388 54.5371 400.892 54.0412C400.396 53.5453 399.724 53.2667 399.022 53.2667H383.911Z" fill="white"/>
<path d="M394.277 54.7778H388.664C388.363 54.7778 388.075 54.6584 387.862 54.4458C387.65 54.2333 387.53 53.945 387.53 53.6444C387.53 53.3439 387.65 53.0556 387.862 52.843C388.075 52.6305 388.363 52.5111 388.664 52.5111H394.277C394.578 52.5111 394.866 52.6305 395.079 52.843C395.291 53.0556 395.411 53.3439 395.411 53.6444C395.411 53.945 395.291 54.2333 395.079 54.4458C394.866 54.6584 394.578 54.7778 394.277 54.7778Z" fill="white"/>
<path d="M395.577 70.3876C395.255 70.1361 394.996 69.8127 394.821 69.4431C394.68 69.1368 394.6 68.8056 394.587 68.4684C394.568 68.1137 394.622 67.7587 394.746 67.4258C394.915 66.988 395.209 66.6097 395.592 66.3378L395.826 66.1791C395.826 66.1791 395.872 66.1413 395.826 66.096C395.549 65.717 395.172 65.4217 394.738 65.2422C394.304 65.058 393.834 64.9728 393.363 64.9929C393.053 65.0168 392.748 65.0829 392.456 65.1893C392.177 65.2875 391.897 65.3933 391.618 65.484C391.463 65.5353 391.296 65.5353 391.142 65.484C390.877 65.4084 390.628 65.3102 390.386 65.2271C390.114 65.122 389.83 65.0534 389.54 65.0231C389.299 65.0041 389.056 65.0271 388.822 65.0911C388.092 65.2532 387.454 65.6954 387.047 66.3227C387.357 66.5616 387.608 66.8683 387.78 67.2193C387.953 67.5703 388.044 67.9563 388.044 68.3475C388.044 68.7915 387.929 69.228 387.711 69.6145C387.492 70.0011 387.178 70.3246 386.797 70.5538C387.04 71.2881 387.403 71.9774 387.87 72.5938C388.061 72.8644 388.276 73.1173 388.512 73.3493C388.676 73.508 388.865 73.6382 389.072 73.7347C389.374 73.8443 389.706 73.8443 390.008 73.7347C390.25 73.6667 390.477 73.5684 390.704 73.4853C391.013 73.3739 391.342 73.3251 391.671 73.3418C391.954 73.3614 392.232 73.4278 392.494 73.5382C392.723 73.6339 392.961 73.7073 393.204 73.7573C393.422 73.8028 393.647 73.7971 393.862 73.7408C394.077 73.6844 394.276 73.5788 394.444 73.4324C394.729 73.1906 394.983 72.9139 395.199 72.6089C395.617 72.0621 395.946 71.4526 396.174 70.8031C396.166 70.7837 396.166 70.7621 396.174 70.7427V70.7049C395.96 70.6295 395.759 70.5226 395.577 70.3876Z" fill="white"/>
<path d="M391.361 64.9551C391.685 64.9711 392.007 64.8951 392.29 64.736C392.868 64.4111 393.318 63.8996 393.567 63.2853C393.658 63.0723 393.71 62.8444 393.718 62.6129C393.718 62.4769 393.718 62.3484 393.718 62.22H393.62C393.57 62.2279 393.519 62.2279 393.469 62.22C393.205 62.2731 392.951 62.3647 392.713 62.492C392.542 62.5808 392.38 62.6871 392.23 62.8093C391.928 63.0663 391.686 63.386 391.52 63.7462C391.346 64.0972 391.27 64.4889 391.301 64.8795C391.301 64.94 391.316 64.9551 391.361 64.9551Z" fill="white"/>
</g>
<circle cx="698.761" cy="84.7943" r="84.2943" fill="white" fill-opacity="0.2" stroke="white"/>
<path d="M634.993 105.492C634.993 102.672 630.829 103.332 630.829 101.868C630.829 101.34 631.201 101.088 631.693 101.1C632.245 101.112 632.629 101.436 632.665 101.976H634.885C634.801 100.368 633.565 99.456 631.729 99.456C629.965 99.456 628.657 100.344 628.657 101.94C628.633 104.928 632.845 104.088 632.845 105.648C632.845 106.14 632.461 106.44 631.861 106.44C631.285 106.44 630.877 106.128 630.817 105.48H628.633C628.693 107.184 630.109 108.084 631.921 108.084C633.889 108.084 634.993 106.908 634.993 105.492ZM639.208 102.852C639.892 102.852 640.468 103.272 640.468 104.004H637.9C638.02 103.26 638.536 102.852 639.208 102.852ZM642.412 105.78H640.228C640.06 106.14 639.736 106.428 639.16 106.428C638.5 106.428 637.96 106.02 637.888 105.144H642.532C642.556 104.94 642.568 104.736 642.568 104.544C642.568 102.504 641.188 101.208 639.232 101.208C637.24 101.208 635.848 102.528 635.848 104.652C635.848 106.776 637.264 108.096 639.232 108.096C640.9 108.096 642.088 107.088 642.412 105.78ZM643.242 104.652C643.242 106.776 644.634 108.096 646.602 108.096C648.282 108.096 649.47 107.124 649.818 105.576H647.634C647.454 106.068 647.13 106.344 646.566 106.344C645.834 106.344 645.33 105.768 645.33 104.652C645.33 103.536 645.834 102.96 646.566 102.96C647.13 102.96 647.466 103.26 647.634 103.728H649.818C649.47 102.132 648.282 101.208 646.602 101.208C644.634 101.208 643.242 102.54 643.242 104.652ZM657.528 101.304H655.476V104.94C655.476 105.852 654.972 106.356 654.18 106.356C653.412 106.356 652.896 105.852 652.896 104.94V101.304H650.856V105.216C650.856 107.004 651.9 108.072 653.448 108.072C654.348 108.072 655.068 107.664 655.476 107.088V108H657.528V101.304ZM661.054 104.892C661.054 103.74 661.618 103.404 662.59 103.404H663.154V101.232C662.254 101.232 661.522 101.712 661.054 102.42V101.304H659.002V108H661.054V104.892ZM667.087 102.852C667.771 102.852 668.347 103.272 668.347 104.004H665.779C665.899 103.26 666.415 102.852 667.087 102.852ZM670.291 105.78H668.107C667.939 106.14 667.615 106.428 667.039 106.428C666.379 106.428 665.839 106.02 665.767 105.144H670.411C670.435 104.94 670.447 104.736 670.447 104.544C670.447 102.504 669.067 101.208 667.111 101.208C665.119 101.208 663.727 102.528 663.727 104.652C663.727 106.776 665.143 108.096 667.111 108.096C668.779 108.096 669.967 107.088 670.291 105.78ZM671.121 104.64C671.121 106.752 672.429 108.096 674.073 108.096C675.057 108.096 675.765 107.652 676.137 107.04V108H678.189V99.12H676.137V102.228C675.729 101.616 674.961 101.208 674.073 101.208C672.429 101.208 671.121 102.528 671.121 104.64ZM676.137 104.652C676.137 105.72 675.453 106.308 674.673 106.308C673.905 106.308 673.209 105.708 673.209 104.64C673.209 103.572 673.905 102.996 674.673 102.996C675.453 102.996 676.137 103.584 676.137 104.652ZM684.269 102.252V99.12H682.217V108H684.269V107.064C684.641 107.652 685.349 108.096 686.333 108.096C687.977 108.096 689.285 106.752 689.285 104.64C689.285 102.528 687.989 101.208 686.333 101.208C685.373 101.208 684.641 101.652 684.269 102.252ZM687.197 104.64C687.197 105.708 686.501 106.308 685.721 106.308C684.953 106.308 684.257 105.72 684.257 104.652C684.257 103.584 684.953 102.996 685.721 102.996C686.501 102.996 687.197 103.572 687.197 104.64ZM693.445 105.492L691.897 101.304H689.605L692.329 107.772L690.793 111.18H693.001L697.201 101.304H694.981L693.445 105.492ZM702.538 102.252V99.12H700.486V108H702.538V107.064C702.91 107.652 703.618 108.096 704.602 108.096C706.246 108.096 707.554 106.752 707.554 104.64C707.554 102.528 706.258 101.208 704.602 101.208C703.642 101.208 702.91 101.652 702.538 102.252ZM705.466 104.64C705.466 105.708 704.77 106.308 703.99 106.308C703.222 106.308 702.526 105.72 702.526 104.652C702.526 103.584 703.222 102.996 703.99 102.996C704.77 102.996 705.466 103.572 705.466 104.64ZM708.631 108H710.683V99.12H708.631V108ZM718.722 104.652C718.722 102.528 717.21 101.208 715.242 101.208C713.286 101.208 711.762 102.528 711.762 104.652C711.762 106.776 713.25 108.096 715.218 108.096C717.186 108.096 718.722 106.776 718.722 104.652ZM713.85 104.652C713.85 103.512 714.498 102.984 715.242 102.984C715.962 102.984 716.634 103.512 716.634 104.652C716.634 105.78 715.95 106.32 715.218 106.32C714.474 106.32 713.85 105.78 713.85 104.652ZM719.402 104.652C719.402 106.776 720.794 108.096 722.762 108.096C724.442 108.096 725.63 107.124 725.978 105.576H723.794C723.614 106.068 723.29 106.344 722.726 106.344C721.994 106.344 721.49 105.768 721.49 104.652C721.49 103.536 721.994 102.96 722.726 102.96C723.29 102.96 723.626 103.26 723.794 103.728H725.978C725.63 102.132 724.442 101.208 722.762 101.208C720.794 101.208 719.402 102.54 719.402 104.652ZM727.076 108H729.128V105.192L731.168 108H733.712L730.904 104.664L733.688 101.304H731.156L729.128 104.028V99.12H727.076V108ZM734.086 104.652C734.086 106.776 735.478 108.096 737.446 108.096C739.126 108.096 740.314 107.124 740.662 105.576H738.478C738.298 106.068 737.974 106.344 737.41 106.344C736.678 106.344 736.174 105.768 736.174 104.652C736.174 103.536 736.678 102.96 737.41 102.96C737.974 102.96 738.31 103.26 738.478 103.728H740.662C740.314 102.132 739.126 101.208 737.446 101.208C735.478 101.208 734.086 102.54 734.086 104.652ZM741.76 108H743.812V104.364C743.812 103.452 744.316 102.948 745.096 102.948C745.876 102.948 746.38 103.452 746.38 104.364V108H748.42V104.088C748.42 102.288 747.4 101.232 745.876 101.232C744.952 101.232 744.22 101.628 743.812 102.204V99.12H741.76V108ZM749.438 104.64C749.438 106.752 750.746 108.096 752.378 108.096C753.374 108.096 754.082 107.64 754.454 107.052V108H756.506V101.304H754.454V102.252C754.094 101.664 753.386 101.208 752.39 101.208C750.746 101.208 749.438 102.528 749.438 104.64ZM754.454 104.652C754.454 105.72 753.77 106.308 752.99 106.308C752.222 106.308 751.526 105.708 751.526 104.64C751.526 103.572 752.222 102.996 752.99 102.996C753.77 102.996 754.454 103.584 754.454 104.652ZM757.99 108H760.042V101.304H757.99V108ZM759.022 100.608C759.742 100.608 760.234 100.116 760.234 99.504C760.234 98.88 759.742 98.388 759.022 98.388C758.29 98.388 757.798 98.88 757.798 99.504C757.798 100.116 758.29 100.608 759.022 100.608ZM766.149 108H768.189V104.088C768.189 102.288 767.157 101.232 765.609 101.232C764.709 101.232 763.989 101.628 763.581 102.192V101.304H761.529V108H763.581V104.364C763.581 103.452 764.085 102.948 764.865 102.948C765.645 102.948 766.149 103.452 766.149 104.364V108Z" fill="white"/>
<g clip-path="url(#clip1_870_6561)">
<path d="M698.951 68.9878C698.775 68.987 698.603 68.9411 698.45 68.8543L691.455 64.8496C691.304 64.7612 691.177 64.6346 691.09 64.4824C691.002 64.3302 690.955 64.1576 690.955 63.9819C690.956 63.8063 691.003 63.6341 691.091 63.482C691.178 63.3299 691.304 63.2032 691.455 63.1142L698.45 59.1095C698.602 59.021 698.775 58.9744 698.951 58.9744C699.127 58.9744 699.299 59.021 699.451 59.1095L706.44 63.1142C706.592 63.2022 706.718 63.3286 706.806 63.481C706.894 63.6333 706.94 63.8061 706.94 63.9819C706.941 64.1579 706.895 64.3309 706.807 64.4834C706.719 64.6358 706.592 64.7622 706.44 64.8496L699.451 68.8543C699.299 68.9411 699.126 68.987 698.951 68.9878ZM693.958 63.9485L698.951 66.8319L703.93 63.9485L698.944 61.0718L693.958 63.9485Z" fill="white"/>
<path d="M698.951 77.0573C698.775 77.0598 698.602 77.0136 698.45 76.9238C698.297 76.8369 698.17 76.7107 698.082 76.5581C697.994 76.4055 697.948 76.2322 697.95 76.0561V67.9866C697.949 67.8106 697.995 67.6376 698.083 67.4852C698.171 67.3327 698.298 67.2063 698.45 67.1189L705.439 63.1142C705.592 63.0289 705.764 62.9841 705.939 62.9841C706.114 62.9841 706.287 63.0289 706.44 63.1142C706.592 63.2022 706.718 63.3286 706.806 63.481C706.894 63.6333 706.94 63.8061 706.94 63.9819V72.0581C706.94 72.2339 706.894 72.4067 706.806 72.559C706.718 72.7114 706.592 72.8378 706.44 72.9258L699.452 76.9305C699.299 77.0179 699.126 77.0618 698.951 77.0573ZM699.952 68.5673V74.3274L704.938 71.444V65.684L699.952 68.5673Z" fill="white"/>
<path d="M698.951 77.0572C698.775 77.0597 698.602 77.0135 698.45 76.9237L691.455 72.919C691.304 72.8301 691.178 72.7034 691.091 72.5513C691.003 72.3992 690.956 72.227 690.955 72.0514V63.9753C690.956 63.7997 691.003 63.6274 691.091 63.4753C691.178 63.3232 691.304 63.1965 691.455 63.1075C691.608 63.0222 691.781 62.9774 691.956 62.9774C692.131 62.9774 692.304 63.0222 692.457 63.1075L699.451 67.1122C699.603 67.2007 699.729 67.3273 699.817 67.4795C699.905 67.6317 699.951 67.8042 699.952 67.9799V76.0494C699.952 76.2252 699.906 76.398 699.818 76.5503C699.73 76.7027 699.604 76.8291 699.451 76.9171C699.301 77.0092 699.127 77.0577 698.951 77.0572ZM692.944 71.444L697.936 74.3274V68.5673L692.944 65.6839V71.444Z" fill="white"/>
<path d="M698.951 57.2006C698.685 57.2006 698.431 57.0951 698.243 56.9074C698.055 56.7196 697.95 56.4649 697.95 56.1994V52.0012C697.95 51.7356 698.055 51.481 698.243 51.2932C698.431 51.1055 698.685 51 698.951 51C699.216 51 699.471 51.1055 699.659 51.2932C699.847 51.481 699.952 51.7356 699.952 52.0012V56.1994C699.952 56.4649 699.847 56.7196 699.659 56.9074C699.471 57.0951 699.216 57.2006 698.951 57.2006Z" fill="white"/>
<path d="M702.595 55.1048C702.42 55.1032 702.248 55.0573 702.095 54.9713L698.464 52.8689C698.35 52.8032 698.25 52.7156 698.17 52.6113C698.089 52.507 698.031 52.3879 697.997 52.2608C697.962 52.1337 697.954 52.0012 697.971 51.8707C697.988 51.7403 698.031 51.6145 698.097 51.5006C698.23 51.2804 698.443 51.1201 698.692 51.0529C698.94 50.9858 699.205 51.017 699.432 51.1401L703.062 53.2359C703.284 53.3683 703.446 53.581 703.514 53.8297C703.582 54.0784 703.552 54.3439 703.43 54.5708C703.349 54.7246 703.229 54.8546 703.083 54.9482C702.937 55.0419 702.769 55.0958 702.595 55.1048Z" fill="white"/>
<path d="M695.32 55.1048C695.144 55.1056 694.971 55.0597 694.819 54.9718C694.666 54.8838 694.54 54.757 694.452 54.6042C694.329 54.3781 694.298 54.1132 694.365 53.8646C694.432 53.616 694.593 53.4028 694.813 53.2693L698.45 51.1735C698.68 51.0401 698.953 51.003 699.209 51.0706C699.466 51.1382 699.685 51.3049 699.819 51.534C699.885 51.6479 699.927 51.7737 699.944 51.9041C699.962 52.0346 699.953 52.1671 699.919 52.2942C699.885 52.4213 699.826 52.5404 699.746 52.6447C699.666 52.749 699.566 52.8366 699.452 52.9022L695.814 55.0047C695.66 55.0791 695.491 55.1135 695.32 55.1048Z" fill="white"/>
<path d="M709.363 63.0141C709.187 63.0136 709.015 62.9671 708.863 62.8793C708.71 62.7914 708.584 62.6654 708.495 62.5136C708.375 62.2863 708.345 62.0213 708.414 61.7731C708.482 61.5249 708.642 61.3122 708.863 61.1787L712.5 59.0829C712.727 58.9603 712.993 58.9301 713.241 58.9985C713.49 59.0669 713.703 59.2286 713.835 59.4499C713.958 59.6769 713.988 59.9424 713.919 60.1911C713.851 60.4398 713.689 60.6525 713.468 60.7848L709.83 62.8873C709.687 62.9664 709.527 63.0099 709.363 63.0141Z" fill="white"/>
<path d="M713.001 65.1098C712.735 65.1098 712.48 65.0043 712.293 64.8166C712.105 64.6288 712 64.3742 712 64.1086V59.9171C712 59.6515 712.105 59.3969 712.293 59.2091C712.48 59.0214 712.735 58.9159 713.001 58.9159C713.266 58.9159 713.521 59.0214 713.709 59.2091C713.896 59.3969 714.002 59.6515 714.002 59.9171V64.0819C714.005 64.2156 713.982 64.3487 713.933 64.4733C713.885 64.5978 713.812 64.7114 713.718 64.8072C713.625 64.903 713.513 64.9792 713.39 65.0311C713.267 65.0831 713.134 65.1098 713.001 65.1098Z" fill="white"/>
<path d="M713.001 60.9183C712.824 60.9184 712.651 60.8699 712.5 60.7781L708.863 58.6823C708.642 58.5488 708.482 58.3361 708.414 58.0879C708.345 57.8397 708.375 57.5747 708.495 57.3474C708.629 57.1273 708.842 56.9666 709.09 56.8984C709.338 56.8301 709.603 56.8594 709.83 56.9803L713.468 59.0828C713.688 59.2163 713.849 59.429 713.917 59.6772C713.985 59.9255 713.956 60.1904 713.835 60.4177C713.75 60.5648 713.628 60.6878 713.482 60.7753C713.336 60.8629 713.171 60.912 713.001 60.9183Z" fill="white"/>
<path d="M688.579 63.0142C688.404 63.0125 688.231 62.9666 688.078 62.8807L684.447 60.7782C684.224 60.6482 684.06 60.4355 683.991 60.1858C683.922 59.9361 683.954 59.6695 684.08 59.4433C684.145 59.3286 684.233 59.2281 684.337 59.1474C684.441 59.0667 684.56 59.0076 684.688 58.9734C684.815 58.9393 684.948 58.9307 685.078 58.9484C685.209 58.966 685.335 59.0095 685.449 59.0762L689.08 61.172C689.301 61.3044 689.463 61.5171 689.531 61.7657C689.599 62.0144 689.569 62.2799 689.447 62.5069C689.36 62.6604 689.233 62.7882 689.081 62.8773C688.929 62.9664 688.755 63.0136 688.579 63.0142Z" fill="white"/>
<path d="M684.968 65.1098C684.702 65.1098 684.448 65.0043 684.26 64.8166C684.072 64.6288 683.967 64.3742 683.967 64.1086V59.9171C683.967 59.6515 684.072 59.3969 684.26 59.2091C684.448 59.0214 684.702 58.9159 684.968 58.9159C685.233 58.9159 685.488 59.0214 685.676 59.2091C685.864 59.3969 685.969 59.6515 685.969 59.9171V64.0819C685.973 64.2156 685.949 64.3487 685.901 64.4733C685.852 64.5978 685.779 64.7114 685.685 64.8072C685.592 64.903 685.481 64.9792 685.357 65.0311C685.234 65.0831 685.102 65.1098 684.968 65.1098Z" fill="white"/>
<path d="M684.968 60.9183C684.792 60.9184 684.619 60.8722 684.467 60.7843C684.315 60.6964 684.188 60.57 684.1 60.4177C683.976 60.1911 683.945 59.925 684.013 59.6759C684.082 59.4267 684.245 59.214 684.467 59.0828L688.098 56.9803C688.212 56.9145 688.338 56.8718 688.468 56.8546C688.599 56.8375 688.731 56.8462 688.859 56.8803C688.986 56.9144 689.105 56.9732 689.209 57.0533C689.313 57.1335 689.401 57.2334 689.467 57.3474C689.589 57.5743 689.619 57.8399 689.551 58.0885C689.483 58.3372 689.321 58.5499 689.099 58.6823L685.469 60.7781C685.317 60.8681 685.144 60.9164 684.968 60.9183Z" fill="white"/>
<path d="M684.968 77.0771C684.792 77.0773 684.619 77.0311 684.467 76.9432C684.315 76.8553 684.188 76.7289 684.1 76.5766C684.034 76.4629 683.99 76.3371 683.973 76.2064C683.955 76.0758 683.963 75.9429 683.998 75.8156C684.032 75.6883 684.091 75.569 684.172 75.4648C684.252 75.3605 684.353 75.2733 684.467 75.2083L688.098 73.1125C688.212 73.0467 688.338 73.004 688.469 72.9868C688.599 72.9697 688.732 72.9784 688.859 73.0125C688.986 73.0466 689.105 73.1054 689.209 73.1855C689.313 73.2657 689.401 73.3656 689.467 73.4796C689.589 73.7066 689.619 73.972 689.551 74.2207C689.483 74.4694 689.321 74.6821 689.1 74.8145L685.469 76.9103C685.32 77.0103 685.147 77.0679 684.968 77.0771Z" fill="white"/>
<path d="M684.968 77.0772C684.702 77.0772 684.448 76.9717 684.26 76.784C684.072 76.5962 683.967 76.3416 683.967 76.076V71.8845C683.967 71.6189 684.072 71.3643 684.26 71.1765C684.448 70.9888 684.702 70.8833 684.968 70.8833C685.233 70.8833 685.488 70.9888 685.676 71.1765C685.864 71.3643 685.969 71.6189 685.969 71.8845V76.0961C685.964 76.3581 685.856 76.6077 685.669 76.7911C685.482 76.9746 685.23 77.0773 684.968 77.0772Z" fill="white"/>
<path d="M688.579 79.1731C688.403 79.1746 688.23 79.1284 688.078 79.0396L684.447 76.9438C684.225 76.8126 684.062 76.5999 683.993 76.3507C683.925 76.1015 683.956 75.8355 684.08 75.6089C684.146 75.4949 684.233 75.395 684.338 75.3148C684.442 75.2347 684.561 75.1758 684.688 75.1417C684.815 75.1076 684.948 75.0989 685.078 75.1161C685.209 75.1333 685.335 75.176 685.449 75.2418L689.079 77.3443C689.302 77.4755 689.465 77.6882 689.533 77.9374C689.602 78.1865 689.571 78.4526 689.447 78.6792C689.359 78.8311 689.232 78.957 689.08 79.0438C688.927 79.1306 688.754 79.1752 688.579 79.1731Z" fill="white"/>
<path d="M713.001 77.0772C712.825 77.0797 712.652 77.0335 712.5 76.9437L708.863 74.8479C708.642 74.7144 708.482 74.5017 708.414 74.2535C708.345 74.0053 708.375 73.7403 708.495 73.513C708.629 73.2929 708.842 73.1323 709.09 73.064C709.338 72.9958 709.603 73.0251 709.83 73.146L713.468 75.2417C713.697 75.3756 713.864 75.5944 713.932 75.8505C714.001 76.1066 713.966 76.3795 713.835 76.61C713.746 76.7509 713.622 76.8673 713.477 76.9489C713.331 77.0304 713.168 77.0745 713.001 77.0772Z" fill="white"/>
<path d="M713.001 77.0772C712.735 77.0772 712.48 76.9717 712.293 76.784C712.105 76.5962 712 76.3416 712 76.076V71.8845C712 71.6189 712.105 71.3643 712.293 71.1765C712.48 70.9888 712.735 70.8833 713.001 70.8833C713.266 70.8833 713.521 70.9888 713.709 71.1765C713.896 71.3643 714.002 71.6189 714.002 71.8845V76.0961C713.997 76.3581 713.889 76.6077 713.702 76.7911C713.514 76.9746 713.263 77.0773 713.001 77.0772Z" fill="white"/>
<path d="M709.363 79.173C709.187 79.1738 709.014 79.1279 708.862 79.0399C708.709 78.952 708.583 78.8251 708.496 78.6724C708.365 78.4419 708.329 78.169 708.398 77.9129C708.467 77.6568 708.634 77.438 708.863 77.3041L712.5 75.2083C712.728 75.0875 712.993 75.0581 713.241 75.1264C713.489 75.1947 713.702 75.3553 713.835 75.5754C713.956 75.8027 713.985 76.0677 713.917 76.3159C713.849 76.5641 713.688 76.7768 713.468 76.9103L709.831 79.0061C709.692 79.102 709.531 79.1595 709.363 79.173Z" fill="white"/>
<path d="M698.951 85.1268C698.816 85.1304 698.681 85.1065 698.555 85.0566C698.429 85.0066 698.315 84.9316 698.218 84.8362C698.122 84.7407 698.047 84.6267 697.996 84.5011C697.945 84.3756 697.92 84.241 697.923 84.1055V79.9073C697.923 79.6418 698.029 79.3871 698.216 79.1994C698.404 79.0116 698.659 78.9061 698.924 78.9061C699.19 78.9061 699.444 79.0116 699.632 79.1994C699.82 79.3871 699.925 79.6418 699.925 79.9073V84.1055C699.931 84.37 699.831 84.6257 699.649 84.8171C699.466 85.0084 699.215 85.1198 698.951 85.1268Z" fill="white"/>
<path d="M698.951 85.1267C698.774 85.1269 698.601 85.0784 698.45 84.9866L694.813 82.8908C694.593 82.7573 694.432 82.5441 694.365 82.2955C694.298 82.0469 694.329 81.782 694.452 81.5559C694.584 81.3332 694.796 81.1704 695.046 81.1019C695.295 81.0334 695.561 81.0645 695.787 81.1888L699.425 83.2913C699.646 83.4236 699.808 83.6363 699.876 83.885C699.945 84.1337 699.915 84.3992 699.792 84.6262C699.706 84.7742 699.583 84.8978 699.436 84.9854C699.289 85.073 699.122 85.1216 698.951 85.1267Z" fill="white"/>
<path d="M698.951 85.1267C698.775 85.1268 698.602 85.0805 698.45 84.9927C698.298 84.9048 698.171 84.7784 698.083 84.6261C697.961 84.3991 697.931 84.1336 697.999 83.8849C698.067 83.6362 698.229 83.4236 698.45 83.2912L702.081 81.1887C702.308 81.0662 702.574 81.0359 702.823 81.1043C703.071 81.1727 703.284 81.3344 703.416 81.5558C703.539 81.7827 703.569 82.0482 703.501 82.2969C703.432 82.5456 703.271 82.7583 703.049 82.8907L699.418 84.9865C699.276 85.071 699.116 85.1192 698.951 85.1267Z" fill="white"/>
</g>
<circle cx="84.7943" cy="84.7943" r="84.2943" fill="white" fill-opacity="0.2" stroke="white"/>
<g clip-path="url(#clip2_870_6561)">
<path d="M96.9949 70.4013H72.0049C71.7231 70.4013 71.4528 70.2893 71.2536 70.0901C71.0543 69.8908 70.9424 69.6206 70.9424 69.3388V56.0433C70.9424 55.7615 71.0543 55.4913 71.2536 55.292C71.4528 55.0928 71.7231 54.9808 72.0049 54.9808H96.9949C97.2767 54.9808 97.547 55.0928 97.7462 55.292C97.9455 55.4913 98.0574 55.7615 98.0574 56.0433V69.3388C98.0574 69.6206 97.9455 69.8908 97.7462 70.0901C97.547 70.2893 97.2767 70.4013 96.9949 70.4013ZM73.0674 68.2763H95.9324V57.1058H73.0674V68.2763Z" fill="white"/>
<path d="M97.3846 57.1058H71.6154C70.8057 57.1058 70.0292 56.7842 69.4567 56.2117C68.8842 55.6391 68.5625 54.8626 68.5625 54.0529C68.5644 53.2438 68.8866 52.4684 69.4588 51.8962C70.0309 51.3241 70.8063 51.0019 71.6154 51H97.3846C98.1937 51.0019 98.9691 51.3241 99.5413 51.8962C100.113 52.4684 100.436 53.2438 100.438 54.0529C100.436 54.862 100.113 55.6375 99.5413 56.2096C98.9691 56.7817 98.1937 57.104 97.3846 57.1058ZM71.6154 53.125C71.3693 53.125 71.1333 53.2228 70.9593 53.3968C70.7852 53.5708 70.6875 53.8068 70.6875 54.0529C70.6875 54.299 70.7852 54.535 70.9593 54.7091C71.1333 54.8831 71.3693 54.9808 71.6154 54.9808H97.3846C97.6307 54.9808 97.8667 54.8831 98.0407 54.7091C98.2148 54.535 98.3125 54.299 98.3125 54.0529C98.3125 53.8068 98.2148 53.5708 98.0407 53.3968C97.8667 53.2228 97.6307 53.125 97.3846 53.125H71.6154Z" fill="white"/>
<path d="M97.3846 74.3751H71.6154C70.807 74.3751 70.0315 74.0544 69.4592 73.4834C68.8869 72.9124 68.5644 72.1377 68.5625 71.3293C68.5625 70.5196 68.8842 69.7431 69.4567 69.1705C70.0292 68.598 70.8057 68.2764 71.6154 68.2764H97.3846C98.1937 68.2782 98.9691 68.6005 99.5413 69.1726C100.113 69.7447 100.436 70.5202 100.438 71.3293C100.436 72.1377 100.113 72.9124 99.5408 73.4834C98.9685 74.0544 98.193 74.3751 97.3846 74.3751ZM71.6154 70.4014C71.4933 70.4004 71.3722 70.4238 71.2592 70.4701C71.1462 70.5164 71.0435 70.5847 70.9572 70.671C70.8708 70.7574 70.8025 70.8601 70.7562 70.9731C70.7099 71.0861 70.6866 71.2072 70.6875 71.3293C70.6875 71.4508 70.7116 71.5711 70.7583 71.6833C70.805 71.7955 70.8734 71.8973 70.9597 71.9829C71.046 72.0685 71.1483 72.1362 71.2609 72.1821C71.3734 72.2279 71.4939 72.251 71.6154 72.2501H97.3846C97.6295 72.2501 97.8644 72.1533 98.0382 71.9809C98.212 71.8084 98.3106 71.5742 98.3125 71.3293C98.3125 71.0832 98.2148 70.8472 98.0407 70.6732C97.8667 70.4991 97.6307 70.4014 97.3846 70.4014H71.6154Z" fill="white"/>
<path d="M90.7403 85C90.5554 85.0003 90.3737 84.9521 90.2133 84.8601C90.053 84.7681 89.9196 84.6356 89.8265 84.4758L83.579 73.8508C83.5079 73.7306 83.4614 73.5974 83.4422 73.4591C83.4229 73.3208 83.4314 73.18 83.467 73.0449C83.5025 72.9098 83.5645 72.7832 83.6494 72.6723C83.7343 72.5613 83.8404 72.4684 83.9615 72.3988C84.204 72.2565 84.493 72.2161 84.7651 72.2865C85.0373 72.3569 85.2704 72.5322 85.4136 72.7742L91.654 83.3992C91.7255 83.5195 91.7726 83.6528 91.7925 83.7914C91.8123 83.93 91.8046 84.0712 91.7697 84.2068C91.7348 84.3424 91.6734 84.4698 91.5891 84.5816C91.5049 84.6934 91.3993 84.7875 91.2786 84.8583C91.1151 84.9529 90.9291 85.0018 90.7403 85Z" fill="white"/>
<path d="M78.2527 85C78.0638 85.0018 77.8779 84.9529 77.7144 84.8583C77.4873 84.7087 77.3258 84.4782 77.2627 84.2137C77.1995 83.9492 77.2394 83.6706 77.3744 83.4346L83.6148 72.8096C83.7593 72.5671 83.9937 72.3917 84.267 72.3213C84.5404 72.251 84.8304 72.2916 85.0739 72.4342C85.3159 72.5773 85.4913 72.8105 85.5616 73.0827C85.632 73.3548 85.5916 73.6438 85.4494 73.8862L79.209 84.5112C79.1079 84.6708 78.9658 84.8004 78.7976 84.8863C78.6294 84.9723 78.4412 85.0115 78.2527 85Z" fill="white"/>
<path d="M77.3315 66.4842C77.2256 66.4846 77.1211 66.4612 77.0255 66.4159C76.9298 66.3705 76.8456 66.3043 76.7789 66.2221C76.7197 66.1501 76.6753 66.0671 76.6482 65.9779C76.6211 65.8887 76.6119 65.7949 76.6211 65.7021C76.6304 65.6093 76.6578 65.5193 76.7019 65.4371C76.746 65.355 76.8059 65.2823 76.8781 65.2234L81.6381 61.3417C81.7819 61.2256 81.9652 61.1703 82.1492 61.1875C82.3331 61.2047 82.503 61.2931 82.6227 61.4338L84.6911 63.8421L89.7202 59.4009C89.8612 59.2771 90.0455 59.2142 90.2328 59.2262C90.42 59.2381 90.5949 59.3239 90.719 59.4646C90.8428 59.6056 90.9056 59.7899 90.8936 59.9772C90.8817 60.1644 90.7959 60.3393 90.6552 60.4634L85.0948 65.3792C85.0246 65.4415 84.9428 65.4892 84.854 65.5196C84.7652 65.55 84.6713 65.5625 84.5777 65.5563C84.4832 65.5513 84.3906 65.5274 84.3054 65.4861C84.2203 65.4447 84.1442 65.3867 84.0819 65.3155L81.9994 62.893L77.7494 66.3354C77.6296 66.4285 77.4831 66.4807 77.3315 66.4842Z" fill="white"/>
<path d="M90.4077 60.3146H87.9993C87.8115 60.3146 87.6313 60.24 87.4985 60.1072C87.3657 59.9743 87.291 59.7941 87.291 59.6063C87.291 59.4184 87.3657 59.2383 87.4985 59.1054C87.6313 58.9726 87.8115 58.8979 87.9993 58.8979H90.4006C90.5885 58.8979 90.7686 58.9726 90.9015 59.1054C91.0343 59.2383 91.1089 59.4184 91.1089 59.6063C91.109 59.7929 91.0353 59.972 90.904 60.1047C90.7727 60.2373 90.5943 60.3127 90.4077 60.3146Z" fill="white"/>
<path d="M90.4076 62.7159C90.2197 62.7159 90.0395 62.6412 89.9067 62.5084C89.7738 62.3756 89.6992 62.1954 89.6992 62.0075V59.6063C89.6992 59.4184 89.7738 59.2383 89.9067 59.1054C90.0395 58.9726 90.2197 58.8979 90.4076 58.8979C90.5954 58.8979 90.7756 58.9726 90.9084 59.1054C91.0412 59.2383 91.1159 59.4184 91.1159 59.6063V62.0075C91.1159 62.1954 91.0412 62.3756 90.9084 62.5084C90.7756 62.6412 90.5954 62.7159 90.4076 62.7159Z" fill="white"/>
</g>
<path d="M49.9269 103.344V101.232H51.0429C51.8589 101.232 52.2069 101.64 52.2069 102.288C52.2069 102.936 51.8589 103.344 51.0429 103.344H49.9269ZM54.2949 102.288C54.2949 100.74 53.2629 99.576 51.1989 99.576H47.8749V108H49.9269V104.976H51.1989C53.3469 104.976 54.2949 103.68 54.2949 102.288ZM57.4151 104.892C57.4151 103.74 57.9791 103.404 58.9511 103.404H59.5151V101.232C58.6151 101.232 57.8831 101.712 57.4151 102.42V101.304H55.3631V108H57.4151V104.892ZM67.048 104.652C67.048 102.528 65.536 101.208 63.568 101.208C61.612 101.208 60.088 102.528 60.088 104.652C60.088 106.776 61.576 108.096 63.544 108.096C65.512 108.096 67.048 106.776 67.048 104.652ZM62.176 104.652C62.176 103.512 62.824 102.984 63.568 102.984C64.288 102.984 64.96 103.512 64.96 104.652C64.96 105.78 64.276 106.32 63.544 106.32C62.8 106.32 62.176 105.78 62.176 104.652ZM74.6886 104.652C74.6886 102.528 73.1766 101.208 71.2086 101.208C69.2526 101.208 67.7286 102.528 67.7286 104.652C67.7286 106.776 69.2166 108.096 71.1846 108.096C73.1526 108.096 74.6886 106.776 74.6886 104.652ZM69.8166 104.652C69.8166 103.512 70.4646 102.984 71.2086 102.984C71.9286 102.984 72.6006 103.512 72.6006 104.652C72.6006 105.78 71.9166 106.32 71.1846 106.32C70.4406 106.32 69.8166 105.78 69.8166 104.652ZM75.9812 108H78.0332V103.008H79.1372V101.304H78.0332V101.244C78.0332 100.536 78.3092 100.296 79.1012 100.344V98.604C77.0612 98.496 75.9812 99.36 75.9812 101.112V101.304H75.2372V103.008H75.9812V108ZM89.1964 104.652C89.1964 102.528 87.6844 101.208 85.7164 101.208C83.7604 101.208 82.2364 102.528 82.2364 104.652C82.2364 106.776 83.7244 108.096 85.6924 108.096C87.6604 108.096 89.1964 106.776 89.1964 104.652ZM84.3244 104.652C84.3244 103.512 84.9724 102.984 85.7164 102.984C86.4364 102.984 87.1084 103.512 87.1084 104.652C87.1084 105.78 86.4244 106.32 85.6924 106.32C84.9484 106.32 84.3244 105.78 84.3244 104.652ZM90.489 108H92.541V103.008H93.645V101.304H92.541V101.244C92.541 100.536 92.817 100.296 93.609 100.344V98.604C91.569 98.496 90.489 99.36 90.489 101.112V101.304H89.745V103.008H90.489V108ZM103.272 105.492C103.272 102.672 99.1082 103.332 99.1082 101.868C99.1082 101.34 99.4802 101.088 99.9722 101.1C100.524 101.112 100.908 101.436 100.944 101.976H103.164C103.08 100.368 101.844 99.456 100.008 99.456C98.2442 99.456 96.9362 100.344 96.9362 101.94C96.9122 104.928 101.124 104.088 101.124 105.648C101.124 106.14 100.74 106.44 100.14 106.44C99.5642 106.44 99.1562 106.128 99.0962 105.48H96.9122C96.9722 107.184 98.3882 108.084 100.2 108.084C102.168 108.084 103.272 106.908 103.272 105.492ZM104.127 104.64C104.127 106.752 105.435 108.096 107.067 108.096C108.063 108.096 108.771 107.64 109.143 107.052V108H111.195V101.304H109.143V102.252C108.783 101.664 108.075 101.208 107.079 101.208C105.435 101.208 104.127 102.528 104.127 104.64ZM109.143 104.652C109.143 105.72 108.459 106.308 107.679 106.308C106.911 106.308 106.215 105.708 106.215 104.64C106.215 103.572 106.911 102.996 107.679 102.996C108.459 102.996 109.143 103.584 109.143 104.652ZM112.68 108H114.732V99.12H112.68V108ZM119.171 102.852C119.855 102.852 120.431 103.272 120.431 104.004H117.863C117.983 103.26 118.499 102.852 119.171 102.852ZM122.375 105.78H120.191C120.023 106.14 119.699 106.428 119.123 106.428C118.463 106.428 117.923 106.02 117.851 105.144H122.495C122.519 104.94 122.531 104.736 122.531 104.544C122.531 102.504 121.151 101.208 119.195 101.208C117.203 101.208 115.811 102.528 115.811 104.652C115.811 106.776 117.227 108.096 119.195 108.096C120.863 108.096 122.051 107.088 122.375 105.78Z" fill="white"/>
<defs>
<clipPath id="clip0_870_6561">
<rect width="24.9333" height="34" fill="white" transform="translate(379 51)"/>
</clipPath>
<clipPath id="clip1_870_6561">
<rect width="30.0352" height="34.12" fill="white" transform="translate(683.967 51)"/>
</clipPath>
<clipPath id="clip2_870_6561">
<rect width="31.875" height="34" fill="white" transform="translate(68.5625 51)"/>
</clipPath>
</defs>
</svg>
