<svg width="330" height="153" viewBox="0 0 330 153" fill="none" xmlns="http://www.w3.org/2000/svg">
<circle cx="58.6538" cy="58.6538" r="58.3079" fill="white" fill-opacity="0.2" stroke="white" stroke-width="0.691719"/>
<g clip-path="url(#clip0_937_5308)">
<path d="M67.0933 45.6975H49.8072C49.6123 45.6975 49.4254 45.6201 49.2875 45.4822C49.1497 45.3444 49.0723 45.1575 49.0723 44.9625V35.7658C49.0723 35.5709 49.1497 35.384 49.2875 35.2462C49.4254 35.1083 49.6123 35.0309 49.8072 35.0309H67.0933C67.2882 35.0309 67.4752 35.1083 67.613 35.2462C67.7508 35.384 67.8282 35.5709 67.8282 35.7658V44.9625C67.8282 45.1575 67.7508 45.3444 67.613 45.4822C67.4752 45.6201 67.2882 45.6975 67.0933 45.6975ZM50.5422 44.2276H66.3583V36.5008H50.5422V44.2276Z" fill="white"/>
<path d="M67.3626 36.501H49.5375C48.9775 36.501 48.4403 36.2785 48.0443 35.8825C47.6483 35.4864 47.4258 34.9493 47.4258 34.3892C47.4271 33.8295 47.65 33.2932 48.0457 32.8974C48.4415 32.5017 48.9779 32.2788 49.5375 32.2775H67.3626C67.9222 32.2788 68.4586 32.5017 68.8544 32.8974C69.2501 33.2932 69.473 33.8295 69.4743 34.3892C69.473 34.9489 69.2501 35.4853 68.8544 35.881C68.4586 36.2768 67.9222 36.4997 67.3626 36.501ZM49.5375 33.7474C49.3673 33.7474 49.204 33.815 49.0837 33.9354C48.9633 34.0557 48.8957 34.219 48.8957 34.3892C48.8957 34.5595 48.9633 34.7227 49.0837 34.8431C49.204 34.9635 49.3673 35.0311 49.5375 35.0311H67.3626C67.5328 35.0311 67.6961 34.9635 67.8164 34.8431C67.9368 34.7227 68.0044 34.5595 68.0044 34.3892C68.0044 34.219 67.9368 34.0557 67.8164 33.9354C67.6961 33.815 67.5328 33.7474 67.3626 33.7474H49.5375Z" fill="white"/>
<path d="M67.3626 48.4465H49.5375C48.9783 48.4465 48.4419 48.2247 48.046 47.8297C47.6502 47.4348 47.4271 46.8989 47.4258 46.3397C47.4258 45.7796 47.6483 45.2425 48.0443 44.8464C48.4403 44.4504 48.9775 44.2279 49.5375 44.2279H67.3626C67.9222 44.2292 68.4586 44.4521 68.8544 44.8479C69.2501 45.2436 69.473 45.78 69.4743 46.3397C69.473 46.8989 69.25 47.4348 68.8541 47.8297C68.4582 48.2247 67.9218 48.4465 67.3626 48.4465ZM49.5375 45.6978C49.4531 45.6972 49.3693 45.7133 49.2912 45.7453C49.213 45.7774 49.142 45.8246 49.0822 45.8843C49.0225 45.9441 48.9752 46.0151 48.9432 46.0933C48.9112 46.1714 48.895 46.2552 48.8957 46.3397C48.8957 46.4237 48.9123 46.507 48.9446 46.5846C48.977 46.6622 49.0243 46.7326 49.084 46.7918C49.1436 46.851 49.2144 46.8978 49.2923 46.9295C49.3701 46.9613 49.4535 46.9773 49.5375 46.9766H67.3626C67.5319 46.9766 67.6945 46.9097 67.8147 46.7904C67.9349 46.6711 68.0031 46.509 68.0044 46.3397C68.0044 46.1694 67.9368 46.0062 67.8164 45.8858C67.6961 45.7654 67.5328 45.6978 67.3626 45.6978H49.5375Z" fill="white"/>
<path d="M62.7671 55.7961C62.6392 55.7963 62.5135 55.7629 62.4026 55.6993C62.2917 55.6357 62.1994 55.544 62.135 55.4335L57.8135 48.084C57.7644 48.0008 57.7322 47.9087 57.7189 47.813C57.7056 47.7173 57.7114 47.6199 57.736 47.5265C57.7606 47.4331 57.8035 47.3455 57.8622 47.2687C57.921 47.192 57.9943 47.1277 58.0781 47.0796C58.2458 46.9812 58.4457 46.9532 58.634 47.0019C58.8222 47.0506 58.9835 47.1719 59.0825 47.3392L63.3991 54.6888C63.4486 54.772 63.4812 54.8642 63.4949 54.9601C63.5086 55.056 63.5033 55.1536 63.4792 55.2474C63.455 55.3412 63.4126 55.4293 63.3543 55.5067C63.296 55.584 63.223 55.6491 63.1395 55.6981C63.0263 55.7635 62.8977 55.7973 62.7671 55.7961Z" fill="white"/>
<path d="M54.1289 55.7963C53.9982 55.7976 53.8696 55.7637 53.7565 55.6983C53.5995 55.5948 53.4877 55.4354 53.4441 55.2525C53.4004 55.0695 53.428 54.8768 53.5213 54.7135L57.838 47.364C57.9379 47.1963 58.1001 47.0749 58.2891 47.0263C58.4782 46.9776 58.6788 47.0057 58.8473 47.1043C59.0146 47.2033 59.1359 47.3646 59.1846 47.5529C59.2333 47.7411 59.2054 47.941 59.107 48.1087L54.7904 55.4582C54.7205 55.5686 54.6222 55.6582 54.5058 55.7177C54.3895 55.7772 54.2593 55.8043 54.1289 55.7963Z" fill="white"/>
<path d="M53.4918 42.9882C53.4186 42.9884 53.3463 42.9723 53.2801 42.9409C53.214 42.9095 53.1557 42.8638 53.1096 42.8069C53.0686 42.7571 53.0379 42.6997 53.0192 42.638C53.0004 42.5762 52.9941 42.5114 53.0004 42.4472C53.0068 42.383 53.0258 42.3208 53.0563 42.2639C53.0868 42.2071 53.1282 42.1568 53.1782 42.1161L56.4708 39.431C56.5702 39.3507 56.6971 39.3125 56.8243 39.3244C56.9515 39.3363 57.069 39.3974 57.1518 39.4947L58.5826 41.1606L62.0613 38.0885C62.1588 38.0029 62.2864 37.9594 62.4159 37.9677C62.5454 37.9759 62.6664 38.0353 62.7522 38.1326C62.8378 38.2301 62.8813 38.3576 62.873 38.4872C62.8647 38.6167 62.8054 38.7376 62.7081 38.8235L58.8618 42.2238C58.8133 42.2669 58.7567 42.2999 58.6953 42.321C58.6339 42.342 58.5689 42.3506 58.5041 42.3463C58.4387 42.3429 58.3747 42.3264 58.3158 42.2978C58.2569 42.2692 58.2043 42.229 58.1612 42.1797L56.7207 40.5041L53.7809 42.8853C53.698 42.9497 53.5967 42.9857 53.4918 42.9882Z" fill="white"/>
<path d="M62.5367 38.7203H60.8708C60.7409 38.7203 60.6163 38.6687 60.5244 38.5768C60.4325 38.4849 60.3809 38.3603 60.3809 38.2303C60.3809 38.1004 60.4325 37.9758 60.5244 37.8839C60.6163 37.792 60.7409 37.7404 60.8708 37.7404H62.5318C62.6618 37.7404 62.7864 37.792 62.8783 37.8839C62.9702 37.9758 63.0218 38.1004 63.0218 38.2303C63.0218 38.3594 62.9708 38.4833 62.88 38.5751C62.7892 38.6668 62.6658 38.719 62.5367 38.7203Z" fill="white"/>
<path d="M62.5368 40.3813C62.4069 40.3813 62.2822 40.3297 62.1904 40.2378C62.0985 40.1459 62.0469 40.0213 62.0469 39.8913V38.2303C62.0469 38.1004 62.0985 37.9758 62.1904 37.8839C62.2822 37.792 62.4069 37.7404 62.5368 37.7404C62.6668 37.7404 62.7914 37.792 62.8833 37.8839C62.9752 37.9758 63.0268 38.1004 63.0268 38.2303V39.8913C63.0268 40.0213 62.9752 40.1459 62.8833 40.2378C62.7914 40.3297 62.6668 40.3813 62.5368 40.3813Z" fill="white"/>
</g>
<path d="M35.1179 79.896V78.488H35.8619C36.4059 78.488 36.6379 78.76 36.6379 79.192C36.6379 79.624 36.4059 79.896 35.8619 79.896H35.1179ZM38.0299 79.192C38.0299 78.16 37.3419 77.384 35.9659 77.384H33.7499V83H35.1179V80.984H35.9659C37.3979 80.984 38.0299 80.12 38.0299 79.192ZM40.1101 80.928C40.1101 80.16 40.4861 79.936 41.1341 79.936H41.5101V78.488C40.9101 78.488 40.4221 78.808 40.1101 79.28V78.536H38.7421V83H40.1101V80.928ZM46.532 80.768C46.532 79.352 45.524 78.472 44.212 78.472C42.908 78.472 41.892 79.352 41.892 80.768C41.892 82.184 42.884 83.064 44.196 83.064C45.508 83.064 46.532 82.184 46.532 80.768ZM43.284 80.768C43.284 80.008 43.716 79.656 44.212 79.656C44.692 79.656 45.14 80.008 45.14 80.768C45.14 81.52 44.684 81.88 44.196 81.88C43.7 81.88 43.284 81.52 43.284 80.768ZM51.6257 80.768C51.6257 79.352 50.6177 78.472 49.3057 78.472C48.0017 78.472 46.9857 79.352 46.9857 80.768C46.9857 82.184 47.9777 83.064 49.2897 83.064C50.6017 83.064 51.6257 82.184 51.6257 80.768ZM48.3777 80.768C48.3777 80.008 48.8097 79.656 49.3057 79.656C49.7857 79.656 50.2337 80.008 50.2337 80.768C50.2337 81.52 49.7777 81.88 49.2897 81.88C48.7937 81.88 48.3777 81.52 48.3777 80.768ZM52.4875 83H53.8555V79.672H54.5915V78.536H53.8555V78.496C53.8555 78.024 54.0395 77.864 54.5675 77.896V76.736C53.2075 76.664 52.4875 77.24 52.4875 78.408V78.536H51.9915V79.672H52.4875V83ZM61.2976 80.768C61.2976 79.352 60.2896 78.472 58.9776 78.472C57.6736 78.472 56.6576 79.352 56.6576 80.768C56.6576 82.184 57.6496 83.064 58.9616 83.064C60.2736 83.064 61.2976 82.184 61.2976 80.768ZM58.0496 80.768C58.0496 80.008 58.4816 79.656 58.9776 79.656C59.4576 79.656 59.9056 80.008 59.9056 80.768C59.9056 81.52 59.4496 81.88 58.9616 81.88C58.4656 81.88 58.0496 81.52 58.0496 80.768ZM62.1593 83H63.5273V79.672H64.2633V78.536H63.5273V78.496C63.5273 78.024 63.7113 77.864 64.2393 77.896V76.736C62.8793 76.664 62.1593 77.24 62.1593 78.408V78.536H61.6633V79.672H62.1593V83ZM70.6815 81.328C70.6815 79.448 67.9055 79.888 67.9055 78.912C67.9055 78.56 68.1535 78.392 68.4815 78.4C68.8495 78.408 69.1055 78.624 69.1295 78.984H70.6095C70.5535 77.912 69.7295 77.304 68.5055 77.304C67.3295 77.304 66.4575 77.896 66.4575 78.96C66.4415 80.952 69.2495 80.392 69.2495 81.432C69.2495 81.76 68.9935 81.96 68.5935 81.96C68.2095 81.96 67.9375 81.752 67.8975 81.32H66.4415C66.4815 82.456 67.4255 83.056 68.6335 83.056C69.9455 83.056 70.6815 82.272 70.6815 81.328ZM71.2513 80.76C71.2513 82.168 72.1233 83.064 73.2113 83.064C73.8753 83.064 74.3473 82.76 74.5953 82.368V83H75.9633V78.536H74.5953V79.168C74.3553 78.776 73.8833 78.472 73.2193 78.472C72.1233 78.472 71.2513 79.352 71.2513 80.76ZM74.5953 80.768C74.5953 81.48 74.1393 81.872 73.6193 81.872C73.1073 81.872 72.6433 81.472 72.6433 80.76C72.6433 80.048 73.1073 79.664 73.6193 79.664C74.1393 79.664 74.5953 80.056 74.5953 80.768ZM76.953 83H78.321V77.08H76.953V83ZM81.2804 79.568C81.7364 79.568 82.1204 79.848 82.1204 80.336H80.4084C80.4884 79.84 80.8324 79.568 81.2804 79.568ZM83.4164 81.52H81.9604C81.8484 81.76 81.6324 81.952 81.2484 81.952C80.8084 81.952 80.4484 81.68 80.4004 81.096H83.4964C83.5124 80.96 83.5204 80.824 83.5204 80.696C83.5204 79.336 82.6004 78.472 81.2964 78.472C79.9684 78.472 79.0404 79.352 79.0404 80.768C79.0404 82.184 79.9844 83.064 81.2964 83.064C82.4084 83.064 83.2004 82.392 83.4164 81.52Z" fill="white"/>
<path d="M134.651 80.184C134.651 81.864 135.819 83.04 137.475 83.04C138.811 83.04 139.819 82.296 140.139 81.08H138.635C138.403 81.56 137.979 81.8 137.459 81.8C136.619 81.8 136.043 81.176 136.043 80.184C136.043 79.192 136.619 78.568 137.459 78.568C137.979 78.568 138.403 78.808 138.635 79.288H140.139C139.819 78.072 138.811 77.32 137.475 77.32C135.819 77.32 134.651 78.504 134.651 80.184ZM145.344 80.768C145.344 79.352 144.336 78.472 143.024 78.472C141.72 78.472 140.704 79.352 140.704 80.768C140.704 82.184 141.696 83.064 143.008 83.064C144.32 83.064 145.344 82.184 145.344 80.768ZM142.096 80.768C142.096 80.008 142.528 79.656 143.024 79.656C143.504 79.656 143.952 80.008 143.952 80.768C143.952 81.52 143.496 81.88 143.008 81.88C142.512 81.88 142.096 81.52 142.096 80.768ZM146.07 83H147.438V77.08H146.07V83ZM148.43 83H149.798V77.08H148.43V83ZM152.757 79.568C153.213 79.568 153.597 79.848 153.597 80.336H151.885C151.965 79.84 152.309 79.568 152.757 79.568ZM154.893 81.52H153.437C153.325 81.76 153.109 81.952 152.725 81.952C152.285 81.952 151.925 81.68 151.877 81.096H154.973C154.989 80.96 154.997 80.824 154.997 80.696C154.997 79.336 154.077 78.472 152.773 78.472C151.445 78.472 150.517 79.352 150.517 80.768C150.517 82.184 151.461 83.064 152.773 83.064C153.885 83.064 154.677 82.392 154.893 81.52ZM155.447 80.768C155.447 82.184 156.375 83.064 157.687 83.064C158.807 83.064 159.599 82.416 159.831 81.384H158.375C158.255 81.712 158.039 81.896 157.663 81.896C157.175 81.896 156.839 81.512 156.839 80.768C156.839 80.024 157.175 79.64 157.663 79.64C158.039 79.64 158.263 79.84 158.375 80.152H159.831C159.599 79.088 158.807 78.472 157.687 78.472C156.375 78.472 155.447 79.36 155.447 80.768ZM160.778 81.448C160.778 82.608 161.426 83 162.354 83H163.05V81.84H162.562C162.258 81.84 162.146 81.728 162.146 81.464V79.672H163.042V78.536H162.146V77.448H160.778V78.536H160.234V79.672H160.778V81.448ZM168.476 79.208C168.476 79.648 168.236 79.912 167.724 79.912H166.876V78.52H167.724C168.236 78.52 168.476 78.792 168.476 79.208ZM165.508 77.384V83H166.876V80.88H167.204L168.372 83H169.916L168.62 80.776C169.484 80.52 169.868 79.856 169.868 79.152C169.868 78.176 169.18 77.384 167.804 77.384H165.508ZM172.694 79.568C173.15 79.568 173.534 79.848 173.534 80.336H171.822C171.902 79.84 172.246 79.568 172.694 79.568ZM174.83 81.52H173.374C173.262 81.76 173.046 81.952 172.662 81.952C172.222 81.952 171.862 81.68 171.814 81.096H174.91C174.926 80.96 174.934 80.824 174.934 80.696C174.934 79.336 174.014 78.472 172.71 78.472C171.382 78.472 170.454 79.352 170.454 80.768C170.454 82.184 171.398 83.064 172.71 83.064C173.822 83.064 174.614 82.392 174.83 81.52ZM175.872 81.448C175.872 82.608 176.52 83 177.448 83H178.144V81.84H177.656C177.352 81.84 177.24 81.728 177.24 81.464V79.672H178.136V78.536H177.24V77.448H175.872V78.536H175.328V79.672H175.872V81.448ZM183.314 78.536H181.946V80.96C181.946 81.568 181.61 81.904 181.082 81.904C180.57 81.904 180.226 81.568 180.226 80.96V78.536H178.866V81.144C178.866 82.336 179.562 83.048 180.594 83.048C181.194 83.048 181.674 82.776 181.946 82.392V83H183.314V78.536ZM185.665 80.928C185.665 80.16 186.041 79.936 186.689 79.936H187.065V78.488C186.465 78.488 185.977 78.808 185.665 79.28V78.536H184.297V83H185.665V80.928ZM190.799 83H192.159V80.392C192.159 79.192 191.471 78.488 190.439 78.488C189.839 78.488 189.359 78.752 189.087 79.128V78.536H187.719V83H189.087V80.576C189.087 79.968 189.423 79.632 189.943 79.632C190.463 79.632 190.799 79.968 190.799 80.576V83Z" fill="white"/>
<circle cx="164.654" cy="58.6538" r="58.1538" fill="white" fill-opacity="0.2" stroke="white"/>
<g clip-path="url(#clip1_937_5308)">
<path d="M169.653 55.7959H159.201C158.3 55.7945 157.437 55.4362 156.8 54.7994C156.163 54.1626 155.805 53.2993 155.804 52.3988V35.6746C155.805 34.774 156.163 33.9108 156.8 33.274C157.437 32.6372 158.3 32.2788 159.201 32.2775H169.653C170.554 32.2788 171.417 32.6372 172.054 33.274C172.691 33.9108 173.049 34.774 173.051 35.6746V52.3988C173.051 53.2998 172.693 54.1638 172.056 54.8009C171.418 55.438 170.554 55.7959 169.653 55.7959ZM159.201 33.8454C158.716 33.8467 158.252 34.0399 157.909 34.3827C157.566 34.7254 157.373 35.1899 157.372 35.6746V52.3988C157.373 52.8835 157.566 53.348 157.909 53.6907C158.252 54.0335 158.716 54.2266 159.201 54.228H169.653C170.139 54.228 170.604 54.0353 170.947 53.6923C171.29 53.3492 171.483 52.8839 171.483 52.3988V35.6746C171.483 35.1894 171.29 34.7242 170.947 34.3811C170.604 34.0381 170.139 33.8454 169.653 33.8454H159.201Z" fill="white"/>
<path d="M166.371 34.8904H162.488C162.28 34.8904 162.081 34.8078 161.934 34.6608C161.787 34.5138 161.704 34.3144 161.704 34.1065C161.704 33.8985 161.787 33.6991 161.934 33.5521C162.081 33.4051 162.28 33.3225 162.488 33.3225H166.371C166.579 33.3225 166.779 33.4051 166.926 33.5521C167.073 33.6991 167.155 33.8985 167.155 34.1065C167.155 34.3144 167.073 34.5138 166.926 34.6608C166.779 34.8078 166.579 34.8904 166.371 34.8904Z" fill="white"/>
<path d="M167.27 45.6884C167.047 45.5145 166.868 45.2908 166.748 45.0351C166.65 44.8233 166.595 44.5941 166.586 44.3609C166.572 44.1155 166.609 43.87 166.695 43.6397C166.813 43.3369 167.016 43.0752 167.281 42.8871L167.443 42.7774C167.443 42.7774 167.474 42.7512 167.443 42.7199C167.251 42.4577 166.99 42.2534 166.69 42.1293C166.39 42.0018 166.065 41.9429 165.739 41.9568C165.525 41.9734 165.314 42.0191 165.112 42.0927C164.918 42.1607 164.725 42.2338 164.532 42.2966C164.425 42.332 164.309 42.332 164.202 42.2966C164.019 42.2443 163.847 42.1764 163.68 42.1189C163.492 42.0461 163.295 41.9987 163.094 41.9777C162.927 41.9646 162.759 41.9805 162.598 42.0248C162.093 42.1369 161.652 42.4428 161.37 42.8767C161.584 43.0419 161.758 43.2541 161.877 43.4969C161.997 43.7397 162.059 44.0067 162.06 44.2773C162.06 44.5844 161.98 44.8863 161.829 45.1537C161.678 45.4211 161.46 45.6449 161.197 45.8034C161.365 46.3114 161.616 46.7882 161.939 47.2145C162.071 47.4017 162.22 47.5767 162.384 47.7372C162.497 47.8469 162.628 47.937 162.77 48.0037C162.98 48.0795 163.209 48.0795 163.418 48.0037C163.586 47.9567 163.743 47.8887 163.899 47.8312C164.114 47.7542 164.341 47.7204 164.568 47.7319C164.764 47.7455 164.957 47.7914 165.138 47.8678C165.296 47.934 165.461 47.9848 165.629 48.0194C165.78 48.0508 165.935 48.0469 166.084 48.0079C166.233 47.9689 166.371 47.8959 166.486 47.7946C166.684 47.6273 166.859 47.436 167.009 47.225C167.298 46.8468 167.526 46.4252 167.683 45.9759C167.678 45.9624 167.678 45.9475 167.683 45.9341V45.9079C167.535 45.8558 167.396 45.7818 167.27 45.6884Z" fill="white"/>
<path d="M164.354 41.9304C164.578 41.9414 164.801 41.8889 164.997 41.7788C165.397 41.5541 165.708 41.2003 165.88 40.7754C165.943 40.628 165.979 40.4704 165.985 40.3102C165.985 40.2161 165.985 40.1273 165.985 40.0385H165.917C165.882 40.0439 165.847 40.0439 165.812 40.0385C165.63 40.0752 165.454 40.1386 165.29 40.2266C165.171 40.288 165.059 40.3616 164.955 40.4461C164.746 40.6238 164.579 40.845 164.464 41.0942C164.343 41.337 164.291 41.6079 164.312 41.8781C164.312 41.9199 164.323 41.9304 164.354 41.9304Z" fill="white"/>
</g>
<circle cx="270.654" cy="58.6538" r="58.3079" fill="white" fill-opacity="0.2" stroke="white" stroke-width="0.691719"/>
<path d="M251.705 81.328C251.705 79.448 248.929 79.888 248.929 78.912C248.929 78.56 249.177 78.392 249.505 78.4C249.873 78.408 250.129 78.624 250.153 78.984H251.633C251.577 77.912 250.753 77.304 249.529 77.304C248.353 77.304 247.481 77.896 247.481 78.96C247.465 80.952 250.273 80.392 250.273 81.432C250.273 81.76 250.017 81.96 249.617 81.96C249.233 81.96 248.961 81.752 248.921 81.32H247.465C247.505 82.456 248.449 83.056 249.657 83.056C250.969 83.056 251.705 82.272 251.705 81.328ZM254.515 79.568C254.971 79.568 255.355 79.848 255.355 80.336H253.643C253.723 79.84 254.067 79.568 254.515 79.568ZM256.651 81.52H255.195C255.083 81.76 254.867 81.952 254.483 81.952C254.043 81.952 253.683 81.68 253.635 81.096H256.731C256.747 80.96 256.755 80.824 256.755 80.696C256.755 79.336 255.835 78.472 254.531 78.472C253.203 78.472 252.275 79.352 252.275 80.768C252.275 82.184 253.219 83.064 254.531 83.064C255.643 83.064 256.435 82.392 256.651 81.52ZM257.204 80.768C257.204 82.184 258.132 83.064 259.444 83.064C260.564 83.064 261.356 82.416 261.588 81.384H260.132C260.012 81.712 259.796 81.896 259.42 81.896C258.932 81.896 258.596 81.512 258.596 80.768C258.596 80.024 258.932 79.64 259.42 79.64C259.796 79.64 260.02 79.84 260.132 80.152H261.588C261.356 79.088 260.564 78.472 259.444 78.472C258.132 78.472 257.204 79.36 257.204 80.768ZM266.728 78.536H265.36V80.96C265.36 81.568 265.024 81.904 264.496 81.904C263.984 81.904 263.64 81.568 263.64 80.96V78.536H262.28V81.144C262.28 82.336 262.976 83.048 264.008 83.048C264.608 83.048 265.088 82.776 265.36 82.392V83H266.728V78.536ZM269.079 80.928C269.079 80.16 269.455 79.936 270.103 79.936H270.479V78.488C269.879 78.488 269.391 78.808 269.079 79.28V78.536H267.711V83H269.079V80.928ZM273.101 79.568C273.557 79.568 273.941 79.848 273.941 80.336H272.229C272.309 79.84 272.653 79.568 273.101 79.568ZM275.237 81.52H273.781C273.669 81.76 273.453 81.952 273.069 81.952C272.629 81.952 272.269 81.68 272.221 81.096H275.317C275.333 80.96 275.341 80.824 275.341 80.696C275.341 79.336 274.421 78.472 273.117 78.472C271.789 78.472 270.861 79.352 270.861 80.768C270.861 82.184 271.805 83.064 273.117 83.064C274.229 83.064 275.021 82.392 275.237 81.52ZM275.79 80.76C275.79 82.168 276.662 83.064 277.758 83.064C278.414 83.064 278.886 82.768 279.134 82.36V83H280.502V77.08H279.134V79.152C278.862 78.744 278.35 78.472 277.758 78.472C276.662 78.472 275.79 79.352 275.79 80.76ZM279.134 80.768C279.134 81.48 278.678 81.872 278.158 81.872C277.646 81.872 277.182 81.472 277.182 80.76C277.182 80.048 277.646 79.664 278.158 79.664C278.678 79.664 279.134 80.056 279.134 80.768ZM284.555 79.168V77.08H283.187V83H284.555V82.376C284.803 82.768 285.275 83.064 285.931 83.064C287.027 83.064 287.899 82.168 287.899 80.76C287.899 79.352 287.035 78.472 285.931 78.472C285.291 78.472 284.803 78.768 284.555 79.168ZM286.507 80.76C286.507 81.472 286.043 81.872 285.523 81.872C285.011 81.872 284.547 81.48 284.547 80.768C284.547 80.056 285.011 79.664 285.523 79.664C286.043 79.664 286.507 80.048 286.507 80.76ZM290.673 81.328L289.641 78.536H288.113L289.929 82.848L288.905 85.12H290.377L293.177 78.536H291.697L290.673 81.328ZM249.821 91.168V89.08H248.453V95H249.821V94.376C250.069 94.768 250.541 95.064 251.197 95.064C252.293 95.064 253.165 94.168 253.165 92.76C253.165 91.352 252.301 90.472 251.197 90.472C250.557 90.472 250.069 90.768 249.821 91.168ZM251.773 92.76C251.773 93.472 251.309 93.872 250.789 93.872C250.277 93.872 249.813 93.48 249.813 92.768C249.813 92.056 250.277 91.664 250.789 91.664C251.309 91.664 251.773 92.048 251.773 92.76ZM253.883 95H255.251V89.08H253.883V95ZM260.61 92.768C260.61 91.352 259.602 90.472 258.29 90.472C256.986 90.472 255.97 91.352 255.97 92.768C255.97 94.184 256.962 95.064 258.274 95.064C259.586 95.064 260.61 94.184 260.61 92.768ZM257.362 92.768C257.362 92.008 257.794 91.656 258.29 91.656C258.77 91.656 259.218 92.008 259.218 92.768C259.218 93.52 258.762 93.88 258.274 93.88C257.778 93.88 257.362 93.52 257.362 92.768ZM261.064 92.768C261.064 94.184 261.992 95.064 263.304 95.064C264.424 95.064 265.216 94.416 265.448 93.384H263.992C263.872 93.712 263.656 93.896 263.28 93.896C262.792 93.896 262.456 93.512 262.456 92.768C262.456 92.024 262.792 91.64 263.28 91.64C263.656 91.64 263.88 91.84 263.992 92.152H265.448C265.216 91.088 264.424 90.472 263.304 90.472C261.992 90.472 261.064 91.36 261.064 92.768ZM266.18 95H267.548V93.128L268.908 95H270.604L268.732 92.776L270.588 90.536H268.9L267.548 92.352V89.08H266.18V95ZM270.853 92.768C270.853 94.184 271.781 95.064 273.093 95.064C274.213 95.064 275.005 94.416 275.237 93.384H273.781C273.661 93.712 273.445 93.896 273.069 93.896C272.581 93.896 272.245 93.512 272.245 92.768C272.245 92.024 272.581 91.64 273.069 91.64C273.445 91.64 273.669 91.84 273.781 92.152H275.237C275.005 91.088 274.213 90.472 273.093 90.472C271.781 90.472 270.853 91.36 270.853 92.768ZM275.969 95H277.337V92.576C277.337 91.968 277.673 91.632 278.193 91.632C278.713 91.632 279.049 91.968 279.049 92.576V95H280.409V92.392C280.409 91.192 279.729 90.488 278.713 90.488C278.097 90.488 277.609 90.752 277.337 91.136V89.08H275.969V95ZM281.087 92.76C281.087 94.168 281.959 95.064 283.047 95.064C283.711 95.064 284.183 94.76 284.431 94.368V95H285.799V90.536H284.431V91.168C284.191 90.776 283.719 90.472 283.055 90.472C281.959 90.472 281.087 91.352 281.087 92.76ZM284.431 92.768C284.431 93.48 283.975 93.872 283.455 93.872C282.943 93.872 282.479 93.472 282.479 92.76C282.479 92.048 282.943 91.664 283.455 91.664C283.975 91.664 284.431 92.056 284.431 92.768ZM286.789 95H288.157V90.536H286.789V95ZM287.477 90.072C287.957 90.072 288.285 89.744 288.285 89.336C288.285 88.92 287.957 88.592 287.477 88.592C286.989 88.592 286.661 88.92 286.661 89.336C286.661 89.744 286.989 90.072 287.477 90.072ZM292.228 95H293.588V92.392C293.588 91.192 292.9 90.488 291.868 90.488C291.268 90.488 290.788 90.752 290.516 91.128V90.536H289.148V95H290.516V92.576C290.516 91.968 290.852 91.632 291.372 91.632C291.892 91.632 292.228 91.968 292.228 92.576V95Z" fill="white"/>
<g clip-path="url(#clip2_937_5308)">
<path d="M270.785 44.7202C270.663 44.7197 270.544 44.6879 270.439 44.6278L265.6 41.8577C265.495 41.7966 265.408 41.709 265.347 41.6037C265.286 41.4984 265.254 41.3791 265.254 41.2575C265.255 41.1361 265.287 41.0169 265.348 40.9117C265.408 40.8065 265.495 40.7188 265.6 40.6573L270.439 37.8872C270.544 37.826 270.663 37.7937 270.785 37.7937C270.907 37.7937 271.026 37.826 271.131 37.8872L275.965 40.6573C276.07 40.7181 276.158 40.8056 276.219 40.911C276.279 41.0164 276.311 41.1359 276.311 41.2575C276.312 41.3792 276.28 41.499 276.219 41.6044C276.158 41.7098 276.071 41.7973 275.965 41.8577L271.131 44.6278C271.026 44.6879 270.906 44.7197 270.785 44.7202ZM267.331 41.2344L270.785 43.2289L274.229 41.2344L270.78 39.2446L267.331 41.2344Z" fill="white"/>
<path d="M270.784 50.302C270.663 50.3038 270.543 50.2718 270.438 50.2097C270.332 50.1496 270.244 50.0623 270.183 49.9568C270.122 49.8512 270.091 49.7313 270.092 49.6095V44.0277C270.091 43.906 270.123 43.7863 270.184 43.6808C270.245 43.5754 270.332 43.488 270.438 43.4275L275.272 40.6574C275.378 40.5984 275.497 40.5674 275.618 40.5674C275.739 40.5674 275.859 40.5984 275.964 40.6574C276.07 40.7182 276.157 40.8057 276.218 40.9111C276.279 41.0164 276.311 41.1359 276.311 41.2576V46.844C276.311 46.9656 276.279 47.0852 276.218 47.1905C276.157 47.2959 276.07 47.3834 275.964 47.4442L271.131 50.2143C271.025 50.2748 270.906 50.3052 270.784 50.302ZM271.477 44.4294V48.4137L274.926 46.4193V42.4349L271.477 44.4294Z" fill="white"/>
<path d="M270.785 50.3019C270.663 50.3036 270.543 50.2717 270.439 50.2096L265.6 47.4394C265.495 47.3779 265.408 47.2903 265.348 47.1851C265.287 47.0799 265.255 46.9607 265.254 46.8392V41.2528C265.255 41.1314 265.287 41.0122 265.348 40.907C265.408 40.8018 265.495 40.7142 265.6 40.6526C265.706 40.5936 265.825 40.5626 265.946 40.5626C266.068 40.5626 266.187 40.5936 266.293 40.6526L271.131 43.4227C271.236 43.4839 271.323 43.5715 271.384 43.6768C271.445 43.7821 271.477 43.9014 271.477 44.023V49.6047C271.478 49.7264 271.446 49.8459 271.385 49.9513C271.324 50.0566 271.237 50.1441 271.131 50.2049C271.027 50.2687 270.907 50.3022 270.785 50.3019ZM266.63 46.4191L270.083 48.4136V44.4292L266.63 42.4348V46.4191Z" fill="white"/>
<path d="M270.784 36.5665C270.601 36.5665 270.425 36.4936 270.295 36.3637C270.165 36.2338 270.092 36.0577 270.092 35.874V32.97C270.092 32.7863 270.165 32.6102 270.295 32.4803C270.425 32.3504 270.601 32.2775 270.784 32.2775C270.968 32.2775 271.144 32.3504 271.274 32.4803C271.404 32.6102 271.477 32.7863 271.477 32.97V35.874C271.477 36.0577 271.404 36.2338 271.274 36.3637C271.144 36.4936 270.968 36.5665 270.784 36.5665Z" fill="white"/>
<path d="M273.305 35.117C273.184 35.1159 273.065 35.0841 272.959 35.0246L270.447 33.5703C270.369 33.5249 270.299 33.4644 270.244 33.3922C270.188 33.32 270.148 33.2376 270.124 33.1497C270.101 33.0618 270.095 32.9702 270.107 32.8799C270.118 32.7897 270.148 32.7027 270.193 32.6239C270.286 32.4716 270.433 32.3607 270.605 32.3142C270.777 32.2678 270.96 32.2894 271.117 32.3746L273.628 33.8243C273.782 33.9158 273.893 34.063 273.941 34.235C273.988 34.407 273.967 34.5907 273.882 34.7476C273.826 34.854 273.744 34.9439 273.643 35.0087C273.541 35.0734 273.425 35.1108 273.305 35.117Z" fill="white"/>
<path d="M268.273 35.1166C268.152 35.1171 268.032 35.0854 267.926 35.0246C267.821 34.9637 267.734 34.876 267.673 34.7703C267.588 34.6139 267.566 34.4307 267.613 34.2587C267.659 34.0867 267.77 33.9393 267.922 33.847L270.439 32.3972C270.597 32.3049 270.786 32.2793 270.963 32.3261C271.141 32.3728 271.293 32.4881 271.385 32.6466C271.431 32.7254 271.46 32.8124 271.472 32.9026C271.484 32.9928 271.478 33.0845 271.454 33.1724C271.431 33.2603 271.39 33.3427 271.335 33.4149C271.279 33.4871 271.21 33.5476 271.131 33.593L268.615 35.0474C268.509 35.0988 268.391 35.1226 268.273 35.1166Z" fill="white"/>
<path d="M277.987 40.5881C277.866 40.5878 277.747 40.5556 277.641 40.4948C277.536 40.4341 277.448 40.3469 277.387 40.2419C277.304 40.0846 277.283 39.9014 277.331 39.7297C277.378 39.558 277.489 39.4109 277.641 39.3185L280.157 37.8688C280.314 37.784 280.498 37.7631 280.67 37.8104C280.842 37.8577 280.989 37.9696 281.081 38.1227C281.166 38.2797 281.186 38.4634 281.139 38.6354C281.092 38.8074 280.98 38.9545 280.827 39.0461L278.311 40.5004C278.212 40.5551 278.101 40.5852 277.987 40.5881Z" fill="white"/>
<path d="M280.503 42.0376C280.319 42.0376 280.143 41.9647 280.013 41.8348C279.884 41.7049 279.811 41.5288 279.811 41.3451V38.4457C279.811 38.262 279.884 38.0859 280.013 37.956C280.143 37.8261 280.319 37.7532 280.503 37.7532C280.687 37.7532 280.863 37.8261 280.993 37.956C281.123 38.0859 281.196 38.262 281.196 38.4457V41.3266C281.198 41.4191 281.182 41.5112 281.148 41.5973C281.115 41.6835 281.064 41.762 280.999 41.8283C280.935 41.8946 280.858 41.9473 280.772 41.9832C280.687 42.0192 280.596 42.0376 280.503 42.0376Z" fill="white"/>
<path d="M280.504 39.1381C280.382 39.1382 280.262 39.1047 280.157 39.0411L277.641 37.5914C277.489 37.4991 277.378 37.352 277.331 37.1803C277.283 37.0086 277.304 36.8253 277.387 36.6681C277.48 36.5158 277.627 36.4047 277.798 36.3575C277.97 36.3103 278.153 36.3305 278.311 36.4141L280.827 37.8685C280.979 37.9608 281.09 38.108 281.137 38.2797C281.185 38.4514 281.164 38.6346 281.081 38.7918C281.022 38.8936 280.938 38.9787 280.837 39.0392C280.736 39.0998 280.621 39.1338 280.504 39.1381Z" fill="white"/>
<path d="M263.61 40.588C263.489 40.5868 263.37 40.5551 263.264 40.4956L260.752 39.0413C260.597 38.9514 260.484 38.8042 260.437 38.6315C260.389 38.4588 260.411 38.2744 260.498 38.1179C260.543 38.0386 260.604 37.969 260.676 37.9132C260.748 37.8575 260.83 37.8165 260.919 37.7929C261.007 37.7693 261.098 37.7634 261.189 37.7756C261.279 37.7878 261.366 37.8178 261.445 37.864L263.956 39.3137C264.11 39.4053 264.221 39.5524 264.269 39.7244C264.316 39.8964 264.295 40.0801 264.21 40.2371C264.15 40.3433 264.063 40.4317 263.957 40.4933C263.852 40.5549 263.732 40.5876 263.61 40.588Z" fill="white"/>
<path d="M261.112 42.0376C260.929 42.0376 260.753 41.9647 260.623 41.8348C260.493 41.7049 260.42 41.5288 260.42 41.3451V38.4457C260.42 38.262 260.493 38.0859 260.623 37.956C260.753 37.8261 260.929 37.7532 261.112 37.7532C261.296 37.7532 261.472 37.8261 261.602 37.956C261.732 38.0859 261.805 38.262 261.805 38.4457V41.3266C261.807 41.4191 261.791 41.5112 261.758 41.5973C261.724 41.6835 261.673 41.762 261.609 41.8283C261.544 41.8946 261.467 41.9473 261.382 41.9832C261.297 42.0192 261.205 42.0376 261.112 42.0376Z" fill="white"/>
<path d="M261.113 39.1379C260.991 39.1379 260.872 39.106 260.766 39.0452C260.661 38.9844 260.573 38.8969 260.512 38.7916C260.427 38.6349 260.405 38.4508 260.452 38.2785C260.5 38.1061 260.612 37.959 260.766 37.8682L263.278 36.4139C263.357 36.3684 263.444 36.3388 263.534 36.327C263.624 36.3151 263.716 36.3211 263.804 36.3447C263.892 36.3683 263.974 36.409 264.046 36.4644C264.118 36.5198 264.179 36.589 264.224 36.6678C264.309 36.8248 264.33 37.0085 264.283 37.1805C264.235 37.3525 264.124 37.4996 263.971 37.5912L261.459 39.0409C261.354 39.1031 261.235 39.1366 261.113 39.1379Z" fill="white"/>
<path d="M261.113 50.3157C260.991 50.3158 260.872 50.2839 260.766 50.2231C260.661 50.1623 260.573 50.0748 260.513 49.9695C260.466 49.8908 260.436 49.8038 260.424 49.7134C260.412 49.6231 260.418 49.5312 260.441 49.4431C260.465 49.355 260.506 49.2726 260.562 49.2004C260.618 49.1283 260.687 49.068 260.766 49.023L263.278 47.5733C263.357 47.5278 263.444 47.4983 263.534 47.4864C263.624 47.4745 263.716 47.4806 263.804 47.5041C263.892 47.5277 263.974 47.5684 264.046 47.6238C264.119 47.6793 264.179 47.7484 264.225 47.8273C264.309 47.9843 264.33 48.1679 264.283 48.3399C264.236 48.5119 264.124 48.6591 263.971 48.7506L261.459 50.2003C261.356 50.2695 261.236 50.3094 261.113 50.3157Z" fill="white"/>
<path d="M261.112 50.3159C260.929 50.3159 260.753 50.243 260.623 50.1131C260.493 49.9832 260.42 49.8071 260.42 49.6234V46.724C260.42 46.5404 260.493 46.3642 260.623 46.2343C260.753 46.1045 260.929 46.0315 261.112 46.0315C261.296 46.0315 261.472 46.1045 261.602 46.2343C261.732 46.3642 261.805 46.5404 261.805 46.724V49.6373C261.801 49.8185 261.727 49.9911 261.597 50.118C261.468 50.2449 261.294 50.316 261.112 50.3159Z" fill="white"/>
<path d="M263.611 51.7653C263.489 51.7664 263.369 51.7344 263.264 51.673L260.753 50.2233C260.599 50.1325 260.486 49.9854 260.439 49.813C260.391 49.6407 260.413 49.4567 260.499 49.2999C260.544 49.2211 260.605 49.152 260.677 49.0965C260.749 49.0411 260.831 49.0004 260.919 48.9768C261.007 48.9532 261.099 48.9472 261.189 48.959C261.279 48.9709 261.366 49.0005 261.445 49.046L263.957 50.5003C264.111 50.5911 264.223 50.7382 264.271 50.9106C264.318 51.0829 264.297 51.2669 264.211 51.4237C264.15 51.5288 264.062 51.6159 263.957 51.6759C263.852 51.736 263.732 51.7668 263.611 51.7653Z" fill="white"/>
<path d="M280.504 50.3158C280.382 50.3176 280.262 50.2856 280.157 50.2235L277.641 48.7738C277.489 48.6815 277.378 48.5343 277.331 48.3626C277.283 48.1909 277.304 48.0077 277.387 47.8504C277.48 47.6982 277.627 47.5871 277.798 47.5398C277.97 47.4926 278.153 47.5129 278.311 47.5965L280.827 49.0462C280.985 49.1388 281.101 49.2901 281.148 49.4673C281.196 49.6445 281.172 49.8332 281.081 49.9927C281.019 50.0901 280.934 50.1707 280.833 50.2271C280.732 50.2835 280.619 50.314 280.504 50.3158Z" fill="white"/>
<path d="M280.503 50.3159C280.319 50.3159 280.143 50.243 280.013 50.1131C279.884 49.9832 279.811 49.8071 279.811 49.6234V46.724C279.811 46.5404 279.884 46.3642 280.013 46.2343C280.143 46.1045 280.319 46.0315 280.503 46.0315C280.687 46.0315 280.863 46.1045 280.993 46.2343C281.123 46.3642 281.196 46.5404 281.196 46.724V49.6373C281.192 49.8185 281.117 49.9911 280.988 50.118C280.858 50.2449 280.684 50.316 280.503 50.3159Z" fill="white"/>
<path d="M277.987 51.7656C277.866 51.7661 277.746 51.7344 277.64 51.6735C277.535 51.6127 277.448 51.525 277.387 51.4193C277.296 51.2599 277.272 51.0711 277.32 50.8939C277.367 50.7168 277.483 50.5655 277.641 50.4729L280.157 49.0232C280.314 48.9395 280.498 48.9193 280.669 48.9665C280.841 49.0137 280.988 49.1248 281.081 49.2771C281.164 49.4343 281.184 49.6176 281.137 49.7893C281.09 49.961 280.979 50.1081 280.827 50.2004L278.31 51.6502C278.215 51.7164 278.103 51.7563 277.987 51.7656Z" fill="white"/>
<path d="M270.784 55.8837C270.691 55.8863 270.598 55.8697 270.51 55.8352C270.423 55.8006 270.344 55.7488 270.278 55.6827C270.211 55.6167 270.159 55.5379 270.124 55.451C270.089 55.3641 270.071 55.271 270.073 55.1773V52.2733C270.073 52.0897 270.146 51.9135 270.276 51.7836C270.406 51.6538 270.582 51.5808 270.766 51.5808C270.95 51.5808 271.126 51.6538 271.256 51.7836C271.385 51.9135 271.458 52.0897 271.458 52.2733V55.1773C271.462 55.3602 271.393 55.5372 271.267 55.6695C271.141 55.8019 270.967 55.8789 270.784 55.8837Z" fill="white"/>
<path d="M270.785 55.8836C270.663 55.8837 270.543 55.8502 270.439 55.7867L267.922 54.337C267.77 54.2447 267.659 54.0972 267.613 53.9252C267.566 53.7533 267.588 53.57 267.673 53.4136C267.764 53.2596 267.911 53.147 268.083 53.0996C268.256 53.0522 268.44 53.0737 268.597 53.1597L271.113 54.614C271.266 54.7056 271.378 54.8527 271.425 55.0247C271.472 55.1967 271.451 55.3804 271.367 55.5374C271.307 55.6398 271.222 55.7253 271.121 55.7859C271.019 55.8464 270.903 55.8801 270.785 55.8836Z" fill="white"/>
<path d="M270.785 55.8835C270.663 55.8836 270.544 55.8516 270.438 55.7909C270.333 55.7301 270.246 55.6426 270.185 55.5373C270.1 55.3803 270.079 55.1966 270.126 55.0246C270.174 54.8526 270.286 54.7055 270.439 54.6139L272.95 53.1596C273.107 53.0748 273.291 53.0539 273.463 53.1012C273.635 53.1485 273.782 53.2604 273.874 53.4135C273.958 53.5705 273.979 53.7541 273.932 53.9262C273.885 54.0982 273.773 54.2453 273.62 54.3369L271.108 55.7866C271.01 55.845 270.899 55.8784 270.785 55.8835Z" fill="white"/>
</g>
<path d="M84.4134 130.682V137H82.8744V130.682H84.4134ZM88.5887 131.924C89.1767 131.924 89.6447 132.116 89.9927 132.5C90.3467 132.878 90.5237 133.4 90.5237 134.066V137H88.9937V134.273C88.9937 133.937 88.9067 133.676 88.7327 133.49C88.5587 133.304 88.3247 133.211 88.0307 133.211C87.7367 133.211 87.5027 133.304 87.3287 133.49C87.1547 133.676 87.0677 133.937 87.0677 134.273V137H85.5287V131.978H87.0677V132.644C87.2237 132.422 87.4337 132.248 87.6977 132.122C87.9617 131.99 88.2587 131.924 88.5887 131.924ZM93.8522 135.56L94.9412 131.978H96.5792L94.7972 137H92.8982L91.1162 131.978H92.7632L93.8522 135.56ZM101.961 134.408C101.961 134.552 101.952 134.702 101.934 134.858H98.4509C98.4749 135.17 98.5739 135.41 98.7479 135.578C98.9279 135.74 99.1469 135.821 99.4049 135.821C99.7889 135.821 100.056 135.659 100.206 135.335H101.844C101.76 135.665 101.607 135.962 101.385 136.226C101.169 136.49 100.896 136.697 100.566 136.847C100.236 136.997 99.8669 137.072 99.4589 137.072C98.9669 137.072 98.5289 136.967 98.1449 136.757C97.7609 136.547 97.4609 136.247 97.2449 135.857C97.0289 135.467 96.9209 135.011 96.9209 134.489C96.9209 133.967 97.0259 133.511 97.2359 133.121C97.4519 132.731 97.7519 132.431 98.1359 132.221C98.5199 132.011 98.9609 131.906 99.4589 131.906C99.9449 131.906 100.377 132.008 100.755 132.212C101.133 132.416 101.427 132.707 101.637 133.085C101.853 133.463 101.961 133.904 101.961 134.408ZM100.386 134.003C100.386 133.739 100.296 133.529 100.116 133.373C99.9359 133.217 99.7109 133.139 99.4409 133.139C99.1829 133.139 98.9639 133.214 98.7839 133.364C98.6099 133.514 98.5019 133.727 98.4599 134.003H100.386ZM104.816 137.072C104.378 137.072 103.988 136.997 103.646 136.847C103.304 136.697 103.034 136.493 102.836 136.235C102.638 135.971 102.527 135.677 102.503 135.353H104.024C104.042 135.527 104.123 135.668 104.267 135.776C104.411 135.884 104.588 135.938 104.798 135.938C104.99 135.938 105.137 135.902 105.239 135.83C105.347 135.752 105.401 135.653 105.401 135.533C105.401 135.389 105.326 135.284 105.176 135.218C105.026 135.146 104.783 135.068 104.447 134.984C104.087 134.9 103.787 134.813 103.547 134.723C103.307 134.627 103.1 134.48 102.926 134.282C102.752 134.078 102.665 133.805 102.665 133.463C102.665 133.175 102.743 132.914 102.899 132.68C103.061 132.44 103.295 132.251 103.601 132.113C103.913 131.975 104.282 131.906 104.708 131.906C105.338 131.906 105.833 132.062 106.193 132.374C106.559 132.686 106.769 133.1 106.823 133.616H105.401C105.377 133.442 105.299 133.304 105.167 133.202C105.041 133.1 104.873 133.049 104.663 133.049C104.483 133.049 104.345 133.085 104.249 133.157C104.153 133.223 104.105 133.316 104.105 133.436C104.105 133.58 104.18 133.688 104.33 133.76C104.486 133.832 104.726 133.904 105.05 133.976C105.422 134.072 105.725 134.168 105.959 134.264C106.193 134.354 106.397 134.504 106.571 134.714C106.751 134.918 106.844 135.194 106.85 135.542C106.85 135.836 106.766 136.1 106.598 136.334C106.436 136.562 106.199 136.742 105.887 136.874C105.581 137.006 105.224 137.072 104.816 137.072ZM110.59 135.695V137H109.807C109.249 137 108.814 136.865 108.502 136.595C108.19 136.319 108.034 135.872 108.034 135.254V133.256H107.422V131.978H108.034V130.754H109.573V131.978H110.581V133.256H109.573V135.272C109.573 135.422 109.609 135.53 109.681 135.596C109.753 135.662 109.873 135.695 110.041 135.695H110.59ZM117.856 131.924C118.48 131.924 118.975 132.113 119.341 132.491C119.713 132.869 119.899 133.394 119.899 134.066V137H118.369V134.273C118.369 133.949 118.282 133.7 118.108 133.526C117.94 133.346 117.706 133.256 117.406 133.256C117.106 133.256 116.869 133.346 116.695 133.526C116.527 133.7 116.443 133.949 116.443 134.273V137H114.913V134.273C114.913 133.949 114.826 133.7 114.652 133.526C114.484 133.346 114.25 133.256 113.95 133.256C113.65 133.256 113.413 133.346 113.239 133.526C113.071 133.7 112.987 133.949 112.987 134.273V137H111.448V131.978H112.987V132.608C113.143 132.398 113.347 132.233 113.599 132.113C113.851 131.987 114.136 131.924 114.454 131.924C114.832 131.924 115.168 132.005 115.462 132.167C115.762 132.329 115.996 132.56 116.164 132.86C116.338 132.584 116.575 132.359 116.875 132.185C117.175 132.011 117.502 131.924 117.856 131.924ZM125.709 134.408C125.709 134.552 125.7 134.702 125.682 134.858H122.199C122.223 135.17 122.322 135.41 122.496 135.578C122.676 135.74 122.895 135.821 123.153 135.821C123.537 135.821 123.804 135.659 123.954 135.335H125.592C125.508 135.665 125.355 135.962 125.133 136.226C124.917 136.49 124.644 136.697 124.314 136.847C123.984 136.997 123.615 137.072 123.207 137.072C122.715 137.072 122.277 136.967 121.893 136.757C121.509 136.547 121.209 136.247 120.993 135.857C120.777 135.467 120.669 135.011 120.669 134.489C120.669 133.967 120.774 133.511 120.984 133.121C121.2 132.731 121.5 132.431 121.884 132.221C122.268 132.011 122.709 131.906 123.207 131.906C123.693 131.906 124.125 132.008 124.503 132.212C124.881 132.416 125.175 132.707 125.385 133.085C125.601 133.463 125.709 133.904 125.709 134.408ZM124.134 134.003C124.134 133.739 124.044 133.529 123.864 133.373C123.684 133.217 123.459 133.139 123.189 133.139C122.931 133.139 122.712 133.214 122.532 133.364C122.358 133.514 122.25 133.727 122.208 134.003H124.134ZM129.581 131.924C130.169 131.924 130.637 132.116 130.985 132.5C131.339 132.878 131.516 133.4 131.516 134.066V137H129.986V134.273C129.986 133.937 129.899 133.676 129.725 133.49C129.551 133.304 129.317 133.211 129.023 133.211C128.729 133.211 128.495 133.304 128.321 133.49C128.147 133.676 128.06 133.937 128.06 134.273V137H126.521V131.978H128.06V132.644C128.216 132.422 128.426 132.248 128.69 132.122C128.954 131.99 129.251 131.924 129.581 131.924ZM135.384 135.695V137H134.601C134.043 137 133.608 136.865 133.296 136.595C132.984 136.319 132.828 135.872 132.828 135.254V133.256H132.216V131.978H132.828V130.754H134.367V131.978H135.375V133.256H134.367V135.272C134.367 135.422 134.403 135.53 134.475 135.596C134.547 135.662 134.667 135.695 134.835 135.695H135.384Z" fill="white"/>
<path d="M193.413 130.682V137H191.874V130.682H193.413ZM197.589 131.924C198.177 131.924 198.645 132.116 198.993 132.5C199.347 132.878 199.524 133.4 199.524 134.066V137H197.994V134.273C197.994 133.937 197.907 133.676 197.733 133.49C197.559 133.304 197.325 133.211 197.031 133.211C196.737 133.211 196.503 133.304 196.329 133.49C196.155 133.676 196.068 133.937 196.068 134.273V137H194.529V131.978H196.068V132.644C196.224 132.422 196.434 132.248 196.698 132.122C196.962 131.99 197.259 131.924 197.589 131.924ZM202.852 135.56L203.941 131.978H205.579L203.797 137H201.898L200.116 131.978H201.763L202.852 135.56ZM210.961 134.408C210.961 134.552 210.952 134.702 210.934 134.858H207.451C207.475 135.17 207.574 135.41 207.748 135.578C207.928 135.74 208.147 135.821 208.405 135.821C208.789 135.821 209.056 135.659 209.206 135.335H210.844C210.76 135.665 210.607 135.962 210.385 136.226C210.169 136.49 209.896 136.697 209.566 136.847C209.236 136.997 208.867 137.072 208.459 137.072C207.967 137.072 207.529 136.967 207.145 136.757C206.761 136.547 206.461 136.247 206.245 135.857C206.029 135.467 205.921 135.011 205.921 134.489C205.921 133.967 206.026 133.511 206.236 133.121C206.452 132.731 206.752 132.431 207.136 132.221C207.52 132.011 207.961 131.906 208.459 131.906C208.945 131.906 209.377 132.008 209.755 132.212C210.133 132.416 210.427 132.707 210.637 133.085C210.853 133.463 210.961 133.904 210.961 134.408ZM209.386 134.003C209.386 133.739 209.296 133.529 209.116 133.373C208.936 133.217 208.711 133.139 208.441 133.139C208.183 133.139 207.964 133.214 207.784 133.364C207.61 133.514 207.502 133.727 207.46 134.003H209.386ZM213.816 137.072C213.378 137.072 212.988 136.997 212.646 136.847C212.304 136.697 212.034 136.493 211.836 136.235C211.638 135.971 211.527 135.677 211.503 135.353H213.024C213.042 135.527 213.123 135.668 213.267 135.776C213.411 135.884 213.588 135.938 213.798 135.938C213.99 135.938 214.137 135.902 214.239 135.83C214.347 135.752 214.401 135.653 214.401 135.533C214.401 135.389 214.326 135.284 214.176 135.218C214.026 135.146 213.783 135.068 213.447 134.984C213.087 134.9 212.787 134.813 212.547 134.723C212.307 134.627 212.1 134.48 211.926 134.282C211.752 134.078 211.665 133.805 211.665 133.463C211.665 133.175 211.743 132.914 211.899 132.68C212.061 132.44 212.295 132.251 212.601 132.113C212.913 131.975 213.282 131.906 213.708 131.906C214.338 131.906 214.833 132.062 215.193 132.374C215.559 132.686 215.769 133.1 215.823 133.616H214.401C214.377 133.442 214.299 133.304 214.167 133.202C214.041 133.1 213.873 133.049 213.663 133.049C213.483 133.049 213.345 133.085 213.249 133.157C213.153 133.223 213.105 133.316 213.105 133.436C213.105 133.58 213.18 133.688 213.33 133.76C213.486 133.832 213.726 133.904 214.05 133.976C214.422 134.072 214.725 134.168 214.959 134.264C215.193 134.354 215.397 134.504 215.571 134.714C215.751 134.918 215.844 135.194 215.85 135.542C215.85 135.836 215.766 136.1 215.598 136.334C215.436 136.562 215.199 136.742 214.887 136.874C214.581 137.006 214.224 137.072 213.816 137.072ZM219.59 135.695V137H218.807C218.249 137 217.814 136.865 217.502 136.595C217.19 136.319 217.034 135.872 217.034 135.254V133.256H216.422V131.978H217.034V130.754H218.573V131.978H219.581V133.256H218.573V135.272C218.573 135.422 218.609 135.53 218.681 135.596C218.753 135.662 218.873 135.695 219.041 135.695H219.59ZM226.856 131.924C227.48 131.924 227.975 132.113 228.341 132.491C228.713 132.869 228.899 133.394 228.899 134.066V137H227.369V134.273C227.369 133.949 227.282 133.7 227.108 133.526C226.94 133.346 226.706 133.256 226.406 133.256C226.106 133.256 225.869 133.346 225.695 133.526C225.527 133.7 225.443 133.949 225.443 134.273V137H223.913V134.273C223.913 133.949 223.826 133.7 223.652 133.526C223.484 133.346 223.25 133.256 222.95 133.256C222.65 133.256 222.413 133.346 222.239 133.526C222.071 133.7 221.987 133.949 221.987 134.273V137H220.448V131.978H221.987V132.608C222.143 132.398 222.347 132.233 222.599 132.113C222.851 131.987 223.136 131.924 223.454 131.924C223.832 131.924 224.168 132.005 224.462 132.167C224.762 132.329 224.996 132.56 225.164 132.86C225.338 132.584 225.575 132.359 225.875 132.185C226.175 132.011 226.502 131.924 226.856 131.924ZM234.709 134.408C234.709 134.552 234.7 134.702 234.682 134.858H231.199C231.223 135.17 231.322 135.41 231.496 135.578C231.676 135.74 231.895 135.821 232.153 135.821C232.537 135.821 232.804 135.659 232.954 135.335H234.592C234.508 135.665 234.355 135.962 234.133 136.226C233.917 136.49 233.644 136.697 233.314 136.847C232.984 136.997 232.615 137.072 232.207 137.072C231.715 137.072 231.277 136.967 230.893 136.757C230.509 136.547 230.209 136.247 229.993 135.857C229.777 135.467 229.669 135.011 229.669 134.489C229.669 133.967 229.774 133.511 229.984 133.121C230.2 132.731 230.5 132.431 230.884 132.221C231.268 132.011 231.709 131.906 232.207 131.906C232.693 131.906 233.125 132.008 233.503 132.212C233.881 132.416 234.175 132.707 234.385 133.085C234.601 133.463 234.709 133.904 234.709 134.408ZM233.134 134.003C233.134 133.739 233.044 133.529 232.864 133.373C232.684 133.217 232.459 133.139 232.189 133.139C231.931 133.139 231.712 133.214 231.532 133.364C231.358 133.514 231.25 133.727 231.208 134.003H233.134ZM238.581 131.924C239.169 131.924 239.637 132.116 239.985 132.5C240.339 132.878 240.516 133.4 240.516 134.066V137H238.986V134.273C238.986 133.937 238.899 133.676 238.725 133.49C238.551 133.304 238.317 133.211 238.023 133.211C237.729 133.211 237.495 133.304 237.321 133.49C237.147 133.676 237.06 133.937 237.06 134.273V137H235.521V131.978H237.06V132.644C237.216 132.422 237.426 132.248 237.69 132.122C237.954 131.99 238.251 131.924 238.581 131.924ZM244.384 135.695V137H243.601C243.043 137 242.608 136.865 242.296 136.595C241.984 136.319 241.828 135.872 241.828 135.254V133.256H241.216V131.978H241.828V130.754H243.367V131.978H244.375V133.256H243.367V135.272C243.367 135.422 243.403 135.53 243.475 135.596C243.547 135.662 243.667 135.695 243.835 135.695H244.384Z" fill="white"/>
<path d="M82.2695 125.077H137.461L129.016 117" stroke="white" stroke-width="0.67307"/>
<path d="M137.461 143.923L82.2692 143.923L90.7149 152" stroke="white" stroke-width="0.67307"/>
<path d="M191 125.077H246.192L237.746 117" stroke="white" stroke-width="0.67307"/>
<path d="M246.191 143.923L191 143.923L199.445 152" stroke="white" stroke-width="0.67307"/>
<defs>
<clipPath id="clip0_937_5308">
<rect width="22.0485" height="23.5184" fill="white" transform="translate(47.4258 32.2773)"/>
</clipPath>
<clipPath id="clip1_937_5308">
<rect width="17.2469" height="23.5184" fill="white" transform="translate(155.804 32.2773)"/>
</clipPath>
<clipPath id="clip2_937_5308">
<rect width="20.7759" height="23.6014" fill="white" transform="translate(260.42 32.2773)"/>
</clipPath>
</defs>
</svg>
