<svg width="330" height="153" viewBox="0 0 330 153" fill="none" xmlns="http://www.w3.org/2000/svg">
<circle cx="58.6538" cy="58.6538" r="58.3079" fill="white" fill-opacity="0.2" stroke="white" stroke-width="0.691719"/>
<g clip-path="url(#clip0_723_3653)">
<path d="M67.0933 45.6979H49.8072C49.6123 45.6979 49.4254 45.6204 49.2875 45.4826C49.1497 45.3448 49.0723 45.1578 49.0723 44.9629V35.7662C49.0723 35.5713 49.1497 35.3844 49.2875 35.2465C49.4254 35.1087 49.6123 35.0312 49.8072 35.0312H67.0933C67.2882 35.0312 67.4752 35.1087 67.613 35.2465C67.7508 35.3844 67.8282 35.5713 67.8282 35.7662V44.9629C67.8282 45.1578 67.7508 45.3448 67.613 45.4826C67.4752 45.6204 67.2882 45.6979 67.0933 45.6979ZM50.5422 44.228H66.3583V36.5012H50.5422V44.228Z" fill="white"/>
<path d="M67.3627 36.5009H49.5377C48.9776 36.5009 48.4405 36.2784 48.0445 35.8823C47.6485 35.4863 47.426 34.9492 47.426 34.3891C47.4273 33.8294 47.6502 33.293 48.0459 32.8973C48.4417 32.5015 48.978 32.2786 49.5377 32.2773H67.3627C67.9224 32.2786 68.4588 32.5015 68.8546 32.8973C69.2503 33.293 69.4732 33.8294 69.4745 34.3891C69.4732 34.9488 69.2503 35.4852 68.8546 35.8809C68.4588 36.2767 67.9224 36.4996 67.3627 36.5009ZM49.5377 33.7472C49.3675 33.7472 49.2042 33.8149 49.0839 33.9352C48.9635 34.0556 48.8959 34.2189 48.8959 34.3891C48.8959 34.5593 48.9635 34.7226 49.0839 34.843C49.2042 34.9633 49.3675 35.031 49.5377 35.031H67.3627C67.533 35.031 67.6962 34.9633 67.8166 34.843C67.937 34.7226 68.0046 34.5593 68.0046 34.3891C68.0046 34.2189 67.937 34.0556 67.8166 33.9352C67.6962 33.8149 67.533 33.7472 67.3627 33.7472H49.5377Z" fill="white"/>
<path d="M67.3627 48.4462H49.5377C48.9785 48.4462 48.4421 48.2243 48.0462 47.8294C47.6503 47.4344 47.4273 46.8985 47.426 46.3393C47.426 45.7792 47.6485 45.2421 48.0445 44.8461C48.4405 44.45 48.9776 44.2275 49.5377 44.2275H67.3627C67.9224 44.2288 68.4588 44.4517 68.8546 44.8475C69.2503 45.2432 69.4732 45.7796 69.4745 46.3393C69.4732 46.8985 69.2502 47.4344 68.8543 47.8294C68.4584 48.2243 67.922 48.4462 67.3627 48.4462ZM49.5377 45.6974C49.4533 45.6968 49.3695 45.7129 49.2913 45.745C49.2132 45.777 49.1421 45.8242 49.0824 45.884C49.0227 45.9437 48.9754 46.0147 48.9434 46.0929C48.9114 46.1711 48.8952 46.2548 48.8959 46.3393C48.8959 46.4234 48.9125 46.5066 48.9448 46.5842C48.9771 46.6618 49.0245 46.7322 49.0842 46.7914C49.1438 46.8506 49.2146 46.8975 49.2925 46.9292C49.3703 46.9609 49.4537 46.9769 49.5377 46.9762H67.3627C67.5321 46.9763 67.6947 46.9093 67.8149 46.79C67.9351 46.6707 68.0033 46.5087 68.0046 46.3393C68.0046 46.1691 67.937 46.0058 67.8166 45.8854C67.6962 45.7651 67.533 45.6974 67.3627 45.6974H49.5377Z" fill="white"/>
<path d="M62.7668 55.7961C62.639 55.7963 62.5133 55.7629 62.4024 55.6993C62.2914 55.6357 62.1992 55.544 62.1348 55.4335L57.8133 48.084C57.7641 48.0008 57.7319 47.9087 57.7186 47.813C57.7053 47.7173 57.7111 47.6199 57.7358 47.5265C57.7604 47.4331 57.8033 47.3455 57.862 47.2687C57.9207 47.192 57.9941 47.1277 58.0778 47.0796C58.2456 46.9812 58.4455 46.9532 58.6337 47.0019C58.822 47.0506 58.9833 47.1719 59.0823 47.3392L63.3989 54.6888C63.4484 54.772 63.4809 54.8642 63.4947 54.9601C63.5084 55.056 63.503 55.1536 63.4789 55.2474C63.4548 55.3412 63.4123 55.4293 63.354 55.5067C63.2957 55.584 63.2227 55.6491 63.1392 55.6981C63.0261 55.7635 62.8975 55.7973 62.7668 55.7961Z" fill="white"/>
<path d="M54.1287 55.7963C53.998 55.7976 53.8694 55.7637 53.7563 55.6983C53.5993 55.5948 53.4875 55.4354 53.4438 55.2525C53.4002 55.0695 53.4278 54.8768 53.5211 54.7135L57.8377 47.364C57.9377 47.1963 58.0999 47.0749 58.2889 47.0263C58.478 46.9776 58.6786 47.0057 58.8471 47.1043C59.0144 47.2033 59.1357 47.3646 59.1844 47.5529C59.2331 47.7411 59.2052 47.941 59.1068 48.1087L54.7902 55.4582C54.7202 55.5686 54.622 55.6582 54.5056 55.7177C54.3893 55.7772 54.2591 55.8043 54.1287 55.7963Z" fill="white"/>
<path d="M53.4918 42.9883C53.4186 42.9886 53.3463 42.9724 53.2801 42.941C53.214 42.9097 53.1557 42.8639 53.1096 42.807C53.0686 42.7572 53.0379 42.6998 53.0192 42.6381C53.0004 42.5764 52.9941 42.5115 53.0004 42.4473C53.0068 42.3832 53.0258 42.3209 53.0563 42.264C53.0868 42.2072 53.1282 42.157 53.1782 42.1162L56.4708 39.4311C56.5702 39.3509 56.6971 39.3126 56.8243 39.3245C56.9515 39.3364 57.069 39.3975 57.1518 39.4948L58.5826 41.1607L62.0613 38.0886C62.1588 38.003 62.2864 37.9595 62.4159 37.9678C62.5454 37.9761 62.6664 38.0354 62.7522 38.1327C62.8378 38.2302 62.8813 38.3578 62.873 38.4873C62.8647 38.6168 62.8054 38.7378 62.7081 38.8236L58.8618 42.224C58.8133 42.2671 58.7567 42.3001 58.6953 42.3211C58.6339 42.3421 58.5689 42.3507 58.5041 42.3465C58.4387 42.343 58.3747 42.3265 58.3158 42.2979C58.2569 42.2693 58.2043 42.2292 58.1612 42.1799L56.7207 40.5042L53.7809 42.8854C53.698 42.9498 53.5967 42.9859 53.4918 42.9883Z" fill="white"/>
<path d="M62.5366 38.7202H60.8707C60.7407 38.7202 60.6161 38.6686 60.5242 38.5767C60.4323 38.4848 60.3807 38.3601 60.3807 38.2302C60.3807 38.1003 60.4323 37.9756 60.5242 37.8837C60.6161 37.7919 60.7407 37.7402 60.8707 37.7402H62.5317C62.6616 37.7402 62.7862 37.7919 62.8781 37.8837C62.97 37.9756 63.0216 38.1003 63.0216 38.2302C63.0216 38.3593 62.9707 38.4832 62.8799 38.5749C62.789 38.6667 62.6657 38.7189 62.5366 38.7202Z" fill="white"/>
<path d="M62.5366 40.3812C62.4066 40.3812 62.282 40.3295 62.1901 40.2377C62.0982 40.1458 62.0466 40.0211 62.0466 39.8912V38.2302C62.0466 38.1003 62.0982 37.9756 62.1901 37.8837C62.282 37.7919 62.4066 37.7402 62.5366 37.7402C62.6665 37.7402 62.7911 37.7919 62.883 37.8837C62.9749 37.9756 63.0265 38.1003 63.0265 38.2302V39.8912C63.0265 40.0211 62.9749 40.1458 62.883 40.2377C62.7911 40.3295 62.6665 40.3812 62.5366 40.3812Z" fill="white"/>
</g>
<path d="M47.0677 71.412C44.7687 71.093 43.6027 69.773 43.6027 68.596V68.112H42.0517V68.596C42.0517 69.784 40.8967 71.093 38.5867 71.412L39.1367 72.578C40.9077 72.314 42.1837 71.489 42.8327 70.4C43.4817 71.489 44.7467 72.314 46.5177 72.578L47.0677 71.412ZM47.3977 73.326H38.2457V74.503H42.0627V77.957H43.5147V74.503H47.3977V73.326ZM49.8609 74.228V75.383H55.3059V77.957H56.7689V74.228H49.8609ZM55.3059 67.826V73.766H56.7689V67.826H55.3059ZM51.2469 68.365C49.6959 68.365 48.4969 69.41 48.4969 70.851C48.4969 72.292 49.6959 73.326 51.2469 73.326C52.8199 73.326 54.0079 72.292 54.0079 70.851C54.0079 69.41 52.8199 68.365 51.2469 68.365ZM51.2469 69.597C52.0169 69.597 52.5889 70.059 52.5889 70.851C52.5889 71.632 52.0169 72.105 51.2469 72.105C50.4879 72.105 49.9159 71.632 49.9159 70.851C49.9159 70.059 50.4879 69.597 51.2469 69.597ZM59.353 72.105C61.267 71.929 62.51 71.225 63.049 70.257C63.577 71.225 64.831 71.929 66.734 72.105L67.24 70.972C65.315 70.807 64.325 70.136 64.094 69.443H66.8V68.288H59.309V69.443H62.004C61.773 70.136 60.783 70.807 58.869 70.972L59.353 72.105ZM63.027 76.835C61.674 76.835 60.981 76.593 60.981 76.065C60.981 75.537 61.674 75.306 63.027 75.306C64.38 75.306 65.073 75.537 65.073 76.065C65.073 76.593 64.38 76.835 63.027 76.835ZM63.027 74.184C60.838 74.184 59.518 74.877 59.518 76.065C59.518 77.264 60.838 77.946 63.027 77.946C65.216 77.946 66.547 77.264 66.547 76.065C66.547 74.877 65.216 74.184 63.027 74.184ZM58.473 72.49V73.634H67.625V72.49H58.473ZM73.7841 73.216V74.338H75.7421V75.438H77.1941V67.815H75.7421V73.216H73.7841ZM71.3531 76.615V74.822H72.6181V72.644C73.4651 72.567 74.3121 72.479 75.1371 72.325L75.0381 71.302C74.7301 71.346 74.4111 71.39 74.0921 71.423C74.2681 70.147 74.2681 69.212 74.2681 68.673V68.321H69.4391V69.476H72.8271C72.8051 70.004 72.7501 70.686 72.6291 71.533C71.1551 71.621 69.7031 71.632 68.5151 71.632L68.6911 72.787C69.4391 72.787 70.2861 72.776 71.1771 72.732V74.679H69.9011V77.77H77.4141V76.615H71.3531ZM36.0082 83.806H37.0312V86.677C36.6902 86.699 36.3492 86.71 36.0082 86.721V83.806ZM39.5722 86.479C39.1982 86.523 38.8132 86.567 38.4172 86.589V83.806H39.2202V82.651H33.8192V83.806H34.6112V86.743L33.5552 86.754L33.7092 87.931C35.3922 87.931 37.6802 87.887 39.6712 87.535L39.5722 86.479ZM36.5032 88.58H35.0512V91.77H41.9482V90.615H36.5032V88.58ZM41.5852 84.675V81.815H40.1332V89.273H41.5852V85.874H42.9272V84.675H41.5852ZM45.3683 83.993H46.6663V88.283H45.3683V83.993ZM44.0153 89.416H48.0083V82.849H44.0153V89.416ZM51.0443 81.804V85.676H50.1973V81.969H48.8443V91.484H50.1973V86.842H51.0443V91.935H52.4193V81.804H51.0443ZM56.0217 93.002H57.0997L59.8277 82.134H58.7607L56.0217 93.002ZM63.4605 82.86V84.015H66.7495C66.5515 86.226 65.5065 87.799 62.9765 89.075L63.7465 90.197C67.2445 88.448 68.2235 85.918 68.2235 82.86H63.4605ZM70.1155 81.815V85.698H68.1575V86.875H70.1155V91.946H71.5675V81.815H70.1155ZM74.8997 86.721H77.3087V82.794H73.4807V83.96H75.9117V85.577H73.4917V89.702H74.2067C75.4277 89.702 76.5277 89.669 77.8257 89.46L77.7157 88.283C76.7037 88.437 75.8237 88.492 74.8997 88.514V86.721ZM80.5317 81.804V85.632H79.6187V81.991H78.2657V91.462H79.6187V86.798H80.5317V91.935H81.9067V81.804H80.5317Z" fill="white"/>
<circle cx="164.654" cy="58.6538" r="58.1538" fill="white" fill-opacity="0.2" stroke="white"/>
<path d="M150.549 72.072C149.009 71.621 148.261 70.576 148.184 69.509H150.175V68.365H144.664V69.509H146.688C146.611 70.653 145.874 71.753 144.268 72.226L144.994 73.37C146.182 73.007 146.996 72.248 147.458 71.302C147.92 72.171 148.701 72.864 149.845 73.194L150.549 72.072ZM151.209 76.67H147.359V75.779H151.209V76.67ZM151.209 74.668H147.359V73.744H145.918V77.825H152.65V73.744H151.209V74.668ZM151.187 67.826V73.315H152.65V67.826H151.187ZM160.327 68.706H158.061V67.738H156.598V68.706H154.343V69.839H160.316L160.327 68.706ZM156.235 71.907C156.235 71.423 156.686 71.17 157.335 71.17C157.984 71.17 158.435 71.423 158.435 71.907C158.435 72.391 157.984 72.644 157.335 72.644C156.686 72.644 156.235 72.391 156.235 71.907ZM159.821 71.907C159.821 70.829 158.798 70.114 157.335 70.114C155.872 70.114 154.849 70.829 154.849 71.907C154.849 72.974 155.872 73.7 157.335 73.7C158.798 73.7 159.821 72.974 159.821 71.907ZM160.888 76.703H157.181V75.988H160.888V76.703ZM160.888 74.899H157.181V74.129H155.74V77.825H162.329V74.129H160.888V74.899ZM163.671 70.246H162.329V67.826H160.877V73.755H162.329V71.434H163.671V70.246ZM172.679 71.951H167.047V71.192H172.36V70.092H167.047V69.355H172.58V68.211H165.606V73.095H172.679V71.951ZM173.636 73.821H164.462V74.998H168.312V77.957H169.764V74.998H173.636V73.821ZM178.31 69.982H180.323V68.783H174.757V69.982H176.858V70.543C176.858 72.215 176.033 74.118 174.372 74.888L175.186 76.043C176.341 75.493 177.155 74.382 177.606 73.062C178.057 74.261 178.849 75.273 179.971 75.79L180.774 74.646C179.113 73.876 178.31 72.083 178.31 70.543V69.982ZM183.997 71.676H182.523V67.815H181.071V77.946H182.523V72.875H183.997V71.676ZM136.643 85.412C134.344 85.093 133.178 83.773 133.178 82.596V82.112H131.627V82.596C131.627 83.784 130.472 85.093 128.162 85.412L128.712 86.578C130.483 86.314 131.759 85.489 132.408 84.4C133.057 85.489 134.322 86.314 136.093 86.578L136.643 85.412ZM136.973 87.326H127.821V88.503H131.638V91.957H133.09V88.503H136.973V87.326ZM139.436 88.228V89.383H144.881V91.957H146.344V88.228H139.436ZM144.881 81.826V87.766H146.344V81.826H144.881ZM140.822 82.365C139.271 82.365 138.072 83.41 138.072 84.851C138.072 86.292 139.271 87.326 140.822 87.326C142.395 87.326 143.583 86.292 143.583 84.851C143.583 83.41 142.395 82.365 140.822 82.365ZM140.822 83.597C141.592 83.597 142.164 84.059 142.164 84.851C142.164 85.632 141.592 86.105 140.822 86.105C140.063 86.105 139.491 85.632 139.491 84.851C139.491 84.059 140.063 83.597 140.822 83.597ZM148.928 86.105C150.842 85.929 152.085 85.225 152.624 84.257C153.152 85.225 154.406 85.929 156.309 86.105L156.815 84.972C154.89 84.807 153.9 84.136 153.669 83.443H156.375V82.288H148.884V83.443H151.579C151.348 84.136 150.358 84.807 148.444 84.972L148.928 86.105ZM152.602 90.835C151.249 90.835 150.556 90.593 150.556 90.065C150.556 89.537 151.249 89.306 152.602 89.306C153.955 89.306 154.648 89.537 154.648 90.065C154.648 90.593 153.955 90.835 152.602 90.835ZM152.602 88.184C150.413 88.184 149.093 88.877 149.093 90.065C149.093 91.264 150.413 91.946 152.602 91.946C154.791 91.946 156.122 91.264 156.122 90.065C156.122 88.877 154.791 88.184 152.602 88.184ZM148.048 86.49V87.634H157.2V86.49H148.048ZM163.359 87.216V88.338H165.317V89.438H166.769V81.815H165.317V87.216H163.359ZM160.928 90.615V88.822H162.193V86.644C163.04 86.567 163.887 86.479 164.712 86.325L164.613 85.302C164.305 85.346 163.986 85.39 163.667 85.423C163.843 84.147 163.843 83.212 163.843 82.673V82.321H159.014V83.476H162.402C162.38 84.004 162.325 84.686 162.204 85.533C160.73 85.621 159.278 85.632 158.09 85.632L158.266 86.787C159.014 86.787 159.861 86.776 160.752 86.732V88.679H159.476V91.77H166.989V90.615H160.928ZM170.563 88.525C170.013 88.525 169.683 87.766 169.683 86.204C169.683 84.653 170.013 83.894 170.563 83.894C171.124 83.894 171.443 84.653 171.443 86.204C171.443 87.766 171.124 88.525 170.563 88.525ZM173.544 85.544H172.741C172.576 83.652 171.762 82.53 170.563 82.53C169.221 82.53 168.374 83.916 168.374 86.204C168.374 88.503 169.221 89.889 170.563 89.889C171.795 89.889 172.62 88.701 172.752 86.721H173.544V91.495H174.897V81.98H173.544V85.544ZM175.601 81.804V91.935H176.976V81.804H175.601ZM187.003 86.435C185.441 85.907 184.737 84.686 184.715 83.531H186.684V82.376H181.239V83.531H183.23C183.208 84.785 182.471 86.072 180.843 86.622L181.58 87.766C182.757 87.381 183.549 86.567 184 85.577C184.429 86.479 185.188 87.205 186.299 87.568L187.003 86.435ZM182.46 89.449H187.916V91.957H189.368V88.294H182.46V89.449ZM187.916 81.826V84.235H186.42V85.401H187.916V87.843H189.368V81.826H187.916ZM195.571 90.857C194.218 90.857 193.525 90.626 193.525 90.109C193.525 89.592 194.218 89.372 195.571 89.372C196.924 89.372 197.617 89.592 197.617 90.109C197.617 90.626 196.924 90.857 195.571 90.857ZM195.571 88.272C193.382 88.272 192.062 88.932 192.062 90.109C192.062 91.286 193.382 91.957 195.571 91.957C197.76 91.957 199.091 91.286 199.091 90.109C199.091 88.932 197.76 88.272 195.571 88.272ZM194.526 85.775C194.856 85.819 195.208 85.841 195.593 85.841C195.967 85.841 196.319 85.819 196.638 85.786V86.622H194.526V85.775ZM195.593 83.069C196.979 83.069 197.771 83.344 197.771 83.916C197.771 84.466 196.979 84.752 195.593 84.752C194.218 84.752 193.426 84.466 193.426 83.916C193.426 83.344 194.218 83.069 195.593 83.069ZM198.09 86.622V85.412C198.838 85.082 199.267 84.576 199.267 83.916C199.267 82.706 197.837 81.969 195.593 81.969C193.36 81.969 191.93 82.706 191.93 83.916C191.93 84.565 192.348 85.071 193.074 85.401V86.622H191.017V87.766H200.169V86.622H198.09Z" fill="white"/>
<g clip-path="url(#clip1_723_3653)">
<path d="M169.654 55.7958H159.201C158.3 55.7944 157.437 55.436 156.8 54.7993C156.164 54.1625 155.805 53.2992 155.804 52.3987V35.6745C155.805 34.7739 156.164 33.9106 156.8 33.2739C157.437 32.6371 158.3 32.2787 159.201 32.2773H169.654C170.554 32.2787 171.417 32.6371 172.054 33.2739C172.691 33.9106 173.049 34.7739 173.051 35.6745V52.3987C173.051 53.2996 172.693 54.1637 172.056 54.8008C171.419 55.4379 170.555 55.7958 169.654 55.7958ZM159.201 33.8452C158.716 33.8466 158.252 34.0398 157.909 34.3825C157.566 34.7253 157.373 35.1897 157.372 35.6745V52.3987C157.373 52.8834 157.566 53.3479 157.909 53.6906C158.252 54.0333 158.716 54.2265 159.201 54.2279H169.654C170.139 54.2279 170.604 54.0352 170.947 53.6921C171.29 53.3491 171.483 52.8838 171.483 52.3987V35.6745C171.483 35.1893 171.29 34.724 170.947 34.381C170.604 34.038 170.139 33.8452 169.654 33.8452H159.201Z" fill="white"/>
<path d="M166.371 34.8902H162.488C162.28 34.8902 162.081 34.8076 161.934 34.6606C161.787 34.5135 161.704 34.3141 161.704 34.1062C161.704 33.8983 161.787 33.6989 161.934 33.5519C162.081 33.4049 162.28 33.3223 162.488 33.3223H166.371C166.579 33.3223 166.779 33.4049 166.926 33.5519C167.073 33.6989 167.155 33.8983 167.155 34.1062C167.155 34.3141 167.073 34.5135 166.926 34.6606C166.779 34.8076 166.579 34.8902 166.371 34.8902Z" fill="white"/>
<path d="M167.27 45.6887C167.047 45.5148 166.868 45.291 166.748 45.0354C166.65 44.8235 166.595 44.5944 166.586 44.3612C166.572 44.1158 166.61 43.8702 166.695 43.6399C166.813 43.3372 167.016 43.0755 167.281 42.8874L167.443 42.7776C167.443 42.7776 167.474 42.7515 167.443 42.7201C167.251 42.458 166.99 42.2537 166.69 42.1296C166.39 42.0021 166.065 41.9432 165.739 41.9571C165.525 41.9736 165.314 42.0194 165.112 42.093C164.918 42.1609 164.725 42.2341 164.532 42.2968C164.425 42.3323 164.309 42.3323 164.202 42.2968C164.02 42.2445 163.847 42.1766 163.68 42.1191C163.492 42.0464 163.295 41.9989 163.095 41.978C162.928 41.9648 162.76 41.9807 162.598 42.025C162.093 42.1372 161.652 42.4431 161.37 42.8769C161.584 43.0422 161.758 43.2544 161.877 43.4972C161.997 43.74 162.059 44.0069 162.06 44.2776C162.06 44.5847 161.98 44.8866 161.829 45.154C161.678 45.4213 161.46 45.6451 161.197 45.8037C161.365 46.3116 161.616 46.7884 161.94 47.2148C162.072 47.402 162.22 47.5769 162.384 47.7374C162.497 47.8472 162.628 47.9372 162.77 48.0039C162.98 48.0798 163.209 48.0798 163.419 48.0039C163.586 47.9569 163.743 47.889 163.899 47.8315C164.114 47.7544 164.341 47.7207 164.568 47.7322C164.764 47.7457 164.957 47.7917 165.138 47.8681C165.297 47.9343 165.461 47.985 165.629 48.0196C165.78 48.0511 165.936 48.0472 166.084 48.0082C166.233 47.9692 166.371 47.8961 166.486 47.7949C166.684 47.6276 166.859 47.4362 167.009 47.2252C167.298 46.847 167.526 46.4254 167.683 45.9761C167.678 45.9627 167.678 45.9478 167.683 45.9343V45.9082C167.535 45.8561 167.396 45.7821 167.27 45.6887Z" fill="white"/>
<path d="M164.354 41.93C164.578 41.9411 164.801 41.8885 164.997 41.7784C165.397 41.5537 165.708 41.1999 165.88 40.775C165.943 40.6277 165.979 40.47 165.985 40.3098C165.985 40.2158 165.985 40.1269 165.985 40.0381H165.917C165.882 40.0436 165.847 40.0436 165.812 40.0381C165.63 40.0748 165.454 40.1382 165.29 40.2262C165.171 40.2877 165.059 40.3612 164.955 40.4457C164.746 40.6235 164.579 40.8446 164.464 41.0938C164.343 41.3366 164.291 41.6075 164.312 41.8777C164.312 41.9196 164.323 41.93 164.354 41.93Z" fill="white"/>
</g>
<circle cx="270.654" cy="58.6538" r="58.3079" fill="white" fill-opacity="0.2" stroke="white" stroke-width="0.691719"/>
<path d="M247.672 70.312H243.723V69.718H247.672V70.312ZM249.113 67.991H247.672V68.662H243.723V67.991H242.282V71.379H249.113V67.991ZM243.613 76.219H249.157V73.645H242.161V74.712H247.727V75.229H242.172V77.869H249.421V76.791H243.613V76.219ZM241.116 71.929V73.073H250.268V71.929H241.116ZM252.247 76.109H257.901V77.913H259.353V74.965H252.247V76.109ZM256.548 73.238V72.512H259.496V71.412H253.809V70.752H259.287V68.013H252.357V69.113H257.857V69.729H252.379V72.512H255.096V73.238H251.235V74.393H260.409V73.238H256.548ZM264.5 70.675H266.051V69.509H264.5V68.145H263.125V69.509H261.541V70.675H263.125V70.884C263.125 72.446 262.608 74.107 261.167 74.954L261.981 76.043C262.894 75.515 263.488 74.613 263.829 73.557C264.192 74.525 264.775 75.328 265.666 75.801L266.447 74.723C265.017 73.964 264.5 72.413 264.5 70.884V70.675ZM266.623 71.643H265.468V72.82H266.623V77.484H267.976V67.98H266.623V71.643ZM268.669 67.804V77.935H270.044V67.804H268.669ZM279.888 67.826H278.425V75.097H279.888V67.826ZM273.035 71.038C273.035 70.202 273.629 69.718 274.377 69.718C275.136 69.718 275.708 70.202 275.708 71.038C275.708 71.852 275.136 72.347 274.377 72.347C273.629 72.347 273.035 71.852 273.035 71.038ZM277.127 71.038C277.127 69.542 275.928 68.464 274.377 68.464C272.826 68.464 271.616 69.542 271.616 71.038C271.616 72.512 272.826 73.601 274.377 73.601C275.928 73.601 277.127 72.512 277.127 71.038ZM274.597 76.615V74.382H273.145V77.77H280.141V76.615H274.597ZM286.168 68.321C284.045 68.321 282.395 69.487 282.395 71.258C282.395 73.018 284.045 74.184 286.168 74.184C288.302 74.184 289.952 73.018 289.952 71.258C289.952 69.487 288.302 68.321 286.168 68.321ZM286.168 69.509C287.554 69.509 288.533 70.158 288.533 71.258C288.533 72.336 287.554 72.996 286.168 72.996C284.793 72.996 283.814 72.336 283.814 71.258C283.814 70.158 284.793 69.509 286.168 69.509ZM281.592 75.548V76.736H290.766V75.548H281.592ZM297.013 75.647V74.14H300.082V72.974H294.208V71.841H299.851V68.464H292.756V69.619H298.421V70.708H292.767V74.14H295.561V75.647H291.711V76.835H300.885V75.647H297.013ZM232.692 84.433V85.61H234.276V89.207H235.728V81.815H234.276V84.433H232.692ZM233.363 86.765C231.768 86.226 231.075 84.983 231.075 83.784V83.652H233.044V82.497H227.599V83.652H229.59V83.795C229.59 85.071 228.864 86.402 227.203 86.941L227.94 88.096C229.117 87.7 229.909 86.897 230.36 85.896C230.8 86.809 231.548 87.535 232.659 87.898L233.363 86.765ZM230.503 90.615V88.591H229.051V91.77H235.959V90.615H230.503ZM241.095 83.982H243.108V82.783H237.542V83.982H239.643V84.543C239.643 86.215 238.818 88.118 237.157 88.888L237.971 90.043C239.126 89.493 239.94 88.382 240.391 87.062C240.842 88.261 241.634 89.273 242.756 89.79L243.559 88.646C241.898 87.876 241.095 86.083 241.095 84.543V83.982ZM246.782 85.676H245.308V81.815H243.856V91.946H245.308V86.875H246.782V85.676ZM250.869 86.105C252.783 85.929 254.026 85.225 254.565 84.257C255.093 85.225 256.347 85.929 258.25 86.105L258.756 84.972C256.831 84.807 255.841 84.136 255.61 83.443H258.316V82.288H250.825V83.443H253.52C253.289 84.136 252.299 84.807 250.385 84.972L250.869 86.105ZM254.543 90.835C253.19 90.835 252.497 90.593 252.497 90.065C252.497 89.537 253.19 89.306 254.543 89.306C255.896 89.306 256.589 89.537 256.589 90.065C256.589 90.593 255.896 90.835 254.543 90.835ZM254.543 88.184C252.354 88.184 251.034 88.877 251.034 90.065C251.034 91.264 252.354 91.946 254.543 91.946C256.732 91.946 258.063 91.264 258.063 90.065C258.063 88.877 256.732 88.184 254.543 88.184ZM249.989 86.49V87.634H259.141V86.49H249.989ZM265.3 87.216V88.338H267.258V89.438H268.71V81.815H267.258V87.216H265.3ZM262.869 90.615V88.822H264.134V86.644C264.981 86.567 265.828 86.479 266.653 86.325L266.554 85.302C266.246 85.346 265.927 85.39 265.608 85.423C265.784 84.147 265.784 83.212 265.784 82.673V82.321H260.955V83.476H264.343C264.321 84.004 264.266 84.686 264.145 85.533C262.671 85.621 261.219 85.632 260.031 85.632L260.207 86.787C260.955 86.787 261.802 86.776 262.693 86.732V88.679H261.417V91.77H268.93V90.615H262.869ZM281.585 86.435C279.275 86.061 278.032 84.543 278.032 83.102V82.376H276.481V83.102C276.481 84.51 275.227 86.061 272.939 86.435L273.533 87.634C275.304 87.315 276.591 86.358 277.251 85.115C277.911 86.369 279.209 87.315 280.991 87.634L281.585 86.435ZM277.988 89.581V87.315H276.536V89.581H272.719V90.747H281.893V89.581H277.988ZM287.403 83.311C288.723 83.311 289.57 83.707 289.57 84.422C289.57 85.148 288.723 85.533 287.403 85.533C286.072 85.533 285.225 85.148 285.225 84.422C285.225 83.707 286.072 83.311 287.403 83.311ZM287.403 86.688C289.559 86.688 291.066 85.808 291.066 84.422C291.066 83.047 289.559 82.156 287.403 82.156C285.236 82.156 283.74 83.047 283.74 84.422C283.74 85.808 285.236 86.688 287.403 86.688ZM292.012 87.447H282.838V88.624H284.917V91.935H286.38V88.624H288.415V91.935H289.889V88.624H292.012V87.447ZM300.862 86.16C301.093 84.884 301.093 83.883 301.093 83.179V82.552H295.89V83.707H299.663C299.652 84.312 299.608 85.049 299.443 85.995L300.862 86.16ZM301.533 86.567C300.587 86.699 299.575 86.776 298.574 86.82V84.906H297.155V86.875C296.495 86.886 295.868 86.886 295.307 86.886L295.439 88.041C297.177 88.03 299.531 87.986 301.621 87.601L301.533 86.567ZM298.233 88.723H296.781V91.77H303.854V90.615H298.233V88.723ZM303.535 84.895V81.804H302.083V89.394H303.535V86.094H304.745V84.895H303.535ZM307.593 86.589H310.882V82.673H306.097V83.828H309.397V85.445H306.108V89.614H307.021C308.858 89.614 310.343 89.548 311.993 89.262L311.839 88.085C310.409 88.327 309.133 88.404 307.593 88.415V86.589ZM312.543 81.804V91.968H313.995V81.804H312.543Z" fill="white"/>
<g clip-path="url(#clip2_723_3653)">
<path d="M270.785 44.7204C270.664 44.7199 270.544 44.6881 270.439 44.6281L265.6 41.858C265.495 41.7968 265.408 41.7092 265.347 41.6039C265.287 41.4987 265.254 41.3793 265.254 41.2578C265.255 41.1363 265.287 41.0171 265.348 40.9119C265.409 40.8067 265.496 40.7191 265.6 40.6576L270.439 37.8874C270.544 37.8262 270.663 37.7939 270.785 37.7939C270.907 37.7939 271.026 37.8262 271.131 37.8874L275.965 40.6576C276.071 40.7184 276.158 40.8059 276.219 40.9112C276.28 41.0166 276.312 41.1361 276.312 41.2578C276.312 41.3795 276.28 41.4992 276.219 41.6046C276.159 41.7101 276.071 41.7975 275.965 41.858L271.131 44.6281C271.026 44.6881 270.907 44.7199 270.785 44.7204ZM267.332 41.2347L270.785 43.2292L274.229 41.2347L270.781 39.2448L267.332 41.2347Z" fill="white"/>
<path d="M270.785 50.302C270.663 50.3038 270.544 50.2718 270.439 50.2097C270.333 50.1496 270.245 50.0623 270.184 49.9568C270.123 49.8512 270.092 49.7313 270.093 49.6095V44.0277C270.092 43.906 270.124 43.7863 270.185 43.6808C270.245 43.5754 270.333 43.488 270.439 43.4275L275.273 40.6574C275.379 40.5984 275.498 40.5674 275.619 40.5674C275.74 40.5674 275.859 40.5984 275.965 40.6574C276.071 40.7182 276.158 40.8057 276.219 40.9111C276.28 41.0164 276.312 41.1359 276.311 41.2576V46.844C276.312 46.9656 276.28 47.0852 276.219 47.1905C276.158 47.2959 276.071 47.3834 275.965 47.4442L271.131 50.2143C271.026 50.2748 270.906 50.3052 270.785 50.302ZM271.478 44.4294V48.4137L274.926 46.4193V42.4349L271.478 44.4294Z" fill="white"/>
<path d="M270.785 50.3018C270.663 50.3035 270.544 50.2716 270.439 50.2094L265.6 47.4393C265.496 47.3778 265.409 47.2901 265.348 47.1849C265.287 47.0797 265.255 46.9606 265.254 46.8391V41.2527C265.255 41.1313 265.287 41.0121 265.348 40.9069C265.409 40.8017 265.496 40.714 265.6 40.6525C265.706 40.5935 265.825 40.5625 265.947 40.5625C266.068 40.5625 266.187 40.5935 266.293 40.6525L271.131 43.4226C271.236 43.4838 271.324 43.5714 271.384 43.6767C271.445 43.7819 271.477 43.9013 271.478 44.0228V49.6046C271.478 49.7263 271.446 49.8458 271.385 49.9511C271.324 50.0565 271.237 50.144 271.131 50.2048C271.027 50.2685 270.907 50.3021 270.785 50.3018ZM266.63 46.419L270.083 48.4135V44.4291L266.63 42.4346V46.419Z" fill="white"/>
<path d="M270.785 36.5664C270.601 36.5664 270.425 36.4934 270.295 36.3636C270.166 36.2337 270.093 36.0575 270.093 35.8739V32.9699C270.093 32.7862 270.166 32.6101 270.295 32.4802C270.425 32.3503 270.601 32.2773 270.785 32.2773C270.969 32.2773 271.145 32.3503 271.275 32.4802C271.405 32.6101 271.478 32.7862 271.478 32.9699V35.8739C271.478 36.0575 271.405 36.2337 271.275 36.3636C271.145 36.4934 270.969 36.5664 270.785 36.5664Z" fill="white"/>
<path d="M273.306 35.1167C273.185 35.1156 273.065 35.0839 272.96 35.0244L270.448 33.5701C270.369 33.5247 270.3 33.4641 270.245 33.392C270.189 33.3198 270.148 33.2374 270.125 33.1495C270.101 33.0616 270.095 32.9699 270.107 32.8797C270.119 32.7895 270.149 32.7025 270.194 32.6236C270.286 32.4713 270.434 32.3604 270.606 32.314C270.778 32.2676 270.961 32.2892 271.117 32.3743L273.629 33.824C273.782 33.9156 273.894 34.0627 273.941 34.2347C273.989 34.4068 273.968 34.5904 273.883 34.7474C273.827 34.8537 273.745 34.9437 273.643 35.0084C273.542 35.0732 273.426 35.1105 273.306 35.1167Z" fill="white"/>
<path d="M268.274 35.1161C268.152 35.1167 268.032 35.0849 267.927 35.0241C267.821 34.9632 267.734 34.8755 267.673 34.7698C267.588 34.6134 267.567 34.4302 267.613 34.2582C267.659 34.0863 267.77 33.9388 267.923 33.8465L270.439 32.3968C270.597 32.3044 270.786 32.2788 270.964 32.3256C271.141 32.3723 271.293 32.4876 271.385 32.6461C271.431 32.7249 271.46 32.8119 271.472 32.9021C271.484 32.9924 271.478 33.084 271.455 33.1719C271.431 33.2598 271.39 33.3422 271.335 33.4144C271.279 33.4866 271.21 33.5471 271.131 33.5925L268.615 35.0469C268.509 35.0983 268.391 35.1221 268.274 35.1161Z" fill="white"/>
<path d="M277.987 40.5877C277.866 40.5873 277.747 40.5551 277.641 40.4943C277.536 40.4336 277.448 40.3464 277.387 40.2414C277.304 40.0842 277.283 39.9009 277.331 39.7292C277.378 39.5575 277.489 39.4104 277.641 39.318L280.157 37.8683C280.314 37.7835 280.498 37.7626 280.67 37.8099C280.842 37.8573 280.989 37.9691 281.081 38.1222C281.166 38.2792 281.186 38.4629 281.139 38.6349C281.092 38.8069 280.98 38.954 280.827 39.0456L278.311 40.4999C278.212 40.5547 278.101 40.5847 277.987 40.5877Z" fill="white"/>
<path d="M280.504 42.0374C280.32 42.0374 280.144 41.9644 280.014 41.8345C279.884 41.7047 279.811 41.5285 279.811 41.3448V38.4455C279.811 38.2618 279.884 38.0856 280.014 37.9558C280.144 37.8259 280.32 37.7529 280.504 37.7529C280.687 37.7529 280.863 37.8259 280.993 37.9558C281.123 38.0856 281.196 38.2618 281.196 38.4455V41.3264C281.199 41.4189 281.183 41.5109 281.149 41.5971C281.115 41.6832 281.065 41.7618 281 41.8281C280.935 41.8943 280.858 41.947 280.773 41.983C280.688 42.0189 280.596 42.0374 280.504 42.0374Z" fill="white"/>
<path d="M280.504 39.1386C280.382 39.1387 280.262 39.1051 280.157 39.0416L277.641 37.5919C277.489 37.4996 277.378 37.3525 277.331 37.1808C277.283 37.0091 277.304 36.8258 277.387 36.6686C277.48 36.5163 277.627 36.4052 277.798 36.358C277.97 36.3107 278.153 36.331 278.311 36.4146L280.827 37.869C280.979 37.9613 281.09 38.1084 281.137 38.2801C281.185 38.4518 281.164 38.6351 281.081 38.7923C281.022 38.8941 280.938 38.9792 280.837 39.0397C280.736 39.1003 280.621 39.1343 280.504 39.1386Z" fill="white"/>
<path d="M263.61 40.5881C263.489 40.587 263.37 40.5552 263.264 40.4957L260.753 39.0414C260.598 38.9515 260.484 38.8044 260.437 38.6317C260.389 38.459 260.412 38.2745 260.499 38.118C260.544 38.0387 260.604 37.9692 260.676 37.9134C260.748 37.8576 260.831 37.8167 260.919 37.793C261.007 37.7694 261.099 37.7635 261.189 37.7757C261.28 37.7879 261.367 37.818 261.445 37.8641L263.957 39.3138C264.11 39.4054 264.222 39.5525 264.269 39.7245C264.316 39.8965 264.295 40.0802 264.211 40.2372C264.15 40.3434 264.063 40.4318 263.958 40.4934C263.852 40.555 263.733 40.5877 263.61 40.5881Z" fill="white"/>
<path d="M261.113 42.0374C260.929 42.0374 260.753 41.9644 260.623 41.8345C260.493 41.7047 260.42 41.5285 260.42 41.3448V38.4455C260.42 38.2618 260.493 38.0856 260.623 37.9558C260.753 37.8259 260.929 37.7529 261.113 37.7529C261.296 37.7529 261.473 37.8259 261.602 37.9558C261.732 38.0856 261.805 38.2618 261.805 38.4455V41.3264C261.808 41.4189 261.792 41.5109 261.758 41.5971C261.724 41.6832 261.674 41.7618 261.609 41.8281C261.545 41.8943 261.467 41.947 261.382 41.983C261.297 42.0189 261.205 42.0374 261.113 42.0374Z" fill="white"/>
<path d="M261.113 39.1381C260.991 39.1382 260.872 39.1062 260.766 39.0454C260.661 38.9846 260.573 38.8972 260.513 38.7918C260.427 38.6351 260.405 38.4511 260.452 38.2787C260.5 38.1063 260.613 37.9592 260.767 37.8685L263.278 36.4141C263.357 36.3686 263.444 36.3391 263.534 36.3272C263.624 36.3153 263.716 36.3214 263.804 36.3449C263.892 36.3685 263.974 36.4092 264.046 36.4646C264.119 36.5201 264.179 36.5892 264.225 36.6681C264.309 36.8251 264.33 37.0087 264.283 37.1807C264.236 37.3528 264.124 37.4999 263.971 37.5914L261.459 39.0411C261.354 39.1034 261.235 39.1368 261.113 39.1381Z" fill="white"/>
<path d="M261.113 50.3157C260.991 50.3158 260.872 50.2839 260.766 50.2231C260.661 50.1623 260.573 50.0748 260.513 49.9695C260.466 49.8908 260.436 49.8038 260.424 49.7134C260.412 49.6231 260.418 49.5312 260.441 49.4431C260.465 49.355 260.506 49.2726 260.562 49.2004C260.618 49.1283 260.687 49.068 260.766 49.023L263.278 47.5733C263.357 47.5278 263.444 47.4983 263.534 47.4864C263.624 47.4745 263.716 47.4806 263.804 47.5041C263.892 47.5277 263.974 47.5684 264.046 47.6238C264.119 47.6793 264.179 47.7484 264.225 47.8273C264.309 47.9843 264.33 48.1679 264.283 48.3399C264.236 48.5119 264.124 48.6591 263.971 48.7506L261.459 50.2003C261.356 50.2695 261.236 50.3094 261.113 50.3157Z" fill="white"/>
<path d="M261.113 50.3157C260.929 50.3157 260.753 50.2427 260.623 50.1129C260.493 49.983 260.42 49.8068 260.42 49.6232V46.7238C260.42 46.5401 260.493 46.364 260.623 46.2341C260.753 46.1042 260.929 46.0312 261.113 46.0312C261.296 46.0312 261.473 46.1042 261.602 46.2341C261.732 46.364 261.805 46.5401 261.805 46.7238V49.637C261.802 49.8183 261.727 49.9909 261.598 50.1178C261.468 50.2447 261.294 50.3157 261.113 50.3157Z" fill="white"/>
<path d="M263.61 51.7653C263.489 51.7664 263.369 51.7344 263.264 51.673L260.753 50.2233C260.599 50.1325 260.486 49.9854 260.439 49.813C260.391 49.6407 260.413 49.4567 260.499 49.2999C260.544 49.2211 260.605 49.152 260.677 49.0965C260.749 49.0411 260.831 49.0004 260.919 48.9768C261.007 48.9532 261.099 48.9472 261.189 48.959C261.279 48.9709 261.366 49.0005 261.445 49.046L263.957 50.5003C264.111 50.5911 264.223 50.7382 264.271 50.9106C264.318 51.0829 264.297 51.2669 264.211 51.4237C264.15 51.5288 264.062 51.6159 263.957 51.6759C263.851 51.736 263.732 51.7668 263.61 51.7653Z" fill="white"/>
<path d="M280.504 50.3156C280.382 50.3173 280.262 50.2854 280.157 50.2233L277.641 48.7736C277.489 48.6812 277.378 48.5341 277.331 48.3624C277.283 48.1907 277.304 48.0074 277.387 47.8502C277.48 47.6979 277.627 47.5868 277.798 47.5396C277.97 47.4924 278.153 47.5127 278.311 47.5963L280.827 49.0459C280.985 49.1386 281.101 49.2899 281.148 49.4671C281.196 49.6442 281.172 49.833 281.081 49.9924C281.019 50.0899 280.934 50.1704 280.833 50.2268C280.732 50.2832 280.619 50.3137 280.504 50.3156Z" fill="white"/>
<path d="M280.504 50.3157C280.32 50.3157 280.144 50.2427 280.014 50.1129C279.884 49.983 279.811 49.8068 279.811 49.6232V46.7238C279.811 46.5401 279.884 46.364 280.014 46.2341C280.144 46.1042 280.32 46.0312 280.504 46.0312C280.687 46.0312 280.863 46.1042 280.993 46.2341C281.123 46.364 281.196 46.5401 281.196 46.7238V49.637C281.193 49.8183 281.118 49.9909 280.988 50.1178C280.859 50.2447 280.685 50.3157 280.504 50.3157Z" fill="white"/>
<path d="M277.987 51.7655C277.866 51.766 277.746 51.7343 277.641 51.6734C277.535 51.6126 277.448 51.5248 277.387 51.4192C277.297 51.2597 277.272 51.071 277.32 50.8938C277.367 50.7166 277.483 50.5654 277.641 50.4727L280.157 49.023C280.315 48.9394 280.498 48.9191 280.67 48.9664C280.841 49.0136 280.988 49.1247 281.081 49.277C281.164 49.4342 281.185 49.6175 281.137 49.7892C281.09 49.9609 280.979 50.108 280.827 50.2003L278.311 51.65C278.215 51.7163 278.103 51.7561 277.987 51.7655Z" fill="white"/>
<path d="M270.785 55.884C270.691 55.8865 270.598 55.87 270.511 55.8354C270.424 55.8009 270.345 55.749 270.278 55.683C270.212 55.6169 270.16 55.5381 270.124 55.4512C270.089 55.3644 270.072 55.2713 270.074 55.1776V52.2736C270.074 52.0899 270.147 51.9138 270.277 51.7839C270.407 51.654 270.583 51.5811 270.767 51.5811C270.95 51.5811 271.126 51.654 271.256 51.7839C271.386 51.9138 271.459 52.0899 271.459 52.2736V55.1776C271.463 55.3605 271.394 55.5374 271.268 55.6698C271.142 55.8021 270.968 55.8791 270.785 55.884Z" fill="white"/>
<path d="M270.785 55.8839C270.663 55.884 270.543 55.8504 270.439 55.7869L267.923 54.3372C267.77 54.2449 267.659 54.0975 267.613 53.9255C267.567 53.7535 267.588 53.5703 267.673 53.4138C267.764 53.2598 267.911 53.1472 268.084 53.0998C268.256 53.0524 268.44 53.074 268.597 53.1599L271.113 54.6142C271.266 54.7058 271.378 54.8529 271.425 55.025C271.472 55.197 271.452 55.3806 271.367 55.5376C271.307 55.64 271.223 55.7255 271.121 55.7861C271.019 55.8467 270.903 55.8803 270.785 55.8839Z" fill="white"/>
<path d="M270.785 55.8833C270.663 55.8834 270.544 55.8514 270.439 55.7906C270.333 55.7298 270.246 55.6424 270.185 55.537C270.1 55.38 270.079 55.1964 270.127 55.0244C270.174 54.8523 270.286 54.7052 270.439 54.6136L272.95 53.1593C273.107 53.0746 273.291 53.0537 273.463 53.101C273.635 53.1483 273.782 53.2601 273.874 53.4132C273.959 53.5702 273.979 53.7539 273.932 53.9259C273.885 54.0979 273.773 54.245 273.62 54.3366L271.108 55.7863C271.01 55.8448 270.899 55.8781 270.785 55.8833Z" fill="white"/>
</g>
<path d="M82.2693 125.077H137.461L129.015 117" stroke="white" stroke-width="0.67307"/>
<path d="M137.461 143.923L82.2692 143.923L90.715 152" stroke="white" stroke-width="0.67307"/>
<path d="M100.269 134.577H95.5939V133.947H100.004V133.034H95.5939V132.422H100.187V131.472H94.3977V135.527H100.269V134.577ZM101.064 136.13H93.448V137.107H96.644V139.563H97.8494V137.107H101.064V136.13ZM104.944 132.943H106.615V131.947H101.994V132.943H103.739V133.408C103.739 134.796 103.054 136.376 101.675 137.015L102.351 137.974C103.309 137.518 103.985 136.595 104.36 135.499C104.734 136.495 105.391 137.335 106.323 137.764L106.989 136.814C105.611 136.175 104.944 134.687 104.944 133.408V132.943ZM109.665 134.349H108.441V131.144H107.236V139.554H108.441V135.344H109.665V134.349ZM117.234 131.153H116.029V135.39H117.234V131.153ZM115.417 134.349C114.057 133.947 113.454 132.97 113.454 131.975V131.345H112.23V131.975C112.23 132.997 111.618 134.057 110.221 134.486L110.806 135.426C111.792 135.125 112.477 134.486 112.86 133.691C113.235 134.422 113.883 135.006 114.842 135.289L115.417 134.349ZM112.842 138.559V138.038H117.244V135.764H111.637V136.687H116.047V137.18H111.646V139.49H117.454V138.559H112.842ZM124.064 134.194H124.685V136.403H125.827V131.144H124.685V133.217H124.064V131.299H122.941V136.139H124.064V134.194ZM122.704 132.002H121.252V131.235H120.064V132.002H118.613V132.933H122.704V132.002ZM119.927 134.668C119.927 134.276 120.229 134.066 120.676 134.066C121.124 134.066 121.416 134.276 121.416 134.668C121.416 135.061 121.124 135.28 120.676 135.28C120.229 135.28 119.927 135.061 119.927 134.668ZM122.484 134.668C122.484 133.801 121.736 133.207 120.676 133.207C119.608 133.207 118.859 133.801 118.859 134.668C118.859 135.536 119.608 136.139 120.676 136.139C121.736 136.139 122.484 135.536 122.484 134.668ZM122.977 138.659C121.854 138.659 121.288 138.467 121.288 138.029C121.288 137.591 121.854 137.399 122.977 137.399C124.101 137.399 124.667 137.591 124.667 138.029C124.667 138.467 124.101 138.659 122.977 138.659ZM122.977 136.495C121.169 136.495 120.083 137.052 120.083 138.029C120.083 139.006 121.169 139.554 122.977 139.554C124.786 139.554 125.872 139.006 125.872 138.029C125.872 137.052 124.786 136.495 122.977 136.495Z" fill="white"/>
<path d="M191 125.077H246.192L237.746 117" stroke="white" stroke-width="0.67307"/>
<path d="M246.192 143.923L191 143.923L199.446 152" stroke="white" stroke-width="0.67307"/>
<path d="M209 134.577H204.325V133.947H208.735V133.034H204.325V132.422H208.918V131.472H203.128V135.527H209V134.577ZM209.794 136.13H202.179V137.107H205.375V139.563H206.58V137.107H209.794V136.13ZM213.675 132.943H215.346V131.947H210.725V132.943H212.469V133.408C212.469 134.796 211.784 136.376 210.406 137.015L211.081 137.974C212.04 137.518 212.716 136.595 213.09 135.499C213.465 136.495 214.122 137.335 215.054 137.764L215.72 136.814C214.341 136.175 213.675 134.687 213.675 133.408V132.943ZM218.396 134.349H217.172V131.144H215.967V139.554H217.172V135.344H218.396V134.349ZM225.965 131.153H224.76V135.39H225.965V131.153ZM224.148 134.349C222.787 133.947 222.185 132.97 222.185 131.975V131.345H220.961V131.975C220.961 132.997 220.349 134.057 218.952 134.486L219.536 135.426C220.523 135.125 221.208 134.486 221.591 133.691C221.965 134.422 222.614 135.006 223.573 135.289L224.148 134.349ZM221.573 138.559V138.038H225.974V135.764H220.367V136.687H224.778V137.18H220.377V139.49H226.184V138.559H221.573ZM232.795 134.194H233.416V136.403H234.557V131.144H233.416V133.217H232.795V131.299H231.672V136.139H232.795V134.194ZM231.434 132.002H229.982V131.235H228.795V132.002H227.343V132.933H231.434V132.002ZM228.658 134.668C228.658 134.276 228.96 134.066 229.407 134.066C229.854 134.066 230.147 134.276 230.147 134.668C230.147 135.061 229.854 135.28 229.407 135.28C228.96 135.28 228.658 135.061 228.658 134.668ZM231.215 134.668C231.215 133.801 230.466 133.207 229.407 133.207C228.339 133.207 227.59 133.801 227.59 134.668C227.59 135.536 228.339 136.139 229.407 136.139C230.466 136.139 231.215 135.536 231.215 134.668ZM231.708 138.659C230.585 138.659 230.019 138.467 230.019 138.029C230.019 137.591 230.585 137.399 231.708 137.399C232.831 137.399 233.397 137.591 233.397 138.029C233.397 138.467 232.831 138.659 231.708 138.659ZM231.708 136.495C229.9 136.495 228.813 137.052 228.813 138.029C228.813 139.006 229.9 139.554 231.708 139.554C233.516 139.554 234.603 139.006 234.603 138.029C234.603 137.052 233.516 136.495 231.708 136.495Z" fill="white"/>
<defs>
<clipPath id="clip0_723_3653">
<rect width="22.0485" height="23.5184" fill="white" transform="translate(47.426 32.2773)"/>
</clipPath>
<clipPath id="clip1_723_3653">
<rect width="17.2469" height="23.5184" fill="white" transform="translate(155.804 32.2773)"/>
</clipPath>
<clipPath id="clip2_723_3653">
<rect width="20.7759" height="23.6014" fill="white" transform="translate(260.42 32.2773)"/>
</clipPath>
</defs>
</svg>
