<svg width="784" height="170" viewBox="0 0 784 170" fill="none" xmlns="http://www.w3.org/2000/svg">
<path d="M504 71H586L573.452 59" stroke="white"/>
<path d="M586 99L504 99L516.548 111" stroke="white"/>
<path d="M530.743 84.7727H523.797V83.8366H530.35V82.4799H523.797V81.5709H530.621V80.1599H522.019V86.1837H530.743V84.7727ZM531.923 87.0791H520.609V88.5308H525.357V92.1803H527.148V88.5308H531.923V87.0791ZM537.688 82.3442H540.171V80.8654H533.306V82.3442H535.898V83.0361C535.898 85.0983 534.88 87.4454 532.831 88.3951L533.835 89.8197C535.26 89.1413 536.264 87.771 536.82 86.143C537.376 87.6218 538.353 88.87 539.737 89.5076L540.727 88.0966C538.679 87.1469 537.688 84.9355 537.688 83.0361V82.3442ZM544.703 84.4335H542.885V79.6715H541.094V92.1668H542.885V85.9123H544.703V84.4335ZM555.949 79.6851H554.158V85.9802H555.949V79.6851ZM553.249 84.4335C551.227 83.8366 550.332 82.3849 550.332 80.9061V79.97H548.514V80.9061C548.514 82.4256 547.605 83.9994 545.529 84.637L546.397 86.0344C547.863 85.5867 548.88 84.637 549.45 83.4567C550.006 84.5421 550.97 85.4104 552.394 85.8309L553.249 84.4335ZM549.423 90.688V89.9146H555.962V86.5364H547.632V87.9067H554.185V88.6393H547.646V92.0718H556.274V90.688H549.423ZM566.096 84.2029H567.018V87.4861H568.714V79.6715H567.018V82.7512H566.096V79.9021H564.427V87.0927H566.096V84.2029ZM564.074 80.9468H561.917V79.8072H560.153V80.9468H557.996V82.3306H564.074V80.9468ZM559.95 84.9084C559.95 84.325 560.398 84.013 561.062 84.013C561.727 84.013 562.161 84.325 562.161 84.9084C562.161 85.4918 561.727 85.8174 561.062 85.8174C560.398 85.8174 559.95 85.4918 559.95 84.9084ZM563.749 84.9084C563.749 83.6195 562.636 82.7376 561.062 82.7376C559.475 82.7376 558.363 83.6195 558.363 84.9084C558.363 86.1973 559.475 87.0927 561.062 87.0927C562.636 87.0927 563.749 86.1973 563.749 84.9084ZM564.481 90.8372C562.813 90.8372 561.971 90.5523 561.971 89.9011C561.971 89.2498 562.813 88.9649 564.481 88.9649C566.15 88.9649 566.991 89.2498 566.991 89.9011C566.991 90.5523 566.15 90.8372 564.481 90.8372ZM564.481 87.6218C561.795 87.6218 560.181 88.4494 560.181 89.9011C560.181 91.3527 561.795 92.1668 564.481 92.1668C567.168 92.1668 568.782 91.3527 568.782 89.9011C568.782 88.4494 567.168 87.6218 564.481 87.6218Z" fill="white"/>
<path d="M198 71H280L267.452 59" stroke="white"/>
<path d="M280 99L198 99L210.548 111" stroke="white"/>
<path d="M224.743 84.7727H217.797V83.8366H224.35V82.4799H217.797V81.5709H224.621V80.1599H216.019V86.1837H224.743V84.7727ZM225.923 87.0791H214.609V88.5308H219.357V92.1803H221.148V88.5308H225.923V87.0791ZM231.688 82.3442H234.171V80.8654H227.306V82.3442H229.898V83.0361C229.898 85.0983 228.88 87.4454 226.831 88.3951L227.835 89.8197C229.26 89.1413 230.264 87.771 230.82 86.143C231.376 87.6218 232.353 88.87 233.737 89.5076L234.727 88.0966C232.679 87.1469 231.688 84.9355 231.688 83.0361V82.3442ZM238.703 84.4335H236.885V79.6715H235.094V92.1668H236.885V85.9123H238.703V84.4335ZM249.949 79.6851H248.158V85.9802H249.949V79.6851ZM247.249 84.4335C245.227 83.8366 244.332 82.3849 244.332 80.9061V79.97H242.514V80.9061C242.514 82.4256 241.605 83.9994 239.529 84.637L240.397 86.0344C241.863 85.5867 242.88 84.637 243.45 83.4567C244.006 84.5421 244.97 85.4104 246.394 85.8309L247.249 84.4335ZM243.423 90.688V89.9146H249.962V86.5364H241.632V87.9067H248.185V88.6393H241.646V92.0718H250.274V90.688H243.423ZM260.096 84.2029H261.018V87.4861H262.714V79.6715H261.018V82.7512H260.096V79.9021H258.427V87.0927H260.096V84.2029ZM258.074 80.9468H255.917V79.8072H254.153V80.9468H251.996V82.3306H258.074V80.9468ZM253.95 84.9084C253.95 84.325 254.398 84.013 255.062 84.013C255.727 84.013 256.161 84.325 256.161 84.9084C256.161 85.4918 255.727 85.8174 255.062 85.8174C254.398 85.8174 253.95 85.4918 253.95 84.9084ZM257.749 84.9084C257.749 83.6195 256.636 82.7376 255.062 82.7376C253.475 82.7376 252.363 83.6195 252.363 84.9084C252.363 86.1973 253.475 87.0927 255.062 87.0927C256.636 87.0927 257.749 86.1973 257.749 84.9084ZM258.481 90.8372C256.813 90.8372 255.971 90.5523 255.971 89.9011C255.971 89.2498 256.813 88.9649 258.481 88.9649C260.15 88.9649 260.991 89.2498 260.991 89.9011C260.991 90.5523 260.15 90.8372 258.481 90.8372ZM258.481 87.6218C255.795 87.6218 254.181 88.4494 254.181 89.9011C254.181 91.3527 255.795 92.1668 258.481 92.1668C261.168 92.1668 262.782 91.3527 262.782 89.9011C262.782 88.4494 261.168 87.6218 258.481 87.6218Z" fill="white"/>
<circle cx="391.794" cy="84.7943" r="84.2943" fill="white" fill-opacity="0.2" stroke="white"/>
<path d="M374.91 104.922C373.01 104.366 372.088 103.077 371.993 101.761H374.448V100.35H367.651V101.761H370.148C370.053 103.172 369.144 104.528 367.163 105.112L368.058 106.523C369.523 106.075 370.527 105.139 371.097 103.972C371.667 105.044 372.63 105.899 374.041 106.306L374.91 104.922ZM375.724 110.593H370.975V109.494H375.724V110.593ZM375.724 108.124H370.975V106.984H369.198V112.018H377.501V106.984H375.724V108.124ZM375.696 99.6851V106.455H377.501V99.6851H375.696ZM386.97 100.77H384.175V99.5765H382.37V100.77H379.589V102.168H386.956L386.97 100.77ZM381.923 104.718C381.923 104.121 382.479 103.809 383.279 103.809C384.08 103.809 384.636 104.121 384.636 104.718C384.636 105.315 384.08 105.627 383.279 105.627C382.479 105.627 381.923 105.315 381.923 104.718ZM386.346 104.718C386.346 103.389 385.084 102.507 383.279 102.507C381.475 102.507 380.213 103.389 380.213 104.718C380.213 106.034 381.475 106.93 383.279 106.93C385.084 106.93 386.346 106.034 386.346 104.718ZM387.662 110.634H383.089V109.752H387.662V110.634ZM387.662 108.409H383.089V107.459H381.312V112.018H389.439V107.459H387.662V108.409ZM391.094 102.67H389.439V99.6851H387.648V106.998H389.439V104.135H391.094V102.67ZM402.204 104.773H395.258V103.837H401.811V102.48H395.258V101.571H402.082V100.16H393.481V106.184H402.204V104.773ZM403.385 107.079H392.07V108.531H396.818V112.18H398.609V108.531H403.385V107.079ZM409.15 102.344H411.632V100.865H404.768V102.344H407.359V103.036C407.359 105.098 406.341 107.445 404.293 108.395L405.297 109.82C406.721 109.141 407.725 107.771 408.281 106.143C408.838 107.622 409.815 108.87 411.198 109.508L412.189 108.097C410.14 107.147 409.15 104.936 409.15 103.036V102.344ZM416.164 104.434H414.346V99.6715H412.555V112.167H414.346V105.912H416.164V104.434ZM357.759 124.108C354.923 123.714 353.485 122.086 353.485 120.635V120.038H351.572V120.635C351.572 122.1 350.147 123.714 347.298 124.108L347.977 125.546C350.161 125.22 351.735 124.203 352.535 122.86C353.336 124.203 354.896 125.22 357.08 125.546L357.759 124.108ZM358.166 126.469H346.878V127.92H351.586V132.18H353.376V127.92H358.166V126.469ZM361.204 127.581V129.006H367.919V132.18H369.724V127.581H361.204ZM367.919 119.685V127.011H369.724V119.685H367.919ZM362.913 120.35C361 120.35 359.521 121.639 359.521 123.416C359.521 125.193 361 126.469 362.913 126.469C364.853 126.469 366.318 125.193 366.318 123.416C366.318 121.639 364.853 120.35 362.913 120.35ZM362.913 121.869C363.863 121.869 364.568 122.439 364.568 123.416C364.568 124.379 363.863 124.963 362.913 124.963C361.977 124.963 361.271 124.379 361.271 123.416C361.271 122.439 361.977 121.869 362.913 121.869ZM372.911 124.963C375.272 124.746 376.805 123.877 377.469 122.683C378.121 123.877 379.667 124.746 382.014 124.963L382.638 123.565C380.264 123.362 379.043 122.534 378.758 121.679H382.096V120.255H372.857V121.679H376.181C375.896 122.534 374.675 123.362 372.314 123.565L372.911 124.963ZM377.442 130.796C375.774 130.796 374.919 130.498 374.919 129.847C374.919 129.196 375.774 128.911 377.442 128.911C379.111 128.911 379.966 129.196 379.966 129.847C379.966 130.498 379.111 130.796 377.442 130.796ZM377.442 127.527C374.742 127.527 373.114 128.382 373.114 129.847C373.114 131.326 374.742 132.167 377.442 132.167C380.142 132.167 381.784 131.326 381.784 129.847C381.784 128.382 380.142 127.527 377.442 127.527ZM371.826 125.437V126.848H383.113V125.437H371.826ZM390.71 126.333V127.717H393.125V129.073H394.916V119.671H393.125V126.333H390.71ZM387.711 130.525V128.314H389.272V125.627C390.316 125.532 391.361 125.424 392.379 125.234L392.256 123.972C391.877 124.027 391.483 124.081 391.09 124.121C391.307 122.548 391.307 121.395 391.307 120.73V120.296H385.351V121.72H389.529C389.502 122.371 389.435 123.212 389.285 124.257C387.467 124.366 385.676 124.379 384.211 124.379L384.428 125.804C385.351 125.804 386.395 125.79 387.494 125.736V128.137H385.921V131.95H395.187V130.525H387.711ZM399.595 127.947C398.917 127.947 398.51 127.011 398.51 125.085C398.51 123.172 398.917 122.236 399.595 122.236C400.287 122.236 400.681 123.172 400.681 125.085C400.681 127.011 400.287 127.947 399.595 127.947ZM403.272 124.271H402.281C402.078 121.937 401.074 120.553 399.595 120.553C397.94 120.553 396.895 122.263 396.895 125.085C396.895 127.92 397.94 129.63 399.595 129.63C401.115 129.63 402.132 128.164 402.295 125.722H403.272V131.611H404.941V119.875H403.272V124.271ZM405.809 119.658V132.153H407.505V119.658H405.809ZM419.871 125.37C417.944 124.718 417.076 123.212 417.049 121.788H419.478V120.363H412.762V121.788H415.217C415.19 123.335 414.281 124.922 412.273 125.6L413.182 127.011C414.634 126.536 415.611 125.532 416.167 124.311C416.696 125.424 417.632 126.319 419.003 126.767L419.871 125.37ZM414.268 129.087H420.997V132.18H422.788V127.662H414.268V129.087ZM420.997 119.685V122.656H419.152V124.094H420.997V127.106H422.788V119.685H420.997ZM430.439 130.824C428.77 130.824 427.915 130.539 427.915 129.901C427.915 129.263 428.77 128.992 430.439 128.992C432.107 128.992 432.962 129.263 432.962 129.901C432.962 130.539 432.107 130.824 430.439 130.824ZM430.439 127.635C427.739 127.635 426.111 128.449 426.111 129.901C426.111 131.353 427.739 132.18 430.439 132.18C433.139 132.18 434.78 131.353 434.78 129.901C434.78 128.449 433.139 127.635 430.439 127.635ZM429.15 124.556C429.557 124.61 429.991 124.637 430.466 124.637C430.927 124.637 431.361 124.61 431.755 124.569V125.6H429.15V124.556ZM430.466 121.218C432.175 121.218 433.152 121.557 433.152 122.263C433.152 122.941 432.175 123.294 430.466 123.294C428.77 123.294 427.793 122.941 427.793 122.263C427.793 121.557 428.77 121.218 430.466 121.218ZM433.546 125.6V124.108C434.468 123.701 434.997 123.077 434.997 122.263C434.997 120.77 433.234 119.861 430.466 119.861C427.712 119.861 425.948 120.77 425.948 122.263C425.948 123.063 426.464 123.687 427.359 124.094V125.6H424.822V127.011H436.11V125.6H433.546Z" fill="white"/>
<g clip-path="url(#clip0_644_4296)">
<path d="M399.022 85H383.911C382.609 84.998 381.361 84.4799 380.441 83.5594C379.52 82.6388 379.002 81.3908 379 80.0889V55.9111C379.002 54.6092 379.52 53.3612 380.441 52.4406C381.361 51.5201 382.609 51.002 383.911 51H399.022C400.324 51.002 401.572 51.5201 402.493 52.4406C403.413 53.3612 403.931 54.6092 403.933 55.9111V80.0889C403.933 81.3914 403.416 82.6406 402.495 83.5616C401.574 84.4826 400.325 85 399.022 85ZM383.911 53.2667C383.21 53.2687 382.539 53.5479 382.043 54.0434C381.548 54.5389 381.269 55.2104 381.267 55.9111V80.0889C381.269 80.7896 381.548 81.4611 382.043 81.9566C382.539 82.4521 383.21 82.7313 383.911 82.7333H399.022C399.724 82.7333 400.396 82.4547 400.892 81.9588C401.388 81.4629 401.667 80.7902 401.667 80.0889V55.9111C401.667 55.2098 401.388 54.5371 400.892 54.0412C400.396 53.5453 399.724 53.2667 399.022 53.2667H383.911Z" fill="white"/>
<path d="M394.277 54.7778H388.664C388.363 54.7778 388.075 54.6584 387.862 54.4458C387.65 54.2333 387.53 53.945 387.53 53.6444C387.53 53.3439 387.65 53.0556 387.862 52.843C388.075 52.6305 388.363 52.5111 388.664 52.5111H394.277C394.578 52.5111 394.866 52.6305 395.079 52.843C395.291 53.0556 395.411 53.3439 395.411 53.6444C395.411 53.945 395.291 54.2333 395.079 54.4458C394.866 54.6584 394.578 54.7778 394.277 54.7778Z" fill="white"/>
<path d="M395.577 70.3876C395.255 70.1361 394.996 69.8127 394.821 69.4431C394.68 69.1368 394.6 68.8056 394.587 68.4684C394.568 68.1137 394.622 67.7587 394.746 67.4258C394.915 66.988 395.209 66.6097 395.592 66.3378L395.826 66.1791C395.826 66.1791 395.872 66.1413 395.826 66.096C395.549 65.717 395.172 65.4217 394.738 65.2422C394.304 65.058 393.834 64.9728 393.363 64.9929C393.053 65.0168 392.748 65.0829 392.456 65.1893C392.177 65.2875 391.897 65.3933 391.618 65.484C391.463 65.5353 391.296 65.5353 391.142 65.484C390.877 65.4084 390.628 65.3102 390.386 65.2271C390.114 65.122 389.83 65.0534 389.54 65.0231C389.299 65.0041 389.056 65.0271 388.822 65.0911C388.092 65.2532 387.454 65.6954 387.047 66.3227C387.357 66.5616 387.608 66.8683 387.78 67.2193C387.953 67.5703 388.044 67.9563 388.044 68.3475C388.044 68.7915 387.929 69.228 387.711 69.6145C387.492 70.0011 387.178 70.3246 386.797 70.5538C387.04 71.2881 387.403 71.9774 387.87 72.5938C388.061 72.8644 388.276 73.1173 388.512 73.3493C388.676 73.508 388.865 73.6382 389.072 73.7347C389.374 73.8443 389.706 73.8443 390.008 73.7347C390.25 73.6667 390.477 73.5684 390.704 73.4853C391.013 73.3739 391.342 73.3251 391.671 73.3418C391.954 73.3614 392.232 73.4278 392.494 73.5382C392.723 73.6339 392.961 73.7073 393.204 73.7573C393.422 73.8028 393.647 73.7971 393.862 73.7408C394.077 73.6844 394.276 73.5788 394.444 73.4324C394.729 73.1906 394.983 72.9139 395.199 72.6089C395.617 72.0621 395.946 71.4526 396.174 70.8031C396.166 70.7837 396.166 70.7621 396.174 70.7427V70.7049C395.96 70.6295 395.759 70.5226 395.577 70.3876Z" fill="white"/>
<path d="M391.361 64.9551C391.685 64.9711 392.007 64.8951 392.29 64.736C392.868 64.4111 393.318 63.8996 393.567 63.2853C393.658 63.0723 393.71 62.8444 393.718 62.6129C393.718 62.4769 393.718 62.3484 393.718 62.22H393.62C393.57 62.2279 393.519 62.2279 393.469 62.22C393.205 62.2731 392.95 62.3647 392.713 62.492C392.542 62.5808 392.38 62.6871 392.23 62.8093C391.928 63.0663 391.685 63.386 391.52 63.7462C391.345 64.0972 391.27 64.4889 391.3 64.8795C391.3 64.94 391.316 64.9551 391.361 64.9551Z" fill="white"/>
</g>
<circle cx="698.761" cy="84.7943" r="84.2943" fill="white" fill-opacity="0.2" stroke="white"/>
<path d="M670.194 102.751H665.323V102.019H670.194V102.751ZM671.971 99.8886H670.194V100.716H665.323V99.8886H663.546V104.067H671.971V99.8886ZM665.188 110.037H672.026V106.862H663.397V108.178H670.262V108.816H663.411V112.072H672.351V110.742H665.188V110.037ZM662.108 104.746V106.157H673.396V104.746H662.108ZM675.837 109.901H682.81V112.126H684.601V108.49H675.837V109.901ZM681.142 106.36V105.465H684.778V104.108H677.763V103.294H684.52V99.9157H675.973V101.272H682.756V102.032H676V105.465H679.351V106.36H674.589V107.785H685.904V106.36H681.142ZM690.95 103.199H692.863V101.761H690.95V100.078H689.254V101.761H687.3V103.199H689.254V103.457C689.254 105.383 688.616 107.432 686.839 108.477L687.843 109.82C688.969 109.168 689.701 108.056 690.122 106.754C690.57 107.947 691.289 108.938 692.388 109.521L693.351 108.192C691.587 107.255 690.95 105.343 690.95 103.457V103.199ZM693.568 104.393H692.143V105.845H693.568V111.597H695.237V99.875H693.568V104.393ZM696.092 99.6579V112.153H697.787V99.6579H696.092ZM709.929 99.6851H708.124V108.653H709.929V99.6851ZM701.477 103.647C701.477 102.616 702.209 102.019 703.132 102.019C704.068 102.019 704.773 102.616 704.773 103.647C704.773 104.651 704.068 105.261 703.132 105.261C702.209 105.261 701.477 104.651 701.477 103.647ZM706.524 103.647C706.524 101.802 705.045 100.472 703.132 100.472C701.219 100.472 699.726 101.802 699.726 103.647C699.726 105.465 701.219 106.808 703.132 106.808C705.045 106.808 706.524 105.465 706.524 103.647ZM703.403 110.525V107.771H701.612V111.95H710.241V110.525H703.403ZM717.675 100.296C715.056 100.296 713.021 101.734 713.021 103.918C713.021 106.089 715.056 107.527 717.675 107.527C720.307 107.527 722.342 106.089 722.342 103.918C722.342 101.734 720.307 100.296 717.675 100.296ZM717.675 101.761C719.384 101.761 720.592 102.561 720.592 103.918C720.592 105.248 719.384 106.062 717.675 106.062C715.979 106.062 714.771 105.248 714.771 103.918C714.771 102.561 715.979 101.761 717.675 101.761ZM712.031 109.209V110.674H723.346V109.209H712.031ZM731.051 109.331V107.473H734.836V106.034H727.591V104.637H734.551V100.472H725.8V101.896H732.787V103.24H725.814V107.473H729.26V109.331H724.511V110.796H735.826V109.331H731.051ZM651.719 122.9V124.352H653.673V128.789H655.463V119.671H653.673V122.9H651.719ZM652.546 125.777C650.579 125.112 649.725 123.579 649.725 122.1V121.937H652.153V120.513H645.437V121.937H647.893V122.114C647.893 123.687 646.998 125.329 644.949 125.994L645.858 127.418C647.31 126.93 648.286 125.939 648.843 124.705C649.385 125.831 650.308 126.726 651.678 127.174L652.546 125.777ZM649.019 130.525V128.029H647.228V131.95H655.748V130.525H649.019ZM662.083 122.344H664.566V120.865H657.701V122.344H660.292V123.036C660.292 125.098 659.275 127.445 657.226 128.395L658.23 129.82C659.655 129.141 660.659 127.771 661.215 126.143C661.771 127.622 662.748 128.87 664.132 129.508L665.122 128.097C663.073 127.147 662.083 124.936 662.083 123.036V122.344ZM669.097 124.434H667.279V119.671H665.488V132.167H667.279V125.912H669.097V124.434ZM674.137 124.963C676.498 124.746 678.031 123.877 678.696 122.683C679.347 123.877 680.894 124.746 683.241 124.963L683.865 123.565C681.491 123.362 680.27 122.534 679.985 121.679H683.322V120.255H674.083V121.679H677.407C677.122 122.534 675.901 123.362 673.54 123.565L674.137 124.963ZM678.669 130.796C677 130.796 676.145 130.498 676.145 129.847C676.145 129.196 677 128.911 678.669 128.911C680.337 128.911 681.192 129.196 681.192 129.847C681.192 130.498 680.337 130.796 678.669 130.796ZM678.669 127.527C675.969 127.527 674.341 128.382 674.341 129.847C674.341 131.326 675.969 132.167 678.669 132.167C681.368 132.167 683.01 131.326 683.01 129.847C683.01 128.382 681.368 127.527 678.669 127.527ZM673.052 125.437V126.848H684.34V125.437H673.052ZM691.936 126.333V127.717H694.351V129.073H696.142V119.671H694.351V126.333H691.936ZM688.938 130.525V128.314H690.498V125.627C691.543 125.532 692.587 125.424 693.605 125.234L693.483 123.972C693.103 124.027 692.709 124.081 692.316 124.121C692.533 122.548 692.533 121.395 692.533 120.73V120.296H686.577V121.72H690.756C690.729 122.371 690.661 123.212 690.512 124.257C688.694 124.366 686.903 124.379 685.438 124.379L685.655 125.804C686.577 125.804 687.622 125.79 688.721 125.736V128.137H687.147V131.95H696.413V130.525H688.938ZM712.022 125.37C709.173 124.908 707.64 123.036 707.64 121.259V120.363H705.727V121.259C705.727 122.995 704.18 124.908 701.358 125.37L702.091 126.848C704.275 126.455 705.863 125.275 706.677 123.742C707.491 125.288 709.092 126.455 711.289 126.848L712.022 125.37ZM707.586 129.25V126.455H705.795V129.25H701.087V130.688H712.402V129.25H707.586ZM719.198 121.517C720.826 121.517 721.871 122.005 721.871 122.887C721.871 123.782 720.826 124.257 719.198 124.257C717.556 124.257 716.512 123.782 716.512 122.887C716.512 122.005 717.556 121.517 719.198 121.517ZM719.198 125.682C721.857 125.682 723.716 124.596 723.716 122.887C723.716 121.191 721.857 120.092 719.198 120.092C716.525 120.092 714.68 121.191 714.68 122.887C714.68 124.596 716.525 125.682 719.198 125.682ZM724.883 126.618H713.568V128.07H716.132V132.153H717.936V128.07H720.446V132.153H722.264V128.07H724.883V126.618ZM735.797 125.03C736.082 123.457 736.082 122.222 736.082 121.354V120.58H729.665V122.005H734.318C734.305 122.751 734.25 123.66 734.047 124.827L735.797 125.03ZM736.625 125.532C735.458 125.695 734.21 125.79 732.975 125.845V123.484H731.225V125.912C730.411 125.926 729.638 125.926 728.946 125.926L729.108 127.35C731.252 127.337 734.155 127.283 736.733 126.808L736.625 125.532ZM732.555 128.192H730.764V131.95H739.487V130.525H732.555V128.192ZM739.094 123.47V119.658H737.303V129.019H739.094V124.949H740.586V123.47H739.094ZM744.099 125.56H748.156V120.73H742.254V122.154H746.324V124.149H742.268V129.291H743.394C745.659 129.291 747.491 129.209 749.526 128.856L749.336 127.405C747.572 127.703 745.998 127.798 744.099 127.812V125.56ZM750.204 119.658V132.194H751.995V119.658H750.204Z" fill="white"/>
<g clip-path="url(#clip1_644_4296)">
<path d="M698.951 68.9878C698.775 68.987 698.603 68.9411 698.45 68.8543L691.455 64.8496C691.304 64.7612 691.177 64.6346 691.09 64.4824C691.002 64.3302 690.955 64.1576 690.955 63.9819C690.956 63.8063 691.003 63.6341 691.091 63.482C691.178 63.3299 691.304 63.2032 691.455 63.1142L698.45 59.1095C698.602 59.021 698.775 58.9744 698.951 58.9744C699.127 58.9744 699.299 59.021 699.451 59.1095L706.44 63.1142C706.592 63.2022 706.718 63.3286 706.806 63.481C706.894 63.6333 706.94 63.8061 706.94 63.9819C706.941 64.1579 706.895 64.3309 706.807 64.4834C706.719 64.6358 706.592 64.7622 706.44 64.8496L699.451 68.8543C699.299 68.9411 699.126 68.987 698.951 68.9878ZM693.958 63.9485L698.951 66.8319L703.93 63.9485L698.944 61.0718L693.958 63.9485Z" fill="white"/>
<path d="M698.951 77.0573C698.775 77.0598 698.602 77.0136 698.45 76.9238C698.297 76.8369 698.17 76.7107 698.082 76.5581C697.994 76.4055 697.948 76.2322 697.95 76.0561V67.9866C697.949 67.8106 697.995 67.6376 698.083 67.4852C698.171 67.3327 698.298 67.2063 698.45 67.1189L705.439 63.1142C705.592 63.0289 705.764 62.9841 705.939 62.9841C706.114 62.9841 706.287 63.0289 706.44 63.1142C706.592 63.2022 706.718 63.3286 706.806 63.481C706.894 63.6333 706.94 63.8061 706.94 63.9819V72.0581C706.94 72.2339 706.894 72.4067 706.806 72.559C706.718 72.7114 706.592 72.8378 706.44 72.9258L699.452 76.9305C699.299 77.0179 699.126 77.0618 698.951 77.0573ZM699.952 68.5673V74.3274L704.938 71.444V65.684L699.952 68.5673Z" fill="white"/>
<path d="M698.951 77.0572C698.775 77.0597 698.602 77.0135 698.45 76.9237L691.455 72.919C691.304 72.8301 691.178 72.7034 691.091 72.5513C691.003 72.3992 690.956 72.227 690.955 72.0514V63.9753C690.956 63.7997 691.003 63.6274 691.091 63.4753C691.178 63.3232 691.304 63.1965 691.455 63.1075C691.608 63.0222 691.781 62.9774 691.956 62.9774C692.131 62.9774 692.304 63.0222 692.457 63.1075L699.451 67.1122C699.603 67.2007 699.729 67.3273 699.817 67.4795C699.905 67.6317 699.951 67.8042 699.952 67.9799V76.0494C699.952 76.2252 699.906 76.398 699.818 76.5503C699.73 76.7027 699.604 76.8291 699.451 76.9171C699.301 77.0092 699.127 77.0577 698.951 77.0572ZM692.944 71.444L697.936 74.3274V68.5673L692.944 65.6839V71.444Z" fill="white"/>
<path d="M698.951 57.2006C698.685 57.2006 698.431 57.0951 698.243 56.9074C698.055 56.7196 697.95 56.4649 697.95 56.1994V52.0012C697.95 51.7356 698.055 51.481 698.243 51.2932C698.431 51.1055 698.685 51 698.951 51C699.216 51 699.471 51.1055 699.659 51.2932C699.847 51.481 699.952 51.7356 699.952 52.0012V56.1994C699.952 56.4649 699.847 56.7196 699.659 56.9074C699.471 57.0951 699.216 57.2006 698.951 57.2006Z" fill="white"/>
<path d="M702.595 55.1048C702.42 55.1032 702.247 55.0573 702.095 54.9713L698.464 52.8689C698.35 52.8032 698.25 52.7156 698.17 52.6113C698.089 52.507 698.031 52.3879 697.996 52.2608C697.962 52.1337 697.954 52.0012 697.971 51.8707C697.988 51.7403 698.031 51.6145 698.097 51.5006C698.23 51.2804 698.443 51.1201 698.692 51.0529C698.94 50.9858 699.205 51.017 699.431 51.1401L703.062 53.2359C703.284 53.3683 703.445 53.581 703.514 53.8297C703.582 54.0784 703.552 54.3439 703.429 54.5708C703.349 54.7246 703.229 54.8546 703.083 54.9482C702.937 55.0419 702.769 55.0958 702.595 55.1048Z" fill="white"/>
<path d="M695.32 55.1048C695.144 55.1056 694.971 55.0597 694.819 54.9718C694.666 54.8838 694.54 54.757 694.452 54.6042C694.329 54.3781 694.298 54.1132 694.365 53.8646C694.432 53.616 694.593 53.4028 694.813 53.2693L698.45 51.1735C698.68 51.0401 698.952 51.003 699.209 51.0706C699.466 51.1382 699.685 51.3049 699.819 51.534C699.884 51.6479 699.927 51.7737 699.944 51.9041C699.961 52.0346 699.953 52.1671 699.919 52.2942C699.885 52.4213 699.826 52.5404 699.746 52.6447C699.665 52.749 699.565 52.8366 699.451 52.9022L695.814 55.0047C695.66 55.0791 695.49 55.1135 695.32 55.1048Z" fill="white"/>
<path d="M709.363 63.0141C709.187 63.0136 709.015 62.9671 708.863 62.8793C708.71 62.7914 708.584 62.6654 708.495 62.5136C708.375 62.2863 708.345 62.0213 708.414 61.7731C708.482 61.5249 708.642 61.3122 708.863 61.1787L712.5 59.0829C712.727 58.9603 712.993 58.9301 713.241 58.9985C713.49 59.0669 713.703 59.2286 713.835 59.4499C713.958 59.6769 713.988 59.9424 713.919 60.1911C713.851 60.4398 713.689 60.6525 713.468 60.7848L709.83 62.8873C709.687 62.9664 709.527 63.0099 709.363 63.0141Z" fill="white"/>
<path d="M713.001 65.1098C712.735 65.1098 712.48 65.0043 712.293 64.8166C712.105 64.6288 712 64.3742 712 64.1086V59.9171C712 59.6515 712.105 59.3969 712.293 59.2091C712.48 59.0214 712.735 58.9159 713.001 58.9159C713.266 58.9159 713.521 59.0214 713.709 59.2091C713.896 59.3969 714.002 59.6515 714.002 59.9171V64.0819C714.005 64.2156 713.982 64.3487 713.933 64.4733C713.885 64.5978 713.812 64.7114 713.718 64.8072C713.625 64.903 713.513 64.9792 713.39 65.0311C713.267 65.0831 713.134 65.1098 713.001 65.1098Z" fill="white"/>
<path d="M713.001 60.9183C712.824 60.9184 712.651 60.8699 712.5 60.7781L708.863 58.6823C708.642 58.5488 708.482 58.3361 708.414 58.0879C708.345 57.8397 708.375 57.5747 708.495 57.3474C708.629 57.1273 708.842 56.9666 709.09 56.8984C709.338 56.8301 709.603 56.8594 709.83 56.9803L713.468 59.0828C713.688 59.2163 713.849 59.429 713.917 59.6772C713.985 59.9255 713.956 60.1904 713.835 60.4177C713.75 60.5648 713.628 60.6878 713.482 60.7753C713.336 60.8629 713.171 60.912 713.001 60.9183Z" fill="white"/>
<path d="M688.579 63.0142C688.403 63.0125 688.231 62.9666 688.078 62.8807L684.447 60.7782C684.223 60.6482 684.059 60.4355 683.991 60.1858C683.922 59.9361 683.954 59.6695 684.08 59.4433C684.145 59.3286 684.232 59.2281 684.337 59.1474C684.441 59.0667 684.56 59.0076 684.687 58.9734C684.815 58.9393 684.948 58.9307 685.078 58.9484C685.209 58.966 685.335 59.0095 685.448 59.0762L689.079 61.172C689.301 61.3044 689.462 61.5171 689.531 61.7657C689.599 62.0144 689.569 62.2799 689.446 62.5069C689.359 62.6604 689.233 62.7882 689.081 62.8773C688.928 62.9664 688.755 63.0136 688.579 63.0142Z" fill="white"/>
<path d="M684.968 65.1098C684.702 65.1098 684.448 65.0043 684.26 64.8166C684.072 64.6288 683.967 64.3742 683.967 64.1086V59.9171C683.967 59.6515 684.072 59.3969 684.26 59.2091C684.448 59.0214 684.702 58.9159 684.968 58.9159C685.233 58.9159 685.488 59.0214 685.676 59.2091C685.864 59.3969 685.969 59.6515 685.969 59.9171V64.0819C685.973 64.2156 685.949 64.3487 685.901 64.4733C685.852 64.5978 685.779 64.7114 685.685 64.8072C685.592 64.903 685.48 64.9792 685.357 65.0311C685.234 65.0831 685.102 65.1098 684.968 65.1098Z" fill="white"/>
<path d="M684.968 60.9183C684.792 60.9184 684.619 60.8722 684.467 60.7843C684.315 60.6964 684.188 60.57 684.1 60.4177C683.976 60.1911 683.945 59.925 684.013 59.6759C684.082 59.4267 684.245 59.214 684.467 59.0828L688.098 56.9803C688.212 56.9145 688.338 56.8718 688.468 56.8546C688.599 56.8375 688.731 56.8462 688.858 56.8803C688.985 56.9144 689.105 56.9732 689.209 57.0533C689.313 57.1335 689.401 57.2334 689.466 57.3474C689.589 57.5743 689.619 57.8399 689.551 58.0885C689.482 58.3372 689.321 58.5499 689.099 58.6823L685.468 60.7781C685.317 60.8681 685.144 60.9164 684.968 60.9183Z" fill="white"/>
<path d="M684.968 77.0771C684.792 77.0773 684.619 77.0311 684.467 76.9432C684.315 76.8553 684.188 76.7289 684.1 76.5766C684.033 76.4629 683.99 76.3371 683.972 76.2064C683.955 76.0758 683.963 75.9429 683.997 75.8156C684.031 75.6883 684.091 75.569 684.171 75.4648C684.252 75.3605 684.353 75.2733 684.467 75.2083L688.098 73.1125C688.212 73.0467 688.338 73.004 688.468 72.9868C688.599 72.9697 688.731 72.9784 688.858 73.0125C688.985 73.0466 689.105 73.1054 689.209 73.1855C689.313 73.2657 689.401 73.3656 689.466 73.4796C689.589 73.7066 689.619 73.972 689.551 74.2207C689.482 74.4694 689.321 74.6821 689.099 74.8145L685.468 76.9103C685.32 77.0103 685.147 77.0679 684.968 77.0771Z" fill="white"/>
<path d="M684.968 77.0772C684.702 77.0772 684.448 76.9717 684.26 76.784C684.072 76.5962 683.967 76.3416 683.967 76.076V71.8845C683.967 71.6189 684.072 71.3643 684.26 71.1765C684.448 70.9888 684.702 70.8833 684.968 70.8833C685.233 70.8833 685.488 70.9888 685.676 71.1765C685.864 71.3643 685.969 71.6189 685.969 71.8845V76.0961C685.964 76.3581 685.856 76.6077 685.669 76.7911C685.482 76.9746 685.23 77.0773 684.968 77.0772Z" fill="white"/>
<path d="M688.579 79.1731C688.403 79.1746 688.23 79.1284 688.078 79.0396L684.447 76.9438C684.225 76.8126 684.062 76.5999 683.993 76.3507C683.925 76.1015 683.956 75.8355 684.08 75.6089C684.146 75.4949 684.233 75.395 684.338 75.3148C684.442 75.2347 684.561 75.1758 684.688 75.1417C684.815 75.1076 684.948 75.0989 685.078 75.1161C685.209 75.1333 685.334 75.176 685.448 75.2418L689.079 77.3443C689.302 77.4755 689.465 77.6882 689.533 77.9374C689.602 78.1865 689.571 78.4526 689.446 78.6792C689.359 78.8311 689.232 78.957 689.08 79.0438C688.927 79.1306 688.754 79.1752 688.579 79.1731Z" fill="white"/>
<path d="M713.001 77.0772C712.825 77.0797 712.652 77.0335 712.5 76.9437L708.863 74.8479C708.642 74.7144 708.482 74.5017 708.414 74.2535C708.345 74.0053 708.375 73.7403 708.495 73.513C708.629 73.2929 708.842 73.1323 709.09 73.064C709.338 72.9958 709.603 73.0251 709.83 73.146L713.468 75.2417C713.697 75.3756 713.864 75.5944 713.932 75.8505C714.001 76.1066 713.966 76.3795 713.835 76.61C713.746 76.7509 713.622 76.8673 713.477 76.9489C713.331 77.0304 713.168 77.0745 713.001 77.0772Z" fill="white"/>
<path d="M713.001 77.0772C712.735 77.0772 712.48 76.9717 712.293 76.784C712.105 76.5962 712 76.3416 712 76.076V71.8845C712 71.6189 712.105 71.3643 712.293 71.1765C712.48 70.9888 712.735 70.8833 713.001 70.8833C713.266 70.8833 713.521 70.9888 713.709 71.1765C713.896 71.3643 714.002 71.6189 714.002 71.8845V76.0961C713.997 76.3581 713.889 76.6077 713.702 76.7911C713.514 76.9746 713.263 77.0773 713.001 77.0772Z" fill="white"/>
<path d="M709.363 79.173C709.187 79.1738 709.014 79.1279 708.862 79.0399C708.709 78.952 708.583 78.8251 708.495 78.6724C708.364 78.4419 708.329 78.169 708.398 77.9129C708.467 77.6568 708.634 77.438 708.862 77.3041L712.5 75.2083C712.727 75.0875 712.992 75.0581 713.241 75.1264C713.489 75.1947 713.701 75.3553 713.835 75.5754C713.956 75.8027 713.985 76.0677 713.917 76.3159C713.849 76.5641 713.688 76.7768 713.468 76.9103L709.83 79.0061C709.692 79.102 709.531 79.1595 709.363 79.173Z" fill="white"/>
<path d="M698.951 85.1268C698.815 85.1304 698.681 85.1065 698.555 85.0566C698.429 85.0066 698.314 84.9316 698.218 84.8362C698.122 84.7407 698.046 84.6267 697.996 84.5011C697.945 84.3756 697.92 84.241 697.923 84.1055V79.9073C697.923 79.6418 698.028 79.3871 698.216 79.1994C698.404 79.0116 698.659 78.9061 698.924 78.9061C699.19 78.9061 699.444 79.0116 699.632 79.1994C699.82 79.3871 699.925 79.6418 699.925 79.9073V84.1055C699.931 84.37 699.831 84.6257 699.649 84.8171C699.466 85.0084 699.215 85.1198 698.951 85.1268Z" fill="white"/>
<path d="M698.951 85.1267C698.774 85.1269 698.601 85.0784 698.45 84.9866L694.813 82.8908C694.593 82.7573 694.432 82.5441 694.365 82.2955C694.298 82.0469 694.329 81.782 694.452 81.5559C694.583 81.3332 694.796 81.1704 695.045 81.1019C695.295 81.0334 695.561 81.0645 695.787 81.1888L699.425 83.2913C699.646 83.4236 699.808 83.6363 699.876 83.885C699.945 84.1337 699.914 84.3992 699.792 84.6262C699.706 84.7742 699.583 84.8978 699.436 84.9854C699.289 85.073 699.122 85.1216 698.951 85.1267Z" fill="white"/>
<path d="M698.951 85.1267C698.775 85.1268 698.602 85.0805 698.45 84.9927C698.298 84.9048 698.171 84.7784 698.083 84.6261C697.961 84.3991 697.93 84.1336 697.999 83.8849C698.067 83.6362 698.229 83.4236 698.45 83.2912L702.081 81.1887C702.308 81.0662 702.574 81.0359 702.822 81.1043C703.071 81.1727 703.284 81.3344 703.416 81.5558C703.539 81.7827 703.569 82.0482 703.501 82.2969C703.432 82.5456 703.27 82.7583 703.049 82.8907L699.418 84.9865C699.276 85.071 699.116 85.1192 698.951 85.1267Z" fill="white"/>
</g>
<circle cx="84.7943" cy="84.7943" r="84.2943" fill="white" fill-opacity="0.2" stroke="white"/>
<g clip-path="url(#clip2_644_4296)">
<path d="M96.995 70.4013H72.005C71.7232 70.4013 71.453 70.2893 71.2537 70.0901C71.0544 69.8908 70.9425 69.6206 70.9425 69.3388V56.0433C70.9425 55.7615 71.0544 55.4913 71.2537 55.292C71.453 55.0928 71.7232 54.9808 72.005 54.9808H96.995C97.2768 54.9808 97.5471 55.0928 97.7463 55.292C97.9456 55.4913 98.0575 55.7615 98.0575 56.0433V69.3388C98.0575 69.6206 97.9456 69.8908 97.7463 70.0901C97.5471 70.2893 97.2768 70.4013 96.995 70.4013ZM73.0675 68.2763H95.9325V57.1058H73.0675V68.2763Z" fill="white"/>
<path d="M97.3846 57.1058H71.6154C70.8057 57.1058 70.0292 56.7842 69.4567 56.2117C68.8842 55.6391 68.5625 54.8626 68.5625 54.0529C68.5644 53.2438 68.8866 52.4684 69.4588 51.8962C70.0309 51.3241 70.8063 51.0019 71.6154 51H97.3846C98.1937 51.0019 98.9691 51.3241 99.5413 51.8962C100.113 52.4684 100.436 53.2438 100.438 54.0529C100.436 54.862 100.113 55.6375 99.5413 56.2096C98.9691 56.7817 98.1937 57.104 97.3846 57.1058ZM71.6154 53.125C71.3693 53.125 71.1333 53.2228 70.9593 53.3968C70.7852 53.5708 70.6875 53.8068 70.6875 54.0529C70.6875 54.299 70.7852 54.535 70.9593 54.7091C71.1333 54.8831 71.3693 54.9808 71.6154 54.9808H97.3846C97.6307 54.9808 97.8667 54.8831 98.0407 54.7091C98.2148 54.535 98.3125 54.299 98.3125 54.0529C98.3125 53.8068 98.2148 53.5708 98.0407 53.3968C97.8667 53.2228 97.6307 53.125 97.3846 53.125H71.6154Z" fill="white"/>
<path d="M97.3846 74.3751H71.6154C70.807 74.3751 70.0315 74.0544 69.4592 73.4834C68.8869 72.9124 68.5644 72.1377 68.5625 71.3293C68.5625 70.5196 68.8842 69.7431 69.4567 69.1705C70.0292 68.598 70.8057 68.2764 71.6154 68.2764H97.3846C98.1937 68.2782 98.9691 68.6005 99.5413 69.1726C100.113 69.7447 100.436 70.5202 100.438 71.3293C100.436 72.1377 100.113 72.9124 99.5408 73.4834C98.9685 74.0544 98.193 74.3751 97.3846 74.3751ZM71.6154 70.4014C71.4933 70.4004 71.3722 70.4238 71.2592 70.4701C71.1462 70.5164 71.0435 70.5847 70.9572 70.671C70.8708 70.7574 70.8025 70.8601 70.7562 70.9731C70.7099 71.0861 70.6866 71.2072 70.6875 71.3293C70.6875 71.4508 70.7116 71.5711 70.7583 71.6833C70.805 71.7955 70.8734 71.8973 70.9597 71.9829C71.046 72.0685 71.1483 72.1362 71.2609 72.1821C71.3734 72.2279 71.4939 72.251 71.6154 72.2501H97.3846C97.6295 72.2501 97.8644 72.1533 98.0382 71.9809C98.212 71.8084 98.3106 71.5742 98.3125 71.3293C98.3125 71.0832 98.2148 70.8472 98.0407 70.6732C97.8667 70.4991 97.6307 70.4014 97.3846 70.4014H71.6154Z" fill="white"/>
<path d="M90.7404 85C90.5555 85.0003 90.3738 84.9521 90.2135 84.8601C90.0531 84.7681 89.9197 84.6356 89.8267 84.4758L83.5792 73.8508C83.5081 73.7306 83.4616 73.5974 83.4423 73.4591C83.4231 73.3208 83.4315 73.18 83.4671 73.0449C83.5027 72.9098 83.5647 72.7832 83.6496 72.6723C83.7345 72.5613 83.8406 72.4684 83.9617 72.3988C84.2041 72.2565 84.4931 72.2161 84.7653 72.2865C85.0374 72.3569 85.2706 72.5322 85.4137 72.7742L91.6541 83.3992C91.7257 83.5195 91.7728 83.6528 91.7926 83.7914C91.8125 83.93 91.8047 84.0712 91.7698 84.2068C91.7349 84.3424 91.6736 84.4698 91.5893 84.5816C91.505 84.6934 91.3995 84.7875 91.2787 84.8583C91.1152 84.9529 90.9293 85.0018 90.7404 85Z" fill="white"/>
<path d="M78.2524 85C78.0636 85.0018 77.8776 84.9529 77.7141 84.8583C77.4871 84.7087 77.3256 84.4782 77.2624 84.2137C77.1992 83.9492 77.2392 83.6706 77.3741 83.4346L83.6145 72.8096C83.759 72.5671 83.9935 72.3917 84.2668 72.3213C84.5401 72.251 84.8302 72.2916 85.0737 72.4342C85.3156 72.5773 85.491 72.8105 85.5614 73.0827C85.6317 73.3548 85.5914 73.6438 85.4491 73.8862L79.2087 84.5112C79.1077 84.6708 78.9656 84.8004 78.7974 84.8863C78.6292 84.9723 78.441 85.0115 78.2524 85Z" fill="white"/>
<path d="M77.3317 66.4842C77.2259 66.4846 77.1213 66.4612 77.0257 66.4159C76.9301 66.3705 76.8459 66.3043 76.7792 66.2221C76.7199 66.1501 76.6755 66.0671 76.6485 65.9779C76.6214 65.8887 76.6122 65.7949 76.6214 65.7021C76.6306 65.6093 76.658 65.5193 76.7021 65.4371C76.7462 65.355 76.8061 65.2823 76.8784 65.2234L81.6384 61.3417C81.7821 61.2256 81.9655 61.1703 82.1494 61.1875C82.3333 61.2047 82.5032 61.2931 82.6229 61.4338L84.6913 63.8421L89.7205 59.4009C89.8614 59.2771 90.0458 59.2142 90.233 59.2262C90.4203 59.2381 90.5951 59.3239 90.7192 59.4646C90.843 59.6056 90.9058 59.7899 90.8939 59.9772C90.8819 60.1644 90.7962 60.3393 90.6555 60.4634L85.0951 65.3792C85.0249 65.4415 84.943 65.4892 84.8542 65.5196C84.7655 65.55 84.6716 65.5625 84.5779 65.5563C84.4834 65.5513 84.3908 65.5274 84.3057 65.4861C84.2205 65.4447 84.1445 65.3867 84.0821 65.3155L81.9996 62.893L77.7496 66.3354C77.6299 66.4285 77.4833 66.4807 77.3317 66.4842Z" fill="white"/>
<path d="M90.4075 60.3146H87.9992C87.8113 60.3146 87.6311 60.24 87.4983 60.1072C87.3655 59.9743 87.2908 59.7941 87.2908 59.6063C87.2908 59.4184 87.3655 59.2383 87.4983 59.1054C87.6311 58.9726 87.8113 58.8979 87.9992 58.8979H90.4004C90.5883 58.8979 90.7684 58.9726 90.9013 59.1054C91.0341 59.2383 91.1088 59.4184 91.1088 59.6063C91.1088 59.7929 91.0351 59.972 90.9038 60.1047C90.7725 60.2373 90.5941 60.3127 90.4075 60.3146Z" fill="white"/>
<path d="M90.4075 62.7159C90.2197 62.7159 90.0395 62.6412 89.9066 62.5084C89.7738 62.3756 89.6992 62.1954 89.6992 62.0075V59.6063C89.6992 59.4184 89.7738 59.2383 89.9066 59.1054C90.0395 58.9726 90.2197 58.8979 90.4075 58.8979C90.5954 58.8979 90.7755 58.9726 90.9084 59.1054C91.0412 59.2383 91.1159 59.4184 91.1159 59.6063V62.0075C91.1159 62.1954 91.0412 62.3756 90.9084 62.5084C90.7755 62.6412 90.5954 62.7159 90.4075 62.7159Z" fill="white"/>
</g>
<path d="M71.5164 104.108C68.6809 103.714 67.2428 102.086 67.2428 100.635V100.038H65.3298V100.635C65.3298 102.1 63.9053 103.714 61.0562 104.108L61.7346 105.546C63.9189 105.22 65.4927 104.203 66.2931 102.86C67.0936 104.203 68.6538 105.22 70.8381 105.546L71.5164 104.108ZM71.9235 106.469H60.6356V107.92H65.3434V112.18H67.1343V107.92H71.9235V106.469ZM74.9614 107.581V109.006H81.6771V112.18H83.4815V107.581H74.9614ZM81.6771 99.6851V107.011H83.4815V99.6851H81.6771ZM76.6709 100.35C74.7579 100.35 73.2791 101.639 73.2791 103.416C73.2791 105.193 74.7579 106.469 76.6709 106.469C78.611 106.469 80.0762 105.193 80.0762 103.416C80.0762 101.639 78.611 100.35 76.6709 100.35ZM76.6709 101.869C77.6206 101.869 78.3261 102.439 78.3261 103.416C78.3261 104.379 77.6206 104.963 76.6709 104.963C75.7347 104.963 75.0293 104.379 75.0293 103.416C75.0293 102.439 75.7347 101.869 76.6709 101.869ZM86.6688 104.963C89.0294 104.746 90.5625 103.877 91.2273 102.683C91.8785 103.877 93.4252 104.746 95.7723 104.963L96.3964 103.565C94.0221 103.362 92.8011 102.534 92.5162 101.679H95.8537V100.255H86.6145V101.679H89.9384C89.6535 102.534 88.4325 103.362 86.0718 103.565L86.6688 104.963ZM91.2002 110.796C89.5314 110.796 88.6767 110.498 88.6767 109.847C88.6767 109.196 89.5314 108.911 91.2002 108.911C92.8689 108.911 93.7236 109.196 93.7236 109.847C93.7236 110.498 92.8689 110.796 91.2002 110.796ZM91.2002 107.527C88.5003 107.527 86.8723 108.382 86.8723 109.847C86.8723 111.326 88.5003 112.167 91.2002 112.167C93.9 112.167 95.5416 111.326 95.5416 109.847C95.5416 108.382 93.9 107.527 91.2002 107.527ZM85.5834 105.437V106.848H96.8712V105.437H85.5834ZM104.468 106.333V107.717H106.883V109.073H108.674V99.6715H106.883V106.333H104.468ZM101.469 110.525V108.314H103.03V105.627C104.074 105.532 105.119 105.424 106.136 105.234L106.014 103.972C105.634 104.027 105.241 104.081 104.848 104.121C105.065 102.548 105.065 101.395 105.065 100.73V100.296H99.1087V101.72H103.287C103.26 102.371 103.192 103.212 103.043 104.257C101.225 104.366 99.4343 104.379 97.9691 104.379L98.1861 105.804C99.1087 105.804 100.153 105.79 101.252 105.736V108.137H99.6785V111.95H108.945V110.525H101.469ZM57.876 122.127H59.1377V125.668C58.7171 125.695 58.2965 125.709 57.876 125.722V122.127ZM62.2717 125.424C61.8104 125.478 61.3356 125.532 60.8471 125.56V122.127H61.8375V120.703H55.1761V122.127H56.1529V125.75L54.8505 125.763L55.0404 127.215C57.1162 127.215 59.9381 127.161 62.3938 126.726L62.2717 125.424ZM58.4865 128.015H56.6956V131.95H65.2022V130.525H58.4865V128.015ZM64.7545 123.199V119.671H62.9636V128.87H64.7545V124.678H66.4096V123.199H64.7545ZM69.4205 122.358H71.0214V127.649H69.4205V122.358ZM67.7517 129.046H72.6766V120.947H67.7517V129.046ZM76.4211 119.658V124.434H75.3764V119.861H73.7077V131.597H75.3764V125.872H76.4211V132.153H78.117V119.658H76.4211ZM82.56 133.469H83.8896L87.2542 120.065H85.9382L82.56 133.469ZM91.7348 120.96V122.385H95.7914C95.5472 125.112 94.2583 127.052 91.1379 128.626L92.0876 130.01C96.4019 127.852 97.6094 124.732 97.6094 120.96H91.7348ZM99.9429 119.671V124.461H97.528V125.912H99.9429V132.167H101.734V119.671H99.9429ZM105.844 125.722H108.815V120.879H104.093V122.317H107.092V124.311H104.107V129.399H104.989C106.495 129.399 107.851 129.358 109.452 129.101L109.317 127.649C108.069 127.839 106.983 127.907 105.844 127.934V125.722ZM112.79 119.658V124.379H111.664V119.889H109.995V131.57H111.664V125.817H112.79V132.153H114.486V119.658H112.79Z" fill="white"/>
<defs>
<clipPath id="clip0_644_4296">
<rect width="24.9333" height="34" fill="white" transform="translate(379 51)"/>
</clipPath>
<clipPath id="clip1_644_4296">
<rect width="30.0352" height="34.12" fill="white" transform="translate(683.967 51)"/>
</clipPath>
<clipPath id="clip2_644_4296">
<rect width="31.875" height="34" fill="white" transform="translate(68.5625 51)"/>
</clipPath>
</defs>
</svg>
