<svg width="512" height="512" viewBox="0 0 512 512" fill="none" xmlns="http://www.w3.org/2000/svg">
<rect width="512" height="512" fill="white"/>
<g clip-path="url(#clip0_684_8348)">
<path d="M88 106.681V148.044L123.533 168.642L158.982 148.044V106.681H158.484H88ZM158.484 106.681L123.533 86.0825L88.083 106.681" fill="#27A8D8"/>
<path d="M220.666 106.681V148.044L256.198 168.642L291.648 148.044V106.681H291.15H220.666ZM291.15 106.681L256.198 86.0825L220.749 106.681" fill="#181919"/>
<path d="M353.747 106.681V148.044L389.279 168.642L424.729 148.044V106.681H424.148H353.747ZM424.148 106.681L389.362 86.0825L353.996 106.681" fill="#181919"/>
<path d="M88 235.732V277.095L123.533 297.693L158.982 277.178V235.815H158.484L88 235.732ZM158.484 235.815L123.533 215.134L88.083 235.732" fill="#27A8D8"/>
<path d="M220.666 235.732V277.095L256.198 297.693L291.648 277.178V235.815H291.15L220.666 235.732ZM291.15 235.815L256.198 215.134L220.749 235.732" fill="#27A8D8"/>
<path d="M353.747 235.732V277.095L389.279 297.693L424.729 277.178V235.815H424.148L353.747 235.732ZM424.148 235.815L389.362 215.134L353.996 235.732" fill="#181919"/>
<path d="M88 364.121V405.484L123.533 426.165L158.982 405.567V364.204H158.484L88 364.121ZM158.484 364.204L123.533 343.937L88 364.039" fill="#27A8D8"/>
<path d="M220.666 364.121V405.484L256.198 426.165L291.648 405.567V364.204H291.15L220.666 364.121ZM291.15 364.204L256.198 343.937L220.666 364.039" fill="#27A8D8"/>
<path d="M353.747 364.121V405.484L389.279 426.165L424.729 405.567V364.204H424.148L353.747 364.121ZM424.148 364.204L389.196 343.937L353.83 364.039" fill="#181919"/>
<path d="M127.933 129.348H119.299V264.107H127.933V129.348Z" fill="#27A8D8"/>
<path d="M259.602 249.051H250.968V383.81H259.602V249.051Z" fill="#27A8D8"/>
<path d="M250.553 260.632L112.408 259.309L114.234 252.029H250.553V260.632Z" fill="#27A8D8"/>
<path d="M250.553 380.419H114.234V389.022H250.553V380.419Z" fill="#27A8D8"/>
</g>
<defs>
<clipPath id="clip0_684_8348">
<rect width="336.978" height="340" fill="white" transform="translate(88 86)"/>
</clipPath>
</defs>
</svg>
