<svg width="325" height="350" viewBox="0 0 325 350" fill="none" xmlns="http://www.w3.org/2000/svg">
<circle cx="160.846" cy="35.1991" r="16.6972" fill="#1A3C5B" fill-opacity="0.4" stroke="white"/>
<path d="M153.244 35.3964C153.244 34.8835 153.355 34.4274 153.577 34.028C153.799 33.6237 154.107 33.3105 154.502 33.0886C154.901 32.8618 155.352 32.7484 155.855 32.7484C156.471 32.7484 156.999 32.9111 157.438 33.2366C157.877 33.562 158.17 34.0058 158.318 34.568H156.928C156.824 34.351 156.676 34.1858 156.484 34.0724C156.296 33.959 156.082 33.9023 155.84 33.9023C155.451 33.9023 155.135 34.0379 154.894 34.3091C154.652 34.5803 154.531 34.9427 154.531 35.3964C154.531 35.85 154.652 36.2125 154.894 36.4837C155.135 36.7549 155.451 36.8905 155.84 36.8905C156.082 36.8905 156.296 36.8338 156.484 36.7204C156.676 36.607 156.824 36.4418 156.928 36.2248H158.318C158.17 36.787 157.877 37.2307 157.438 37.5562C156.999 37.8767 156.471 38.037 155.855 38.037C155.352 38.037 154.901 37.926 154.502 37.7041C154.107 37.4773 153.799 37.1642 153.577 36.7648C153.355 36.3653 153.244 35.9092 153.244 35.3964ZM160.358 33.8209V34.8712H162.051V35.8476H160.358V36.9867H162.273V38H159.093V32.8076H162.273V33.8209H160.358ZM165.55 38.0518C165.062 38.0518 164.613 37.9384 164.204 37.7115C163.8 37.4847 163.477 37.1691 163.235 36.7648C162.998 36.3555 162.88 35.8969 162.88 35.389C162.88 34.8811 162.998 34.425 163.235 34.0206C163.477 33.6163 163.8 33.3007 164.204 33.0738C164.613 32.847 165.062 32.7336 165.55 32.7336C166.038 32.7336 166.485 32.847 166.889 33.0738C167.298 33.3007 167.619 33.6163 167.85 34.0206C168.087 34.425 168.206 34.8811 168.206 35.389C168.206 35.8969 168.087 36.3555 167.85 36.7648C167.614 37.1691 167.293 37.4847 166.889 37.7115C166.485 37.9384 166.038 38.0518 165.55 38.0518ZM165.55 36.8979C165.964 36.8979 166.295 36.7598 166.541 36.4837C166.793 36.2075 166.919 35.8426 166.919 35.389C166.919 34.9304 166.793 34.5655 166.541 34.2943C166.295 34.0181 165.964 33.8801 165.55 33.8801C165.131 33.8801 164.796 34.0157 164.544 34.2869C164.298 34.5581 164.174 34.9255 164.174 35.389C164.174 35.8476 164.298 36.2149 164.544 36.4911C164.796 36.7623 165.131 36.8979 165.55 36.8979Z" fill="white"/>
<circle cx="208.495" cy="122.199" r="16.6972" fill="#1A3C5B" fill-opacity="0.3" stroke="white"/>
<circle cx="115.227" cy="122.199" r="16.6972" fill="#1A3C5B" fill-opacity="0.3" stroke="white"/>
<path d="M107.36 122.08C107.36 121.567 107.471 121.111 107.693 120.712C107.915 120.307 108.223 119.994 108.617 119.772C109.017 119.545 109.468 119.432 109.971 119.432C110.587 119.432 111.115 119.595 111.554 119.92C111.993 120.246 112.286 120.689 112.434 121.252H111.043C110.94 121.035 110.792 120.869 110.6 120.756C110.412 120.643 110.198 120.586 109.956 120.586C109.566 120.586 109.251 120.721 109.009 120.993C108.768 121.264 108.647 121.626 108.647 122.08C108.647 122.534 108.768 122.896 109.009 123.167C109.251 123.438 109.566 123.574 109.956 123.574C110.198 123.574 110.412 123.517 110.6 123.404C110.792 123.291 110.94 123.125 111.043 122.908H112.434C112.286 123.471 111.993 123.914 111.554 124.24C111.115 124.56 110.587 124.721 109.971 124.721C109.468 124.721 109.017 124.61 108.617 124.388C108.223 124.161 107.915 123.848 107.693 123.448C107.471 123.049 107.36 122.593 107.36 122.08ZM115.087 124.735C114.708 124.735 114.367 124.674 114.066 124.55C113.766 124.427 113.524 124.245 113.342 124.003C113.164 123.761 113.07 123.471 113.061 123.13H114.407C114.426 123.323 114.493 123.471 114.606 123.574C114.72 123.673 114.868 123.722 115.05 123.722C115.238 123.722 115.386 123.68 115.494 123.596C115.603 123.508 115.657 123.387 115.657 123.234C115.657 123.106 115.612 123 115.524 122.916C115.44 122.832 115.334 122.763 115.206 122.709C115.082 122.654 114.905 122.593 114.673 122.524C114.338 122.42 114.064 122.317 113.852 122.213C113.64 122.11 113.457 121.957 113.305 121.755C113.152 121.552 113.075 121.289 113.075 120.963C113.075 120.48 113.25 120.103 113.6 119.831C113.951 119.555 114.407 119.417 114.969 119.417C115.541 119.417 116.002 119.555 116.352 119.831C116.702 120.103 116.89 120.482 116.914 120.97H115.546C115.536 120.803 115.474 120.672 115.361 120.578C115.247 120.48 115.102 120.431 114.924 120.431C114.772 120.431 114.648 120.472 114.555 120.556C114.461 120.635 114.414 120.751 114.414 120.904C114.414 121.072 114.493 121.202 114.651 121.296C114.809 121.39 115.055 121.491 115.39 121.599C115.726 121.713 115.997 121.821 116.204 121.925C116.416 122.028 116.599 122.179 116.751 122.376C116.904 122.573 116.981 122.827 116.981 123.138C116.981 123.434 116.904 123.702 116.751 123.944C116.604 124.186 116.387 124.378 116.101 124.521C115.815 124.664 115.477 124.735 115.087 124.735ZM120.215 124.735C119.727 124.735 119.278 124.622 118.869 124.395C118.464 124.168 118.141 123.853 117.9 123.448C117.663 123.039 117.545 122.58 117.545 122.073C117.545 121.565 117.663 121.109 117.9 120.704C118.141 120.3 118.464 119.984 118.869 119.757C119.278 119.531 119.727 119.417 120.215 119.417C120.703 119.417 121.149 119.531 121.554 119.757C121.963 119.984 122.283 120.3 122.515 120.704C122.752 121.109 122.87 121.565 122.87 122.073C122.87 122.58 122.752 123.039 122.515 123.448C122.278 123.853 121.958 124.168 121.554 124.395C121.149 124.622 120.703 124.735 120.215 124.735ZM120.215 123.581C120.629 123.581 120.959 123.443 121.206 123.167C121.457 122.891 121.583 122.526 121.583 122.073C121.583 121.614 121.457 121.249 121.206 120.978C120.959 120.702 120.629 120.564 120.215 120.564C119.796 120.564 119.46 120.699 119.209 120.97C118.962 121.242 118.839 121.609 118.839 122.073C118.839 122.531 118.962 122.899 119.209 123.175C119.46 123.446 119.796 123.581 120.215 123.581Z" fill="white"/>
<path d="M199.978 122.08C199.978 121.567 200.089 121.111 200.311 120.712C200.532 120.307 200.841 119.994 201.235 119.772C201.635 119.545 202.086 119.432 202.589 119.432C203.205 119.432 203.733 119.595 204.172 119.92C204.61 120.246 204.904 120.689 205.052 121.252H203.661C203.558 121.035 203.41 120.869 203.217 120.756C203.03 120.643 202.816 120.586 202.574 120.586C202.184 120.586 201.869 120.721 201.627 120.993C201.386 121.264 201.265 121.626 201.265 122.08C201.265 122.534 201.386 122.896 201.627 123.167C201.869 123.438 202.184 123.574 202.574 123.574C202.816 123.574 203.03 123.517 203.217 123.404C203.41 123.291 203.558 123.125 203.661 122.908H205.052C204.904 123.471 204.61 123.914 204.172 124.24C203.733 124.56 203.205 124.721 202.589 124.721C202.086 124.721 201.635 124.61 201.235 124.388C200.841 124.161 200.532 123.848 200.311 123.448C200.089 123.049 199.978 122.593 199.978 122.08ZM208.282 124.735C207.794 124.735 207.345 124.622 206.936 124.395C206.532 124.168 206.209 123.853 205.967 123.448C205.73 123.039 205.612 122.58 205.612 122.073C205.612 121.565 205.73 121.109 205.967 120.704C206.209 120.3 206.532 119.984 206.936 119.757C207.345 119.531 207.794 119.417 208.282 119.417C208.77 119.417 209.217 119.531 209.621 119.757C210.03 119.984 210.351 120.3 210.582 120.704C210.819 121.109 210.937 121.565 210.937 122.073C210.937 122.58 210.819 123.039 210.582 123.448C210.346 123.853 210.025 124.168 209.621 124.395C209.217 124.622 208.77 124.735 208.282 124.735ZM208.282 123.581C208.696 123.581 209.027 123.443 209.273 123.167C209.525 122.891 209.65 122.526 209.65 122.073C209.65 121.614 209.525 121.249 209.273 120.978C209.027 120.702 208.696 120.564 208.282 120.564C207.863 120.564 207.528 120.699 207.276 120.97C207.03 121.242 206.906 121.609 206.906 122.073C206.906 122.531 207.03 122.899 207.276 123.175C207.528 123.446 207.863 123.581 208.282 123.581ZM214.097 124.735C213.609 124.735 213.16 124.622 212.751 124.395C212.346 124.168 212.023 123.853 211.782 123.448C211.545 123.039 211.427 122.58 211.427 122.073C211.427 121.565 211.545 121.109 211.782 120.704C212.023 120.3 212.346 119.984 212.751 119.757C213.16 119.531 213.609 119.417 214.097 119.417C214.585 119.417 215.031 119.531 215.436 119.757C215.845 119.984 216.165 120.3 216.397 120.704C216.634 121.109 216.752 121.565 216.752 122.073C216.752 122.58 216.634 123.039 216.397 123.448C216.16 123.853 215.84 124.168 215.436 124.395C215.031 124.622 214.585 124.735 214.097 124.735ZM214.097 123.581C214.511 123.581 214.841 123.443 215.088 123.167C215.339 122.891 215.465 122.526 215.465 122.073C215.465 121.614 215.339 121.249 215.088 120.978C214.841 120.702 214.511 120.564 214.097 120.564C213.678 120.564 213.342 120.699 213.091 120.97C212.844 121.242 212.721 121.609 212.721 122.073C212.721 122.531 212.844 122.899 213.091 123.175C213.342 123.446 213.678 123.581 214.097 123.581Z" fill="white"/>
<rect x="241.461" y="1.29199" width="82.6477" height="28.9869" rx="14.4935" fill="#55A6D3" fill-opacity="0.3" stroke="white"/>
<path d="M256.25 16.8334C256.25 16.2097 256.385 15.6549 256.655 15.1691C256.925 14.6773 257.3 14.2965 257.78 14.0266C258.266 13.7507 258.814 13.6128 259.426 13.6128C260.176 13.6128 260.817 13.8107 261.351 14.2065C261.885 14.6024 262.242 15.1421 262.422 15.8258H260.731C260.605 15.5619 260.425 15.361 260.191 15.2231C259.963 15.0851 259.702 15.0162 259.408 15.0162C258.934 15.0162 258.55 15.1811 258.257 15.511C257.963 15.8408 257.816 16.2816 257.816 16.8334C257.816 17.3851 257.963 17.8259 258.257 18.1558C258.55 18.4857 258.934 18.6506 259.408 18.6506C259.702 18.6506 259.963 18.5816 260.191 18.4437C260.425 18.3057 260.605 18.1048 260.731 17.8409H262.422C262.242 18.5246 261.885 19.0644 261.351 19.4602C260.817 19.8501 260.176 20.045 259.426 20.045C258.814 20.045 258.266 19.91 257.78 19.6402C257.3 19.3643 256.925 18.9834 256.655 18.4977C256.385 18.0119 256.25 17.4571 256.25 16.8334ZM264.902 14.9172V16.1947H266.962V17.3821H264.902V18.7675H267.232V20H263.364V13.6848H267.232V14.9172H264.902ZM271.218 20.063C270.624 20.063 270.078 19.925 269.58 19.6492C269.088 19.3733 268.696 18.9894 268.402 18.4977C268.114 17.9999 267.97 17.4421 267.97 16.8244C267.97 16.2067 268.114 15.6519 268.402 15.1601C268.696 14.6683 269.088 14.2845 269.58 14.0086C270.078 13.7327 270.624 13.5948 271.218 13.5948C271.811 13.5948 272.354 13.7327 272.846 14.0086C273.344 14.2845 273.733 14.6683 274.015 15.1601C274.303 15.6519 274.447 16.2067 274.447 16.8244C274.447 17.4421 274.303 17.9999 274.015 18.4977C273.727 18.9894 273.338 19.3733 272.846 19.6492C272.354 19.925 271.811 20.063 271.218 20.063ZM271.218 18.6596C271.721 18.6596 272.123 18.4917 272.423 18.1558C272.729 17.82 272.882 17.3761 272.882 16.8244C272.882 16.2666 272.729 15.8228 272.423 15.493C272.123 15.1571 271.721 14.9892 271.218 14.9892C270.708 14.9892 270.3 15.1541 269.994 15.484C269.694 15.8138 269.544 16.2606 269.544 16.8244C269.544 17.3821 269.694 17.8289 269.994 18.1648C270.3 18.4947 270.708 18.6596 271.218 18.6596ZM284.252 16.5105C282.446 16.2067 281.457 14.9654 281.457 13.7935V13.2206H280.233V13.7935C280.233 14.9393 279.234 16.2067 277.438 16.5105L277.924 17.474C279.312 17.2049 280.328 16.4237 280.84 15.4081C281.352 16.4237 282.377 17.1962 283.766 17.474L284.252 16.5105ZM277.264 18.8455V19.7743H284.503V18.8455H277.264ZM286.603 16.5539H288.582V15.6685H286.603V14.4879H288.747V13.5765H285.518V18.9236H286.074C287.272 18.9236 288.062 18.9063 288.982 18.75L288.878 17.8299C288.131 17.9427 287.489 17.9775 286.603 17.9861V16.5539ZM291.022 12.7432V15.8421H290.379V12.8734H289.312V20.3906H290.379V16.7622H291.022V20.7465H292.107V12.7432H291.022ZM297.653 16.7535H296.021V14.3577H297.653V16.7535ZM294.884 16.7535H293.842V17.665H299.849V16.7535H298.79V14.3577H299.875V13.4463H293.799V14.3577H294.884V16.7535ZM293.235 18.8889V19.8177H300.474V18.8889H293.235ZM307.852 12.7605H306.706V16.7882H307.852V12.7605ZM306.124 15.7987C304.831 15.4167 304.258 14.4879 304.258 13.5418V12.9428H303.095V13.5418C303.095 14.514 302.513 15.5209 301.185 15.9289L301.741 16.823C302.678 16.5365 303.329 15.9289 303.694 15.1737C304.05 15.8681 304.666 16.4237 305.577 16.6928L306.124 15.7987ZM303.676 19.8004V19.3056H307.86V17.1441H302.531V18.0209H306.723V18.4896H302.539V20.6858H308.06V19.8004H303.676Z" fill="white"/>
<rect x="241.461" y="39.9551" width="82.6477" height="28.9869" rx="14.4935" fill="#55A6D3" fill-opacity="0.3" stroke="white"/>
<path d="M268.999 53.0585H271.716V52.1297H267.853V57.5289H268.556C270.257 57.5289 271.273 57.4942 272.358 57.2858L272.254 56.3397C271.29 56.522 270.396 56.5654 268.999 56.574V53.0585ZM272.853 51.4179V59.4386H273.999V51.4179H272.853ZM278.295 53.1279H279.883V52.1817H275.491V53.1279H277.149V53.5706C277.149 54.89 276.498 56.3917 275.187 56.9994L275.83 57.9108C276.741 57.4768 277.383 56.6001 277.739 55.5584C278.095 56.5046 278.72 57.3032 279.605 57.7112L280.239 56.8084C278.928 56.2008 278.295 54.7859 278.295 53.5706V53.1279ZM282.783 54.4647H281.619V51.4179H280.474V59.4125H281.619V55.4109H282.783V54.4647ZM289.987 51.4265H288.832V57.1643H289.987V51.4265ZM284.579 53.9612C284.579 53.3015 285.047 52.9196 285.638 52.9196C286.237 52.9196 286.688 53.3015 286.688 53.9612C286.688 54.6036 286.237 54.9942 285.638 54.9942C285.047 54.9942 284.579 54.6036 284.579 53.9612ZM287.808 53.9612C287.808 52.7807 286.862 51.93 285.638 51.93C284.414 51.93 283.459 52.7807 283.459 53.9612C283.459 55.1244 284.414 55.9838 285.638 55.9838C286.862 55.9838 287.808 55.1244 287.808 53.9612ZM285.811 58.3622V56.6001H284.665V59.2736H290.186V58.3622H285.811ZM297.963 51.4265H296.817V55.4543H297.963V51.4265ZM296.236 54.4647C294.942 54.0828 294.37 53.154 294.37 52.2078V51.6088H293.206V52.2078C293.206 53.18 292.625 54.1869 291.297 54.5949L291.852 55.489C292.79 55.2025 293.441 54.5949 293.805 53.8397C294.161 54.5341 294.777 55.0897 295.689 55.3588L296.236 54.4647ZM293.788 58.4664V57.9716H297.972V55.8102H292.642V56.6869H296.835V57.1556H292.651V59.3518H298.172V58.4664H293.788Z" fill="white"/>
<rect x="241.461" y="88.29" width="82.6477" height="28.9869" rx="14.4935" fill="#55A6D3" fill-opacity="0.3" stroke="white"/>
<path d="M268.968 101.931V102.668H267.205V103.589H268.968V104.352H270.113V99.7519H268.968V101.019H267.535C267.57 100.785 267.587 100.542 267.587 100.29H263.924V101.21H266.337C266.19 102.295 265.313 103.155 263.49 103.641L263.933 104.543C265.695 104.049 266.815 103.189 267.31 101.931H268.968ZM267.474 106.818C266.485 106.818 265.903 106.566 265.903 106.08C265.903 105.594 266.485 105.342 267.474 105.342C268.455 105.342 269.037 105.594 269.037 106.08C269.037 106.566 268.455 106.818 267.474 106.818ZM267.474 104.457C265.843 104.457 264.775 105.082 264.775 106.08C264.775 107.078 265.843 107.703 267.474 107.703C269.098 107.703 270.165 107.078 270.165 106.08C270.165 105.082 269.098 104.457 267.474 104.457ZM272.604 102.139C272.604 101.514 273.029 101.149 273.62 101.149C274.21 101.149 274.644 101.514 274.644 102.139C274.644 102.755 274.21 103.129 273.62 103.129C273.029 103.129 272.604 102.755 272.604 102.139ZM276.953 101.705V102.573H275.677C275.712 102.425 275.729 102.287 275.729 102.139C275.729 101.983 275.712 101.844 275.685 101.705H276.953ZM276.953 103.484V104.439H278.099V99.7519H276.953V100.794H275.191C274.809 100.412 274.262 100.177 273.62 100.177C272.439 100.177 271.519 101.002 271.519 102.139C271.519 103.267 272.439 104.092 273.62 104.092C274.245 104.092 274.791 103.866 275.173 103.484H276.953ZM275.39 106.87C274.34 106.87 273.784 106.644 273.784 106.175C273.784 105.707 274.34 105.481 275.39 105.481C276.441 105.481 277.005 105.707 277.005 106.175C277.005 106.644 276.441 106.87 275.39 106.87ZM275.39 104.596C273.706 104.596 272.656 105.177 272.656 106.175C272.656 107.165 273.706 107.747 275.39 107.747C277.083 107.747 278.133 107.165 278.133 106.175C278.133 105.177 277.083 104.596 275.39 104.596ZM282.49 101.462H284.14V100.516H279.66V101.462H281.327V101.905C281.327 103.267 280.676 104.734 279.339 105.333L279.99 106.245C280.928 105.819 281.57 104.943 281.926 103.901C282.282 104.865 282.916 105.646 283.844 106.045L284.469 105.142C283.133 104.587 282.49 103.207 282.49 101.905V101.462ZM284.877 99.7519V107.747H286.023V99.7519H284.877ZM291.465 104.396V105.177H292.967V105.811H294.113V99.7519H292.967V104.396H291.465ZM289.929 100.854C290.458 100.854 290.831 101.063 290.831 101.453C290.831 101.844 290.458 102.043 289.929 102.043C289.391 102.043 289.017 101.844 289.017 101.453C289.017 101.063 289.391 100.854 289.929 100.854ZM289.929 102.877C291.092 102.877 291.917 102.304 291.917 101.453C291.917 100.603 291.092 100.021 289.929 100.021C288.757 100.021 287.941 100.603 287.941 101.453C287.941 102.304 288.757 102.877 289.929 102.877ZM289.503 106.696V105.602H290.606V104.092C291.248 104.04 291.89 103.971 292.515 103.866L292.437 103.05C290.753 103.267 288.809 103.285 287.351 103.293L287.498 104.205C288.097 104.205 288.766 104.196 289.469 104.162V105.229H288.358V107.608H294.286V106.696H289.503ZM302.002 99.7605H300.857V103.788H302.002V99.7605ZM300.275 102.799C298.982 102.417 298.409 101.488 298.409 100.542V99.9428H297.246V100.542C297.246 101.514 296.664 102.521 295.336 102.929L295.891 103.823C296.829 103.537 297.48 102.929 297.845 102.174C298.2 102.868 298.817 103.424 299.728 103.693L300.275 102.799ZM297.827 106.8V106.306H302.011V104.144H296.681V105.021H300.874V105.49H296.69V107.686H302.211V106.8H297.827Z" fill="white"/>
<rect x="241.461" y="126.961" width="82.6477" height="28.9869" rx="14.4935" fill="#55A6D3" fill-opacity="0.3" stroke="white"/>
<path d="M256.077 138.812V139.724H258.517C258.491 139.923 258.447 140.106 258.395 140.288L255.678 140.384L255.834 141.269L257.918 141.113C257.466 141.625 256.755 142.042 255.669 142.354L256.112 143.257C258.699 142.467 259.732 141.017 259.732 138.812H256.077ZM258.091 144.238H261.095V145.427H258.091V144.238ZM256.963 146.321H262.223V143.344H256.963V146.321ZM261.077 138.422V140.418H259.68V141.347H261.077V142.979H262.223V138.422H261.077ZM267.952 140.514H266.311V139.489H267.952V140.514ZM265.174 140.514H264.21V141.364H270.044V140.514H269.089V139.489H270.104V138.639H264.158V139.489H265.174V140.514ZM265.495 145.097H269.87V143.118H264.349V143.943H268.742V144.333H264.358V146.356H270.078V145.531H265.495V145.097ZM263.525 141.772V142.675H270.747V141.772H263.525ZM272.968 142.189H275.503V139.099H271.831V140.01H274.374V141.286H271.84V144.585H272.517C273.906 144.585 275.008 144.533 276.206 144.316L276.102 143.387C275.06 143.569 274.114 143.63 272.968 143.639V142.189ZM278.932 141.434H277.786V138.413H276.64V146.434H277.786V142.38H278.932V141.434ZM284.973 138.413V146.434H286.118V138.413H284.973ZM281.822 138.977C280.615 138.977 279.721 140.071 279.721 141.824C279.721 143.587 280.615 144.689 281.822 144.689C283.028 144.689 283.922 143.587 283.922 141.824C283.922 140.071 283.028 138.977 281.822 138.977ZM281.822 140.01C282.412 140.01 282.82 140.644 282.82 141.824C282.82 143.014 282.412 143.647 281.822 143.647C281.231 143.647 280.823 143.014 280.823 141.824C280.823 140.644 281.231 140.01 281.822 140.01ZM288.678 140.956C288.678 140.297 289.112 139.897 289.685 139.897C290.267 139.897 290.71 140.297 290.71 140.956C290.71 141.607 290.267 141.998 289.685 141.998C289.112 141.998 288.678 141.607 288.678 140.956ZM293.019 141.443V144.264H294.164V138.43H293.019V140.522H291.76C291.56 139.559 290.718 138.908 289.685 138.908C288.505 138.908 287.585 139.767 287.585 140.956C287.585 142.128 288.505 142.996 289.685 142.996C290.71 142.996 291.534 142.371 291.743 141.443H293.019ZM290.041 145.366V143.699H288.895V146.278H294.347V145.366H290.041ZM302.454 142.18C300.648 141.877 299.658 140.635 299.658 139.463V138.891H298.435V139.463C298.435 140.609 297.436 141.877 295.639 142.18L296.126 143.144C297.514 142.875 298.53 142.094 299.042 141.078C299.554 142.094 300.579 142.866 301.967 143.144L302.454 142.18ZM295.466 144.515V145.444H302.705V144.515H295.466ZM310.083 138.43H308.937V142.458H310.083V138.43ZM308.356 141.469C307.062 141.087 306.489 140.158 306.489 139.212V138.613H305.326V139.212C305.326 140.184 304.744 141.191 303.416 141.599L303.972 142.493C304.909 142.206 305.56 141.599 305.925 140.844C306.281 141.538 306.897 142.094 307.809 142.363L308.356 141.469ZM305.908 145.47V144.975H310.092V142.814H304.762V143.691H308.954V144.16H304.771V146.356H310.291V145.47H305.908Z" fill="white"/>
<rect x="0.5" y="264.857" width="82.6477" height="28.9869" rx="14.4935" fill="#8C8C8C" fill-opacity="0.3" stroke="white"/>
<path d="M16.3744 281.612C15.9404 281.612 15.68 281.013 15.68 279.781C15.68 278.557 15.9404 277.958 16.3744 277.958C16.8172 277.958 17.0689 278.557 17.0689 279.781C17.0689 281.013 16.8172 281.612 16.3744 281.612ZM18.7268 279.26H18.0932C17.963 277.767 17.3206 276.882 16.3744 276.882C15.3154 276.882 14.647 277.975 14.647 279.781C14.647 281.595 15.3154 282.689 16.3744 282.689C17.3467 282.689 17.9977 281.751 18.1019 280.189H18.7268V283.956H19.7945V276.447H18.7268V279.26ZM20.3501 276.309V284.303H21.4351V276.309H20.3501ZM29.377 276.317H28.292V281.743H29.377V276.317ZM26.6948 280.987H27.7625V276.474H26.6948V277.941H25.7486V278.869H26.6948V280.987ZM26.4604 279.989C25.4708 279.52 25.0802 278.635 25.0802 277.724V276.812H23.9691V277.724C23.9691 278.635 23.5438 279.598 22.4501 280.102L23.0577 280.979C23.7608 280.675 24.2382 280.128 24.5247 279.468C24.7851 280.067 25.2104 280.562 25.8528 280.848L26.4604 279.989ZM27.2503 281.335H26.1132V281.517C26.1132 282.333 25.2972 283.183 23.5612 283.401L23.9865 284.286C25.2712 284.104 26.2 283.574 26.6861 282.845C27.1722 283.574 28.101 284.104 29.3857 284.286L29.8024 283.401C28.0837 283.183 27.2503 282.333 27.2503 281.517V281.335ZM33.4822 279.277H31.911V278.479H33.4822V279.277ZM34.6106 276.664H33.4822V277.619H31.911V276.664H30.7826V280.171H34.6106V276.664ZM32.7096 282.862H36.8415V280.692H31.5638V281.56H35.7131V282.046H31.5725V284.251H37.0759V283.366H32.7096V282.862ZM36.8415 277.862V276.317H35.6957V280.38H36.8415V278.791H37.8918V277.862H36.8415ZM43.6723 279.217H44.2626V281.317H45.3476V276.317H44.2626V278.288H43.6723V276.465H42.6046V281.065H43.6723V279.217ZM42.3789 277.133H40.9988V276.404H39.8703V277.133H38.4901V278.019H42.3789V277.133ZM39.7401 279.668C39.7401 279.295 40.0266 279.095 40.4519 279.095C40.8772 279.095 41.155 279.295 41.155 279.668C41.155 280.041 40.8772 280.25 40.4519 280.25C40.0266 280.25 39.7401 280.041 39.7401 279.668ZM42.1706 279.668C42.1706 278.843 41.4588 278.279 40.4519 278.279C39.4363 278.279 38.7245 278.843 38.7245 279.668C38.7245 280.493 39.4363 281.065 40.4519 281.065C41.4588 281.065 42.1706 280.493 42.1706 279.668ZM42.6394 283.461C41.5717 283.461 41.0335 283.279 41.0335 282.862C41.0335 282.446 41.5717 282.263 42.6394 282.263C43.707 282.263 44.2452 282.446 44.2452 282.862C44.2452 283.279 43.707 283.461 42.6394 283.461ZM42.6394 281.404C40.9206 281.404 39.8877 281.934 39.8877 282.862C39.8877 283.791 40.9206 284.312 42.6394 284.312C44.3581 284.312 45.391 283.791 45.391 282.862C45.391 281.934 44.3581 281.404 42.6394 281.404ZM46.9615 277.142V278.053H49.6264C49.4615 279.824 48.5761 281.074 46.5362 282.055L47.1351 282.958C49.9736 281.586 50.7983 279.59 50.7983 277.142H46.9615ZM52.0222 276.309V284.303H53.1767V276.309H52.0222ZM59.4606 276.908H57.6985V276.257H56.5527V276.908H54.7732V277.724H59.4606V276.908ZM56.2315 279.112C56.2315 278.817 56.5787 278.67 57.1256 278.67C57.6638 278.67 58.0023 278.817 58.0023 279.112C58.0023 279.399 57.6638 279.564 57.1256 279.564C56.5787 279.564 56.2315 279.399 56.2315 279.112ZM59.5388 280.501C58.9485 280.571 58.3235 280.623 57.6985 280.657V280.276C58.5492 280.145 59.0961 279.72 59.0961 279.112C59.0961 278.383 58.2975 277.923 57.1256 277.923C55.9364 277.923 55.1378 278.383 55.1378 279.112C55.1378 279.72 55.6847 280.145 56.5527 280.276V280.701C55.8322 280.718 55.1552 280.718 54.5475 280.718L54.6951 281.578C56.0926 281.578 57.9242 281.552 59.6169 281.265L59.5388 280.501ZM55.6413 282.932H60.0075V284.321H61.162V282.046H55.6413V282.932ZM60.0075 276.326V281.734H61.162V276.326H60.0075ZM67.3157 279.616C66.3175 279.763 65.4408 279.798 64.0606 279.807V279.173H66.5345V278.288H64.0606V277.68H66.7689V276.777H62.9235V280.71H63.6092C65.2932 280.71 66.2915 280.684 67.4199 280.501L67.3157 279.616ZM64.9373 282.289H68.0102V283.322H64.9373V282.289ZM63.8089 284.216H69.13V281.395H63.8089V284.216ZM67.9755 276.326V281.065H69.13V276.326H67.9755Z" fill="white"/>
<rect x="0.5" y="319.423" width="82.6477" height="28.9869" rx="14.4935" fill="#8C8C8C" fill-opacity="0.3" stroke="white"/>
<path d="M15.5856 336.178C15.1516 336.178 14.8912 335.579 14.8912 334.346C14.8912 333.122 15.1516 332.523 15.5856 332.523C16.0283 332.523 16.2801 333.122 16.2801 334.346C16.2801 335.579 16.0283 336.178 15.5856 336.178ZM17.938 333.825H17.3044C17.1741 332.332 16.5318 331.447 15.5856 331.447C14.5266 331.447 13.8582 332.541 13.8582 334.346C13.8582 336.16 14.5266 337.254 15.5856 337.254C16.5578 337.254 17.2089 336.317 17.313 334.754H17.938V338.521H19.0057V331.013H17.938V333.825ZM19.5613 330.874V338.869H20.6463V330.874H19.5613ZM28.5882 330.883H27.5032V336.308H28.5882V330.883ZM25.906 335.553H26.9737V331.039H25.906V332.506H24.9598V333.435H25.906V335.553ZM25.6716 334.555C24.682 334.086 24.2914 333.2 24.2914 332.289V331.377H23.1803V332.289C23.1803 333.2 22.755 334.164 21.6612 334.667L22.2689 335.544C22.972 335.24 23.4494 334.693 23.7359 334.034C23.9963 334.633 24.4216 335.127 25.064 335.414L25.6716 334.555ZM26.4615 335.9H25.3244V336.082C25.3244 336.898 24.5084 337.749 22.7723 337.966L23.1977 338.851C24.4824 338.669 25.4112 338.14 25.8973 337.41C26.3834 338.14 27.3122 338.669 28.5969 338.851L29.0136 337.966C27.2948 337.749 26.4615 336.898 26.4615 336.082V335.9ZM32.6934 333.843H31.1222V333.044H32.6934V333.843ZM33.8218 331.23H32.6934V332.185H31.1222V331.23H29.9938V334.737H33.8218V331.23ZM31.9208 337.428H36.0527V335.258H30.775V336.126H34.9242V336.612H30.7837V338.817H36.2871V337.931H31.9208V337.428ZM36.0527 332.428V330.883H34.9069V334.945H36.0527V333.357H37.103V332.428H36.0527ZM42.8835 333.782H43.4738V335.883H44.5588V330.883H43.4738V332.853H42.8835V331.03H41.8158V335.631H42.8835V333.782ZM41.5901 331.699H40.2099V330.97H39.0815V331.699H37.7013V332.584H41.5901V331.699ZM38.9513 334.233C38.9513 333.86 39.2377 333.66 39.6631 333.66C40.0884 333.66 40.3662 333.86 40.3662 334.233C40.3662 334.607 40.0884 334.815 39.6631 334.815C39.2377 334.815 38.9513 334.607 38.9513 334.233ZM41.3818 334.233C41.3818 333.409 40.67 332.844 39.6631 332.844C38.6475 332.844 37.9357 333.409 37.9357 334.233C37.9357 335.058 38.6475 335.631 39.6631 335.631C40.67 335.631 41.3818 335.058 41.3818 334.233ZM41.8505 338.027C40.7828 338.027 40.2447 337.844 40.2447 337.428C40.2447 337.011 40.7828 336.829 41.8505 336.829C42.9182 336.829 43.4564 337.011 43.4564 337.428C43.4564 337.844 42.9182 338.027 41.8505 338.027ZM41.8505 335.969C40.1318 335.969 39.0988 336.499 39.0988 337.428C39.0988 338.357 40.1318 338.877 41.8505 338.877C43.5693 338.877 44.6022 338.357 44.6022 337.428C44.6022 336.499 43.5693 335.969 41.8505 335.969ZM46.0338 331.872V332.784H48.0564C47.9088 334.355 47.2317 335.509 45.6258 336.447L46.2942 337.245C48.5251 335.943 49.1848 334.112 49.1848 331.872H46.0338ZM51.4851 330.883V333.895H50.7733V331.091H49.7056V338.539H50.7733V334.815H51.4851V338.877H52.5789V330.883H51.4851ZM56.6493 333.843H55.0781V333.044H56.6493V333.843ZM57.7777 331.23H56.6493V332.185H55.0781V331.23H53.9497V334.737H57.7777V331.23ZM55.8767 337.428H60.0086V335.258H54.7309V336.126H58.8802V336.612H54.7396V338.817H60.243V337.931H55.8767V337.428ZM60.0086 332.428V330.883H58.8628V334.945H60.0086V333.357H61.0589V332.428H60.0086ZM66.5269 334.181C65.5287 334.329 64.652 334.364 63.2718 334.372V333.739H65.7457V332.853H63.2718V332.246H65.9801V331.343H62.1346V335.275H62.8204C64.5044 335.275 65.5026 335.249 66.6311 335.067L66.5269 334.181ZM64.1485 336.855H67.2214V337.888H64.1485V336.855ZM63.02 338.782H68.3411V335.961H63.02V338.782ZM67.1866 330.891V335.631H68.3411V330.891H67.1866Z" fill="white"/>
<rect x="0.5" y="210.292" width="82.6477" height="28.9869" rx="14.4935" fill="#55A6D3" fill-opacity="0.3" stroke="white"/>
<path d="M19.8493 227.047C19.4153 227.047 19.1549 226.448 19.1549 225.215C19.1549 223.991 19.4153 223.392 19.8493 223.392C20.292 223.392 20.5437 223.991 20.5437 225.215C20.5437 226.448 20.292 227.047 19.8493 227.047ZM22.2017 224.695H21.568C21.4378 223.201 20.7955 222.316 19.8493 222.316C18.7903 222.316 18.1219 223.41 18.1219 225.215C18.1219 227.03 18.7903 228.123 19.8493 228.123C20.8215 228.123 21.4725 227.186 21.5767 225.623H22.2017V229.391H23.2694V221.882H22.2017V224.695ZM23.8249 221.743V229.738H24.91V221.743H23.8249ZM32.8519 221.752H31.7668V227.177H32.8519V221.752ZM30.1696 226.422H31.2373V221.908H30.1696V223.375H29.2235V224.304H30.1696V226.422ZM29.9353 225.424C28.9457 224.955 28.5551 224.07 28.5551 223.158V222.247H27.444V223.158C27.444 224.07 27.0186 225.033 25.9249 225.537L26.5325 226.413C27.2357 226.109 27.7131 225.563 27.9995 224.903C28.2599 225.502 28.6853 225.997 29.3276 226.283L29.9353 225.424ZM30.7252 226.769H29.5881V226.951C29.5881 227.767 28.7721 228.618 27.036 228.835L27.4614 229.72C28.7461 229.538 29.6749 229.009 30.161 228.28C30.6471 229.009 31.5759 229.538 32.8606 229.72L33.2772 228.835C31.5585 228.618 30.7252 227.767 30.7252 226.951V226.769ZM36.957 224.712H35.3859V223.913H36.957V224.712ZM38.0855 222.099H36.957V223.054H35.3859V222.099H34.2574V225.606H38.0855V222.099ZM36.1845 228.297H40.3164V226.127H35.0387V226.995H39.1879V227.481H35.0474V229.686H40.5507V228.8H36.1845V228.297ZM40.3164 223.297V221.752H39.1706V225.814H40.3164V224.226H41.3667V223.297H40.3164ZM47.1472 224.651H47.7374V226.752H48.8225V221.752H47.7374V223.722H47.1472V221.899H46.0795V226.5H47.1472V224.651ZM45.8538 222.568H44.4736V221.839H43.3452V222.568H41.965V223.453H45.8538V222.568ZM43.215 225.102C43.215 224.729 43.5014 224.53 43.9267 224.53C44.3521 224.53 44.6299 224.729 44.6299 225.102C44.6299 225.476 44.3521 225.684 43.9267 225.684C43.5014 225.684 43.215 225.476 43.215 225.102ZM45.6455 225.102C45.6455 224.278 44.9337 223.714 43.9267 223.714C42.9111 223.714 42.1993 224.278 42.1993 225.102C42.1993 225.927 42.9111 226.5 43.9267 226.5C44.9337 226.5 45.6455 225.927 45.6455 225.102ZM46.1142 228.896C45.0465 228.896 44.5083 228.714 44.5083 228.297C44.5083 227.88 45.0465 227.698 46.1142 227.698C47.1819 227.698 47.7201 227.88 47.7201 228.297C47.7201 228.714 47.1819 228.896 46.1142 228.896ZM46.1142 226.839C44.3955 226.839 43.3625 227.368 43.3625 228.297C43.3625 229.226 44.3955 229.747 46.1142 229.747C47.8329 229.747 48.8659 229.226 48.8659 228.297C48.8659 227.368 47.8329 226.839 46.1142 226.839ZM52.0162 227.351H50.8704V229.608H56.4172V228.696H52.0162V227.351ZM52.0509 223.705H55.1672V224.399H52.0509V223.705ZM54.169 225.971V225.302H56.3043V222.038H55.1672V222.82H52.0509V222.038H50.9138V225.302H53.0231V225.971H49.9937V226.882H57.2245V225.971H54.169ZM63.2306 224.686H59.9408V223.861H63.2306V224.686ZM64.3591 222.056H63.2306V222.967H59.9408V222.056H58.8036V225.597H64.3591V222.056ZM65.2185 226.352H57.979V227.264H60.9998V229.755H62.1456V227.264H65.2185V226.352Z" fill="white"/>
<rect x="120.148" y="210.292" width="82.6477" height="28.9869" rx="14.4935" fill="#55A6D3" fill-opacity="0.3" stroke="white"/>
<path d="M139.178 227.047C138.744 227.047 138.483 226.448 138.483 225.215C138.483 223.991 138.744 223.392 139.178 223.392C139.621 223.392 139.872 223.991 139.872 225.215C139.872 226.448 139.621 227.047 139.178 227.047ZM141.53 224.695H140.897C140.766 223.201 140.124 222.316 139.178 222.316C138.119 222.316 137.451 223.41 137.451 225.215C137.451 227.03 138.119 228.123 139.178 228.123C140.15 228.123 140.801 227.186 140.905 225.623H141.53V229.391H142.598V221.882H141.53V224.695ZM143.154 221.743V229.738H144.239V221.743H143.154ZM152.181 221.752H151.095V227.177H152.181V221.752ZM149.498 226.422H150.566V221.908H149.498V223.375H148.552V224.304H149.498V226.422ZM149.264 225.424C148.274 224.955 147.884 224.07 147.884 223.158V222.247H146.773V223.158C146.773 224.07 146.347 225.033 145.254 225.537L145.861 226.413C146.564 226.109 147.042 225.563 147.328 224.903C147.589 225.502 148.014 225.997 148.656 226.283L149.264 225.424ZM150.054 226.769H148.917V226.951C148.917 227.767 148.101 228.618 146.365 228.835L146.79 229.72C148.075 229.538 149.003 229.009 149.49 228.28C149.976 229.009 150.904 229.538 152.189 229.72L152.606 228.835C150.887 228.618 150.054 227.767 150.054 226.951V226.769ZM156.963 222.811C157.978 222.811 158.603 223.063 158.603 223.557C158.603 224.052 157.978 224.304 156.963 224.304C155.964 224.304 155.331 224.052 155.331 223.557C155.331 223.063 155.964 222.811 156.963 222.811ZM156.963 225.215C158.69 225.215 159.836 224.573 159.836 223.557C159.836 222.55 158.69 221.899 156.963 221.899C155.244 221.899 154.09 222.55 154.09 223.557C154.09 224.573 155.244 225.215 156.963 225.215ZM155.357 227.212H154.194V229.608H159.801V228.696H155.357V227.212ZM153.352 225.632V226.543H156.451V227.915H157.622V226.543H160.591V225.632H153.352ZM164.931 228.887C163.863 228.887 163.316 228.705 163.316 228.297C163.316 227.889 163.863 227.715 164.931 227.715C165.998 227.715 166.545 227.889 166.545 228.297C166.545 228.705 165.998 228.887 164.931 228.887ZM164.931 226.847C163.203 226.847 162.162 227.368 162.162 228.297C162.162 229.226 163.203 229.755 164.931 229.755C166.658 229.755 167.708 229.226 167.708 228.297C167.708 227.368 166.658 226.847 164.931 226.847ZM164.106 224.877C164.366 224.912 164.644 224.929 164.948 224.929C165.243 224.929 165.521 224.912 165.773 224.885V225.545H164.106V224.877ZM164.948 222.741C166.042 222.741 166.667 222.958 166.667 223.41C166.667 223.844 166.042 224.07 164.948 224.07C163.863 224.07 163.238 223.844 163.238 223.41C163.238 222.958 163.863 222.741 164.948 222.741ZM166.918 225.545V224.59C167.509 224.33 167.847 223.931 167.847 223.41C167.847 222.455 166.719 221.873 164.948 221.873C163.186 221.873 162.057 222.455 162.057 223.41C162.057 223.922 162.387 224.321 162.96 224.582V225.545H161.337V226.448H168.559V225.545H166.918ZM171.345 227.351H170.199V229.608H175.746V228.696H171.345V227.351ZM171.38 223.705H174.496V224.399H171.38V223.705ZM173.498 225.971V225.302H175.633V222.038H174.496V222.82H171.38V222.038H170.242V225.302H172.352V225.971H169.322V226.882H176.553V225.971H173.498ZM182.559 224.686H179.269V223.861H182.559V224.686ZM183.688 222.056H182.559V222.967H179.269V222.056H178.132V225.597H183.688V222.056ZM184.547 226.352H177.308V227.264H180.328V229.755H181.474V227.264H184.547V226.352Z" fill="white"/>
<rect x="120.148" y="264.857" width="82.6477" height="28.9869" rx="14.4935" fill="#8C8C8C" fill-opacity="0.3" stroke="white"/>
<path d="M154.088 281.039V281.821H155.59V282.42H156.736V276.317H155.59V281.039H154.088ZM152.126 283.262V282.229H153.229V280.71C153.88 280.657 154.522 280.588 155.138 280.493L155.06 279.685C154.843 279.703 154.618 279.729 154.383 279.746C154.583 278.783 154.583 278.027 154.583 277.359V276.691H150.599V277.602H153.454C153.454 277.793 153.454 277.993 153.446 278.192L150.442 278.305L150.581 279.225L153.368 279.026C153.333 279.277 153.289 279.546 153.237 279.833C152.083 279.902 150.928 279.92 149.982 279.928L150.121 280.84C150.72 280.831 151.388 280.814 152.092 280.779V281.855H150.989V284.173H156.918V283.262H152.126ZM164.46 280.44H160.007V279.546H164.217V278.661H160.007V277.819H164.4V276.899H158.844V281.343H164.46V280.44ZM157.994 282.463V283.392H165.233V282.463H157.994ZM170.805 279.616C169.807 279.763 168.93 279.798 167.55 279.807V279.173H170.024V278.288H167.55V277.68H170.258V276.777H166.413V280.71H167.099C168.783 280.71 169.781 280.684 170.909 280.501L170.805 279.616ZM168.427 282.289H171.5V283.322H168.427V282.289ZM167.298 284.216H172.619V281.395H167.298V284.216ZM171.465 276.326V281.065H172.619V276.326H171.465Z" fill="white"/>
<rect x="120.148" y="319.423" width="82.6477" height="28.9869" rx="14.4935" fill="#8C8C8C" fill-opacity="0.3" stroke="white"/>
<path d="M143.913 336.178C143.479 336.178 143.219 335.579 143.219 334.346C143.219 333.122 143.479 332.523 143.913 332.523C144.356 332.523 144.608 333.122 144.608 334.346C144.608 335.579 144.356 336.178 143.913 336.178ZM146.266 333.825H145.632C145.502 332.332 144.859 331.447 143.913 331.447C142.854 331.447 142.186 332.541 142.186 334.346C142.186 336.16 142.854 337.254 143.913 337.254C144.885 337.254 145.537 336.317 145.641 334.754H146.266V338.521H147.333V331.013H146.266V333.825ZM147.889 330.874V338.869H148.974V330.874H147.889ZM156.916 330.883H155.831V336.308H156.916V330.883ZM154.234 335.553H155.301V331.039H154.234V332.506H153.287V333.435H154.234V335.553ZM153.999 334.555C153.01 334.086 152.619 333.2 152.619 332.289V331.377H151.508V332.289C151.508 333.2 151.083 334.164 149.989 334.667L150.597 335.544C151.3 335.24 151.777 334.693 152.064 334.034C152.324 334.633 152.749 335.127 153.392 335.414L153.999 334.555ZM154.789 335.9H153.652V336.082C153.652 336.898 152.836 337.749 151.1 337.966L151.525 338.851C152.81 338.669 153.739 338.14 154.225 337.41C154.711 338.14 155.64 338.669 156.925 338.851L157.341 337.966C155.622 337.749 154.789 336.898 154.789 336.082V335.9ZM161.698 331.942C162.714 331.942 163.339 332.193 163.339 332.688C163.339 333.183 162.714 333.435 161.698 333.435C160.7 333.435 160.066 333.183 160.066 332.688C160.066 332.193 160.7 331.942 161.698 331.942ZM161.698 334.346C163.425 334.346 164.571 333.704 164.571 332.688C164.571 331.681 163.425 331.03 161.698 331.03C159.979 331.03 158.825 331.681 158.825 332.688C158.825 333.704 159.979 334.346 161.698 334.346ZM160.092 336.343H158.929V338.738H164.537V337.827H160.092V336.343ZM158.087 334.763V335.674H161.186V337.046H162.358V335.674H165.327V334.763H158.087ZM167.262 333.27C167.262 332.645 167.687 332.28 168.277 332.28C168.867 332.28 169.301 332.645 169.301 333.27C169.301 333.886 168.867 334.259 168.277 334.259C167.687 334.259 167.262 333.886 167.262 333.27ZM171.61 332.836V333.704H170.334C170.369 333.556 170.387 333.417 170.387 333.27C170.387 333.114 170.369 332.975 170.343 332.836H171.61ZM171.61 334.615V335.57H172.756V330.883H171.61V331.924H169.848C169.466 331.542 168.92 331.308 168.277 331.308C167.097 331.308 166.177 332.133 166.177 333.27C166.177 334.398 167.097 335.223 168.277 335.223C168.902 335.223 169.449 334.997 169.831 334.615H171.61ZM170.048 338.001C168.998 338.001 168.442 337.775 168.442 337.306C168.442 336.837 168.998 336.612 170.048 336.612C171.098 336.612 171.663 336.837 171.663 337.306C171.663 337.775 171.098 338.001 170.048 338.001ZM170.048 335.726C168.364 335.726 167.314 336.308 167.314 337.306C167.314 338.296 168.364 338.877 170.048 338.877C171.741 338.877 172.791 338.296 172.791 337.306C172.791 336.308 171.741 335.726 170.048 335.726ZM178.884 334.181C177.886 334.329 177.009 334.364 175.629 334.372V333.739H178.103V332.853H175.629V332.246H178.337V331.343H174.492V335.275H175.177C176.861 335.275 177.86 335.249 178.988 335.067L178.884 334.181ZM176.506 336.855H179.578V337.888H176.506V336.855ZM175.377 338.782H180.698V335.961H175.377V338.782ZM179.544 330.891V335.631H180.698V330.891H179.544Z" fill="white"/>
<rect x="239.795" y="264.857" width="82.6477" height="28.9869" rx="14.4935" fill="#8C8C8C" fill-opacity="0.3" stroke="white"/>
<path d="M263.561 281.612C263.127 281.612 262.867 281.013 262.867 279.781C262.867 278.557 263.127 277.958 263.561 277.958C264.004 277.958 264.255 278.557 264.255 279.781C264.255 281.013 264.004 281.612 263.561 281.612ZM265.913 279.26H265.28C265.149 277.767 264.507 276.882 263.561 276.882C262.502 276.882 261.834 277.975 261.834 279.781C261.834 281.595 262.502 282.689 263.561 282.689C264.533 282.689 265.184 281.751 265.288 280.189H265.913V283.956H266.981V276.447H265.913V279.26ZM267.537 276.309V284.303H268.622V276.309H267.537ZM276.564 276.317H275.479V281.743H276.564V276.317ZM273.881 280.987H274.949V276.474H273.881V277.941H272.935V278.869H273.881V280.987ZM273.647 279.989C272.657 279.52 272.267 278.635 272.267 277.724V276.812H271.156V277.724C271.156 278.635 270.73 279.598 269.637 280.102L270.244 280.979C270.947 280.675 271.425 280.128 271.711 279.468C271.972 280.067 272.397 280.562 273.039 280.848L273.647 279.989ZM274.437 281.335H273.3V281.517C273.3 282.333 272.484 283.183 270.748 283.401L271.173 284.286C272.458 284.104 273.387 283.574 273.873 282.845C274.359 283.574 275.288 284.104 276.572 284.286L276.989 283.401C275.27 283.183 274.437 282.333 274.437 281.517V281.335ZM278.177 277.142V278.053H280.842C280.677 279.824 279.792 281.074 277.752 282.055L278.351 282.958C281.19 281.586 282.014 279.59 282.014 277.142H278.177ZM283.238 276.309V284.303H284.393V276.309H283.238ZM290.677 276.908H288.914V276.257H287.769V276.908H285.989V277.724H290.677V276.908ZM287.447 279.112C287.447 278.817 287.795 278.67 288.342 278.67C288.88 278.67 289.218 278.817 289.218 279.112C289.218 279.399 288.88 279.564 288.342 279.564C287.795 279.564 287.447 279.399 287.447 279.112ZM290.755 280.501C290.164 280.571 289.539 280.623 288.914 280.657V280.276C289.765 280.145 290.312 279.72 290.312 279.112C290.312 278.383 289.513 277.923 288.342 277.923C287.152 277.923 286.354 278.383 286.354 279.112C286.354 279.72 286.901 280.145 287.769 280.276V280.701C287.048 280.718 286.371 280.718 285.763 280.718L285.911 281.578C287.309 281.578 289.14 281.552 290.833 281.265L290.755 280.501ZM286.857 282.932H291.223V284.321H292.378V282.046H286.857V282.932ZM291.223 276.326V281.734H292.378V276.326H291.223ZM298.532 279.616C297.533 279.763 296.657 279.798 295.277 279.807V279.173H297.75V278.288H295.277V277.68H297.985V276.777H294.139V280.71H294.825C296.509 280.71 297.507 280.684 298.636 280.501L298.532 279.616ZM296.153 282.289H299.226V283.322H296.153V282.289ZM295.025 284.216H300.346V281.395H295.025V284.216ZM299.191 276.326V281.065H300.346V276.326H299.191Z" fill="white"/>
<rect x="239.795" y="319.423" width="82.6477" height="28.9869" rx="14.4935" fill="#8C8C8C" fill-opacity="0.3" stroke="white"/>
<path d="M260.822 331.499H259.667V332.654C259.667 334.173 259.06 335.726 257.706 336.351L258.418 337.271C259.312 336.82 259.911 335.987 260.258 334.963C260.588 335.926 261.169 336.707 262.046 337.133L262.723 336.221C261.404 335.631 260.822 334.164 260.822 332.654V331.499ZM263.383 330.874V333.383H261.846V334.303H263.383V338.895H264.529V330.874H263.383ZM271.281 330.874V338.895H272.427V330.874H271.281ZM266.194 331.516V337.028H270.135V331.516H268.998V333.452H267.332V331.516H266.194ZM267.332 334.346H268.998V336.117H267.332V334.346ZM280.777 334.641C278.971 334.338 277.982 333.096 277.982 331.924V331.351H276.758V331.924C276.758 333.07 275.76 334.338 273.963 334.641L274.449 335.605C275.838 335.336 276.853 334.555 277.366 333.539C277.878 334.555 278.902 335.327 280.291 335.605L280.777 334.641ZM273.789 336.976V337.905H281.029V336.976H273.789ZM282.078 331.872V332.784H284.101C283.953 334.355 283.276 335.509 281.67 336.447L282.339 337.245C284.57 335.943 285.229 334.112 285.229 331.872H282.078ZM287.53 330.883V333.895H286.818V331.091H285.75V338.539H286.818V334.815H287.53V338.877H288.623V330.883H287.53ZM292.694 333.843H291.123V333.044H292.694V333.843ZM293.822 331.23H292.694V332.185H291.123V331.23H289.994V334.737H293.822V331.23ZM291.921 337.428H296.053V335.258H290.775V336.126H294.925V336.612H290.784V338.817H296.287V337.931H291.921V337.428ZM296.053 332.428V330.883H294.907V334.945H296.053V333.357H297.103V332.428H296.053ZM302.571 334.181C301.573 334.329 300.696 334.364 299.316 334.372V333.739H301.79V332.853H299.316V332.246H302.025V331.343H298.179V335.275H298.865C300.549 335.275 301.547 335.249 302.676 335.067L302.571 334.181ZM300.193 336.855H303.266V337.888H300.193V336.855ZM299.065 338.782H304.386V335.961H299.065V338.782ZM303.231 330.891V335.631H304.386V330.891H303.231Z" fill="white"/>
<rect x="239.795" y="210.292" width="82.6477" height="28.9869" rx="14.4935" fill="#55A6D3" fill-opacity="0.3" stroke="white"/>
<path d="M259.144 227.047C258.71 227.047 258.45 226.448 258.45 225.215C258.45 223.991 258.71 223.392 259.144 223.392C259.587 223.392 259.839 223.991 259.839 225.215C259.839 226.448 259.587 227.047 259.144 227.047ZM261.497 224.695H260.863C260.733 223.201 260.091 222.316 259.144 222.316C258.085 222.316 257.417 223.41 257.417 225.215C257.417 227.03 258.085 228.123 259.144 228.123C260.117 228.123 260.768 227.186 260.872 225.623H261.497V229.391H262.565V221.882H261.497V224.695ZM263.12 221.743V229.738H264.205V221.743H263.12ZM272.147 221.752H271.062V227.177H272.147V221.752ZM269.465 226.422H270.532V221.908H269.465V223.375H268.519V224.304H269.465V226.422ZM269.23 225.424C268.241 224.955 267.85 224.07 267.85 223.158V222.247H266.739V223.158C266.739 224.07 266.314 225.033 265.22 225.537L265.828 226.413C266.531 226.109 267.008 225.563 267.295 224.903C267.555 225.502 267.98 225.997 268.623 226.283L269.23 225.424ZM270.02 226.769H268.883V226.951C268.883 227.767 268.067 228.618 266.331 228.835L266.757 229.72C268.041 229.538 268.97 229.009 269.456 228.28C269.942 229.009 270.871 229.538 272.156 229.72L272.572 228.835C270.854 228.618 270.02 227.767 270.02 226.951V226.769ZM276.261 222.368H275.106V223.531C275.106 225.016 274.499 226.543 273.153 227.177L273.839 228.106C274.742 227.663 275.341 226.821 275.688 225.806C276.018 226.76 276.582 227.533 277.415 227.958L278.11 227.056C276.825 226.422 276.261 224.972 276.261 223.531V222.368ZM280.74 224.825H279.577V221.752H278.431V229.747H279.577V225.78H280.74V224.825ZM286.85 228.74H283.83V228.028H286.85V228.74ZM286.85 227.16H283.83V226.396H282.692V229.651H287.987V226.396H286.85V227.16ZM283.508 224.946C282.927 224.946 282.501 224.59 282.501 223.991C282.501 223.392 282.927 223.037 283.508 223.037C284.099 223.037 284.524 223.392 284.524 223.991C284.524 224.59 284.099 224.946 283.508 224.946ZM286.842 221.752V223.514H285.566C285.34 222.663 284.524 222.082 283.508 222.082C282.31 222.082 281.408 222.88 281.408 223.991C281.408 225.102 282.31 225.901 283.508 225.901C284.541 225.901 285.357 225.311 285.574 224.443H286.842V226.049H287.987V221.752H286.842ZM291.311 227.351H290.166V229.608H295.712V228.696H291.311V227.351ZM291.346 223.705H294.462V224.399H291.346V223.705ZM293.464 225.971V225.302H295.6V222.038H294.462V222.82H291.346V222.038H290.209V225.302H292.318V225.971H289.289V226.882H296.52V225.971H293.464ZM302.526 224.686H299.236V223.861H302.526V224.686ZM303.654 222.056H302.526V222.967H299.236V222.056H298.099V225.597H303.654V222.056ZM304.514 226.352H297.274V227.264H300.295V229.755H301.441V227.264H304.514V226.352Z" fill="white"/>
<path d="M241 103H233V142H241" stroke="white"/>
<path d="M241 16H233V55H241" stroke="white"/>
<path d="M161 52L161 210" stroke="white"/>
<path d="M132 124L192 124" stroke="white"/>
<path d="M41 209V174H284V209" stroke="white"/>
<path d="M225 123H233" stroke="white"/>
<path d="M178 36L233 36" stroke="white"/>
</svg>
