<svg width="1086" height="512" viewBox="0 0 1086 512" fill="none" xmlns="http://www.w3.org/2000/svg">
<circle cx="543.533" cy="47.5659" r="27.2568" fill="#1A3C5B" fill-opacity="0.4" stroke="white" stroke-width="2.13779"/>
<circle cx="655.766" cy="198.28" r="27.2568" fill="#1A3C5B" fill-opacity="0.3" stroke="white" stroke-width="2.13779"/>
<circle cx="431.298" cy="198.28" r="27.2568" fill="#1A3C5B" fill-opacity="0.3" stroke="white" stroke-width="2.13779"/>
<path d="M418.34 197.906C418.34 197.061 418.522 196.31 418.888 195.652C419.253 194.986 419.761 194.47 420.411 194.105C421.069 193.731 421.812 193.544 422.64 193.544C423.655 193.544 424.524 193.812 425.247 194.348C425.97 194.884 426.453 195.615 426.697 196.541H424.407C424.236 196.184 423.992 195.912 423.676 195.725C423.367 195.538 423.014 195.445 422.616 195.445C421.974 195.445 421.454 195.668 421.056 196.115C420.658 196.562 420.459 197.159 420.459 197.906C420.459 198.653 420.658 199.25 421.056 199.697C421.454 200.144 421.974 200.367 422.616 200.367C423.014 200.367 423.367 200.273 423.676 200.087C423.992 199.9 424.236 199.628 424.407 199.27H426.697C426.453 200.196 425.97 200.927 425.247 201.463C424.524 201.991 423.655 202.255 422.64 202.255C421.812 202.255 421.069 202.073 420.411 201.707C419.761 201.333 419.253 200.818 418.888 200.16C418.522 199.502 418.34 198.751 418.34 197.906ZM431.067 202.28C430.442 202.28 429.882 202.178 429.386 201.975C428.891 201.772 428.493 201.471 428.192 201.073C427.9 200.676 427.746 200.196 427.729 199.636H429.947C429.979 199.953 430.089 200.196 430.276 200.367C430.462 200.529 430.706 200.611 431.007 200.611C431.315 200.611 431.559 200.541 431.738 200.403C431.916 200.257 432.006 200.058 432.006 199.806C432.006 199.595 431.932 199.421 431.786 199.283C431.648 199.145 431.474 199.031 431.262 198.941C431.059 198.852 430.767 198.751 430.385 198.637C429.833 198.466 429.382 198.296 429.033 198.125C428.684 197.955 428.383 197.703 428.131 197.37C427.88 197.037 427.754 196.602 427.754 196.066C427.754 195.27 428.042 194.649 428.619 194.202C429.195 193.747 429.947 193.52 430.873 193.52C431.815 193.52 432.574 193.747 433.151 194.202C433.727 194.649 434.036 195.274 434.077 196.078H431.823C431.807 195.802 431.705 195.587 431.518 195.433C431.331 195.27 431.092 195.189 430.799 195.189C430.548 195.189 430.345 195.258 430.19 195.396C430.036 195.526 429.959 195.717 429.959 195.969C429.959 196.245 430.089 196.46 430.349 196.614C430.609 196.769 431.015 196.935 431.567 197.114C432.119 197.301 432.566 197.479 432.907 197.65C433.256 197.821 433.557 198.068 433.809 198.393C434.06 198.718 434.186 199.136 434.186 199.648C434.186 200.135 434.06 200.578 433.809 200.976C433.565 201.374 433.208 201.691 432.737 201.926C432.265 202.162 431.709 202.28 431.067 202.28ZM439.513 202.28C438.709 202.28 437.97 202.093 437.296 201.719C436.63 201.346 436.098 200.826 435.7 200.16C435.31 199.486 435.115 198.73 435.115 197.894C435.115 197.057 435.31 196.306 435.7 195.64C436.098 194.974 436.63 194.454 437.296 194.08C437.97 193.707 438.709 193.52 439.513 193.52C440.317 193.52 441.052 193.707 441.718 194.08C442.392 194.454 442.92 194.974 443.302 195.64C443.692 196.306 443.887 197.057 443.887 197.894C443.887 198.73 443.692 199.486 443.302 200.16C442.912 200.826 442.384 201.346 441.718 201.719C441.052 202.093 440.317 202.28 439.513 202.28ZM439.513 200.379C440.195 200.379 440.74 200.152 441.146 199.697C441.56 199.242 441.767 198.641 441.767 197.894C441.767 197.138 441.56 196.537 441.146 196.091C440.74 195.636 440.195 195.408 439.513 195.408C438.823 195.408 438.271 195.632 437.856 196.078C437.45 196.525 437.247 197.13 437.247 197.894C437.247 198.649 437.45 199.254 437.856 199.709C438.271 200.156 438.823 200.379 439.513 200.379Z" fill="white"/>
<path d="M531.446 48.7116C531.446 47.8669 531.629 47.1156 531.994 46.4577C532.36 45.7917 532.867 45.2759 533.517 44.9104C534.175 44.5368 534.918 44.35 535.747 44.35C536.762 44.35 537.631 44.618 538.354 45.1541C539.077 45.6901 539.56 46.4211 539.804 47.347H537.513C537.343 46.9897 537.099 46.7176 536.782 46.5308C536.474 46.344 536.12 46.2506 535.722 46.2506C535.081 46.2506 534.561 46.4739 534.163 46.9206C533.765 47.3674 533.566 47.9643 533.566 48.7116C533.566 49.4588 533.765 50.0558 534.163 50.5025C534.561 50.9492 535.081 51.1725 535.722 51.1725C536.12 51.1725 536.474 51.0791 536.782 50.8923C537.099 50.7055 537.343 50.4334 537.513 50.0761H539.804C539.56 51.002 539.077 51.733 538.354 52.269C537.631 52.7969 536.762 53.0609 535.747 53.0609C534.918 53.0609 534.175 52.8782 533.517 52.5127C532.867 52.1391 532.36 51.6233 531.994 50.9654C531.629 50.3075 531.446 49.5562 531.446 48.7116ZM543.163 46.1166V47.8466H545.953V49.4547H543.163V51.3309H546.318V53H541.079V44.4475H546.318V46.1166H543.163ZM551.715 53.0853C550.911 53.0853 550.172 52.8985 549.498 52.5249C548.832 52.1512 548.3 51.6314 547.902 50.9654C547.512 50.2913 547.317 49.5359 547.317 48.6994C547.317 47.8628 547.512 47.1115 547.902 46.4455C548.3 45.7795 548.832 45.2597 549.498 44.8861C550.172 44.5124 550.911 44.3256 551.715 44.3256C552.519 44.3256 553.255 44.5124 553.921 44.8861C554.595 45.2597 555.123 45.7795 555.504 46.4455C555.894 47.1115 556.089 47.8628 556.089 48.6994C556.089 49.5359 555.894 50.2913 555.504 50.9654C555.114 51.6314 554.587 52.1512 553.921 52.5249C553.255 52.8985 552.519 53.0853 551.715 53.0853ZM551.715 51.1847C552.398 51.1847 552.942 50.9573 553.348 50.5025C553.762 50.0476 553.969 49.4466 553.969 48.6994C553.969 47.944 553.762 47.343 553.348 46.8963C552.942 46.4414 552.398 46.214 551.715 46.214C551.025 46.214 550.473 46.4374 550.059 46.8841C549.652 47.3308 549.449 47.9359 549.449 48.6994C549.449 49.4547 549.652 50.0598 550.059 50.5147C550.473 50.9614 551.025 51.1847 551.715 51.1847Z" fill="white"/>
<path d="M641.738 197.906C641.738 197.061 641.921 196.31 642.286 195.652C642.652 194.986 643.159 194.47 643.809 194.105C644.467 193.731 645.21 193.544 646.039 193.544C647.054 193.544 647.923 193.812 648.646 194.348C649.369 194.884 649.852 195.615 650.096 196.541H647.805C647.635 196.184 647.391 195.912 647.074 195.725C646.766 195.538 646.412 195.445 646.014 195.445C645.373 195.445 644.853 195.668 644.455 196.115C644.057 196.562 643.858 197.159 643.858 197.906C643.858 198.653 644.057 199.25 644.455 199.697C644.853 200.144 645.373 200.367 646.014 200.367C646.412 200.367 646.766 200.273 647.074 200.087C647.391 199.9 647.635 199.628 647.805 199.27H650.096C649.852 200.196 649.369 200.927 648.646 201.463C647.923 201.991 647.054 202.255 646.039 202.255C645.21 202.255 644.467 202.073 643.809 201.707C643.159 201.333 642.652 200.818 642.286 200.16C641.921 199.502 641.738 198.751 641.738 197.906ZM655.416 202.28C654.612 202.28 653.873 202.093 653.199 201.719C652.533 201.346 652.001 200.826 651.603 200.16C651.213 199.486 651.018 198.73 651.018 197.894C651.018 197.057 651.213 196.306 651.603 195.64C652.001 194.974 652.533 194.454 653.199 194.08C653.873 193.707 654.612 193.52 655.416 193.52C656.22 193.52 656.955 193.707 657.621 194.08C658.295 194.454 658.823 194.974 659.205 195.64C659.595 196.306 659.79 197.057 659.79 197.894C659.79 198.73 659.595 199.486 659.205 200.16C658.815 200.826 658.287 201.346 657.621 201.719C656.955 202.093 656.22 202.28 655.416 202.28ZM655.416 200.379C656.098 200.379 656.643 200.152 657.049 199.697C657.463 199.242 657.67 198.641 657.67 197.894C657.67 197.138 657.463 196.537 657.049 196.091C656.643 195.636 656.098 195.408 655.416 195.408C654.726 195.408 654.173 195.632 653.759 196.078C653.353 196.525 653.15 197.13 653.15 197.894C653.15 198.649 653.353 199.254 653.759 199.709C654.173 200.156 654.726 200.379 655.416 200.379ZM664.994 202.28C664.19 202.28 663.45 202.093 662.776 201.719C662.11 201.346 661.578 200.826 661.18 200.16C660.791 199.486 660.596 198.73 660.596 197.894C660.596 197.057 660.791 196.306 661.18 195.64C661.578 194.974 662.11 194.454 662.776 194.08C663.45 193.707 664.19 193.52 664.994 193.52C665.798 193.52 666.533 193.707 667.199 194.08C667.873 194.454 668.401 194.974 668.783 195.64C669.172 196.306 669.367 197.057 669.367 197.894C669.367 198.73 669.172 199.486 668.783 200.16C668.393 200.826 667.865 201.346 667.199 201.719C666.533 202.093 665.798 202.28 664.994 202.28ZM664.994 200.379C665.676 200.379 666.22 200.152 666.626 199.697C667.04 199.242 667.248 198.641 667.248 197.894C667.248 197.138 667.04 196.537 666.626 196.091C666.22 195.636 665.676 195.408 664.994 195.408C664.303 195.408 663.751 195.632 663.337 196.078C662.931 196.525 662.728 197.13 662.728 197.894C662.728 198.649 662.931 199.254 663.337 199.709C663.751 200.156 664.303 200.379 664.994 200.379Z" fill="white"/>
<rect x="807.014" y="152.852" width="111.165" height="38.4802" rx="19.2401" fill="#55A6D3" fill-opacity="0.3" stroke="white" stroke-width="2.13779"/>
<rect x="488.485" y="338.839" width="111.165" height="38.4802" rx="19.2401" fill="#55A6D3" fill-opacity="0.3" stroke="white" stroke-width="2.13779"/>
<rect x="891.458" y="338.839" width="111.165" height="38.4802" rx="19.2401" fill="#55A6D3" fill-opacity="0.3" stroke="white" stroke-width="2.13779"/>
<rect x="84.4429" y="338.839" width="111.165" height="38.4802" rx="19.2401" fill="#55A6D3" fill-opacity="0.3" stroke="white" stroke-width="2.13779"/>
<rect x="404.042" y="471.382" width="111.165" height="38.4802" rx="19.2401" fill="#8C8C8C" fill-opacity="0.3" stroke="white" stroke-width="2.13779"/>
<rect x="1.06889" y="471.382" width="111.165" height="38.4802" rx="19.2401" fill="#8C8C8C" fill-opacity="0.3" stroke="white" stroke-width="2.13779"/>
<path d="M22.1797 493.599C21.5918 493.599 21.2391 492.787 21.2391 491.118C21.2391 489.46 21.5918 488.649 22.1797 488.649C22.7793 488.649 23.1203 489.46 23.1203 491.118C23.1203 492.787 22.7793 493.599 22.1797 493.599ZM25.3661 490.412H24.5077C24.3314 488.39 23.4613 487.191 22.1797 487.191C20.7452 487.191 19.8399 488.672 19.8399 491.118C19.8399 493.575 20.7452 495.057 22.1797 495.057C23.4966 495.057 24.3784 493.787 24.5195 491.67H25.3661V496.773H26.8123V486.603H25.3661V490.412ZM27.5648 486.415V497.244H29.0345V486.415H27.5648ZM39.792 486.426H38.3223V493.775H39.792V486.426ZM36.1588 492.752H37.605V486.638H36.1588V488.625H34.8772V489.883H36.1588V492.752ZM35.8414 491.4C34.501 490.765 33.9719 489.566 33.9719 488.331V487.097H32.4669V488.331C32.4669 489.566 31.8907 490.871 30.4093 491.553L31.2323 492.74C32.1847 492.329 32.8314 491.588 33.2194 490.694C33.5721 491.506 34.1482 492.176 35.0183 492.564L35.8414 491.4ZM36.9113 493.222H35.3711V493.469C35.3711 494.575 34.2658 495.727 31.9143 496.021L32.4904 497.22C34.2305 496.973 35.4886 496.256 36.1471 495.268C36.8055 496.256 38.0636 496.973 39.8038 497.22L40.3681 496.021C38.0401 495.727 36.9113 494.575 36.9113 493.469V493.222ZM45.3525 490.436H43.2244V489.354H45.3525V490.436ZM46.8811 486.897H45.3525V488.19H43.2244V486.897H41.6959V491.647H46.8811V486.897ZM44.3061 495.292H49.9028V492.352H42.7541V493.528H48.3743V494.187H42.7658V497.173H50.2203V495.974H44.3061V495.292ZM49.9028 488.519V486.426H48.3508V491.929H49.9028V489.777H51.3255V488.519H49.9028ZM59.1553 490.353H59.9548V493.199H61.4246V486.426H59.9548V489.095H59.1553V486.626H57.7091V492.858H59.1553V490.353ZM57.4034 487.532H55.5339V486.544H54.0054V487.532H52.1359V488.731H57.4034V487.532ZM53.829 490.965C53.829 490.459 54.217 490.189 54.7932 490.189C55.3693 490.189 55.7455 490.459 55.7455 490.965C55.7455 491.47 55.3693 491.753 54.7932 491.753C54.217 491.753 53.829 491.47 53.829 490.965ZM57.1212 490.965C57.1212 489.848 56.1571 489.084 54.7932 489.084C53.4175 489.084 52.4533 489.848 52.4533 490.965C52.4533 492.082 53.4175 492.858 54.7932 492.858C56.1571 492.858 57.1212 492.082 57.1212 490.965ZM57.7561 496.103C56.3099 496.103 55.5809 495.856 55.5809 495.292C55.5809 494.727 56.3099 494.48 57.7561 494.48C59.2023 494.48 59.9313 494.727 59.9313 495.292C59.9313 495.856 59.2023 496.103 57.7561 496.103ZM57.7561 493.316C55.4281 493.316 54.0289 494.034 54.0289 495.292C54.0289 496.55 55.4281 497.255 57.7561 497.255C60.0842 497.255 61.4834 496.55 61.4834 495.292C61.4834 494.034 60.0842 493.316 57.7561 493.316ZM63.6106 487.543V488.778H67.2203C66.9969 491.177 65.7976 492.87 63.0345 494.198L63.8458 495.421C67.6906 493.563 68.8076 490.859 68.8076 487.543H63.6106ZM70.4654 486.415V497.244H72.0292V486.415H70.4654ZM80.541 487.226H78.1541V486.344H76.6021V487.226H74.1917V488.331H80.541V487.226ZM76.167 490.212C76.167 489.813 76.6374 489.613 77.3781 489.613C78.1071 489.613 78.5656 489.813 78.5656 490.212C78.5656 490.6 78.1071 490.824 77.3781 490.824C76.6374 490.824 76.167 490.6 76.167 490.212ZM80.6468 492.094C79.8473 492.188 79.0007 492.258 78.1541 492.305V491.788C79.3064 491.612 80.0471 491.035 80.0471 490.212C80.0471 489.225 78.9654 488.602 77.3781 488.602C75.7673 488.602 74.6856 489.225 74.6856 490.212C74.6856 491.035 75.4263 491.612 76.6021 491.788V492.364C75.6262 492.388 74.7091 492.388 73.886 492.388L74.0859 493.552C75.9789 493.552 78.4598 493.516 80.7526 493.128L80.6468 492.094ZM75.3675 495.386H81.2817V497.267H82.8455V494.187H75.3675V495.386ZM81.2817 486.438V493.763H82.8455V486.438H81.2817ZM91.1809 490.894C89.8287 491.094 88.6412 491.141 86.7717 491.153V490.295H90.1227V489.095H86.7717V488.272H90.4401V487.05H85.2314V492.376H86.1603C88.4413 492.376 89.7935 492.341 91.322 492.094L91.1809 490.894ZM87.9592 494.516H92.1215V495.915H87.9592V494.516ZM86.4307 497.126H93.6383V493.305H86.4307V497.126ZM92.0745 486.438V492.858H93.6383V486.438H92.0745Z" fill="white"/>
<rect x="807.014" y="471.382" width="111.165" height="38.4802" rx="19.2401" fill="#8C8C8C" fill-opacity="0.3" stroke="white" stroke-width="2.13779"/>
<rect x="570.79" y="471.382" width="111.165" height="38.4802" rx="19.2401" fill="#8C8C8C" fill-opacity="0.3" stroke="white" stroke-width="2.13779"/>
<rect x="167.817" y="471.382" width="111.165" height="38.4802" rx="19.2401" fill="#8C8C8C" fill-opacity="0.3" stroke="white" stroke-width="2.13779"/>
<rect x="973.762" y="471.382" width="111.165" height="38.4802" rx="19.2401" fill="#8C8C8C" fill-opacity="0.3" stroke="white" stroke-width="2.13779"/>
<path d="M513.87 361.056C513.282 361.056 512.929 360.245 512.929 358.575C512.929 356.917 513.282 356.106 513.87 356.106C514.47 356.106 514.811 356.917 514.811 358.575C514.811 360.245 514.47 361.056 513.87 361.056ZM517.056 357.87H516.198C516.022 355.847 515.152 354.648 513.87 354.648C512.436 354.648 511.53 356.13 511.53 358.575C511.53 361.033 512.436 362.514 513.87 362.514C515.187 362.514 516.069 361.244 516.21 359.128H517.056V364.231H518.503V354.06H517.056V357.87ZM519.255 353.872V364.701H520.725V353.872H519.255ZM531.482 353.884H530.013V361.233H531.482V353.884ZM527.849 360.21H529.295V354.096H527.849V356.083H526.568V357.341H527.849V360.21ZM527.532 358.857C526.191 358.223 525.662 357.023 525.662 355.789V354.554H524.157V355.789C524.157 357.023 523.581 358.328 522.1 359.01L522.923 360.198C523.875 359.786 524.522 359.046 524.91 358.152C525.263 358.963 525.839 359.633 526.709 360.021L527.532 358.857ZM528.602 360.68H527.061V360.927C527.061 362.032 525.956 363.184 523.605 363.478L524.181 364.678C525.921 364.431 527.179 363.713 527.838 362.726C528.496 363.713 529.754 364.431 531.494 364.678L532.059 363.478C529.731 363.184 528.602 362.032 528.602 360.927V360.68ZM537.96 355.318C539.336 355.318 540.182 355.659 540.182 356.33C540.182 357 539.336 357.341 537.96 357.341C536.608 357.341 535.75 357 535.75 356.33C535.75 355.659 536.608 355.318 537.96 355.318ZM537.96 358.575C540.3 358.575 541.852 357.705 541.852 356.33C541.852 354.966 540.3 354.084 537.96 354.084C535.632 354.084 534.068 354.966 534.068 356.33C534.068 357.705 535.632 358.575 537.96 358.575ZM535.785 361.28H534.209V364.525H541.805V363.29H535.785V361.28ZM533.069 359.14V360.374H537.266V362.232H538.854V360.374H542.875V359.14H533.069ZM548.753 363.549C547.307 363.549 546.566 363.302 546.566 362.749C546.566 362.197 547.307 361.962 548.753 361.962C550.199 361.962 550.94 362.197 550.94 362.749C550.94 363.302 550.199 363.549 548.753 363.549ZM548.753 360.786C546.413 360.786 545.002 361.491 545.002 362.749C545.002 364.007 546.413 364.725 548.753 364.725C551.093 364.725 552.515 364.007 552.515 362.749C552.515 361.491 551.093 360.786 548.753 360.786ZM547.636 358.117C547.989 358.164 548.365 358.187 548.776 358.187C549.176 358.187 549.552 358.164 549.893 358.128V359.022H547.636V358.117ZM548.776 355.224C550.258 355.224 551.104 355.518 551.104 356.13C551.104 356.718 550.258 357.023 548.776 357.023C547.307 357.023 546.46 356.718 546.46 356.13C546.46 355.518 547.307 355.224 548.776 355.224ZM551.445 359.022V357.729C552.245 357.376 552.703 356.835 552.703 356.13C552.703 354.836 551.175 354.048 548.776 354.048C546.39 354.048 544.861 354.836 544.861 356.13C544.861 356.823 545.308 357.364 546.084 357.717V359.022H543.885V360.245H553.668V359.022H551.445ZM557.441 361.468H555.889V364.525H563.402V363.29H557.441V361.468ZM557.488 356.529H561.709V357.47H557.488V356.529ZM560.357 359.598V358.693H563.249V354.272H561.709V355.33H557.488V354.272H555.948V358.693H558.805V359.598H554.701V360.833H564.496V359.598H560.357ZM572.631 357.858H568.175V356.741H572.631V357.858ZM574.16 354.295H572.631V355.53H568.175V354.295H566.635V359.093H574.16V354.295ZM575.324 360.116H565.518V361.35H569.609V364.725H571.161V361.35H575.324V360.116Z" fill="white"/>
<path d="M449.623 492.823V493.881H451.657V494.692H453.209V486.426H451.657V492.823H449.623ZM446.965 495.833V494.433H448.459V492.376C449.34 492.305 450.21 492.211 451.045 492.082L450.939 490.988C450.646 491.012 450.34 491.047 450.022 491.071C450.293 489.766 450.293 488.743 450.293 487.837V486.932H444.896V488.167H448.764C448.764 488.425 448.764 488.696 448.753 488.966L444.684 489.119L444.872 490.365L448.647 490.095C448.6 490.436 448.541 490.8 448.47 491.188C446.907 491.282 445.343 491.306 444.061 491.318L444.249 492.552C445.061 492.54 445.966 492.517 446.918 492.47V493.928H445.425V497.067H453.456V495.833H446.965ZM463.672 492.011H457.641V490.8H463.343V489.601H457.641V488.46H463.59V487.214H456.065V493.234H463.672V492.011ZM454.913 494.751V496.009H464.719V494.751H454.913ZM472.266 490.894C470.914 491.094 469.727 491.141 467.857 491.153V490.295H471.208V489.095H467.857V488.272H471.526V487.05H466.317V492.376H467.246C469.527 492.376 470.879 492.341 472.407 492.094L472.266 490.894ZM469.045 494.516H473.207V495.915H469.045V494.516ZM467.516 497.126H474.724V493.305H467.516V497.126ZM473.16 486.438V492.858H474.724V486.438H473.16Z" fill="white"/>
<path d="M838.814 493.599C838.227 493.599 837.874 492.787 837.874 491.118C837.874 489.46 838.227 488.649 838.814 488.649C839.414 488.649 839.755 489.46 839.755 491.118C839.755 492.787 839.414 493.599 838.814 493.599ZM842.001 490.412H841.143C840.966 488.39 840.096 487.191 838.814 487.191C837.38 487.191 836.475 488.672 836.475 491.118C836.475 493.575 837.38 495.057 838.814 495.057C840.131 495.057 841.013 493.787 841.154 491.67H842.001V496.773H843.447V486.603H842.001V490.412ZM844.2 486.415V497.244H845.669V486.415H844.2ZM856.427 486.426H854.957V493.775H856.427V486.426ZM852.794 492.752H854.24V486.638H852.794V488.625H851.512V489.883H852.794V492.752ZM852.476 491.4C851.136 490.765 850.607 489.566 850.607 488.331V487.097H849.102V488.331C849.102 489.566 848.526 490.871 847.044 491.553L847.867 492.74C848.819 492.329 849.466 491.588 849.854 490.694C850.207 491.506 850.783 492.176 851.653 492.564L852.476 491.4ZM853.546 493.222H852.006V493.469C852.006 494.575 850.901 495.727 848.549 496.021L849.125 497.22C850.865 496.973 852.123 496.256 852.782 495.268C853.44 496.256 854.698 496.973 856.439 497.22L857.003 496.021C854.675 495.727 853.546 494.575 853.546 493.469V493.222ZM858.613 487.543V488.778H862.222C861.999 491.177 860.8 492.87 858.037 494.198L858.848 495.421C862.693 493.563 863.81 490.859 863.81 487.543H858.613ZM865.468 486.415V497.244H867.031V486.415H865.468ZM875.543 487.226H873.156V486.344H871.604V487.226H869.194V488.331H875.543V487.226ZM871.169 490.212C871.169 489.813 871.64 489.613 872.38 489.613C873.109 489.613 873.568 489.813 873.568 490.212C873.568 490.6 873.109 490.824 872.38 490.824C871.64 490.824 871.169 490.6 871.169 490.212ZM875.649 492.094C874.849 492.188 874.003 492.258 873.156 492.305V491.788C874.309 491.612 875.049 491.035 875.049 490.212C875.049 489.225 873.968 488.602 872.38 488.602C870.769 488.602 869.688 489.225 869.688 490.212C869.688 491.035 870.429 491.612 871.604 491.788V492.364C870.628 492.388 869.711 492.388 868.888 492.388L869.088 493.552C870.981 493.552 873.462 493.516 875.755 493.128L875.649 492.094ZM870.37 495.386H876.284V497.267H877.848V494.187H870.37V495.386ZM876.284 486.438V493.763H877.848V486.438H876.284ZM886.183 490.894C884.831 491.094 883.643 491.141 881.774 491.153V490.295H885.125V489.095H881.774V488.272H885.442V487.05H880.234V492.376H881.162C883.444 492.376 884.796 492.341 886.324 492.094L886.183 490.894ZM882.961 494.516H887.124V495.915H882.961V494.516ZM881.433 497.126H888.64V493.305H881.433V497.126ZM887.077 486.438V492.858H888.64V486.438H887.077Z" fill="white"/>
<path d="M602.589 493.599C602.001 493.599 601.648 492.787 601.648 491.118C601.648 489.46 602.001 488.649 602.589 488.649C603.189 488.649 603.529 489.46 603.529 491.118C603.529 492.787 603.189 493.599 602.589 493.599ZM605.775 490.412H604.917C604.741 488.39 603.87 487.191 602.589 487.191C601.154 487.191 600.249 488.672 600.249 491.118C600.249 493.575 601.154 495.057 602.589 495.057C603.906 495.057 604.788 493.787 604.929 491.67H605.775V496.773H607.221V486.603H605.775V490.412ZM607.974 486.415V497.244H609.444V486.415H607.974ZM620.201 486.426H618.731V493.775H620.201V486.426ZM616.568 492.752H618.014V486.638H616.568V488.625H615.286V489.883H616.568V492.752ZM616.251 491.4C614.91 490.765 614.381 489.566 614.381 488.331V487.097H612.876V488.331C612.876 489.566 612.3 490.871 610.818 491.553L611.641 492.74C612.594 492.329 613.241 491.588 613.629 490.694C613.981 491.506 614.557 492.176 615.428 492.564L616.251 491.4ZM617.321 493.222H615.78V493.469C615.78 494.575 614.675 495.727 612.323 496.021L612.9 497.22C614.64 496.973 615.898 496.256 616.556 495.268C617.215 496.256 618.473 496.973 620.213 497.22L620.777 496.021C618.449 495.727 617.321 494.575 617.321 493.469V493.222ZM626.679 487.861C628.054 487.861 628.901 488.202 628.901 488.872C628.901 489.542 628.054 489.883 626.679 489.883C625.327 489.883 624.468 489.542 624.468 488.872C624.468 488.202 625.327 487.861 626.679 487.861ZM626.679 491.118C629.019 491.118 630.571 490.248 630.571 488.872C630.571 487.508 629.019 486.626 626.679 486.626C624.351 486.626 622.787 487.508 622.787 488.872C622.787 490.248 624.351 491.118 626.679 491.118ZM624.504 493.822H622.928V497.067H630.524V495.833H624.504V493.822ZM621.788 491.682V492.917H625.985V494.774H627.572V492.917H631.594V491.682H621.788ZM634.215 489.66C634.215 488.813 634.791 488.319 635.59 488.319C636.39 488.319 636.978 488.813 636.978 489.66C636.978 490.495 636.39 491 635.59 491C634.791 491 634.215 490.495 634.215 489.66ZM640.105 489.072V490.248H638.377C638.424 490.048 638.447 489.86 638.447 489.66C638.447 489.448 638.424 489.26 638.389 489.072H640.105ZM640.105 491.482V492.776H641.657V486.426H640.105V487.837H637.719C637.201 487.32 636.46 487.002 635.59 487.002C633.991 487.002 632.745 488.119 632.745 489.66C632.745 491.188 633.991 492.305 635.59 492.305C636.437 492.305 637.178 492 637.695 491.482H640.105ZM637.989 496.068C636.566 496.068 635.814 495.762 635.814 495.127C635.814 494.492 636.566 494.187 637.989 494.187C639.412 494.187 640.176 494.492 640.176 495.127C640.176 495.762 639.412 496.068 637.989 496.068ZM637.989 492.987C635.708 492.987 634.285 493.775 634.285 495.127C634.285 496.468 635.708 497.255 637.989 497.255C640.282 497.255 641.704 496.468 641.704 495.127C641.704 493.775 640.282 492.987 637.989 492.987ZM649.957 490.894C648.605 491.094 647.418 491.141 645.548 491.153V490.295H648.899V489.095H645.548V488.272H649.217V487.05H644.008V492.376H644.937C647.218 492.376 648.57 492.341 650.099 492.094L649.957 490.894ZM646.736 494.516H650.898V495.915H646.736V494.516ZM645.207 497.126H652.415V493.305H645.207V497.126ZM650.851 486.438V492.858H652.415V486.438H650.851Z" fill="white"/>
<path d="M187.857 493.599C187.27 493.599 186.917 492.787 186.917 491.118C186.917 489.46 187.27 488.649 187.857 488.649C188.457 488.649 188.798 489.46 188.798 491.118C188.798 492.787 188.457 493.599 187.857 493.599ZM191.044 490.412H190.185C190.009 488.39 189.139 487.191 187.857 487.191C186.423 487.191 185.518 488.672 185.518 491.118C185.518 493.575 186.423 495.057 187.857 495.057C189.174 495.057 190.056 493.787 190.197 491.67H191.044V496.773H192.49V486.603H191.044V490.412ZM193.243 486.415V497.244H194.712V486.415H193.243ZM205.47 486.426H204V493.775H205.47V486.426ZM201.837 492.752H203.283V486.638H201.837V488.625H200.555V489.883H201.837V492.752ZM201.519 491.4C200.179 490.765 199.65 489.566 199.65 488.331V487.097H198.145V488.331C198.145 489.566 197.568 490.871 196.087 491.553L196.91 492.74C197.862 492.329 198.509 491.588 198.897 490.694C199.25 491.506 199.826 492.176 200.696 492.564L201.519 491.4ZM202.589 493.222H201.049V493.469C201.049 494.575 199.944 495.727 197.592 496.021L198.168 497.22C199.908 496.973 201.166 496.256 201.825 495.268C202.483 496.256 203.741 496.973 205.481 497.22L206.046 496.021C203.718 495.727 202.589 494.575 202.589 493.469V493.222ZM211.03 490.436H208.902V489.354H211.03V490.436ZM212.559 486.897H211.03V488.19H208.902V486.897H207.374V491.647H212.559V486.897ZM209.984 495.292H215.581V492.352H208.432V493.528H214.052V494.187H208.444V497.173H215.898V495.974H209.984V495.292ZM215.581 488.519V486.426H214.029V491.929H215.581V489.777H217.003V488.519H215.581ZM224.833 490.353H225.633V493.199H227.102V486.426H225.633V489.095H224.833V486.626H223.387V492.858H224.833V490.353ZM223.081 487.532H221.212V486.544H219.683V487.532H217.814V488.731H223.081V487.532ZM219.507 490.965C219.507 490.459 219.895 490.189 220.471 490.189C221.047 490.189 221.423 490.459 221.423 490.965C221.423 491.47 221.047 491.753 220.471 491.753C219.895 491.753 219.507 491.47 219.507 490.965ZM222.799 490.965C222.799 489.848 221.835 489.084 220.471 489.084C219.095 489.084 218.131 489.848 218.131 490.965C218.131 492.082 219.095 492.858 220.471 492.858C221.835 492.858 222.799 492.082 222.799 490.965ZM223.434 496.103C221.988 496.103 221.259 495.856 221.259 495.292C221.259 494.727 221.988 494.48 223.434 494.48C224.88 494.48 225.609 494.727 225.609 495.292C225.609 495.856 224.88 496.103 223.434 496.103ZM223.434 493.316C221.106 493.316 219.707 494.034 219.707 495.292C219.707 496.55 221.106 497.255 223.434 497.255C225.762 497.255 227.161 496.55 227.161 495.292C227.161 494.034 225.762 493.316 223.434 493.316ZM229.1 487.767V489.001H231.84C231.64 491.129 230.723 492.693 228.548 493.963L229.453 495.045C232.475 493.281 233.368 490.8 233.368 487.767H229.1ZM236.484 486.426V490.506H235.52V486.709H234.074V496.797H235.52V491.753H236.484V497.255H237.966V486.426H236.484ZM243.479 490.436H241.351V489.354H243.479V490.436ZM245.008 486.897H243.479V488.19H241.351V486.897H239.822V491.647H245.008V486.897ZM242.433 495.292H248.029V492.352H240.881V493.528H246.501V494.187H240.892V497.173H248.347V495.974H242.433V495.292ZM248.029 488.519V486.426H246.477V491.929H248.029V489.777H249.452V488.519H248.029ZM256.859 490.894C255.506 491.094 254.319 491.141 252.449 491.153V490.295H255.8V489.095H252.449V488.272H256.118V487.05H250.909V492.376H251.838C254.119 492.376 255.471 492.341 257 492.094L256.859 490.894ZM253.637 494.516H257.799V495.915H253.637V494.516ZM252.108 497.126H259.316V493.305H252.108V497.126ZM257.752 486.438V492.858H259.316V486.438H257.752Z" fill="white"/>
<path d="M1001.85 487.261H1000.29V488.825C1000.29 490.883 999.464 492.987 997.63 493.834L998.594 495.08C999.805 494.469 1000.62 493.34 1001.09 491.953C1001.53 493.258 1002.32 494.316 1003.51 494.892L1004.43 493.657C1002.64 492.858 1001.85 490.871 1001.85 488.825V487.261ZM1005.32 486.415V489.813H1003.24V491.059H1005.32V497.279H1006.87V486.415H1005.32ZM1016.02 486.415V497.279H1017.57V486.415H1016.02ZM1009.13 487.285V494.751H1014.47V487.285H1012.93V489.907H1010.67V487.285H1009.13ZM1010.67 491.118H1012.93V493.516H1010.67V491.118ZM1028.88 491.517C1026.43 491.106 1025.09 489.425 1025.09 487.837V487.061H1023.44V487.837C1023.44 489.389 1022.08 491.106 1019.65 491.517L1020.31 492.823C1022.19 492.458 1023.57 491.4 1024.26 490.024C1024.95 491.4 1026.34 492.446 1028.22 492.823L1028.88 491.517ZM1019.42 494.68V495.938H1029.22V494.68H1019.42ZM1030.64 487.767V489.001H1033.38C1033.18 491.129 1032.27 492.693 1030.09 493.963L1031 495.045C1034.02 493.281 1034.91 490.8 1034.91 487.767H1030.64ZM1038.03 486.426V490.506H1037.06V486.709H1035.62V496.797H1037.06V491.753H1038.03V497.255H1039.51V486.426H1038.03ZM1045.02 490.436H1042.89V489.354H1045.02V490.436ZM1046.55 486.897H1045.02V488.19H1042.89V486.897H1041.37V491.647H1046.55V486.897ZM1043.98 495.292H1049.57V492.352H1042.42V493.528H1048.04V494.187H1042.44V497.173H1049.89V495.974H1043.98V495.292ZM1049.57 488.519V486.426H1048.02V491.929H1049.57V489.777H1051V488.519H1049.57ZM1058.4 490.894C1057.05 491.094 1055.86 491.141 1053.99 491.153V490.295H1057.34V489.095H1053.99V488.272H1057.66V487.05H1052.45V492.376H1053.38C1055.66 492.376 1057.01 492.341 1058.54 492.094L1058.4 490.894ZM1055.18 494.516H1059.34V495.915H1055.18V494.516ZM1053.65 497.126H1060.86V493.305H1053.65V497.126ZM1059.3 486.438V492.858H1060.86V486.438H1059.3Z" fill="white"/>
<path d="M109.829 361.056C109.241 361.056 108.888 360.245 108.888 358.575C108.888 356.917 109.241 356.106 109.829 356.106C110.429 356.106 110.77 356.917 110.77 358.575C110.77 360.245 110.429 361.056 109.829 361.056ZM113.015 357.87H112.157C111.981 355.847 111.111 354.648 109.829 354.648C108.395 354.648 107.489 356.13 107.489 358.575C107.489 361.033 108.395 362.514 109.829 362.514C111.146 362.514 112.028 361.244 112.169 359.128H113.015V364.231H114.462V354.06H113.015V357.87ZM115.214 353.872V364.701H116.684V353.872H115.214ZM127.441 353.884H125.972V361.233H127.441V353.884ZM123.808 360.21H125.254V354.096H123.808V356.083H122.527V357.341H123.808V360.21ZM123.491 358.857C122.15 358.223 121.621 357.023 121.621 355.789V354.554H120.116V355.789C120.116 357.023 119.54 358.328 118.059 359.01L118.882 360.198C119.834 359.786 120.481 359.046 120.869 358.152C121.222 358.963 121.798 359.633 122.668 360.021L123.491 358.857ZM124.561 360.68H123.02V360.927C123.02 362.032 121.915 363.184 119.564 363.478L120.14 364.678C121.88 364.431 123.138 363.713 123.796 362.726C124.455 363.713 125.713 364.431 127.453 364.678L128.018 363.478C125.689 363.184 124.561 362.032 124.561 360.927V360.68ZM133.002 357.893H130.874V356.812H133.002V357.893ZM134.53 354.354H133.002V355.648H130.874V354.354H129.345V359.104H134.53V354.354ZM131.956 362.749H137.552V359.81H130.403V360.986H136.024V361.644H130.415V364.631H137.87V363.431H131.956V362.749ZM137.552 355.977V353.884H136V359.387H137.552V357.235H138.975V355.977H137.552ZM146.805 357.811H147.604V360.656H149.074V353.884H147.604V356.553H146.805V354.084H145.359V360.315H146.805V357.811ZM145.053 354.989H143.183V354.001H141.655V354.989H139.785V356.188H145.053V354.989ZM141.478 358.422C141.478 357.917 141.866 357.646 142.443 357.646C143.019 357.646 143.395 357.917 143.395 358.422C143.395 358.928 143.019 359.21 142.443 359.21C141.866 359.21 141.478 358.928 141.478 358.422ZM144.771 358.422C144.771 357.305 143.806 356.541 142.443 356.541C141.067 356.541 140.103 357.305 140.103 358.422C140.103 359.539 141.067 360.315 142.443 360.315C143.806 360.315 144.771 359.539 144.771 358.422ZM145.406 363.561C143.959 363.561 143.23 363.314 143.23 362.749C143.23 362.185 143.959 361.938 145.406 361.938C146.852 361.938 147.581 362.185 147.581 362.749C147.581 363.314 146.852 363.561 145.406 363.561ZM145.406 360.774C143.077 360.774 141.678 361.491 141.678 362.749C141.678 364.007 143.077 364.713 145.406 364.713C147.734 364.713 149.133 364.007 149.133 362.749C149.133 361.491 147.734 360.774 145.406 360.774ZM153.4 361.468H151.848V364.525H159.361V363.29H153.4V361.468ZM153.447 356.529H157.668V357.47H153.447V356.529ZM156.316 359.598V358.693H159.208V354.272H157.668V355.33H153.447V354.272H151.907V358.693H154.764V359.598H150.66V360.833H160.455V359.598H156.316ZM168.59 357.858H164.134V356.741H168.59V357.858ZM170.119 354.295H168.59V355.53H164.134V354.295H162.594V359.093H170.119V354.295ZM171.283 360.116H161.477V361.35H165.568V364.725H167.12V361.35H171.283V360.116Z" fill="white"/>
<path d="M916.844 361.056C916.256 361.056 915.903 360.245 915.903 358.575C915.903 356.917 916.256 356.106 916.844 356.106C917.443 356.106 917.784 356.917 917.784 358.575C917.784 360.245 917.443 361.056 916.844 361.056ZM920.03 357.87H919.172C918.995 355.847 918.125 354.648 916.844 354.648C915.409 354.648 914.504 356.13 914.504 358.575C914.504 361.033 915.409 362.514 916.844 362.514C918.161 362.514 919.042 361.244 919.184 359.128H920.03V364.231H921.476V354.06H920.03V357.87ZM922.229 353.872V364.701H923.699V353.872H922.229ZM934.456 353.884H932.986V361.233H934.456V353.884ZM930.823 360.21H932.269V354.096H930.823V356.083H929.541V357.341H930.823V360.21ZM930.505 358.857C929.165 358.223 928.636 357.023 928.636 355.789V354.554H927.131V355.789C927.131 357.023 926.555 358.328 925.073 359.01L925.896 360.198C926.849 359.786 927.495 359.046 927.883 358.152C928.236 358.963 928.812 359.633 929.682 360.021L930.505 358.857ZM931.575 360.68H930.035V360.927C930.035 362.032 928.93 363.184 926.578 363.478L927.154 364.678C928.895 364.431 930.153 363.713 930.811 362.726C931.47 363.713 932.728 364.431 934.468 364.678L935.032 363.478C932.704 363.184 931.575 362.032 931.575 360.927V360.68ZM940.028 354.719H938.465V356.294C938.465 358.305 937.642 360.374 935.819 361.233L936.748 362.491C937.971 361.891 938.782 360.75 939.252 359.375C939.699 360.668 940.463 361.715 941.592 362.291L942.533 361.068C940.793 360.21 940.028 358.246 940.028 356.294V354.719ZM946.095 358.046H944.52V353.884H942.968V364.713H944.52V359.34H946.095V358.046ZM954.372 363.349H950.28V362.385H954.372V363.349ZM954.372 361.209H950.28V360.174H948.74V364.583H955.912V360.174H954.372V361.209ZM949.845 358.211C949.057 358.211 948.481 357.729 948.481 356.917C948.481 356.106 949.057 355.624 949.845 355.624C950.645 355.624 951.221 356.106 951.221 356.917C951.221 357.729 950.645 358.211 949.845 358.211ZM954.36 353.884V356.271H952.632C952.326 355.118 951.221 354.331 949.845 354.331C948.223 354.331 947 355.412 947 356.917C947 358.422 948.223 359.504 949.845 359.504C951.244 359.504 952.35 358.705 952.644 357.529H954.36V359.704H955.912V353.884H954.36ZM960.415 361.468H958.863V364.525H966.376V363.29H960.415V361.468ZM960.462 356.529H964.683V357.47H960.462V356.529ZM963.331 359.598V358.693H966.223V354.272H964.683V355.33H960.462V354.272H958.921V358.693H961.779V359.598H957.675V360.833H967.469V359.598H963.331ZM975.605 357.858H971.149V356.741H975.605V357.858ZM977.133 354.295H975.605V355.53H971.149V354.295H969.608V359.093H977.133V354.295ZM978.297 360.116H968.491V361.35H972.583V364.725H974.135V361.35H978.297V360.116Z" fill="white"/>
<path d="M843.882 170.847V171.847H841.495V173.093H843.882V174.128H845.434V167.896H843.882V169.613H841.942C841.989 169.295 842.013 168.966 842.013 168.625H837.051V169.871H840.319C840.12 171.341 838.932 172.505 836.463 173.164L837.063 174.386C839.449 173.716 840.966 172.552 841.636 170.847H843.882ZM841.86 177.467C840.519 177.467 839.732 177.126 839.732 176.468C839.732 175.809 840.519 175.468 841.86 175.468C843.188 175.468 843.976 175.809 843.976 176.468C843.976 177.126 843.188 177.467 841.86 177.467ZM841.86 174.269C839.649 174.269 838.203 175.115 838.203 176.468C838.203 177.82 839.649 178.666 841.86 178.666C844.058 178.666 845.505 177.82 845.505 176.468C845.505 175.115 844.058 174.269 841.86 174.269ZM848.808 171.129C848.808 170.283 849.384 169.789 850.183 169.789C850.983 169.789 851.571 170.283 851.571 171.129C851.571 171.964 850.983 172.47 850.183 172.47C849.384 172.47 848.808 171.964 848.808 171.129ZM854.698 170.542V171.717H852.97C853.017 171.517 853.041 171.329 853.041 171.129C853.041 170.918 853.017 170.73 852.982 170.542H854.698ZM854.698 172.952V174.245H856.25V167.896H854.698V169.307H852.312C851.794 168.79 851.053 168.472 850.183 168.472C848.584 168.472 847.338 169.589 847.338 171.129C847.338 172.658 848.584 173.775 850.183 173.775C851.03 173.775 851.771 173.469 852.288 172.952H854.698ZM852.582 177.537C851.159 177.537 850.407 177.232 850.407 176.597C850.407 175.962 851.159 175.656 852.582 175.656C854.005 175.656 854.769 175.962 854.769 176.597C854.769 177.232 854.005 177.537 852.582 177.537ZM852.582 174.457C850.301 174.457 848.878 175.245 848.878 176.597C848.878 177.937 850.301 178.725 852.582 178.725C854.875 178.725 856.297 177.937 856.297 176.597C856.297 175.245 854.875 174.457 852.582 174.457ZM862.199 170.212H864.433V168.931H858.366V170.212H860.623V170.812C860.623 172.658 859.742 174.645 857.931 175.456L858.813 176.691C860.083 176.115 860.953 174.927 861.435 173.516C861.917 174.821 862.775 175.88 864.033 176.421L864.88 175.198C863.069 174.445 862.199 172.576 862.199 170.812V170.212ZM865.432 167.896V178.725H866.984V167.896H865.432ZM874.356 174.187V175.245H876.39V176.103H877.942V167.896H876.39V174.187H874.356ZM872.274 169.389C872.992 169.389 873.497 169.672 873.497 170.201C873.497 170.73 872.992 171 872.274 171C871.545 171 871.04 170.73 871.04 170.201C871.04 169.672 871.545 169.389 872.274 169.389ZM872.274 172.129C873.85 172.129 874.967 171.353 874.967 170.201C874.967 169.048 873.85 168.261 872.274 168.261C870.687 168.261 869.582 169.048 869.582 170.201C869.582 171.353 870.687 172.129 872.274 172.129ZM871.698 177.302V175.821H873.192V173.775C874.062 173.704 874.932 173.61 875.778 173.469L875.672 172.364C873.391 172.658 870.758 172.682 868.782 172.693L868.982 173.928C869.794 173.928 870.699 173.916 871.651 173.869V175.315H870.146V178.537H878.177V177.302H871.698ZM888.629 167.908H887.077V173.363H888.629V167.908ZM886.289 172.023C884.537 171.506 883.761 170.248 883.761 168.966V168.155H882.185V168.966C882.185 170.283 881.398 171.647 879.599 172.199L880.351 173.411C881.621 173.022 882.503 172.199 882.997 171.177C883.479 172.117 884.314 172.87 885.548 173.234L886.289 172.023ZM882.973 177.443V176.773H888.64V173.846H881.421V175.033H887.1V175.668H881.433V178.643H888.911V177.443H882.973Z" fill="white"/>
<rect x="807.014" y="205.228" width="111.165" height="38.4802" rx="19.2401" fill="#55A6D3" fill-opacity="0.3" stroke="white" stroke-width="2.13779"/>
<rect x="694.781" y="2.13774" width="111.165" height="38.4802" rx="19.2401" fill="#55A6D3" fill-opacity="0.3" stroke="white" stroke-width="2.13779"/>
<path d="M714.423 22.7107C714.423 21.8659 714.605 21.1145 714.971 20.4564C715.337 19.7903 715.844 19.2745 716.494 18.9089C717.152 18.5352 717.895 18.3484 718.724 18.3484C719.74 18.3484 720.609 18.6165 721.332 19.1526C722.055 19.6888 722.538 20.4199 722.782 21.346H720.491C720.32 20.9885 720.077 20.7164 719.76 20.5296C719.451 20.3427 719.098 20.2493 718.7 20.2493C718.058 20.2493 717.538 20.4727 717.14 20.9195C716.742 21.3663 716.543 21.9634 716.543 22.7107C716.543 23.4581 716.742 24.0552 717.14 24.502C717.538 24.9488 718.058 25.1722 718.7 25.1722C719.098 25.1722 719.451 25.0788 719.76 24.8919C720.077 24.7051 720.32 24.4329 720.491 24.0755H722.782C722.538 25.0016 722.055 25.7327 721.332 26.2689C720.609 26.7969 719.74 27.0609 718.724 27.0609C717.895 27.0609 717.152 26.8781 716.494 26.5126C715.844 26.1389 715.337 25.6231 714.971 24.965C714.605 24.307 714.423 23.5556 714.423 22.7107ZM726.142 20.1153V21.8456H728.932V23.4541H726.142V25.3306H729.298V27H724.058V18.4459H729.298V20.1153H726.142ZM734.696 27.0853C733.892 27.0853 733.152 26.8985 732.478 26.5248C731.812 26.1511 731.28 25.6312 730.882 24.965C730.492 24.2908 730.297 23.5353 730.297 22.6986C730.297 21.8618 730.492 21.1104 730.882 20.4443C731.28 19.7781 731.812 19.2582 732.478 18.8845C733.152 18.5108 733.892 18.324 734.696 18.324C735.5 18.324 736.235 18.5108 736.901 18.8845C737.576 19.2582 738.104 19.7781 738.486 20.4443C738.875 21.1104 739.07 21.8618 739.07 22.6986C739.07 23.5353 738.875 24.2908 738.486 24.965C738.096 25.6312 737.568 26.1511 736.901 26.5248C736.235 26.8985 735.5 27.0853 734.696 27.0853ZM734.696 25.1844C735.378 25.1844 735.923 24.9569 736.329 24.502C736.743 24.0471 736.95 23.4459 736.95 22.6986C736.95 21.9431 736.743 21.3419 736.329 20.8951C735.923 20.4402 735.378 20.2127 734.696 20.2127C734.005 20.2127 733.453 20.4361 733.039 20.8829C732.632 21.3297 732.429 21.9349 732.429 22.6986C732.429 23.4541 732.632 24.0593 733.039 24.5142C733.453 24.961 734.005 25.1844 734.696 25.1844ZM752.351 22.2734C749.905 21.8618 748.565 20.1805 748.565 18.5932V17.8171H746.907V18.5932C746.907 20.1452 745.555 21.8618 743.121 22.2734L743.779 23.5785C745.661 23.214 747.036 22.1558 747.73 20.7801C748.424 22.1558 749.811 23.2022 751.692 23.5785L752.351 22.2734ZM742.886 25.4362V26.6943H752.692V25.4362H742.886ZM755.536 22.3321H758.217V21.1328H755.536V19.5338H758.44V18.2992H754.067V25.542H754.819C756.442 25.542 757.512 25.5185 758.758 25.3069L758.617 24.0605C757.606 24.2134 756.736 24.2604 755.536 24.2722V22.3321ZM761.521 17.1705V21.368H760.651V17.3468H759.205V27.5291H760.651V22.6143H761.521V28.0112H762.991V17.1705H761.521ZM770.503 22.6026H768.293V19.3574H770.503V22.6026ZM766.752 22.6026H765.341V23.8371H773.478V22.6026H772.043V19.3574H773.513V18.1228H765.283V19.3574H766.752V22.6026ZM764.518 25.495V26.7531H774.324V25.495H764.518ZM784.318 17.194H782.766V22.6496H784.318V17.194ZM781.978 21.3092C780.226 20.7919 779.45 19.5338 779.45 18.2522V17.4409H777.874V18.2522C777.874 19.5691 777.087 20.933 775.288 21.4856L776.04 22.6966C777.31 22.3086 778.192 21.4856 778.686 20.4626C779.168 21.4033 780.003 22.1558 781.237 22.5203L781.978 21.3092ZM778.662 26.7296V26.0594H784.329V23.1317H777.11V24.3192H782.789V24.9541H777.122V27.9289H784.6V26.7296H778.662Z" fill="white"/>
<rect x="694.781" y="54.5137" width="111.165" height="38.4802" rx="19.2401" fill="#55A6D3" fill-opacity="0.3" stroke="white" stroke-width="2.13779"/>
<path d="M731.69 71.7799H735.37V70.5218H730.138V77.8352H731.09C733.395 77.8352 734.77 77.7882 736.24 77.506L736.099 76.2244C734.794 76.4713 733.583 76.5301 731.69 76.5419V71.7799ZM736.91 69.5577V80.4219H738.462V69.5577H736.91ZM744.281 71.874H746.433V70.5924H740.484V71.874H742.729V72.4736C742.729 74.2608 741.847 76.2949 740.072 77.118L740.942 78.3526C742.177 77.7647 743.047 76.5771 743.529 75.1662C744.011 76.4478 744.858 77.5295 746.057 78.0821L746.915 76.8593C745.14 76.0363 744.281 74.1197 744.281 72.4736V71.874ZM750.36 73.6847H748.785V69.5577H747.233V80.3867H748.785V74.9663H750.36V73.6847ZM760.118 69.5695H758.554V77.3414H760.118V69.5695ZM752.793 73.0027C752.793 72.1091 753.428 71.5918 754.228 71.5918C755.039 71.5918 755.65 72.1091 755.65 73.0027C755.65 73.8728 755.039 74.4019 754.228 74.4019C753.428 74.4019 752.793 73.8728 752.793 73.0027ZM757.167 73.0027C757.167 71.4037 755.885 70.2514 754.228 70.2514C752.57 70.2514 751.276 71.4037 751.276 73.0027C751.276 74.5783 752.57 75.7423 754.228 75.7423C755.885 75.7423 757.167 74.5783 757.167 73.0027ZM754.463 78.964V76.5771H752.911V80.1985H760.389V78.964H754.463ZM770.923 69.5695H769.371V75.0251H770.923V69.5695ZM768.583 73.6847C766.831 73.1674 766.055 71.9093 766.055 70.6277V69.8164H764.479V70.6277C764.479 71.9445 763.692 73.3084 761.893 73.8611L762.645 75.0721C763.915 74.6841 764.797 73.8611 765.291 72.8381C765.773 73.7788 766.608 74.5313 767.842 74.8958L768.583 73.6847ZM765.267 79.1051V78.4349H770.935V75.5072H763.715V76.6947H769.394V77.3296H763.727V80.3044H771.205V79.1051H765.267Z" fill="white"/>
<path d="M826.421 220.801V222.036H829.725C829.69 222.306 829.631 222.553 829.56 222.8L825.88 222.929L826.092 224.129L828.914 223.917C828.302 224.611 827.338 225.175 825.868 225.598L826.468 226.821C829.972 225.751 831.371 223.788 831.371 220.801H826.421ZM829.149 228.15H833.217V229.761H829.149V228.15ZM827.62 230.972H834.746V226.939H827.62V230.972ZM833.194 220.272V222.976H831.301V224.234H833.194V226.445H834.746V220.272H833.194ZM842.505 223.106H840.283V221.718H842.505V223.106ZM838.742 223.106H837.437V224.258H845.339V223.106H844.045V221.718H845.421V220.566H837.367V221.718H838.742V223.106ZM839.177 229.314H845.103V226.633H837.625V227.75H843.575V228.279H837.637V231.019H845.386V229.902H839.177V229.314ZM836.508 224.811V226.033H846.291V224.811H836.508ZM849.3 225.375H852.733V221.189H847.76V222.424H851.205V224.152H847.771V228.62H848.689C850.57 228.62 852.063 228.55 853.686 228.256L853.545 226.998C852.134 227.244 850.852 227.327 849.3 227.339V225.375ZM857.378 224.352H855.826V220.26H854.274V231.125H855.826V225.634H857.378V224.352ZM865.56 220.26V231.125H867.112V220.26H865.56ZM861.292 221.025C859.658 221.025 858.447 222.506 858.447 224.881C858.447 227.268 859.658 228.761 861.292 228.761C862.926 228.761 864.137 227.268 864.137 224.881C864.137 222.506 862.926 221.025 861.292 221.025ZM861.292 222.424C862.092 222.424 862.644 223.282 862.644 224.881C862.644 226.492 862.092 227.35 861.292 227.35C860.493 227.35 859.94 226.492 859.94 224.881C859.94 223.282 860.493 222.424 861.292 222.424ZM870.58 223.705C870.58 222.812 871.168 222.271 871.944 222.271C872.732 222.271 873.331 222.812 873.331 223.705C873.331 224.587 872.732 225.116 871.944 225.116C871.168 225.116 870.58 224.587 870.58 223.705ZM876.459 224.364V228.185H878.011V220.284H876.459V223.117H874.754C874.483 221.812 873.343 220.93 871.944 220.93C870.345 220.93 869.098 222.095 869.098 223.705C869.098 225.293 870.345 226.468 871.944 226.468C873.331 226.468 874.448 225.622 874.73 224.364H876.459ZM872.426 229.678V227.421H870.874V230.913H878.258V229.678H872.426ZM889.239 225.363C886.793 224.952 885.453 223.27 885.453 221.683V220.907H883.795V221.683C883.795 223.235 882.443 224.952 880.009 225.363L880.667 226.668C882.548 226.304 883.924 225.246 884.618 223.87C885.311 225.246 886.699 226.292 888.58 226.668L889.239 225.363ZM879.774 228.526V229.784H889.58V228.526H879.774ZM899.573 220.284H898.021V225.739H899.573V220.284ZM897.233 224.399C895.481 223.882 894.705 222.624 894.705 221.342V220.531H893.13V221.342C893.13 222.659 892.342 224.023 890.543 224.575L891.295 225.786C892.565 225.398 893.447 224.575 893.941 223.552C894.423 224.493 895.258 225.246 896.492 225.61L897.233 224.399ZM893.917 229.819V229.149H899.585V226.222H892.365V227.409H898.044V228.044H892.377V231.019H899.855V229.819H893.917Z" fill="white"/>
<path d="M544.067 75.8911L544.067 338.839" stroke="white" stroke-width="2.13779"/>
<path d="M140.025 271.499L140.025 337.77" stroke="white" stroke-width="2.13779"/>
<path d="M947.04 271.499L947.04 337.77" stroke="white" stroke-width="2.13779"/>
<line x1="684.092" y1="197.745" x2="747.156" y2="197.745" stroke="white" stroke-width="2.13779"/>
<line x1="459.624" y1="197.745" x2="628.509" y2="197.745" stroke="white" stroke-width="2.13779"/>
<line x1="140.025" y1="272.568" x2="947.04" y2="272.568" stroke="white" stroke-width="2.13779"/>
<path d="M140.025 376.25L140.025 425.42" stroke="white" stroke-width="2.13779"/>
<path d="M57.7207 425.419L57.7207 470.313" stroke="white" stroke-width="2.13779"/>
<path d="M223.399 425.419L223.399 470.313" stroke="white" stroke-width="2.13779"/>
<line x1="56.6514" y1="424.351" x2="224.468" y2="424.351" stroke="white" stroke-width="2.13779"/>
<path d="M542.999 376.25L542.999 425.42" stroke="white" stroke-width="2.13779"/>
<path d="M460.694 425.419L460.694 470.313" stroke="white" stroke-width="2.13779"/>
<path d="M626.373 425.419L626.373 470.313" stroke="white" stroke-width="2.13779"/>
<line x1="459.625" y1="424.351" x2="627.441" y2="424.351" stroke="white" stroke-width="2.13779"/>
<path d="M945.972 376.25L945.972 425.42" stroke="white" stroke-width="2.13779"/>
<path d="M863.667 425.419L863.667 470.313" stroke="white" stroke-width="2.13779"/>
<path d="M1029.35 425.419L1029.35 470.313" stroke="white" stroke-width="2.13779"/>
<line x1="862.598" y1="424.351" x2="1030.41" y2="424.351" stroke="white" stroke-width="2.13779"/>
<path fill-rule="evenodd" clip-rule="evenodd" d="M805.947 171.024H747.717L747.717 222.33H805.947V224.468L745.579 224.468L745.579 222.33V171.024V169.955V168.886H805.947V171.024Z" fill="white"/>
<line x1="571.858" y1="47.0312" x2="634.923" y2="47.0312" stroke="white" stroke-width="2.13779"/>
<path fill-rule="evenodd" clip-rule="evenodd" d="M693.713 20.3087H635.483L635.483 71.6156H693.713V73.7533H633.345L633.345 73.7533L633.345 71.6156V20.3087V19.2398V18.1709H693.713V20.3087Z" fill="white"/>
</svg>
