<svg width="327" height="117" viewBox="0 0 327 117" fill="none" xmlns="http://www.w3.org/2000/svg">
<circle cx="268.497" cy="58.4974" r="58.1524" fill="white" fill-opacity="0.2" stroke="white" stroke-width="0.69"/>
<path d="M229.073 59.07C228.413 59.07 227.806 58.9167 227.253 58.61C226.706 58.3033 226.269 57.8767 225.943 57.33C225.623 56.7767 225.463 56.1567 225.463 55.47C225.463 54.7833 225.623 54.1667 225.943 53.62C226.269 53.0733 226.706 52.6467 227.253 52.34C227.806 52.0333 228.413 51.88 229.073 51.88C229.733 51.88 230.336 52.0333 230.883 52.34C231.436 52.6467 231.869 53.0733 232.183 53.62C232.503 54.1667 232.663 54.7833 232.663 55.47C232.663 56.1567 232.503 56.7767 232.183 57.33C231.863 57.8767 231.429 58.3033 230.883 58.61C230.336 58.9167 229.733 59.07 229.073 59.07ZM229.073 57.51C229.633 57.51 230.079 57.3233 230.413 56.95C230.753 56.5767 230.923 56.0833 230.923 55.47C230.923 54.85 230.753 54.3567 230.413 53.99C230.079 53.6167 229.633 53.43 229.073 53.43C228.506 53.43 228.053 53.6133 227.713 53.98C227.379 54.3467 227.213 54.8433 227.213 55.47C227.213 56.09 227.379 56.5867 227.713 56.96C228.053 57.3267 228.506 57.51 229.073 57.51ZM235.324 54.21C235.491 53.95 235.721 53.74 236.014 53.58C236.307 53.42 236.651 53.34 237.044 53.34C237.504 53.34 237.921 53.4567 238.294 53.69C238.667 53.9233 238.961 54.2567 239.174 54.69C239.394 55.1233 239.504 55.6267 239.504 56.2C239.504 56.7733 239.394 57.28 239.174 57.72C238.961 58.1533 238.667 58.49 238.294 58.73C237.921 58.9633 237.504 59.08 237.044 59.08C236.657 59.08 236.314 59 236.014 58.84C235.721 58.68 235.491 58.4733 235.324 58.22V61.66H233.614V53.42H235.324V54.21ZM237.764 56.2C237.764 55.7733 237.644 55.44 237.404 55.2C237.171 54.9533 236.881 54.83 236.534 54.83C236.194 54.83 235.904 54.9533 235.664 55.2C235.431 55.4467 235.314 55.7833 235.314 56.21C235.314 56.6367 235.431 56.9733 235.664 57.22C235.904 57.4667 236.194 57.59 236.534 57.59C236.874 57.59 237.164 57.4667 237.404 57.22C237.644 56.9667 237.764 56.6267 237.764 56.2ZM243.511 57.55V59H242.641C242.021 59 241.538 58.85 241.191 58.55C240.845 58.2433 240.671 57.7467 240.671 57.06V54.84H239.991V53.42H240.671V52.06H242.381V53.42H243.501V54.84H242.381V57.08C242.381 57.2467 242.421 57.3667 242.501 57.44C242.581 57.5133 242.715 57.55 242.901 57.55H243.511ZM245.324 52.84C245.024 52.84 244.777 52.7533 244.584 52.58C244.397 52.4 244.304 52.18 244.304 51.92C244.304 51.6533 244.397 51.4333 244.584 51.26C244.777 51.08 245.024 50.99 245.324 50.99C245.617 50.99 245.857 51.08 246.044 51.26C246.237 51.4333 246.334 51.6533 246.334 51.92C246.334 52.18 246.237 52.4 246.044 52.58C245.857 52.7533 245.617 52.84 245.324 52.84ZM246.174 53.42V59H244.464V53.42H246.174ZM254.533 53.36C255.226 53.36 255.776 53.57 256.183 53.99C256.596 54.41 256.803 54.9933 256.803 55.74V59H255.103V55.97C255.103 55.61 255.006 55.3333 254.813 55.14C254.626 54.94 254.366 54.84 254.033 54.84C253.7 54.84 253.436 54.94 253.243 55.14C253.056 55.3333 252.963 55.61 252.963 55.97V59H251.263V55.97C251.263 55.61 251.166 55.3333 250.973 55.14C250.786 54.94 250.526 54.84 250.193 54.84C249.86 54.84 249.596 54.94 249.403 55.14C249.216 55.3333 249.123 55.61 249.123 55.97V59H247.413V53.42H249.123V54.12C249.296 53.8867 249.523 53.7033 249.803 53.57C250.083 53.43 250.4 53.36 250.753 53.36C251.173 53.36 251.546 53.45 251.873 53.63C252.206 53.81 252.466 54.0667 252.653 54.4C252.846 54.0933 253.11 53.8433 253.443 53.65C253.776 53.4567 254.14 53.36 254.533 53.36ZM258.859 52.84C258.559 52.84 258.312 52.7533 258.119 52.58C257.932 52.4 257.839 52.18 257.839 51.92C257.839 51.6533 257.932 51.4333 258.119 51.26C258.312 51.08 258.559 50.99 258.859 50.99C259.152 50.99 259.392 51.08 259.579 51.26C259.772 51.4333 259.869 51.6533 259.869 51.92C259.869 52.18 259.772 52.4 259.579 52.58C259.392 52.7533 259.152 52.84 258.859 52.84ZM259.709 53.42V59H257.999V53.42H259.709ZM262.548 57.59H264.968V59H260.638V57.64L262.958 54.83H260.658V53.42H264.918V54.78L262.548 57.59ZM266.769 52.84C266.469 52.84 266.222 52.7533 266.029 52.58C265.842 52.4 265.749 52.18 265.749 51.92C265.749 51.6533 265.842 51.4333 266.029 51.26C266.222 51.08 266.469 50.99 266.769 50.99C267.062 50.99 267.302 51.08 267.489 51.26C267.682 51.4333 267.779 51.6533 267.779 51.92C267.779 52.18 267.682 52.4 267.489 52.58C267.302 52.7533 267.062 52.84 266.769 52.84ZM267.619 53.42V59H265.909V53.42H267.619ZM272.258 53.36C272.912 53.36 273.432 53.5733 273.818 54C274.212 54.42 274.408 55 274.408 55.74V59H272.708V55.97C272.708 55.5967 272.612 55.3067 272.418 55.1C272.225 54.8933 271.965 54.79 271.638 54.79C271.312 54.79 271.052 54.8933 270.858 55.1C270.665 55.3067 270.568 55.5967 270.568 55.97V59H268.858V53.42H270.568V54.16C270.742 53.9133 270.975 53.72 271.268 53.58C271.562 53.4333 271.892 53.36 272.258 53.36ZM277.717 53.34C278.11 53.34 278.453 53.42 278.747 53.58C279.047 53.74 279.277 53.95 279.437 54.21V53.42H281.147V58.99C281.147 59.5033 281.043 59.9667 280.837 60.38C280.637 60.8 280.327 61.1333 279.907 61.38C279.493 61.6267 278.977 61.75 278.357 61.75C277.53 61.75 276.86 61.5533 276.347 61.16C275.833 60.7733 275.54 60.2467 275.467 59.58H277.157C277.21 59.7933 277.337 59.96 277.537 60.08C277.737 60.2067 277.983 60.27 278.277 60.27C278.63 60.27 278.91 60.1667 279.117 59.96C279.33 59.76 279.437 59.4367 279.437 58.99V58.2C279.27 58.46 279.04 58.6733 278.747 58.84C278.453 59 278.11 59.08 277.717 59.08C277.257 59.08 276.84 58.9633 276.467 58.73C276.093 58.49 275.797 58.1533 275.577 57.72C275.363 57.28 275.257 56.7733 275.257 56.2C275.257 55.6267 275.363 55.1233 275.577 54.69C275.797 54.2567 276.093 53.9233 276.467 53.69C276.84 53.4567 277.257 53.34 277.717 53.34ZM279.437 56.21C279.437 55.7833 279.317 55.4467 279.077 55.2C278.843 54.9533 278.557 54.83 278.217 54.83C277.877 54.83 277.587 54.9533 277.347 55.2C277.113 55.44 276.997 55.7733 276.997 56.2C276.997 56.6267 277.113 56.9667 277.347 57.22C277.587 57.4667 277.877 57.59 278.217 57.59C278.557 57.59 278.843 57.4667 279.077 57.22C279.317 56.9733 279.437 56.6367 279.437 56.21ZM287.043 59.07C286.529 59.07 286.069 58.9867 285.663 58.82C285.256 58.6533 284.929 58.4067 284.683 58.08C284.443 57.7533 284.316 57.36 284.303 56.9H286.123C286.149 57.16 286.239 57.36 286.393 57.5C286.546 57.6333 286.746 57.7 286.993 57.7C287.246 57.7 287.446 57.6433 287.593 57.53C287.739 57.41 287.813 57.2467 287.813 57.04C287.813 56.8667 287.753 56.7233 287.633 56.61C287.519 56.4967 287.376 56.4033 287.203 56.33C287.036 56.2567 286.796 56.1733 286.483 56.08C286.029 55.94 285.659 55.8 285.373 55.66C285.086 55.52 284.839 55.3133 284.633 55.04C284.426 54.7667 284.323 54.41 284.323 53.97C284.323 53.3167 284.559 52.8067 285.033 52.44C285.506 52.0667 286.123 51.88 286.883 51.88C287.656 51.88 288.279 52.0667 288.753 52.44C289.226 52.8067 289.479 53.32 289.513 53.98H287.663C287.649 53.7533 287.566 53.5767 287.413 53.45C287.259 53.3167 287.063 53.25 286.823 53.25C286.616 53.25 286.449 53.3067 286.323 53.42C286.196 53.5267 286.133 53.6833 286.133 53.89C286.133 54.1167 286.239 54.2933 286.453 54.42C286.666 54.5467 286.999 54.6833 287.453 54.83C287.906 54.9833 288.273 55.13 288.553 55.27C288.839 55.41 289.086 55.6133 289.293 55.88C289.499 56.1467 289.603 56.49 289.603 56.91C289.603 57.31 289.499 57.6733 289.293 58C289.093 58.3267 288.799 58.5867 288.413 58.78C288.026 58.9733 287.569 59.07 287.043 59.07ZM297.775 53.36C298.468 53.36 299.018 53.57 299.425 53.99C299.838 54.41 300.045 54.9933 300.045 55.74V59H298.345V55.97C298.345 55.61 298.248 55.3333 298.055 55.14C297.868 54.94 297.608 54.84 297.275 54.84C296.942 54.84 296.678 54.94 296.485 55.14C296.298 55.3333 296.205 55.61 296.205 55.97V59H294.505V55.97C294.505 55.61 294.408 55.3333 294.215 55.14C294.028 54.94 293.768 54.84 293.435 54.84C293.102 54.84 292.838 54.94 292.645 55.14C292.458 55.3333 292.365 55.61 292.365 55.97V59H290.655V53.42H292.365V54.12C292.538 53.8867 292.765 53.7033 293.045 53.57C293.325 53.43 293.642 53.36 293.995 53.36C294.415 53.36 294.788 53.45 295.115 53.63C295.448 53.81 295.708 54.0667 295.895 54.4C296.088 54.0933 296.352 53.8433 296.685 53.65C297.018 53.4567 297.382 53.36 297.775 53.36ZM300.901 56.2C300.901 55.6267 301.008 55.1233 301.221 54.69C301.441 54.2567 301.738 53.9233 302.111 53.69C302.484 53.4567 302.901 53.34 303.361 53.34C303.754 53.34 304.098 53.42 304.391 53.58C304.691 53.74 304.921 53.95 305.081 54.21V53.42H306.791V59H305.081V58.21C304.914 58.47 304.681 58.68 304.381 58.84C304.088 59 303.744 59.08 303.351 59.08C302.898 59.08 302.484 58.9633 302.111 58.73C301.738 58.49 301.441 58.1533 301.221 57.72C301.008 57.28 300.901 56.7733 300.901 56.2ZM305.081 56.21C305.081 55.7833 304.961 55.4467 304.721 55.2C304.488 54.9533 304.201 54.83 303.861 54.83C303.521 54.83 303.231 54.9533 302.991 55.2C302.758 55.44 302.641 55.7733 302.641 56.2C302.641 56.6267 302.758 56.9667 302.991 57.22C303.231 57.4667 303.521 57.59 303.861 57.59C304.201 57.59 304.488 57.4667 304.721 57.22C304.961 56.9733 305.081 56.6367 305.081 56.21ZM309.738 54.35C309.938 54.0433 310.188 53.8033 310.488 53.63C310.788 53.45 311.122 53.36 311.488 53.36V55.17H311.018C310.592 55.17 310.272 55.2633 310.058 55.45C309.845 55.63 309.738 55.95 309.738 56.41V59H308.028V53.42H309.738V54.35ZM315.416 57.55V59H314.546C313.926 59 313.442 58.85 313.096 58.55C312.749 58.2433 312.576 57.7467 312.576 57.06V54.84H311.896V53.42H312.576V52.06H314.286V53.42H315.406V54.84H314.286V57.08C314.286 57.2467 314.326 57.3667 314.406 57.44C314.486 57.5133 314.619 57.55 314.806 57.55H315.416ZM247.657 71.76H245.037L244.617 73H242.827L245.367 65.98H247.347L249.887 73H248.077L247.657 71.76ZM247.217 70.44L246.347 67.87L245.487 70.44H247.217ZM252.37 65.6V73H250.66V65.6H252.37ZM255.729 67.34C256.123 67.34 256.466 67.42 256.759 67.58C257.059 67.74 257.289 67.95 257.449 68.21V67.42H259.159V72.99C259.159 73.5033 259.056 73.9667 258.849 74.38C258.649 74.8 258.339 75.1333 257.919 75.38C257.506 75.6267 256.989 75.75 256.369 75.75C255.543 75.75 254.873 75.5533 254.359 75.16C253.846 74.7733 253.553 74.2467 253.479 73.58H255.169C255.223 73.7933 255.349 73.96 255.549 74.08C255.749 74.2067 255.996 74.27 256.289 74.27C256.643 74.27 256.923 74.1667 257.129 73.96C257.343 73.76 257.449 73.4367 257.449 72.99V72.2C257.283 72.46 257.053 72.6733 256.759 72.84C256.466 73 256.123 73.08 255.729 73.08C255.269 73.08 254.853 72.9633 254.479 72.73C254.106 72.49 253.809 72.1533 253.589 71.72C253.376 71.28 253.269 70.7733 253.269 70.2C253.269 69.6267 253.376 69.1233 253.589 68.69C253.809 68.2567 254.106 67.9233 254.479 67.69C254.853 67.4567 255.269 67.34 255.729 67.34ZM257.449 70.21C257.449 69.7833 257.329 69.4467 257.089 69.2C256.856 68.9533 256.569 68.83 256.229 68.83C255.889 68.83 255.599 68.9533 255.359 69.2C255.126 69.44 255.009 69.7733 255.009 70.2C255.009 70.6267 255.126 70.9667 255.359 71.22C255.599 71.4667 255.889 71.59 256.229 71.59C256.569 71.59 256.856 71.4667 257.089 71.22C257.329 70.9733 257.449 70.6367 257.449 70.21ZM262.936 73.08C262.39 73.08 261.896 72.9633 261.456 72.73C261.023 72.4967 260.68 72.1633 260.426 71.73C260.18 71.2967 260.056 70.79 260.056 70.21C260.056 69.6367 260.183 69.1333 260.436 68.7C260.69 68.26 261.036 67.9233 261.476 67.69C261.916 67.4567 262.41 67.34 262.956 67.34C263.503 67.34 263.996 67.4567 264.436 67.69C264.876 67.9233 265.223 68.26 265.476 68.7C265.73 69.1333 265.856 69.6367 265.856 70.21C265.856 70.7833 265.726 71.29 265.466 71.73C265.213 72.1633 264.863 72.4967 264.416 72.73C263.976 72.9633 263.483 73.08 262.936 73.08ZM262.936 71.6C263.263 71.6 263.54 71.48 263.766 71.24C264 71 264.116 70.6567 264.116 70.21C264.116 69.7633 264.003 69.42 263.776 69.18C263.556 68.94 263.283 68.82 262.956 68.82C262.623 68.82 262.346 68.94 262.126 69.18C261.906 69.4133 261.796 69.7567 261.796 70.21C261.796 70.6567 261.903 71 262.116 71.24C262.336 71.48 262.61 71.6 262.936 71.6ZM268.474 68.35C268.674 68.0433 268.924 67.8033 269.224 67.63C269.524 67.45 269.857 67.36 270.224 67.36V69.17H269.754C269.327 69.17 269.007 69.2633 268.794 69.45C268.58 69.63 268.474 69.95 268.474 70.41V73H266.764V67.42H268.474V68.35ZM271.901 66.84C271.601 66.84 271.354 66.7533 271.161 66.58C270.974 66.4 270.881 66.18 270.881 65.92C270.881 65.6533 270.974 65.4333 271.161 65.26C271.354 65.08 271.601 64.99 271.901 64.99C272.194 64.99 272.434 65.08 272.621 65.26C272.814 65.4333 272.911 65.6533 272.911 65.92C272.911 66.18 272.814 66.4 272.621 66.58C272.434 66.7533 272.194 66.84 271.901 66.84ZM272.751 67.42V73H271.041V67.42H272.751ZM277.1 71.55V73H276.23C275.61 73 275.127 72.85 274.78 72.55C274.433 72.2433 274.26 71.7467 274.26 71.06V68.84H273.58V67.42H274.26V66.06H275.97V67.42H277.09V68.84H275.97V71.08C275.97 71.2467 276.01 71.3667 276.09 71.44C276.17 71.5133 276.303 71.55 276.49 71.55H277.1ZM281.483 67.36C282.123 67.36 282.636 67.5733 283.023 68C283.409 68.42 283.603 69 283.603 69.74V73H281.903V69.97C281.903 69.5967 281.806 69.3067 281.613 69.1C281.419 68.8933 281.159 68.79 280.833 68.79C280.506 68.79 280.246 68.8933 280.053 69.1C279.859 69.3067 279.763 69.5967 279.763 69.97V73H278.053V65.6H279.763V68.17C279.936 67.9233 280.173 67.7267 280.473 67.58C280.773 67.4333 281.109 67.36 281.483 67.36ZM291.911 67.36C292.604 67.36 293.154 67.57 293.561 67.99C293.974 68.41 294.181 68.9933 294.181 69.74V73H292.481V69.97C292.481 69.61 292.384 69.3333 292.191 69.14C292.004 68.94 291.744 68.84 291.411 68.84C291.078 68.84 290.814 68.94 290.621 69.14C290.434 69.3333 290.341 69.61 290.341 69.97V73H288.641V69.97C288.641 69.61 288.544 69.3333 288.351 69.14C288.164 68.94 287.904 68.84 287.571 68.84C287.238 68.84 286.974 68.94 286.781 69.14C286.594 69.3333 286.501 69.61 286.501 69.97V73H284.791V67.42H286.501V68.12C286.674 67.8867 286.901 67.7033 287.181 67.57C287.461 67.43 287.778 67.36 288.131 67.36C288.551 67.36 288.924 67.45 289.251 67.63C289.584 67.81 289.844 68.0667 290.031 68.4C290.224 68.0933 290.488 67.8433 290.821 67.65C291.154 67.4567 291.518 67.36 291.911 67.36ZM297.647 73.08C297.16 73.08 296.727 72.9967 296.347 72.83C295.967 72.6633 295.667 72.4367 295.447 72.15C295.227 71.8567 295.104 71.53 295.077 71.17H296.767C296.787 71.3633 296.877 71.52 297.037 71.64C297.197 71.76 297.394 71.82 297.627 71.82C297.84 71.82 298.004 71.78 298.117 71.7C298.237 71.6133 298.297 71.5033 298.297 71.37C298.297 71.21 298.214 71.0933 298.047 71.02C297.88 70.94 297.61 70.8533 297.237 70.76C296.837 70.6667 296.504 70.57 296.237 70.47C295.97 70.3633 295.74 70.2 295.547 69.98C295.354 69.7533 295.257 69.45 295.257 69.07C295.257 68.75 295.344 68.46 295.517 68.2C295.697 67.9333 295.957 67.7233 296.297 67.57C296.644 67.4167 297.054 67.34 297.527 67.34C298.227 67.34 298.777 67.5133 299.177 67.86C299.584 68.2067 299.817 68.6667 299.877 69.24H298.297C298.27 69.0467 298.184 68.8933 298.037 68.78C297.897 68.6667 297.71 68.61 297.477 68.61C297.277 68.61 297.124 68.65 297.017 68.73C296.91 68.8033 296.857 68.9067 296.857 69.04C296.857 69.2 296.94 69.32 297.107 69.4C297.28 69.48 297.547 69.56 297.907 69.64C298.32 69.7467 298.657 69.8533 298.917 69.96C299.177 70.06 299.404 70.2267 299.597 70.46C299.797 70.6867 299.9 70.9933 299.907 71.38C299.907 71.7067 299.814 72 299.627 72.26C299.447 72.5133 299.184 72.7133 298.837 72.86C298.497 73.0067 298.1 73.08 297.647 73.08Z" fill="white"/>
<circle cx="163.792" cy="58.4974" r="58.1524" fill="white" fill-opacity="0.2" stroke="white" stroke-width="0.69"/>
<path d="M139.604 51.4C140.011 51.4867 140.338 51.69 140.584 52.01C140.831 52.3233 140.954 52.6833 140.954 53.09C140.954 53.6767 140.748 54.1433 140.334 54.49C139.928 54.83 139.358 55 138.624 55H135.354V47.98H138.514C139.228 47.98 139.784 48.1433 140.184 48.47C140.591 48.7967 140.794 49.24 140.794 49.8C140.794 50.2133 140.684 50.5567 140.464 50.83C140.251 51.1033 139.964 51.2933 139.604 51.4ZM137.064 50.82H138.184C138.464 50.82 138.678 50.76 138.824 50.64C138.978 50.5133 139.054 50.33 139.054 50.09C139.054 49.85 138.978 49.6667 138.824 49.54C138.678 49.4133 138.464 49.35 138.184 49.35H137.064V50.82ZM138.324 53.62C138.611 53.62 138.831 53.5567 138.984 53.43C139.144 53.2967 139.224 53.1067 139.224 52.86C139.224 52.6133 139.141 52.42 138.974 52.28C138.814 52.14 138.591 52.07 138.304 52.07H137.064V53.62H138.324ZM143.656 47.6V55H141.946V47.6H143.656ZM147.435 55.08C146.889 55.08 146.395 54.9633 145.955 54.73C145.522 54.4967 145.179 54.1633 144.925 53.73C144.679 53.2967 144.555 52.79 144.555 52.21C144.555 51.6367 144.682 51.1333 144.935 50.7C145.189 50.26 145.535 49.9233 145.975 49.69C146.415 49.4567 146.909 49.34 147.455 49.34C148.002 49.34 148.495 49.4567 148.935 49.69C149.375 49.9233 149.722 50.26 149.975 50.7C150.229 51.1333 150.355 51.6367 150.355 52.21C150.355 52.7833 150.225 53.29 149.965 53.73C149.712 54.1633 149.362 54.4967 148.915 54.73C148.475 54.9633 147.982 55.08 147.435 55.08ZM147.435 53.6C147.762 53.6 148.039 53.48 148.265 53.24C148.499 53 148.615 52.6567 148.615 52.21C148.615 51.7633 148.502 51.42 148.275 51.18C148.055 50.94 147.782 50.82 147.455 50.82C147.122 50.82 146.845 50.94 146.625 51.18C146.405 51.4133 146.295 51.7567 146.295 52.21C146.295 52.6567 146.402 53 146.615 53.24C146.835 53.48 147.109 53.6 147.435 53.6ZM150.923 52.21C150.923 51.63 151.039 51.1233 151.273 50.69C151.513 50.2567 151.843 49.9233 152.263 49.69C152.689 49.4567 153.176 49.34 153.723 49.34C154.423 49.34 155.006 49.5233 155.473 49.89C155.946 50.2567 156.256 50.7733 156.403 51.44H154.583C154.429 51.0133 154.133 50.8 153.693 50.8C153.379 50.8 153.129 50.9233 152.943 51.17C152.756 51.41 152.663 51.7567 152.663 52.21C152.663 52.6633 152.756 53.0133 152.943 53.26C153.129 53.5 153.379 53.62 153.693 53.62C154.133 53.62 154.429 53.4067 154.583 52.98H156.403C156.256 53.6333 155.946 54.1467 155.473 54.52C154.999 54.8933 154.416 55.08 153.723 55.08C153.176 55.08 152.689 54.9633 152.263 54.73C151.843 54.4967 151.513 54.1633 151.273 53.73C151.039 53.2967 150.923 52.79 150.923 52.21ZM160.727 55L159.027 52.66V55H157.317V47.6H159.027V51.69L160.717 49.42H162.827L160.507 52.22L162.847 55H160.727ZM163.159 52.21C163.159 51.63 163.276 51.1233 163.509 50.69C163.749 50.2567 164.079 49.9233 164.499 49.69C164.926 49.4567 165.412 49.34 165.959 49.34C166.659 49.34 167.242 49.5233 167.709 49.89C168.182 50.2567 168.492 50.7733 168.639 51.44H166.819C166.666 51.0133 166.369 50.8 165.929 50.8C165.616 50.8 165.366 50.9233 165.179 51.17C164.992 51.41 164.899 51.7567 164.899 52.21C164.899 52.6633 164.992 53.0133 165.179 53.26C165.366 53.5 165.616 53.62 165.929 53.62C166.369 53.62 166.666 53.4067 166.819 52.98H168.639C168.492 53.6333 168.182 54.1467 167.709 54.52C167.236 54.8933 166.652 55.08 165.959 55.08C165.412 55.08 164.926 54.9633 164.499 54.73C164.079 54.4967 163.749 54.1633 163.509 53.73C163.276 53.2967 163.159 52.79 163.159 52.21ZM172.984 49.36C173.624 49.36 174.137 49.5733 174.524 50C174.91 50.42 175.104 51 175.104 51.74V55H173.404V51.97C173.404 51.5967 173.307 51.3067 173.114 51.1C172.92 50.8933 172.66 50.79 172.334 50.79C172.007 50.79 171.747 50.8933 171.554 51.1C171.36 51.3067 171.264 51.5967 171.264 51.97V55H169.554V47.6H171.264V50.17C171.437 49.9233 171.674 49.7267 171.974 49.58C172.274 49.4333 172.61 49.36 172.984 49.36ZM175.952 52.2C175.952 51.6267 176.059 51.1233 176.272 50.69C176.492 50.2567 176.789 49.9233 177.162 49.69C177.535 49.4567 177.952 49.34 178.412 49.34C178.805 49.34 179.149 49.42 179.442 49.58C179.742 49.74 179.972 49.95 180.132 50.21V49.42H181.842V55H180.132V54.21C179.965 54.47 179.732 54.68 179.432 54.84C179.139 55 178.795 55.08 178.402 55.08C177.949 55.08 177.535 54.9633 177.162 54.73C176.789 54.49 176.492 54.1533 176.272 53.72C176.059 53.28 175.952 52.7733 175.952 52.2ZM180.132 52.21C180.132 51.7833 180.012 51.4467 179.772 51.2C179.539 50.9533 179.252 50.83 178.912 50.83C178.572 50.83 178.282 50.9533 178.042 51.2C177.809 51.44 177.692 51.7733 177.692 52.2C177.692 52.6267 177.809 52.9667 178.042 53.22C178.282 53.4667 178.572 53.59 178.912 53.59C179.252 53.59 179.539 53.4667 179.772 53.22C180.012 52.9733 180.132 52.6367 180.132 52.21ZM183.939 48.84C183.639 48.84 183.392 48.7533 183.199 48.58C183.012 48.4 182.919 48.18 182.919 47.92C182.919 47.6533 183.012 47.4333 183.199 47.26C183.392 47.08 183.639 46.99 183.939 46.99C184.232 46.99 184.472 47.08 184.659 47.26C184.852 47.4333 184.949 47.6533 184.949 47.92C184.949 48.18 184.852 48.4 184.659 48.58C184.472 48.7533 184.232 48.84 183.939 48.84ZM184.789 49.42V55H183.079V49.42H184.789ZM189.428 49.36C190.082 49.36 190.602 49.5733 190.988 50C191.382 50.42 191.578 51 191.578 51.74V55H189.878V51.97C189.878 51.5967 189.782 51.3067 189.588 51.1C189.395 50.8933 189.135 50.79 188.808 50.79C188.482 50.79 188.222 50.8933 188.028 51.1C187.835 51.3067 187.738 51.5967 187.738 51.97V55H186.028V49.42H187.738V50.16C187.912 49.9133 188.145 49.72 188.438 49.58C188.732 49.4333 189.062 49.36 189.428 49.36ZM139.975 61.98V63.35H138.115V69H136.405V63.35H134.545V61.98H139.975ZM146.093 66.12C146.093 66.28 146.083 66.4467 146.063 66.62H142.193C142.22 66.9667 142.33 67.2333 142.523 67.42C142.723 67.6 142.966 67.69 143.253 67.69C143.68 67.69 143.976 67.51 144.143 67.15H145.963C145.87 67.5167 145.7 67.8467 145.453 68.14C145.213 68.4333 144.91 68.6633 144.543 68.83C144.176 68.9967 143.766 69.08 143.313 69.08C142.766 69.08 142.28 68.9633 141.853 68.73C141.426 68.4967 141.093 68.1633 140.853 67.73C140.613 67.2967 140.493 66.79 140.493 66.21C140.493 65.63 140.61 65.1233 140.843 64.69C141.083 64.2567 141.416 63.9233 141.843 63.69C142.27 63.4567 142.76 63.34 143.313 63.34C143.853 63.34 144.333 63.4533 144.753 63.68C145.173 63.9067 145.5 64.23 145.733 64.65C145.973 65.07 146.093 65.56 146.093 66.12ZM144.343 65.67C144.343 65.3767 144.243 65.1433 144.043 64.97C143.843 64.7967 143.593 64.71 143.293 64.71C143.006 64.71 142.763 64.7933 142.563 64.96C142.37 65.1267 142.25 65.3633 142.203 65.67H144.343ZM146.655 66.21C146.655 65.63 146.772 65.1233 147.005 64.69C147.245 64.2567 147.575 63.9233 147.995 63.69C148.422 63.4567 148.908 63.34 149.455 63.34C150.155 63.34 150.738 63.5233 151.205 63.89C151.678 64.2567 151.988 64.7733 152.135 65.44H150.315C150.162 65.0133 149.865 64.8 149.425 64.8C149.112 64.8 148.862 64.9233 148.675 65.17C148.488 65.41 148.395 65.7567 148.395 66.21C148.395 66.6633 148.488 67.0133 148.675 67.26C148.862 67.5 149.112 67.62 149.425 67.62C149.865 67.62 150.162 67.4067 150.315 66.98H152.135C151.988 67.6333 151.678 68.1467 151.205 68.52C150.732 68.8933 150.148 69.08 149.455 69.08C148.908 69.08 148.422 68.9633 147.995 68.73C147.575 68.4967 147.245 68.1633 147.005 67.73C146.772 67.2967 146.655 66.79 146.655 66.21ZM156.48 63.36C157.12 63.36 157.633 63.5733 158.02 64C158.406 64.42 158.6 65 158.6 65.74V69H156.9V65.97C156.9 65.5967 156.803 65.3067 156.61 65.1C156.416 64.8933 156.156 64.79 155.83 64.79C155.503 64.79 155.243 64.8933 155.05 65.1C154.856 65.3067 154.76 65.5967 154.76 65.97V69H153.05V61.6H154.76V64.17C154.933 63.9233 155.17 63.7267 155.47 63.58C155.77 63.4333 156.106 63.36 156.48 63.36ZM163.188 63.36C163.841 63.36 164.361 63.5733 164.748 64C165.141 64.42 165.338 65 165.338 65.74V69H163.638V65.97C163.638 65.5967 163.541 65.3067 163.348 65.1C163.155 64.8933 162.895 64.79 162.568 64.79C162.241 64.79 161.981 64.8933 161.788 65.1C161.595 65.3067 161.498 65.5967 161.498 65.97V69H159.788V63.42H161.498V64.16C161.671 63.9133 161.905 63.72 162.198 63.58C162.491 63.4333 162.821 63.36 163.188 63.36ZM169.066 69.08C168.52 69.08 168.026 68.9633 167.586 68.73C167.153 68.4967 166.81 68.1633 166.556 67.73C166.31 67.2967 166.186 66.79 166.186 66.21C166.186 65.6367 166.313 65.1333 166.566 64.7C166.82 64.26 167.166 63.9233 167.606 63.69C168.046 63.4567 168.54 63.34 169.086 63.34C169.633 63.34 170.126 63.4567 170.566 63.69C171.006 63.9233 171.353 64.26 171.606 64.7C171.86 65.1333 171.986 65.6367 171.986 66.21C171.986 66.7833 171.856 67.29 171.596 67.73C171.343 68.1633 170.993 68.4967 170.546 68.73C170.106 68.9633 169.613 69.08 169.066 69.08ZM169.066 67.6C169.393 67.6 169.67 67.48 169.896 67.24C170.13 67 170.246 66.6567 170.246 66.21C170.246 65.7633 170.133 65.42 169.906 65.18C169.686 64.94 169.413 64.82 169.086 64.82C168.753 64.82 168.476 64.94 168.256 65.18C168.036 65.4133 167.926 65.7567 167.926 66.21C167.926 66.6567 168.033 67 168.246 67.24C168.466 67.48 168.74 67.6 169.066 67.6ZM174.603 61.6V69H172.893V61.6H174.603ZM178.383 69.08C177.836 69.08 177.343 68.9633 176.903 68.73C176.469 68.4967 176.126 68.1633 175.873 67.73C175.626 67.2967 175.503 66.79 175.503 66.21C175.503 65.6367 175.629 65.1333 175.883 64.7C176.136 64.26 176.483 63.9233 176.923 63.69C177.363 63.4567 177.856 63.34 178.403 63.34C178.949 63.34 179.443 63.4567 179.883 63.69C180.323 63.9233 180.669 64.26 180.923 64.7C181.176 65.1333 181.303 65.6367 181.303 66.21C181.303 66.7833 181.173 67.29 180.913 67.73C180.659 68.1633 180.309 68.4967 179.863 68.73C179.423 68.9633 178.929 69.08 178.383 69.08ZM178.383 67.6C178.709 67.6 178.986 67.48 179.213 67.24C179.446 67 179.563 66.6567 179.563 66.21C179.563 65.7633 179.449 65.42 179.223 65.18C179.003 64.94 178.729 64.82 178.403 64.82C178.069 64.82 177.793 64.94 177.573 65.18C177.353 65.4133 177.243 65.7567 177.243 66.21C177.243 66.6567 177.349 67 177.563 67.24C177.783 67.48 178.056 67.6 178.383 67.6ZM184.33 63.34C184.723 63.34 185.067 63.42 185.36 63.58C185.66 63.74 185.89 63.95 186.05 64.21V63.42H187.76V68.99C187.76 69.5033 187.657 69.9667 187.45 70.38C187.25 70.8 186.94 71.1333 186.52 71.38C186.107 71.6267 185.59 71.75 184.97 71.75C184.143 71.75 183.473 71.5533 182.96 71.16C182.447 70.7733 182.153 70.2467 182.08 69.58H183.77C183.823 69.7933 183.95 69.96 184.15 70.08C184.35 70.2067 184.597 70.27 184.89 70.27C185.243 70.27 185.523 70.1667 185.73 69.96C185.943 69.76 186.05 69.4367 186.05 68.99V68.2C185.883 68.46 185.653 68.6733 185.36 68.84C185.067 69 184.723 69.08 184.33 69.08C183.87 69.08 183.453 68.9633 183.08 68.73C182.707 68.49 182.41 68.1533 182.19 67.72C181.977 67.28 181.87 66.7733 181.87 66.2C181.87 65.6267 181.977 65.1233 182.19 64.69C182.41 64.2567 182.707 63.9233 183.08 63.69C183.453 63.4567 183.87 63.34 184.33 63.34ZM186.05 66.21C186.05 65.7833 185.93 65.4467 185.69 65.2C185.457 64.9533 185.17 64.83 184.83 64.83C184.49 64.83 184.2 64.9533 183.96 65.2C183.727 65.44 183.61 65.7733 183.61 66.2C183.61 66.6267 183.727 66.9667 183.96 67.22C184.2 67.4667 184.49 67.59 184.83 67.59C185.17 67.59 185.457 67.4667 185.69 67.22C185.93 66.9733 186.05 66.6367 186.05 66.21ZM194.697 63.42L191.197 71.65H189.357L190.637 68.81L188.367 63.42H190.277L191.567 66.91L192.847 63.42H194.697Z" fill="white"/>
<path d="M116.65 58.498C116.65 90.6146 90.614 116.65 58.4974 116.65C26.3807 116.65 0.345 90.6146 0.345 58.498C0.345 26.3813 26.3807 0.34561 58.4974 0.34561C90.614 0.34561 116.65 26.3813 116.65 58.498Z" fill="white" fill-opacity="0.2" stroke="white" stroke-width="0.69"/>
<path d="M28.9404 47.98C29.6804 47.98 30.3271 48.1267 30.8804 48.42C31.4338 48.7133 31.8604 49.1267 32.1604 49.66C32.4671 50.1867 32.6204 50.7967 32.6204 51.49C32.6204 52.1767 32.4671 52.7867 32.1604 53.32C31.8604 53.8533 31.4304 54.2667 30.8704 54.56C30.3171 54.8533 29.6738 55 28.9404 55H26.3104V47.98H28.9404ZM28.8304 53.52C29.4771 53.52 29.9804 53.3433 30.3404 52.99C30.7004 52.6367 30.8804 52.1367 30.8804 51.49C30.8804 50.8433 30.7004 50.34 30.3404 49.98C29.9804 49.62 29.4771 49.44 28.8304 49.44H28.0204V53.52H28.8304ZM34.4361 48.84C34.1361 48.84 33.8894 48.7533 33.6961 48.58C33.5094 48.4 33.4161 48.18 33.4161 47.92C33.4161 47.6533 33.5094 47.4333 33.6961 47.26C33.8894 47.08 34.1361 46.99 34.4361 46.99C34.7294 46.99 34.9694 47.08 35.1561 47.26C35.3494 47.4333 35.4461 47.6533 35.4461 47.92C35.4461 48.18 35.3494 48.4 35.1561 48.58C34.9694 48.7533 34.7294 48.84 34.4361 48.84ZM35.2861 49.42V55H33.5761V49.42H35.2861ZM38.6453 49.34C39.0386 49.34 39.3819 49.42 39.6753 49.58C39.9753 49.74 40.2053 49.95 40.3653 50.21V49.42H42.0753V54.99C42.0753 55.5033 41.9719 55.9667 41.7653 56.38C41.5653 56.8 41.2553 57.1333 40.8353 57.38C40.4219 57.6267 39.9053 57.75 39.2853 57.75C38.4586 57.75 37.7886 57.5533 37.2753 57.16C36.7619 56.7733 36.4686 56.2467 36.3953 55.58H38.0853C38.1386 55.7933 38.2653 55.96 38.4653 56.08C38.6653 56.2067 38.9119 56.27 39.2053 56.27C39.5586 56.27 39.8386 56.1667 40.0453 55.96C40.2586 55.76 40.3653 55.4367 40.3653 54.99V54.2C40.1986 54.46 39.9686 54.6733 39.6753 54.84C39.3819 55 39.0386 55.08 38.6453 55.08C38.1853 55.08 37.7686 54.9633 37.3953 54.73C37.0219 54.49 36.7253 54.1533 36.5053 53.72C36.2919 53.28 36.1853 52.7733 36.1853 52.2C36.1853 51.6267 36.2919 51.1233 36.5053 50.69C36.7253 50.2567 37.0219 49.9233 37.3953 49.69C37.7686 49.4567 38.1853 49.34 38.6453 49.34ZM40.3653 52.21C40.3653 51.7833 40.2453 51.4467 40.0053 51.2C39.7719 50.9533 39.4853 50.83 39.1453 50.83C38.8053 50.83 38.5153 50.9533 38.2753 51.2C38.0419 51.44 37.9253 51.7733 37.9253 52.2C37.9253 52.6267 38.0419 52.9667 38.2753 53.22C38.5153 53.4667 38.8053 53.59 39.1453 53.59C39.4853 53.59 39.7719 53.4667 40.0053 53.22C40.2453 52.9733 40.3653 52.6367 40.3653 52.21ZM44.1724 48.84C43.8724 48.84 43.6257 48.7533 43.4324 48.58C43.2457 48.4 43.1524 48.18 43.1524 47.92C43.1524 47.6533 43.2457 47.4333 43.4324 47.26C43.6257 47.08 43.8724 46.99 44.1724 46.99C44.4657 46.99 44.7057 47.08 44.8924 47.26C45.0857 47.4333 45.1824 47.6533 45.1824 47.92C45.1824 48.18 45.0857 48.4 44.8924 48.58C44.7057 48.7533 44.4657 48.84 44.1724 48.84ZM45.0224 49.42V55H43.3124V49.42H45.0224ZM49.3716 53.55V55H48.5016C47.8816 55 47.3983 54.85 47.0516 54.55C46.7049 54.2433 46.5316 53.7467 46.5316 53.06V50.84H45.8516V49.42H46.5316V48.06H48.2416V49.42H49.3616V50.84H48.2416V53.08C48.2416 53.2467 48.2816 53.3667 48.3616 53.44C48.4416 53.5133 48.5749 53.55 48.7616 53.55H49.3716ZM49.9841 52.2C49.9841 51.6267 50.0908 51.1233 50.3041 50.69C50.5241 50.2567 50.8208 49.9233 51.1941 49.69C51.5674 49.4567 51.9841 49.34 52.4441 49.34C52.8374 49.34 53.1808 49.42 53.4741 49.58C53.7741 49.74 54.0041 49.95 54.1641 50.21V49.42H55.8741V55H54.1641V54.21C53.9974 54.47 53.7641 54.68 53.4641 54.84C53.1708 55 52.8274 55.08 52.4341 55.08C51.9808 55.08 51.5674 54.9633 51.1941 54.73C50.8208 54.49 50.5241 54.1533 50.3041 53.72C50.0908 53.28 49.9841 52.7733 49.9841 52.2ZM54.1641 52.21C54.1641 51.7833 54.0441 51.4467 53.8041 51.2C53.5708 50.9533 53.2841 50.83 52.9441 50.83C52.6041 50.83 52.3141 50.9533 52.0741 51.2C51.8408 51.44 51.7241 51.7733 51.7241 52.2C51.7241 52.6267 51.8408 52.9667 52.0741 53.22C52.3141 53.4667 52.6041 53.59 52.9441 53.59C53.2841 53.59 53.5708 53.4667 53.8041 53.22C54.0441 52.9733 54.1641 52.6367 54.1641 52.21ZM58.8212 47.6V55H57.1112V47.6H58.8212ZM66.5496 53.76H63.9296L63.5096 55H61.7196L64.2596 47.98H66.2396L68.7796 55H66.9696L66.5496 53.76ZM66.1096 52.44L65.2396 49.87L64.3796 52.44H66.1096ZM71.8226 55.08C71.336 55.08 70.9026 54.9967 70.5226 54.83C70.1426 54.6633 69.8426 54.4367 69.6226 54.15C69.4026 53.8567 69.2793 53.53 69.2526 53.17H70.9426C70.9626 53.3633 71.0526 53.52 71.2126 53.64C71.3726 53.76 71.5693 53.82 71.8026 53.82C72.016 53.82 72.1793 53.78 72.2926 53.7C72.4126 53.6133 72.4726 53.5033 72.4726 53.37C72.4726 53.21 72.3893 53.0933 72.2226 53.02C72.056 52.94 71.786 52.8533 71.4126 52.76C71.0126 52.6667 70.6793 52.57 70.4126 52.47C70.146 52.3633 69.916 52.2 69.7226 51.98C69.5293 51.7533 69.4326 51.45 69.4326 51.07C69.4326 50.75 69.5193 50.46 69.6926 50.2C69.8726 49.9333 70.1326 49.7233 70.4726 49.57C70.8193 49.4167 71.2293 49.34 71.7026 49.34C72.4026 49.34 72.9526 49.5133 73.3526 49.86C73.7593 50.2067 73.9926 50.6667 74.0526 51.24H72.4726C72.446 51.0467 72.3593 50.8933 72.2126 50.78C72.0726 50.6667 71.886 50.61 71.6526 50.61C71.4526 50.61 71.2993 50.65 71.1926 50.73C71.086 50.8033 71.0326 50.9067 71.0326 51.04C71.0326 51.2 71.116 51.32 71.2826 51.4C71.456 51.48 71.7226 51.56 72.0826 51.64C72.496 51.7467 72.8326 51.8533 73.0926 51.96C73.3526 52.06 73.5793 52.2267 73.7726 52.46C73.9726 52.6867 74.076 52.9933 74.0826 53.38C74.0826 53.7067 73.9893 54 73.8026 54.26C73.6226 54.5133 73.3593 54.7133 73.0126 54.86C72.6726 55.0067 72.276 55.08 71.8226 55.08ZM77.3988 55.08C76.9121 55.08 76.4788 54.9967 76.0988 54.83C75.7188 54.6633 75.4188 54.4367 75.1988 54.15C74.9788 53.8567 74.8555 53.53 74.8288 53.17H76.5188C76.5388 53.3633 76.6288 53.52 76.7888 53.64C76.9488 53.76 77.1455 53.82 77.3788 53.82C77.5921 53.82 77.7555 53.78 77.8688 53.7C77.9888 53.6133 78.0488 53.5033 78.0488 53.37C78.0488 53.21 77.9655 53.0933 77.7988 53.02C77.6321 52.94 77.3621 52.8533 76.9888 52.76C76.5888 52.6667 76.2555 52.57 75.9888 52.47C75.7221 52.3633 75.4921 52.2 75.2988 51.98C75.1055 51.7533 75.0088 51.45 75.0088 51.07C75.0088 50.75 75.0955 50.46 75.2688 50.2C75.4488 49.9333 75.7088 49.7233 76.0488 49.57C76.3955 49.4167 76.8055 49.34 77.2788 49.34C77.9788 49.34 78.5288 49.5133 78.9288 49.86C79.3355 50.2067 79.5688 50.6667 79.6288 51.24H78.0488C78.0221 51.0467 77.9355 50.8933 77.7888 50.78C77.6488 50.6667 77.4621 50.61 77.2288 50.61C77.0288 50.61 76.8755 50.65 76.7688 50.73C76.6621 50.8033 76.6088 50.9067 76.6088 51.04C76.6088 51.2 76.6921 51.32 76.8588 51.4C77.0321 51.48 77.2988 51.56 77.6588 51.64C78.0721 51.7467 78.4088 51.8533 78.6688 51.96C78.9288 52.06 79.1555 52.2267 79.3488 52.46C79.5488 52.6867 79.6521 52.9933 79.6588 53.38C79.6588 53.7067 79.5655 54 79.3788 54.26C79.1988 54.5133 78.9355 54.7133 78.5888 54.86C78.2488 55.0067 77.8521 55.08 77.3988 55.08ZM85.965 52.12C85.965 52.28 85.955 52.4467 85.935 52.62H82.065C82.0916 52.9667 82.2016 53.2333 82.395 53.42C82.595 53.6 82.8383 53.69 83.125 53.69C83.5516 53.69 83.8483 53.51 84.015 53.15H85.835C85.7416 53.5167 85.5716 53.8467 85.325 54.14C85.085 54.4333 84.7816 54.6633 84.415 54.83C84.0483 54.9967 83.6383 55.08 83.185 55.08C82.6383 55.08 82.1516 54.9633 81.725 54.73C81.2983 54.4967 80.965 54.1633 80.725 53.73C80.485 53.2967 80.365 52.79 80.365 52.21C80.365 51.63 80.4816 51.1233 80.715 50.69C80.955 50.2567 81.2883 49.9233 81.715 49.69C82.1416 49.4567 82.6316 49.34 83.185 49.34C83.725 49.34 84.205 49.4533 84.625 49.68C85.045 49.9067 85.3716 50.23 85.605 50.65C85.845 51.07 85.965 51.56 85.965 52.12ZM84.215 51.67C84.215 51.3767 84.115 51.1433 83.915 50.97C83.715 50.7967 83.465 50.71 83.165 50.71C82.8783 50.71 82.635 50.7933 82.435 50.96C82.2416 51.1267 82.1216 51.3633 82.075 51.67H84.215ZM89.9771 53.55V55H89.1071C88.4871 55 88.0037 54.85 87.6571 54.55C87.3104 54.2433 87.1371 53.7467 87.1371 53.06V50.84H86.4571V49.42H87.1371V48.06H88.8471V49.42H89.9671V50.84H88.8471V53.08C88.8471 53.2467 88.8871 53.3667 88.9671 53.44C89.0471 53.5133 89.1804 53.55 89.3671 53.55H89.9771ZM26.2808 69.07C25.6208 69.07 25.0142 68.9167 24.4608 68.61C23.9142 68.3033 23.4775 67.8767 23.1508 67.33C22.8308 66.7767 22.6708 66.1567 22.6708 65.47C22.6708 64.7833 22.8308 64.1667 23.1508 63.62C23.4775 63.0733 23.9142 62.6467 24.4608 62.34C25.0142 62.0333 25.6208 61.88 26.2808 61.88C26.9408 61.88 27.5442 62.0333 28.0908 62.34C28.6442 62.6467 29.0775 63.0733 29.3908 63.62C29.7108 64.1667 29.8708 64.7833 29.8708 65.47C29.8708 66.1567 29.7108 66.7767 29.3908 67.33C29.0708 67.8767 28.6375 68.3033 28.0908 68.61C27.5442 68.9167 26.9408 69.07 26.2808 69.07ZM26.2808 67.51C26.8408 67.51 27.2875 67.3233 27.6208 66.95C27.9608 66.5767 28.1308 66.0833 28.1308 65.47C28.1308 64.85 27.9608 64.3567 27.6208 63.99C27.2875 63.6167 26.8408 63.43 26.2808 63.43C25.7142 63.43 25.2608 63.6133 24.9208 63.98C24.5875 64.3467 24.4208 64.8433 24.4208 65.47C24.4208 66.09 24.5875 66.5867 24.9208 66.96C25.2608 67.3267 25.7142 67.51 26.2808 67.51ZM32.5321 64.21C32.6988 63.95 32.9288 63.74 33.2221 63.58C33.5155 63.42 33.8588 63.34 34.2521 63.34C34.7121 63.34 35.1288 63.4567 35.5021 63.69C35.8755 63.9233 36.1688 64.2567 36.3821 64.69C36.6021 65.1233 36.7121 65.6267 36.7121 66.2C36.7121 66.7733 36.6021 67.28 36.3821 67.72C36.1688 68.1533 35.8755 68.49 35.5021 68.73C35.1288 68.9633 34.7121 69.08 34.2521 69.08C33.8655 69.08 33.5221 69 33.2221 68.84C32.9288 68.68 32.6988 68.4733 32.5321 68.22V71.66H30.8221V63.42H32.5321V64.21ZM34.9721 66.2C34.9721 65.7733 34.8521 65.44 34.6121 65.2C34.3788 64.9533 34.0888 64.83 33.7421 64.83C33.4021 64.83 33.1121 64.9533 32.8721 65.2C32.6388 65.4467 32.5221 65.7833 32.5221 66.21C32.5221 66.6367 32.6388 66.9733 32.8721 67.22C33.1121 67.4667 33.4021 67.59 33.7421 67.59C34.0821 67.59 34.3721 67.4667 34.6121 67.22C34.8521 66.9667 34.9721 66.6267 34.9721 66.2ZM39.3193 64.21C39.4859 63.95 39.7159 63.74 40.0093 63.58C40.3026 63.42 40.6459 63.34 41.0393 63.34C41.4993 63.34 41.9159 63.4567 42.2893 63.69C42.6626 63.9233 42.9559 64.2567 43.1693 64.69C43.3893 65.1233 43.4993 65.6267 43.4993 66.2C43.4993 66.7733 43.3893 67.28 43.1693 67.72C42.9559 68.1533 42.6626 68.49 42.2893 68.73C41.9159 68.9633 41.4993 69.08 41.0393 69.08C40.6526 69.08 40.3093 69 40.0093 68.84C39.7159 68.68 39.4859 68.4733 39.3193 68.22V71.66H37.6093V63.42H39.3193V64.21ZM41.7593 66.2C41.7593 65.7733 41.6393 65.44 41.3993 65.2C41.1659 64.9533 40.8759 64.83 40.5293 64.83C40.1893 64.83 39.8993 64.9533 39.6593 65.2C39.4259 65.4467 39.3093 65.7833 39.3093 66.21C39.3093 66.6367 39.4259 66.9733 39.6593 67.22C39.8993 67.4667 40.1893 67.59 40.5293 67.59C40.8693 67.59 41.1593 67.4667 41.3993 67.22C41.6393 66.9667 41.7593 66.6267 41.7593 66.2ZM46.9364 69.08C46.3897 69.08 45.8964 68.9633 45.4564 68.73C45.023 68.4967 44.6797 68.1633 44.4264 67.73C44.1797 67.2967 44.0564 66.79 44.0564 66.21C44.0564 65.6367 44.183 65.1333 44.4364 64.7C44.6897 64.26 45.0364 63.9233 45.4764 63.69C45.9164 63.4567 46.4097 63.34 46.9564 63.34C47.503 63.34 47.9964 63.4567 48.4364 63.69C48.8764 63.9233 49.223 64.26 49.4764 64.7C49.7297 65.1333 49.8564 65.6367 49.8564 66.21C49.8564 66.7833 49.7264 67.29 49.4664 67.73C49.213 68.1633 48.863 68.4967 48.4164 68.73C47.9764 68.9633 47.483 69.08 46.9364 69.08ZM46.9364 67.6C47.263 67.6 47.5397 67.48 47.7664 67.24C47.9997 67 48.1164 66.6567 48.1164 66.21C48.1164 65.7633 48.003 65.42 47.7764 65.18C47.5564 64.94 47.283 64.82 46.9564 64.82C46.623 64.82 46.3464 64.94 46.1264 65.18C45.9064 65.4133 45.7964 65.7567 45.7964 66.21C45.7964 66.6567 45.903 67 46.1164 67.24C46.3364 67.48 46.6097 67.6 46.9364 67.6ZM52.4736 64.35C52.6736 64.0433 52.9236 63.8033 53.2236 63.63C53.5236 63.45 53.8569 63.36 54.2236 63.36V65.17H53.7536C53.3269 65.17 53.0069 65.2633 52.7936 65.45C52.5802 65.63 52.4736 65.95 52.4736 66.41V69H50.7636V63.42H52.4736V64.35ZM58.1509 67.55V69H57.2809C56.6609 69 56.1776 68.85 55.8309 68.55C55.4842 68.2433 55.3109 67.7467 55.3109 67.06V64.84H54.6309V63.42H55.3109V62.06H57.0209V63.42H58.1409V64.84H57.0209V67.08C57.0209 67.2467 57.0609 67.3667 57.1409 67.44C57.2209 67.5133 57.3542 67.55 57.5409 67.55H58.1509ZM64.6134 63.42V69H62.9034V68.24C62.7301 68.4867 62.4934 68.6867 62.1934 68.84C61.9001 68.9867 61.5734 69.06 61.2134 69.06C60.7867 69.06 60.4101 68.9667 60.0834 68.78C59.7567 68.5867 59.5034 68.31 59.3234 67.95C59.1434 67.59 59.0534 67.1667 59.0534 66.68V63.42H60.7534V66.45C60.7534 66.8233 60.8501 67.1133 61.0434 67.32C61.2367 67.5267 61.4967 67.63 61.8234 67.63C62.1567 67.63 62.4201 67.5267 62.6134 67.32C62.8067 67.1133 62.9034 66.8233 62.9034 66.45V63.42H64.6134ZM69.2417 63.36C69.895 63.36 70.415 63.5733 70.8017 64C71.195 64.42 71.3917 65 71.3917 65.74V69H69.6917V65.97C69.6917 65.5967 69.595 65.3067 69.4017 65.1C69.2083 64.8933 68.9483 64.79 68.6217 64.79C68.295 64.79 68.035 64.8933 67.8417 65.1C67.6483 65.3067 67.5517 65.5967 67.5517 65.97V69H65.8417V63.42H67.5517V64.16C67.725 63.9133 67.9583 63.72 68.2517 63.58C68.545 63.4333 68.875 63.36 69.2417 63.36ZM73.44 62.84C73.14 62.84 72.8933 62.7533 72.7 62.58C72.5133 62.4 72.42 62.18 72.42 61.92C72.42 61.6533 72.5133 61.4333 72.7 61.26C72.8933 61.08 73.14 60.99 73.44 60.99C73.7333 60.99 73.9733 61.08 74.16 61.26C74.3533 61.4333 74.45 61.6533 74.45 61.92C74.45 62.18 74.3533 62.4 74.16 62.58C73.9733 62.7533 73.7333 62.84 73.44 62.84ZM74.29 63.42V69H72.58V63.42H74.29ZM78.6392 67.55V69H77.7692C77.1492 69 76.6658 68.85 76.3192 68.55C75.9725 68.2433 75.7992 67.7467 75.7992 67.06V64.84H75.1192V63.42H75.7992V62.06H77.5092V63.42H78.6292V64.84H77.5092V67.08C77.5092 67.2467 77.5492 67.3667 77.6292 67.44C77.7092 67.5133 77.8425 67.55 78.0292 67.55H78.6392ZM80.4517 62.84C80.1517 62.84 79.905 62.7533 79.7117 62.58C79.525 62.4 79.4317 62.18 79.4317 61.92C79.4317 61.6533 79.525 61.4333 79.7117 61.26C79.905 61.08 80.1517 60.99 80.4517 60.99C80.745 60.99 80.985 61.08 81.1717 61.26C81.365 61.4333 81.4617 61.6533 81.4617 61.92C81.4617 62.18 81.365 62.4 81.1717 62.58C80.985 62.7533 80.745 62.84 80.4517 62.84ZM81.3017 63.42V69H79.5917V63.42H81.3017ZM87.8009 66.12C87.8009 66.28 87.7909 66.4467 87.7709 66.62H83.9009C83.9276 66.9667 84.0376 67.2333 84.2309 67.42C84.4309 67.6 84.6742 67.69 84.9609 67.69C85.3876 67.69 85.6842 67.51 85.8509 67.15H87.6709C87.5776 67.5167 87.4076 67.8467 87.1609 68.14C86.9209 68.4333 86.6176 68.6633 86.2509 68.83C85.8842 68.9967 85.4742 69.08 85.0209 69.08C84.4742 69.08 83.9876 68.9633 83.5609 68.73C83.1342 68.4967 82.8009 68.1633 82.5609 67.73C82.3209 67.2967 82.2009 66.79 82.2009 66.21C82.2009 65.63 82.3176 65.1233 82.5509 64.69C82.7909 64.2567 83.1242 63.9233 83.5509 63.69C83.9776 63.4567 84.4676 63.34 85.0209 63.34C85.5609 63.34 86.0409 63.4533 86.4609 63.68C86.8809 63.9067 87.2076 64.23 87.4409 64.65C87.6809 65.07 87.8009 65.56 87.8009 66.12ZM86.0509 65.67C86.0509 65.3767 85.9509 65.1433 85.7509 64.97C85.5509 64.7967 85.3009 64.71 85.0009 64.71C84.7142 64.71 84.4709 64.7933 84.2709 64.96C84.0776 65.1267 83.9576 65.3633 83.9109 65.67H86.0509ZM90.973 69.08C90.4863 69.08 90.053 68.9967 89.673 68.83C89.293 68.6633 88.993 68.4367 88.773 68.15C88.553 67.8567 88.4297 67.53 88.403 67.17H90.093C90.113 67.3633 90.203 67.52 90.363 67.64C90.523 67.76 90.7197 67.82 90.953 67.82C91.1663 67.82 91.3297 67.78 91.443 67.7C91.563 67.6133 91.623 67.5033 91.623 67.37C91.623 67.21 91.5397 67.0933 91.373 67.02C91.2063 66.94 90.9363 66.8533 90.563 66.76C90.163 66.6667 89.8297 66.57 89.563 66.47C89.2963 66.3633 89.0663 66.2 88.873 65.98C88.6797 65.7533 88.583 65.45 88.583 65.07C88.583 64.75 88.6697 64.46 88.843 64.2C89.023 63.9333 89.283 63.7233 89.623 63.57C89.9697 63.4167 90.3797 63.34 90.853 63.34C91.553 63.34 92.103 63.5133 92.503 63.86C92.9097 64.2067 93.143 64.6667 93.203 65.24H91.623C91.5963 65.0467 91.5097 64.8933 91.363 64.78C91.223 64.6667 91.0363 64.61 90.803 64.61C90.603 64.61 90.4497 64.65 90.343 64.73C90.2363 64.8033 90.183 64.9067 90.183 65.04C90.183 65.2 90.2663 65.32 90.433 65.4C90.6063 65.48 90.873 65.56 91.233 65.64C91.6463 65.7467 91.983 65.8533 92.243 65.96C92.503 66.06 92.7297 66.2267 92.923 66.46C93.123 66.6867 93.2263 66.9933 93.233 67.38C93.233 67.7067 93.1397 68 92.953 68.26C92.773 68.5133 92.5097 68.7133 92.163 68.86C91.823 69.0067 91.4263 69.08 90.973 69.08Z" fill="white"/>
</svg>
