<svg width="474" height="170" viewBox="0 0 474 170" fill="none" xmlns="http://www.w3.org/2000/svg">
<circle cx="389.205" cy="84.7943" r="84.2943" fill="white" fill-opacity="0.2" stroke="white"/>
<path d="M339.859 85.084C339.067 85.084 338.339 84.9 337.675 84.532C337.019 84.164 336.495 83.652 336.103 82.996C335.719 82.332 335.527 81.588 335.527 80.764C335.527 79.94 335.719 79.2 336.103 78.544C336.495 77.888 337.019 77.376 337.675 77.008C338.339 76.64 339.067 76.456 339.859 76.456C340.651 76.456 341.375 76.64 342.031 77.008C342.695 77.376 343.215 77.888 343.591 78.544C343.975 79.2 344.167 79.94 344.167 80.764C344.167 81.588 343.975 82.332 343.591 82.996C343.207 83.652 342.687 84.164 342.031 84.532C341.375 84.9 340.651 85.084 339.859 85.084ZM339.859 83.212C340.531 83.212 341.067 82.988 341.467 82.54C341.875 82.092 342.079 81.5 342.079 80.764C342.079 80.02 341.875 79.428 341.467 78.988C341.067 78.54 340.531 78.316 339.859 78.316C339.179 78.316 338.635 78.536 338.227 78.976C337.827 79.416 337.627 80.012 337.627 80.764C337.627 81.508 337.827 82.104 338.227 82.552C338.635 82.992 339.179 83.212 339.859 83.212ZM347.36 79.252C347.56 78.94 347.836 78.688 348.188 78.496C348.54 78.304 348.952 78.208 349.424 78.208C349.976 78.208 350.476 78.348 350.924 78.628C351.372 78.908 351.724 79.308 351.98 79.828C352.244 80.348 352.376 80.952 352.376 81.64C352.376 82.328 352.244 82.936 351.98 83.464C351.724 83.984 351.372 84.388 350.924 84.676C350.476 84.956 349.976 85.096 349.424 85.096C348.96 85.096 348.548 85 348.188 84.808C347.836 84.616 347.56 84.368 347.36 84.064V88.192H345.308V78.304H347.36V79.252ZM350.288 81.64C350.288 81.128 350.144 80.728 349.856 80.44C349.576 80.144 349.228 79.996 348.812 79.996C348.404 79.996 348.056 80.144 347.768 80.44C347.488 80.736 347.348 81.14 347.348 81.652C347.348 82.164 347.488 82.568 347.768 82.864C348.056 83.16 348.404 83.308 348.812 83.308C349.22 83.308 349.568 83.16 349.856 82.864C350.144 82.56 350.288 82.152 350.288 81.64ZM357.185 83.26V85H356.141C355.397 85 354.817 84.82 354.401 84.46C353.985 84.092 353.777 83.496 353.777 82.672V80.008H352.961V78.304H353.777V76.672H355.829V78.304H357.173V80.008H355.829V82.696C355.829 82.896 355.877 83.04 355.973 83.128C356.069 83.216 356.229 83.26 356.453 83.26H357.185ZM359.36 77.608C359 77.608 358.704 77.504 358.472 77.296C358.248 77.08 358.136 76.816 358.136 76.504C358.136 76.184 358.248 75.92 358.472 75.712C358.704 75.496 359 75.388 359.36 75.388C359.712 75.388 360 75.496 360.224 75.712C360.456 75.92 360.572 76.184 360.572 76.504C360.572 76.816 360.456 77.08 360.224 77.296C360 77.504 359.712 77.608 359.36 77.608ZM360.38 78.304V85H358.328V78.304H360.38ZM370.411 78.232C371.243 78.232 371.903 78.484 372.391 78.988C372.887 79.492 373.135 80.192 373.135 81.088V85H371.095V81.364C371.095 80.932 370.979 80.6 370.747 80.368C370.523 80.128 370.211 80.008 369.811 80.008C369.411 80.008 369.095 80.128 368.863 80.368C368.639 80.6 368.527 80.932 368.527 81.364V85H366.487V81.364C366.487 80.932 366.371 80.6 366.139 80.368C365.915 80.128 365.603 80.008 365.203 80.008C364.803 80.008 364.487 80.128 364.255 80.368C364.031 80.6 363.919 80.932 363.919 81.364V85H361.867V78.304H363.919V79.144C364.127 78.864 364.399 78.644 364.735 78.484C365.071 78.316 365.451 78.232 365.875 78.232C366.379 78.232 366.827 78.34 367.219 78.556C367.619 78.772 367.931 79.08 368.155 79.48C368.387 79.112 368.703 78.812 369.103 78.58C369.503 78.348 369.939 78.232 370.411 78.232ZM375.602 77.608C375.242 77.608 374.946 77.504 374.714 77.296C374.49 77.08 374.378 76.816 374.378 76.504C374.378 76.184 374.49 75.92 374.714 75.712C374.946 75.496 375.242 75.388 375.602 75.388C375.954 75.388 376.242 75.496 376.466 75.712C376.698 75.92 376.814 76.184 376.814 76.504C376.814 76.816 376.698 77.08 376.466 77.296C376.242 77.504 375.954 77.608 375.602 77.608ZM376.622 78.304V85H374.57V78.304H376.622ZM380.029 83.308H382.933V85H377.737V83.368L380.521 79.996H377.761V78.304H382.873V79.936L380.029 83.308ZM385.094 77.608C384.734 77.608 384.438 77.504 384.206 77.296C383.982 77.08 383.87 76.816 383.87 76.504C383.87 76.184 383.982 75.92 384.206 75.712C384.438 75.496 384.734 75.388 385.094 75.388C385.446 75.388 385.734 75.496 385.958 75.712C386.19 75.92 386.306 76.184 386.306 76.504C386.306 76.816 386.19 77.08 385.958 77.296C385.734 77.504 385.446 77.608 385.094 77.608ZM386.114 78.304V85H384.062V78.304H386.114ZM391.681 78.232C392.465 78.232 393.089 78.488 393.553 79C394.025 79.504 394.261 80.2 394.261 81.088V85H392.221V81.364C392.221 80.916 392.105 80.568 391.873 80.32C391.641 80.072 391.329 79.948 390.937 79.948C390.545 79.948 390.233 80.072 390.001 80.32C389.769 80.568 389.653 80.916 389.653 81.364V85H387.601V78.304H389.653V79.192C389.861 78.896 390.141 78.664 390.493 78.496C390.845 78.32 391.241 78.232 391.681 78.232ZM398.231 78.208C398.703 78.208 399.115 78.304 399.467 78.496C399.827 78.688 400.103 78.94 400.295 79.252V78.304H402.347V84.988C402.347 85.604 402.223 86.16 401.975 86.656C401.735 87.16 401.363 87.56 400.859 87.856C400.363 88.152 399.743 88.3 398.999 88.3C398.007 88.3 397.203 88.064 396.587 87.592C395.971 87.128 395.619 86.496 395.531 85.696H397.559C397.623 85.952 397.775 86.152 398.015 86.296C398.255 86.448 398.551 86.524 398.903 86.524C399.327 86.524 399.663 86.4 399.911 86.152C400.167 85.912 400.295 85.524 400.295 84.988V84.04C400.095 84.352 399.819 84.608 399.467 84.808C399.115 85 398.703 85.096 398.231 85.096C397.679 85.096 397.179 84.956 396.731 84.676C396.283 84.388 395.927 83.984 395.663 83.464C395.407 82.936 395.279 82.328 395.279 81.64C395.279 80.952 395.407 80.348 395.663 79.828C395.927 79.308 396.283 78.908 396.731 78.628C397.179 78.348 397.679 78.208 398.231 78.208ZM400.295 81.652C400.295 81.14 400.151 80.736 399.863 80.44C399.583 80.144 399.239 79.996 398.831 79.996C398.423 79.996 398.075 80.144 397.787 80.44C397.507 80.728 397.367 81.128 397.367 81.64C397.367 82.152 397.507 82.56 397.787 82.864C398.075 83.16 398.423 83.308 398.831 83.308C399.239 83.308 399.583 83.16 399.863 82.864C400.151 82.568 400.295 82.164 400.295 81.652ZM409.423 85.084C408.807 85.084 408.255 84.984 407.767 84.784C407.279 84.584 406.887 84.288 406.591 83.896C406.303 83.504 406.151 83.032 406.135 82.48H408.319C408.351 82.792 408.459 83.032 408.643 83.2C408.827 83.36 409.067 83.44 409.363 83.44C409.667 83.44 409.907 83.372 410.083 83.236C410.259 83.092 410.347 82.896 410.347 82.648C410.347 82.44 410.275 82.268 410.131 82.132C409.995 81.996 409.823 81.884 409.615 81.796C409.415 81.708 409.127 81.608 408.751 81.496C408.207 81.328 407.763 81.16 407.419 80.992C407.075 80.824 406.779 80.576 406.531 80.248C406.283 79.92 406.159 79.492 406.159 78.964C406.159 78.18 406.443 77.568 407.011 77.128C407.579 76.68 408.319 76.456 409.231 76.456C410.159 76.456 410.907 76.68 411.475 77.128C412.043 77.568 412.347 78.184 412.387 78.976H410.167C410.151 78.704 410.051 78.492 409.867 78.34C409.683 78.18 409.447 78.1 409.159 78.1C408.911 78.1 408.711 78.168 408.559 78.304C408.407 78.432 408.331 78.62 408.331 78.868C408.331 79.14 408.459 79.352 408.715 79.504C408.971 79.656 409.371 79.82 409.915 79.996C410.459 80.18 410.899 80.356 411.235 80.524C411.579 80.692 411.875 80.936 412.123 81.256C412.371 81.576 412.495 81.988 412.495 82.492C412.495 82.972 412.371 83.408 412.123 83.8C411.883 84.192 411.531 84.504 411.067 84.736C410.603 84.968 410.055 85.084 409.423 85.084ZM422.302 78.232C423.134 78.232 423.794 78.484 424.282 78.988C424.778 79.492 425.026 80.192 425.026 81.088V85H422.986V81.364C422.986 80.932 422.87 80.6 422.638 80.368C422.414 80.128 422.102 80.008 421.702 80.008C421.302 80.008 420.986 80.128 420.754 80.368C420.53 80.6 420.418 80.932 420.418 81.364V85H418.378V81.364C418.378 80.932 418.262 80.6 418.03 80.368C417.806 80.128 417.494 80.008 417.094 80.008C416.694 80.008 416.378 80.128 416.146 80.368C415.922 80.6 415.81 80.932 415.81 81.364V85H413.758V78.304H415.81V79.144C416.018 78.864 416.29 78.644 416.626 78.484C416.962 78.316 417.342 78.232 417.766 78.232C418.27 78.232 418.718 78.34 419.11 78.556C419.51 78.772 419.822 79.08 420.046 79.48C420.278 79.112 420.594 78.812 420.994 78.58C421.394 78.348 421.83 78.232 422.302 78.232ZM426.053 81.64C426.053 80.952 426.181 80.348 426.437 79.828C426.701 79.308 427.057 78.908 427.505 78.628C427.953 78.348 428.453 78.208 429.005 78.208C429.477 78.208 429.889 78.304 430.241 78.496C430.601 78.688 430.877 78.94 431.069 79.252V78.304H433.121V85H431.069V84.052C430.869 84.364 430.589 84.616 430.229 84.808C429.877 85 429.465 85.096 428.993 85.096C428.449 85.096 427.953 84.956 427.505 84.676C427.057 84.388 426.701 83.984 426.437 83.464C426.181 82.936 426.053 82.328 426.053 81.64ZM431.069 81.652C431.069 81.14 430.925 80.736 430.637 80.44C430.357 80.144 430.013 79.996 429.605 79.996C429.197 79.996 428.849 80.144 428.561 80.44C428.281 80.728 428.141 81.128 428.141 81.64C428.141 82.152 428.281 82.56 428.561 82.864C428.849 83.16 429.197 83.308 429.605 83.308C430.013 83.308 430.357 83.16 430.637 82.864C430.925 82.568 431.069 82.164 431.069 81.652ZM436.657 79.42C436.897 79.052 437.197 78.764 437.557 78.556C437.917 78.34 438.317 78.232 438.757 78.232V80.404H438.193C437.681 80.404 437.297 80.516 437.041 80.74C436.785 80.956 436.657 81.34 436.657 81.892V85H434.605V78.304H436.657V79.42ZM443.47 83.26V85H442.426C441.682 85 441.102 84.82 440.686 84.46C440.27 84.092 440.062 83.496 440.062 82.672V80.008H439.246V78.304H440.062V76.672H442.114V78.304H443.458V80.008H442.114V82.696C442.114 82.896 442.162 83.04 442.258 83.128C442.354 83.216 442.514 83.26 442.738 83.26H443.47ZM360.888 101.512H357.744L357.24 103H355.092L358.14 94.576H360.516L363.564 103H361.392L360.888 101.512ZM360.36 99.928L359.316 96.844L358.284 99.928H360.36ZM366.544 94.12V103H364.492V94.12H366.544ZM370.575 96.208C371.047 96.208 371.459 96.304 371.811 96.496C372.171 96.688 372.447 96.94 372.639 97.252V96.304H374.691V102.988C374.691 103.604 374.567 104.16 374.319 104.656C374.079 105.16 373.707 105.56 373.203 105.856C372.707 106.152 372.087 106.3 371.343 106.3C370.351 106.3 369.547 106.064 368.931 105.592C368.315 105.128 367.963 104.496 367.875 103.696H369.903C369.967 103.952 370.119 104.152 370.359 104.296C370.599 104.448 370.895 104.524 371.247 104.524C371.671 104.524 372.007 104.4 372.255 104.152C372.511 103.912 372.639 103.524 372.639 102.988V102.04C372.439 102.352 372.163 102.608 371.811 102.808C371.459 103 371.047 103.096 370.575 103.096C370.023 103.096 369.523 102.956 369.075 102.676C368.627 102.388 368.271 101.984 368.007 101.464C367.751 100.936 367.623 100.328 367.623 99.64C367.623 98.952 367.751 98.348 368.007 97.828C368.271 97.308 368.627 96.908 369.075 96.628C369.523 96.348 370.023 96.208 370.575 96.208ZM372.639 99.652C372.639 99.14 372.495 98.736 372.207 98.44C371.927 98.144 371.583 97.996 371.175 97.996C370.767 97.996 370.419 98.144 370.131 98.44C369.851 98.728 369.711 99.128 369.711 99.64C369.711 100.152 369.851 100.56 370.131 100.864C370.419 101.16 370.767 101.308 371.175 101.308C371.583 101.308 371.927 101.16 372.207 100.864C372.495 100.568 372.639 100.164 372.639 99.652ZM379.224 103.096C378.568 103.096 377.976 102.956 377.448 102.676C376.928 102.396 376.516 101.996 376.212 101.476C375.916 100.956 375.768 100.348 375.768 99.652C375.768 98.964 375.92 98.36 376.224 97.84C376.528 97.312 376.944 96.908 377.472 96.628C378 96.348 378.592 96.208 379.248 96.208C379.904 96.208 380.496 96.348 381.024 96.628C381.552 96.908 381.968 97.312 382.272 97.84C382.576 98.36 382.728 98.964 382.728 99.652C382.728 100.34 382.572 100.948 382.26 101.476C381.956 101.996 381.536 102.396 381 102.676C380.472 102.956 379.88 103.096 379.224 103.096ZM379.224 101.32C379.616 101.32 379.948 101.176 380.22 100.888C380.5 100.6 380.64 100.188 380.64 99.652C380.64 99.116 380.504 98.704 380.232 98.416C379.968 98.128 379.64 97.984 379.248 97.984C378.848 97.984 378.516 98.128 378.252 98.416C377.988 98.696 377.856 99.108 377.856 99.652C377.856 100.188 377.984 100.6 378.24 100.888C378.504 101.176 378.832 101.32 379.224 101.32ZM385.868 97.42C386.108 97.052 386.408 96.764 386.768 96.556C387.128 96.34 387.528 96.232 387.968 96.232V98.404H387.404C386.892 98.404 386.508 98.516 386.252 98.74C385.996 98.956 385.868 99.34 385.868 99.892V103H383.816V96.304H385.868V97.42ZM389.981 95.608C389.621 95.608 389.325 95.504 389.093 95.296C388.869 95.08 388.757 94.816 388.757 94.504C388.757 94.184 388.869 93.92 389.093 93.712C389.325 93.496 389.621 93.388 389.981 93.388C390.333 93.388 390.621 93.496 390.845 93.712C391.077 93.92 391.193 94.184 391.193 94.504C391.193 94.816 391.077 95.08 390.845 95.296C390.621 95.504 390.333 95.608 389.981 95.608ZM391.001 96.304V103H388.949V96.304H391.001ZM396.22 101.26V103H395.176C394.432 103 393.852 102.82 393.436 102.46C393.02 102.092 392.812 101.496 392.812 100.672V98.008H391.996V96.304H392.812V94.672H394.864V96.304H396.208V98.008H394.864V100.696C394.864 100.896 394.912 101.04 395.008 101.128C395.104 101.216 395.264 101.26 395.488 101.26H396.22ZM401.479 96.232C402.247 96.232 402.863 96.488 403.327 97C403.791 97.504 404.023 98.2 404.023 99.088V103H401.983V99.364C401.983 98.916 401.867 98.568 401.635 98.32C401.403 98.072 401.091 97.948 400.699 97.948C400.307 97.948 399.995 98.072 399.763 98.32C399.531 98.568 399.415 98.916 399.415 99.364V103H397.363V94.12H399.415V97.204C399.623 96.908 399.907 96.672 400.267 96.496C400.627 96.32 401.031 96.232 401.479 96.232ZM413.993 96.232C414.825 96.232 415.485 96.484 415.973 96.988C416.469 97.492 416.717 98.192 416.717 99.088V103H414.677V99.364C414.677 98.932 414.561 98.6 414.329 98.368C414.105 98.128 413.793 98.008 413.393 98.008C412.993 98.008 412.677 98.128 412.445 98.368C412.221 98.6 412.109 98.932 412.109 99.364V103H410.069V99.364C410.069 98.932 409.953 98.6 409.721 98.368C409.497 98.128 409.185 98.008 408.785 98.008C408.385 98.008 408.069 98.128 407.837 98.368C407.613 98.6 407.501 98.932 407.501 99.364V103H405.449V96.304H407.501V97.144C407.709 96.864 407.981 96.644 408.317 96.484C408.653 96.316 409.033 96.232 409.457 96.232C409.961 96.232 410.409 96.34 410.801 96.556C411.201 96.772 411.513 97.08 411.737 97.48C411.969 97.112 412.285 96.812 412.685 96.58C413.085 96.348 413.521 96.232 413.993 96.232ZM420.876 103.096C420.292 103.096 419.772 102.996 419.316 102.796C418.86 102.596 418.5 102.324 418.236 101.98C417.972 101.628 417.824 101.236 417.792 100.804H419.82C419.844 101.036 419.952 101.224 420.144 101.368C420.336 101.512 420.572 101.584 420.852 101.584C421.108 101.584 421.304 101.536 421.44 101.44C421.584 101.336 421.656 101.204 421.656 101.044C421.656 100.852 421.556 100.712 421.356 100.624C421.156 100.528 420.832 100.424 420.384 100.312C419.904 100.2 419.504 100.084 419.184 99.964C418.864 99.836 418.588 99.64 418.356 99.376C418.124 99.104 418.008 98.74 418.008 98.284C418.008 97.9 418.112 97.552 418.32 97.24C418.536 96.92 418.848 96.668 419.256 96.484C419.672 96.3 420.164 96.208 420.732 96.208C421.572 96.208 422.232 96.416 422.712 96.832C423.2 97.248 423.48 97.8 423.552 98.488H421.656C421.624 98.256 421.52 98.072 421.344 97.936C421.176 97.8 420.952 97.732 420.672 97.732C420.432 97.732 420.248 97.78 420.12 97.876C419.992 97.964 419.928 98.088 419.928 98.248C419.928 98.44 420.028 98.584 420.228 98.68C420.436 98.776 420.756 98.872 421.188 98.968C421.684 99.096 422.088 99.224 422.4 99.352C422.712 99.472 422.984 99.672 423.216 99.952C423.456 100.224 423.58 100.592 423.588 101.056C423.588 101.448 423.476 101.8 423.252 102.112C423.036 102.416 422.72 102.656 422.304 102.832C421.896 103.008 421.42 103.096 420.876 103.096Z" fill="white"/>
<circle cx="237.424" cy="84.7943" r="84.2943" fill="white" fill-opacity="0.2" stroke="white"/>
<path d="M208.821 75.6675C209.309 75.7715 209.701 76.0155 209.997 76.3995C210.293 76.7755 210.441 77.2075 210.441 77.6955C210.441 78.3995 210.193 78.9595 209.697 79.3755C209.209 79.7835 208.525 79.9875 207.645 79.9875H203.721V71.5635H207.513C208.369 71.5635 209.037 71.7595 209.517 72.1515C210.005 72.5435 210.249 73.0755 210.249 73.7475C210.249 74.2435 210.117 74.6555 209.853 74.9835C209.597 75.3115 209.253 75.5395 208.821 75.6675ZM205.773 74.9715H207.117C207.453 74.9715 207.709 74.8995 207.885 74.7555C208.069 74.6035 208.161 74.3835 208.161 74.0955C208.161 73.8075 208.069 73.5875 207.885 73.4355C207.709 73.2835 207.453 73.2075 207.117 73.2075H205.773V74.9715ZM207.285 78.3315C207.629 78.3315 207.893 78.2555 208.077 78.1035C208.269 77.9435 208.365 77.7155 208.365 77.4195C208.365 77.1235 208.265 76.8915 208.065 76.7235C207.873 76.5555 207.605 76.4715 207.261 76.4715H205.773V78.3315H207.285ZM213.683 71.1075V79.9875H211.631V71.1075H213.683ZM218.218 80.0835C217.562 80.0835 216.97 79.9435 216.442 79.6635C215.922 79.3835 215.51 78.9835 215.206 78.4635C214.91 77.9435 214.762 77.3355 214.762 76.6395C214.762 75.9515 214.914 75.3475 215.218 74.8275C215.522 74.2995 215.938 73.8955 216.466 73.6155C216.994 73.3355 217.586 73.1955 218.242 73.1955C218.898 73.1955 219.49 73.3355 220.018 73.6155C220.546 73.8955 220.962 74.2995 221.266 74.8275C221.57 75.3475 221.722 75.9515 221.722 76.6395C221.722 77.3275 221.566 77.9355 221.254 78.4635C220.95 78.9835 220.53 79.3835 219.994 79.6635C219.466 79.9435 218.874 80.0835 218.218 80.0835ZM218.218 78.3075C218.61 78.3075 218.942 78.1635 219.214 77.8755C219.494 77.5875 219.634 77.1755 219.634 76.6395C219.634 76.1035 219.498 75.6915 219.226 75.4035C218.962 75.1155 218.634 74.9715 218.242 74.9715C217.842 74.9715 217.51 75.1155 217.246 75.4035C216.982 75.6835 216.85 76.0955 216.85 76.6395C216.85 77.1755 216.978 77.5875 217.234 77.8755C217.498 78.1635 217.826 78.3075 218.218 78.3075ZM222.402 76.6395C222.402 75.9435 222.542 75.3355 222.822 74.8155C223.11 74.2955 223.506 73.8955 224.01 73.6155C224.522 73.3355 225.106 73.1955 225.762 73.1955C226.602 73.1955 227.302 73.4155 227.862 73.8555C228.43 74.2955 228.802 74.9155 228.978 75.7155H226.794C226.61 75.2035 226.254 74.9475 225.726 74.9475C225.35 74.9475 225.05 75.0955 224.826 75.3915C224.602 75.6795 224.49 76.0955 224.49 76.6395C224.49 77.1835 224.602 77.6035 224.826 77.8995C225.05 78.1875 225.35 78.3315 225.726 78.3315C226.254 78.3315 226.61 78.0755 226.794 77.5635H228.978C228.802 78.3475 228.43 78.9635 227.862 79.4115C227.294 79.8595 226.594 80.0835 225.762 80.0835C225.106 80.0835 224.522 79.9435 224.01 79.6635C223.506 79.3835 223.11 78.9835 222.822 78.4635C222.542 77.9435 222.402 77.3355 222.402 76.6395ZM234.168 79.9875L232.128 77.1795V79.9875H230.076V71.1075H232.128V76.0155L234.156 73.2915H236.688L233.904 76.6515L236.712 79.9875H234.168ZM237.086 76.6395C237.086 75.9435 237.226 75.3355 237.506 74.8155C237.794 74.2955 238.19 73.8955 238.694 73.6155C239.206 73.3355 239.79 73.1955 240.446 73.1955C241.286 73.1955 241.986 73.4155 242.546 73.8555C243.114 74.2955 243.486 74.9155 243.662 75.7155H241.478C241.294 75.2035 240.938 74.9475 240.41 74.9475C240.034 74.9475 239.734 75.0955 239.51 75.3915C239.286 75.6795 239.174 76.0955 239.174 76.6395C239.174 77.1835 239.286 77.6035 239.51 77.8995C239.734 78.1875 240.034 78.3315 240.41 78.3315C240.938 78.3315 241.294 78.0755 241.478 77.5635H243.662C243.486 78.3475 243.114 78.9635 242.546 79.4115C241.978 79.8595 241.278 80.0835 240.446 80.0835C239.79 80.0835 239.206 79.9435 238.694 79.6635C238.19 79.3835 237.794 78.9835 237.506 78.4635C237.226 77.9435 237.086 77.3355 237.086 76.6395ZM248.876 73.2195C249.644 73.2195 250.26 73.4755 250.724 73.9875C251.188 74.4915 251.42 75.1875 251.42 76.0755V79.9875H249.38V76.3515C249.38 75.9035 249.264 75.5555 249.032 75.3075C248.8 75.0595 248.488 74.9355 248.096 74.9355C247.704 74.9355 247.392 75.0595 247.16 75.3075C246.928 75.5555 246.812 75.9035 246.812 76.3515V79.9875H244.76V71.1075H246.812V74.1915C247.02 73.8955 247.304 73.6595 247.664 73.4835C248.024 73.3075 248.428 73.2195 248.876 73.2195ZM252.438 76.6275C252.438 75.9395 252.566 75.3355 252.822 74.8155C253.086 74.2955 253.442 73.8955 253.89 73.6155C254.338 73.3355 254.838 73.1955 255.39 73.1955C255.862 73.1955 256.274 73.2915 256.626 73.4835C256.986 73.6755 257.262 73.9275 257.454 74.2395V73.2915H259.506V79.9875H257.454V79.0395C257.254 79.3515 256.974 79.6035 256.614 79.7955C256.262 79.9875 255.85 80.0835 255.378 80.0835C254.834 80.0835 254.338 79.9435 253.89 79.6635C253.442 79.3755 253.086 78.9715 252.822 78.4515C252.566 77.9235 252.438 77.3155 252.438 76.6275ZM257.454 76.6395C257.454 76.1275 257.31 75.7235 257.022 75.4275C256.742 75.1315 256.398 74.9835 255.99 74.9835C255.582 74.9835 255.234 75.1315 254.946 75.4275C254.666 75.7155 254.526 76.1155 254.526 76.6275C254.526 77.1395 254.666 77.5475 254.946 77.8515C255.234 78.1475 255.582 78.2955 255.99 78.2955C256.398 78.2955 256.742 78.1475 257.022 77.8515C257.31 77.5555 257.454 77.1515 257.454 76.6395ZM262.022 72.5955C261.662 72.5955 261.366 72.4915 261.134 72.2835C260.91 72.0675 260.798 71.8035 260.798 71.4915C260.798 71.1715 260.91 70.9075 261.134 70.6995C261.366 70.4835 261.662 70.3755 262.022 70.3755C262.374 70.3755 262.662 70.4835 262.886 70.6995C263.118 70.9075 263.234 71.1715 263.234 71.4915C263.234 71.8035 263.118 72.0675 262.886 72.2835C262.662 72.4915 262.374 72.5955 262.022 72.5955ZM263.042 73.2915V79.9875H260.99V73.2915H263.042ZM268.609 73.2195C269.393 73.2195 270.017 73.4755 270.481 73.9875C270.953 74.4915 271.189 75.1875 271.189 76.0755V79.9875H269.149V76.3515C269.149 75.9035 269.033 75.5555 268.801 75.3075C268.569 75.0595 268.257 74.9355 267.865 74.9355C267.473 74.9355 267.161 75.0595 266.929 75.3075C266.697 75.5555 266.581 75.9035 266.581 76.3515V79.9875H264.529V73.2915H266.581V74.1795C266.789 73.8835 267.069 73.6515 267.421 73.4835C267.773 73.3075 268.169 73.2195 268.609 73.2195ZM207.993 89.5635V91.2075H205.761V97.9875H203.709V91.2075H201.477V89.5635H207.993ZM215.335 94.5315C215.335 94.7235 215.323 94.9235 215.299 95.1315H210.655C210.687 95.5475 210.819 95.8675 211.051 96.0915C211.291 96.3075 211.583 96.4155 211.927 96.4155C212.439 96.4155 212.795 96.1995 212.995 95.7675H215.179C215.067 96.2075 214.863 96.6035 214.567 96.9555C214.279 97.3075 213.915 97.5835 213.475 97.7835C213.035 97.9835 212.543 98.0835 211.999 98.0835C211.343 98.0835 210.759 97.9435 210.247 97.6635C209.735 97.3835 209.335 96.9835 209.047 96.4635C208.759 95.9435 208.615 95.3355 208.615 94.6395C208.615 93.9435 208.755 93.3355 209.035 92.8155C209.323 92.2955 209.723 91.8955 210.235 91.6155C210.747 91.3355 211.335 91.1955 211.999 91.1955C212.647 91.1955 213.223 91.3315 213.727 91.6035C214.231 91.8755 214.623 92.2635 214.903 92.7675C215.191 93.2715 215.335 93.8595 215.335 94.5315ZM213.235 93.9915C213.235 93.6395 213.115 93.3595 212.875 93.1515C212.635 92.9435 212.335 92.8395 211.975 92.8395C211.631 92.8395 211.339 92.9395 211.099 93.1395C210.867 93.3395 210.723 93.6235 210.667 93.9915H213.235ZM216.01 94.6395C216.01 93.9435 216.15 93.3355 216.43 92.8155C216.718 92.2955 217.114 91.8955 217.618 91.6155C218.13 91.3355 218.714 91.1955 219.37 91.1955C220.21 91.1955 220.91 91.4155 221.47 91.8555C222.038 92.2955 222.41 92.9155 222.586 93.7155H220.402C220.218 93.2035 219.862 92.9475 219.334 92.9475C218.958 92.9475 218.658 93.0955 218.434 93.3915C218.21 93.6795 218.098 94.0955 218.098 94.6395C218.098 95.1835 218.21 95.6035 218.434 95.8995C218.658 96.1875 218.958 96.3315 219.334 96.3315C219.862 96.3315 220.218 96.0755 220.402 95.5635H222.586C222.41 96.3475 222.038 96.9635 221.47 97.4115C220.902 97.8595 220.202 98.0835 219.37 98.0835C218.714 98.0835 218.13 97.9435 217.618 97.6635C217.114 97.3835 216.718 96.9835 216.43 96.4635C216.15 95.9435 216.01 95.3355 216.01 94.6395ZM227.799 91.2195C228.567 91.2195 229.183 91.4755 229.647 91.9875C230.111 92.4915 230.343 93.1875 230.343 94.0755V97.9875H228.303V94.3515C228.303 93.9035 228.187 93.5555 227.955 93.3075C227.723 93.0595 227.411 92.9355 227.019 92.9355C226.627 92.9355 226.315 93.0595 226.083 93.3075C225.851 93.5555 225.735 93.9035 225.735 94.3515V97.9875H223.683V89.1075H225.735V92.1915C225.943 91.8955 226.227 91.6595 226.587 91.4835C226.947 91.3075 227.351 91.2195 227.799 91.2195ZM235.849 91.2195C236.633 91.2195 237.257 91.4755 237.721 91.9875C238.193 92.4915 238.429 93.1875 238.429 94.0755V97.9875H236.389V94.3515C236.389 93.9035 236.273 93.5555 236.041 93.3075C235.809 93.0595 235.497 92.9355 235.105 92.9355C234.713 92.9355 234.401 93.0595 234.169 93.3075C233.937 93.5555 233.821 93.9035 233.821 94.3515V97.9875H231.769V91.2915H233.821V92.1795C234.029 91.8835 234.309 91.6515 234.661 91.4835C235.013 91.3075 235.409 91.2195 235.849 91.2195ZM242.903 98.0835C242.247 98.0835 241.655 97.9435 241.127 97.6635C240.607 97.3835 240.195 96.9835 239.891 96.4635C239.595 95.9435 239.447 95.3355 239.447 94.6395C239.447 93.9515 239.599 93.3475 239.903 92.8275C240.207 92.2995 240.623 91.8955 241.151 91.6155C241.679 91.3355 242.271 91.1955 242.927 91.1955C243.583 91.1955 244.175 91.3355 244.703 91.6155C245.231 91.8955 245.647 92.2995 245.951 92.8275C246.255 93.3475 246.407 93.9515 246.407 94.6395C246.407 95.3275 246.251 95.9355 245.939 96.4635C245.635 96.9835 245.215 97.3835 244.679 97.6635C244.151 97.9435 243.559 98.0835 242.903 98.0835ZM242.903 96.3075C243.295 96.3075 243.627 96.1635 243.899 95.8755C244.179 95.5875 244.319 95.1755 244.319 94.6395C244.319 94.1035 244.183 93.6915 243.911 93.4035C243.647 93.1155 243.319 92.9715 242.927 92.9715C242.527 92.9715 242.195 93.1155 241.931 93.4035C241.667 93.6835 241.535 94.0955 241.535 94.6395C241.535 95.1755 241.663 95.5875 241.919 95.8755C242.183 96.1635 242.511 96.3075 242.903 96.3075ZM249.548 89.1075V97.9875H247.496V89.1075H249.548ZM254.083 98.0835C253.427 98.0835 252.835 97.9435 252.307 97.6635C251.787 97.3835 251.375 96.9835 251.071 96.4635C250.775 95.9435 250.627 95.3355 250.627 94.6395C250.627 93.9515 250.779 93.3475 251.083 92.8275C251.387 92.2995 251.803 91.8955 252.331 91.6155C252.859 91.3355 253.451 91.1955 254.107 91.1955C254.763 91.1955 255.355 91.3355 255.883 91.6155C256.411 91.8955 256.827 92.2995 257.131 92.8275C257.435 93.3475 257.587 93.9515 257.587 94.6395C257.587 95.3275 257.431 95.9355 257.119 96.4635C256.815 96.9835 256.395 97.3835 255.859 97.6635C255.331 97.9435 254.739 98.0835 254.083 98.0835ZM254.083 96.3075C254.475 96.3075 254.807 96.1635 255.079 95.8755C255.359 95.5875 255.499 95.1755 255.499 94.6395C255.499 94.1035 255.363 93.6915 255.091 93.4035C254.827 93.1155 254.499 92.9715 254.107 92.9715C253.707 92.9715 253.375 93.1155 253.111 93.4035C252.847 93.6835 252.715 94.0955 252.715 94.6395C252.715 95.1755 252.843 95.5875 253.099 95.8755C253.363 96.1635 253.691 96.3075 254.083 96.3075ZM261.22 91.1955C261.692 91.1955 262.104 91.2915 262.456 91.4835C262.816 91.6755 263.092 91.9275 263.284 92.2395V91.2915H265.336V97.9755C265.336 98.5915 265.212 99.1475 264.964 99.6435C264.724 100.148 264.352 100.548 263.848 100.844C263.352 101.14 262.732 101.288 261.988 101.288C260.996 101.288 260.192 101.052 259.576 100.58C258.96 100.116 258.608 99.4835 258.52 98.6835H260.548C260.612 98.9395 260.764 99.1395 261.004 99.2835C261.244 99.4355 261.54 99.5115 261.892 99.5115C262.316 99.5115 262.652 99.3875 262.9 99.1395C263.156 98.8995 263.284 98.5115 263.284 97.9755V97.0275C263.084 97.3395 262.808 97.5955 262.456 97.7955C262.104 97.9875 261.692 98.0835 261.22 98.0835C260.668 98.0835 260.168 97.9435 259.72 97.6635C259.272 97.3755 258.916 96.9715 258.652 96.4515C258.396 95.9235 258.268 95.3155 258.268 94.6275C258.268 93.9395 258.396 93.3355 258.652 92.8155C258.916 92.2955 259.272 91.8955 259.72 91.6155C260.168 91.3355 260.668 91.1955 261.22 91.1955ZM263.284 94.6395C263.284 94.1275 263.14 93.7235 262.852 93.4275C262.572 93.1315 262.228 92.9835 261.82 92.9835C261.412 92.9835 261.064 93.1315 260.776 93.4275C260.496 93.7155 260.356 94.1155 260.356 94.6275C260.356 95.1395 260.496 95.5475 260.776 95.8515C261.064 96.1475 261.412 96.2955 261.82 96.2955C262.228 96.2955 262.572 96.1475 262.852 95.8515C263.14 95.5555 263.284 95.1515 263.284 94.6395ZM273.66 91.2915L269.46 101.168H267.252L268.788 97.7595L266.064 91.2915H268.356L269.904 95.4795L271.44 91.2915H273.66Z" fill="white"/>
<circle cx="84.7943" cy="84.7943" r="84.2943" fill="white" fill-opacity="0.2" stroke="white"/>
<path d="M47.6285 71.576H44.4725V80H47.6285C50.3165 80 52.0445 78.284 52.0445 75.788C52.0445 73.28 50.3165 71.576 47.6285 71.576ZM46.5245 78.224V73.328H47.4965C49.0445 73.328 49.9565 74.24 49.9565 75.788C49.9565 77.336 49.0445 78.224 47.4965 78.224H46.5245ZM53.1913 80H55.2433V73.304H53.1913V80ZM54.2233 72.608C54.9433 72.608 55.4353 72.116 55.4353 71.504C55.4353 70.88 54.9433 70.388 54.2233 70.388C53.4913 70.388 52.9993 70.88 52.9993 71.504C52.9993 72.116 53.4913 72.608 54.2233 72.608ZM56.3223 76.64C56.3223 78.752 57.6303 80.096 59.2743 80.096C60.2583 80.096 60.9663 79.628 61.3383 79.04V79.988C61.3383 81.116 60.7263 81.524 59.9463 81.524C59.2383 81.524 58.7343 81.2 58.6023 80.696H56.5743C56.7543 82.292 58.0503 83.3 60.0423 83.3C62.3583 83.3 63.3903 81.776 63.3903 79.988V73.304H61.3383V74.252C60.9783 73.652 60.2583 73.208 59.2743 73.208C57.6303 73.208 56.3223 74.528 56.3223 76.64ZM61.3383 76.652C61.3383 77.72 60.6543 78.308 59.8743 78.308C59.1063 78.308 58.4103 77.708 58.4103 76.64C58.4103 75.572 59.1063 74.996 59.8743 74.996C60.6543 74.996 61.3383 75.584 61.3383 76.652ZM64.8749 80H66.9269V73.304H64.8749V80ZM65.9069 72.608C66.6269 72.608 67.1189 72.116 67.1189 71.504C67.1189 70.88 66.6269 70.388 65.9069 70.388C65.1749 70.388 64.6829 70.88 64.6829 71.504C64.6829 72.116 65.1749 72.608 65.9069 72.608ZM68.7379 77.672C68.7379 79.412 69.7099 80 71.1019 80H72.1459V78.26H71.4139C70.9579 78.26 70.7899 78.092 70.7899 77.696V75.008H72.1339V73.304H70.7899V71.672H68.7379V73.304H67.9219V75.008H68.7379V77.672ZM72.8809 76.64C72.8809 78.752 74.1889 80.096 75.8209 80.096C76.8169 80.096 77.5249 79.64 77.8969 79.052V80H79.9489V73.304H77.8969V74.252C77.5369 73.664 76.8289 73.208 75.8329 73.208C74.1889 73.208 72.8809 74.528 72.8809 76.64ZM77.8969 76.652C77.8969 77.72 77.2129 78.308 76.4329 78.308C75.6649 78.308 74.9689 77.708 74.9689 76.64C74.9689 75.572 75.6649 74.996 76.4329 74.996C77.2129 74.996 77.8969 75.584 77.8969 76.652ZM81.4335 80H83.4855V71.12H81.4335V80ZM93.2635 80H95.4355L92.3875 71.576H90.0115L86.9635 80H89.1115L89.6155 78.512H92.7595L93.2635 80ZM92.2315 76.928H90.1555L91.1875 73.844L92.2315 76.928ZM101.799 78.056C101.763 75.56 98.1391 76.316 98.1391 75.248C98.1391 74.924 98.4031 74.732 98.8831 74.732C99.4591 74.732 99.8071 75.032 99.8671 75.488H101.763C101.631 74.168 100.671 73.208 98.9431 73.208C97.1911 73.208 96.2191 74.144 96.2191 75.284C96.2191 77.744 99.8671 76.964 99.8671 78.044C99.8671 78.344 99.5911 78.584 99.0631 78.584C98.4991 78.584 98.0791 78.272 98.0311 77.804H96.0031C96.0991 79.1 97.2991 80.096 99.0871 80.096C100.767 80.096 101.799 79.22 101.799 78.056ZM108.491 78.056C108.455 75.56 104.831 76.316 104.831 75.248C104.831 74.924 105.095 74.732 105.575 74.732C106.151 74.732 106.499 75.032 106.559 75.488H108.455C108.323 74.168 107.363 73.208 105.635 73.208C103.883 73.208 102.911 74.144 102.911 75.284C102.911 77.744 106.559 76.964 106.559 78.044C106.559 78.344 106.283 78.584 105.755 78.584C105.191 78.584 104.771 78.272 104.723 77.804H102.695C102.791 79.1 103.991 80.096 105.779 80.096C107.459 80.096 108.491 79.22 108.491 78.056ZM112.698 74.852C113.382 74.852 113.958 75.272 113.958 76.004H111.39C111.51 75.26 112.026 74.852 112.698 74.852ZM115.902 77.78H113.718C113.55 78.14 113.226 78.428 112.65 78.428C111.99 78.428 111.45 78.02 111.378 77.144H116.022C116.046 76.94 116.058 76.736 116.058 76.544C116.058 74.504 114.678 73.208 112.722 73.208C110.73 73.208 109.338 74.528 109.338 76.652C109.338 78.776 110.754 80.096 112.722 80.096C114.39 80.096 115.578 79.088 115.902 77.78ZM117.464 77.672C117.464 79.412 118.436 80 119.828 80H120.872V78.26H120.14C119.684 78.26 119.516 78.092 119.516 77.696V75.008H120.86V73.304H119.516V71.672H117.464V73.304H116.648V75.008H117.464V77.672ZM48.745 93.764C48.745 91.232 46.837 89.456 44.437 89.456C42.049 89.456 40.105 91.232 40.105 93.764C40.105 96.296 42.049 98.084 44.437 98.084C46.825 98.084 48.745 96.296 48.745 93.764ZM42.205 93.764C42.205 92.264 43.069 91.316 44.437 91.316C45.781 91.316 46.657 92.264 46.657 93.764C46.657 95.24 45.781 96.212 44.437 96.212C43.069 96.212 42.205 95.24 42.205 93.764ZM51.9386 92.252V91.304H49.8866V101.192H51.9386V97.064C52.3106 97.628 53.0186 98.096 54.0026 98.096C55.6466 98.096 56.9546 96.752 56.9546 94.64C56.9546 92.528 55.6466 91.208 54.0026 91.208C53.0186 91.208 52.3106 91.664 51.9386 92.252ZM54.8666 94.64C54.8666 95.708 54.1706 96.308 53.3906 96.308C52.6226 96.308 51.9266 95.72 51.9266 94.652C51.9266 93.584 52.6226 92.996 53.3906 92.996C54.1706 92.996 54.8666 93.572 54.8666 94.64ZM60.0831 92.252V91.304H58.0311V101.192H60.0831V97.064C60.4551 97.628 61.1631 98.096 62.1471 98.096C63.7911 98.096 65.0991 96.752 65.0991 94.64C65.0991 92.528 63.7911 91.208 62.1471 91.208C61.1631 91.208 60.4551 91.664 60.0831 92.252ZM63.0111 94.64C63.0111 95.708 62.3151 96.308 61.5351 96.308C60.7671 96.308 60.0711 95.72 60.0711 94.652C60.0711 93.584 60.7671 92.996 61.5351 92.996C62.3151 92.996 63.0111 93.572 63.0111 94.64ZM72.7276 94.652C72.7276 92.528 71.2156 91.208 69.2476 91.208C67.2916 91.208 65.7676 92.528 65.7676 94.652C65.7676 96.776 67.2556 98.096 69.2236 98.096C71.1916 98.096 72.7276 96.776 72.7276 94.652ZM67.8556 94.652C67.8556 93.512 68.5036 92.984 69.2476 92.984C69.9676 92.984 70.6396 93.512 70.6396 94.652C70.6396 95.78 69.9556 96.32 69.2236 96.32C68.4796 96.32 67.8556 95.78 67.8556 94.652ZM75.8683 94.892C75.8683 93.74 76.4323 93.404 77.4043 93.404H77.9683V91.232C77.0683 91.232 76.3363 91.712 75.8683 92.42V91.304H73.8163V98H75.8683V94.892ZM79.2731 95.672C79.2731 97.412 80.2451 98 81.6371 98H82.6811V96.26H81.9491C81.4931 96.26 81.3251 96.092 81.3251 95.696V93.008H82.6691V91.304H81.3251V89.672H79.2731V91.304H78.4571V93.008H79.2731V95.672ZM90.4361 91.304H88.3841V94.94C88.3841 95.852 87.8801 96.356 87.0881 96.356C86.3201 96.356 85.8041 95.852 85.8041 94.94V91.304H83.7641V95.216C83.7641 97.004 84.8081 98.072 86.3561 98.072C87.2561 98.072 87.9761 97.664 88.3841 97.088V98H90.4361V91.304ZM96.53 98H98.57V94.088C98.57 92.288 97.538 91.232 95.99 91.232C95.09 91.232 94.37 91.628 93.962 92.192V91.304H91.91V98H93.962V94.364C93.962 93.452 94.466 92.948 95.246 92.948C96.026 92.948 96.53 93.452 96.53 94.364V98ZM99.996 98H102.048V91.304H99.996V98ZM101.028 90.608C101.748 90.608 102.24 90.116 102.24 89.504C102.24 88.88 101.748 88.388 101.028 88.388C100.296 88.388 99.804 88.88 99.804 89.504C99.804 90.116 100.296 90.608 101.028 90.608ZM103.859 95.672C103.859 97.412 104.831 98 106.223 98H107.267V96.26H106.535C106.079 96.26 105.911 96.092 105.911 95.696V93.008H107.255V91.304H105.911V89.672H103.859V91.304H103.043V93.008H103.859V95.672ZM108.41 98H110.462V91.304H108.41V98ZM109.442 90.608C110.162 90.608 110.654 90.116 110.654 89.504C110.654 88.88 110.162 88.388 109.442 88.388C108.71 88.388 108.218 88.88 108.218 89.504C108.218 90.116 108.71 90.608 109.442 90.608ZM114.901 92.852C115.585 92.852 116.161 93.272 116.161 94.004H113.593C113.713 93.26 114.229 92.852 114.901 92.852ZM118.105 95.78H115.921C115.753 96.14 115.429 96.428 114.853 96.428C114.193 96.428 113.653 96.02 113.581 95.144H118.225C118.249 94.94 118.261 94.736 118.261 94.544C118.261 92.504 116.881 91.208 114.925 91.208C112.933 91.208 111.541 92.528 111.541 94.652C111.541 96.776 112.957 98.096 114.925 98.096C116.593 98.096 117.781 97.088 118.105 95.78ZM124.78 96.056C124.744 93.56 121.12 94.316 121.12 93.248C121.12 92.924 121.384 92.732 121.864 92.732C122.44 92.732 122.788 93.032 122.848 93.488H124.744C124.612 92.168 123.652 91.208 121.924 91.208C120.172 91.208 119.2 92.144 119.2 93.284C119.2 95.744 122.848 94.964 122.848 96.044C122.848 96.344 122.572 96.584 122.044 96.584C121.48 96.584 121.06 96.272 121.012 95.804H118.984C119.08 97.1 120.28 98.096 122.068 98.096C123.748 98.096 124.78 97.22 124.78 96.056Z" fill="white"/>
</svg>
