<svg width="327" height="117" viewBox="0 0 327 117" fill="none" xmlns="http://www.w3.org/2000/svg">
<circle cx="268.503" cy="58.4974" r="58.1524" fill="white" fill-opacity="0.2" stroke="white" stroke-width="0.69"/>
<path d="M235.979 47.872C235.979 47.008 236.675 46.444 237.635 46.444C238.583 46.444 239.267 47.008 239.267 47.872C239.267 48.736 238.583 49.312 237.635 49.312C236.675 49.312 235.979 48.736 235.979 47.872ZM240.467 47.872C240.467 46.444 239.267 45.436 237.635 45.436C235.991 45.436 234.779 46.444 234.779 47.872C234.779 49.3 235.991 50.308 237.635 50.308C239.267 50.308 240.467 49.3 240.467 47.872ZM237.347 53.824H243.107V51.028H236.111V52H241.883V52.924H236.135V55.792H243.467V54.808H237.347V53.824ZM243.107 47.308V45.076H241.871V50.56H243.107V48.328H244.631V47.308H243.107ZM253.174 47.164C253.174 48.46 253.174 49.996 252.754 52.12L254.002 52.252C254.422 50.008 254.422 48.508 254.422 47.164V46.096H246.706V47.104H253.174V47.164ZM250.582 53.488V49.672H249.334V53.488H245.686V54.508H255.478V53.488H250.582ZM258.585 50.068H262.365V46.048H257.313V47.056H261.117V49.072H257.337V53.368H258.261C260.169 53.368 261.789 53.308 263.649 52.984L263.517 51.976C261.801 52.252 260.301 52.336 258.585 52.348V50.068ZM264.417 45.064V55.948H265.665V45.064H264.417ZM268.688 49.552C270.584 49.348 272.072 48.568 272.66 47.452C273.236 48.568 274.724 49.348 276.632 49.552L277.064 48.58C275.036 48.388 273.632 47.512 273.488 46.528H276.668V45.532H268.664V46.528H271.82C271.676 47.512 270.272 48.388 268.244 48.58L268.688 49.552ZM270.152 53.068H275.156V54.808H270.152V53.068ZM268.928 55.792H276.368V52.096H268.928V55.792ZM267.752 50.08V51.076H277.556V50.08H267.752ZM282.111 46.228V47.236H285.975C285.759 49.732 284.415 51.64 281.571 53.008L282.231 53.992C285.951 52.192 287.247 49.456 287.247 46.228H282.111ZM289.203 45.088V55.924H290.439V45.088H289.203ZM296.798 50.308H294.146V48.52H296.798V50.308ZM298.022 45.868H296.798V47.56H294.146V45.868H292.91V51.304H298.022V45.868ZM295.382 52.288H294.134V55.72H301.43V54.712H295.382V52.288ZM300.998 48.28V45.1H299.762V53.056H300.998V49.3H302.534V48.28H300.998ZM229.676 62.104H233.612V61.084H228.452V68.296H229.352C231.596 68.296 233 68.236 234.572 67.948L234.44 66.916C232.988 67.192 231.692 67.252 229.676 67.264V62.104ZM235.448 60.076V70.948H236.696V60.076H235.448ZM242.815 62.188H245.227V61.168H239.155V62.188H241.567V63.22C241.567 65.08 240.451 67.096 238.771 67.876L239.479 68.86C240.751 68.248 241.723 66.964 242.203 65.452C242.707 66.856 243.679 68.032 244.939 68.584L245.623 67.612C243.931 66.892 242.815 65.02 242.815 63.22V62.188ZM246.487 60.088V70.924H247.735V60.088H246.487ZM257.586 65.884H258.834V60.076H257.586V62.488H255.714V63.472H257.586V65.884ZM255.786 64.324C254.49 64.54 253.386 64.576 251.61 64.576V63.568H255.006V62.632H251.61V61.696H255.318V60.724H250.374V65.548H251.19C253.242 65.548 254.454 65.536 255.882 65.308L255.786 64.324ZM253.014 69.868V68.992H258.834V66.328H251.778V67.288H257.61V68.104H251.79V70.828H259.194V69.868H253.014ZM267.384 62.188H269.676V61.168H263.784V62.188H266.148V63.232C266.148 65.032 265.044 67.084 263.388 67.876L264.096 68.86C265.344 68.248 266.304 66.952 266.784 65.44C267.276 66.808 268.2 68.008 269.412 68.584L270.096 67.612C268.452 66.832 267.384 64.912 267.384 63.232V62.188ZM273.672 64.36H271.98V60.088H270.744V70.924H271.98V65.38H273.672V64.36ZM281.016 65.392C279.372 64.828 278.436 63.46 278.436 62.02V60.748H277.188V62.008C277.188 63.592 276.264 65.056 274.524 65.644L275.196 66.604C276.468 66.148 277.368 65.224 277.836 64.036C278.316 65.092 279.192 65.956 280.392 66.376L281.016 65.392ZM277.488 67.3H276.252V70.72H283.524V69.712H277.488V67.3ZM283.092 63.328V60.076H281.856V68.068H283.092V64.348H284.628V63.328H283.092ZM294.09 64.732C294.354 63.328 294.354 62.26 294.354 61.528V60.904H288.906V61.912H293.142C293.13 62.584 293.094 63.436 292.878 64.6L294.09 64.732ZM294.99 65.272C293.922 65.44 292.758 65.512 291.63 65.56V63.376H290.406V65.596C289.638 65.62 288.894 65.62 288.246 65.62L288.378 66.628C290.262 66.628 292.818 66.568 295.074 66.172L294.99 65.272ZM291.126 67.504H289.878V70.72H297.246V69.712H291.126V67.504ZM296.898 63.52V60.088H295.65V68.224H296.898V64.54H298.338V63.52H296.898ZM301.265 65.068H305.045V61.048H299.993V62.056H303.797V64.072H300.017V68.368H300.941C302.849 68.368 304.469 68.308 306.329 67.984L306.197 66.976C304.481 67.252 302.981 67.336 301.265 67.348V65.068ZM307.097 60.064V70.948H308.345V60.064H307.097Z" fill="white"/>
<circle cx="163.792" cy="58.4974" r="58.1524" fill="white" fill-opacity="0.2" stroke="white" stroke-width="0.69"/>
<path d="M137.955 47.944H133.131V47.08H137.955V47.944ZM139.179 45.268H137.955V46.168H133.131V45.268H131.907V48.88H139.179V45.268ZM133.047 54.016H139.215V51.448H131.799V52.372H138.003V53.14H131.823V55.828H139.527V54.88H133.047V54.016ZM130.635 49.648V50.632H140.451V49.648H130.635ZM142.778 53.704H149.09V55.864H150.326V52.708H142.778V53.704ZM147.206 50.98V49.996H150.482V49.048H144.146V48.088H150.266V45.34H142.91V46.288H149.042V47.2H142.934V49.996H145.97V50.98H141.674V51.976H151.502V50.98H147.206ZM155.977 48.016H157.837V46.996H155.977V45.46H154.801V46.996H152.929V48.016H154.801V48.4C154.801 50.128 154.081 51.976 152.593 52.852L153.301 53.788C154.333 53.188 155.017 52.096 155.401 50.824C155.797 52 156.493 52.996 157.513 53.548L158.197 52.624C156.709 51.82 155.977 50.092 155.977 48.4V48.016ZM158.605 49.288H157.141V50.296H158.605V55.396H159.769V45.304H158.605V49.288ZM160.789 45.088V55.924H161.965V45.088H160.789ZM172.692 45.088H171.456V52.96H172.692V45.088ZM165.18 48.52C165.18 47.524 165.888 46.876 166.848 46.876C167.796 46.876 168.516 47.524 168.516 48.52C168.516 49.504 167.796 50.164 166.848 50.164C165.888 50.164 165.18 49.504 165.18 48.52ZM169.716 48.52C169.716 46.936 168.48 45.808 166.848 45.808C165.216 45.808 163.968 46.936 163.968 48.52C163.968 50.092 165.216 51.232 166.848 51.232C168.48 51.232 169.716 50.092 169.716 48.52ZM166.86 54.712V52.168H165.612V55.72H173.004V54.712H166.86ZM178.111 46.228V47.236H181.975C181.759 49.732 180.415 51.64 177.571 53.008L178.231 53.992C181.951 52.192 183.247 49.456 183.247 46.228H178.111ZM185.203 45.088V55.924H186.439V45.088H185.203ZM192.798 50.308H190.146V48.52H192.798V50.308ZM194.022 45.868H192.798V47.56H190.146V45.868H188.91V51.304H194.022V45.868ZM191.382 52.288H190.134V55.72H197.43V54.712H191.382V52.288ZM196.998 48.28V45.1H195.762V53.056H196.998V49.3H198.534V48.28H196.998ZM151.082 65.212C148.946 64.852 147.206 63.244 147.206 61.564V60.748H145.898V61.564C145.898 63.232 144.158 64.852 142.01 65.212L142.538 66.244C144.302 65.896 145.838 64.816 146.558 63.376C147.254 64.816 148.79 65.896 150.566 66.244L151.082 65.212ZM147.158 68.56V66.028H145.922V68.56H141.686V69.58H151.502V68.56H147.158ZM157.609 61.48C159.157 61.48 160.177 62.008 160.177 62.872C160.177 63.748 159.157 64.276 157.609 64.276C156.049 64.276 155.029 63.748 155.029 62.872C155.029 62.008 156.049 61.48 157.609 61.48ZM157.609 65.272C159.889 65.272 161.449 64.336 161.449 62.872C161.449 61.42 159.889 60.484 157.609 60.484C155.317 60.484 153.757 61.42 153.757 62.872C153.757 64.336 155.317 65.272 157.609 65.272ZM162.541 66.196H152.713V67.216H155.113V70.924H156.373V67.216H158.845V70.924H160.105V67.216H162.553L162.541 66.196ZM167.384 64.624C169.28 64.42 170.768 63.64 171.356 62.524C171.932 63.64 173.408 64.42 175.328 64.624L175.76 63.664C173.744 63.46 172.34 62.596 172.184 61.612H175.364V60.616H167.36V61.612H170.516C170.36 62.596 168.956 63.46 166.94 63.664L167.384 64.624ZM171.332 69.952C169.748 69.952 168.86 69.604 168.86 68.944C168.86 68.272 169.748 67.924 171.332 67.924C172.916 67.924 173.816 68.272 173.816 68.944C173.816 69.604 172.916 69.952 171.332 69.952ZM171.332 66.952C169.016 66.952 167.6 67.684 167.6 68.944C167.6 70.204 169.016 70.924 171.332 70.924C173.66 70.924 175.064 70.204 175.064 68.944C175.064 67.684 173.66 66.952 171.332 66.952ZM166.448 65.176V66.172H176.252V65.176H166.448ZM181.783 64.792H179.179V61.876H181.783V64.792ZM185.239 62.764V63.904H182.983V62.764H185.239ZM182.983 64.912H185.239V66.472H186.475V60.088H185.239V61.756H182.983V60.892H177.967V65.776H182.983V64.912ZM182.863 69.964C181.327 69.964 180.451 69.568 180.451 68.848C180.451 68.14 181.327 67.744 182.863 67.744C184.399 67.744 185.287 68.14 185.287 68.848C185.287 69.568 184.399 69.964 182.863 69.964ZM182.863 66.772C180.607 66.772 179.215 67.54 179.215 68.848C179.215 70.156 180.607 70.924 182.863 70.924C185.131 70.924 186.523 70.156 186.523 68.848C186.523 67.54 185.131 66.772 182.863 66.772Z" fill="white"/>
<path d="M116.65 58.4979C116.65 90.6145 90.614 116.65 58.4974 116.65C26.3807 116.65 0.345 90.6145 0.345 58.4979C0.345 26.3812 26.3807 0.345488 58.4974 0.345488C90.614 0.345488 116.65 26.3812 116.65 58.4979Z" fill="white" fill-opacity="0.2" stroke="white" stroke-width="0.69"/>
<path d="M32.0627 47.104H35.9987V46.084H30.8387V53.296H31.7387C33.9827 53.296 35.3867 53.236 36.9587 52.948L36.8267 51.916C35.3747 52.192 34.0787 52.252 32.0627 52.264V47.104ZM37.8347 45.076V55.948H39.0827V45.076H37.8347ZM45.2018 47.188H47.6138V46.168H41.5418V47.188H43.9538V48.22C43.9538 50.08 42.8378 52.096 41.1578 52.876L41.8658 53.86C43.1378 53.248 44.1098 51.964 44.5898 50.452C45.0938 51.856 46.0658 53.032 47.3258 53.584L48.0098 52.612C46.3178 51.892 45.2018 50.02 45.2018 48.22V47.188ZM48.8738 45.088V55.924H50.1218V45.088H48.8738ZM59.9728 50.884H61.2208V45.076H59.9728V47.488H58.1008V48.472H59.9728V50.884ZM58.1728 49.324C56.8768 49.54 55.7728 49.576 53.9968 49.576V48.568H57.3928V47.632H53.9968V46.696H57.7048V45.724H52.7608V50.548H53.5768C55.6288 50.548 56.8408 50.536 58.2688 50.308L58.1728 49.324ZM55.4008 54.868V53.992H61.2208V51.328H54.1648V52.288H59.9968V53.104H54.1768V55.828H61.5808V54.868H55.4008ZM69.7712 47.188H72.0632V46.168H66.1712V47.188H68.5352V48.232C68.5352 50.032 67.4312 52.084 65.7752 52.876L66.4832 53.86C67.7312 53.248 68.6912 51.952 69.1712 50.44C69.6632 51.808 70.5872 53.008 71.7992 53.584L72.4832 52.612C70.8392 51.832 69.7712 49.912 69.7712 48.232V47.188ZM76.0592 49.36H74.3672V45.088H73.1312V55.924H74.3672V50.38H76.0592V49.36ZM83.4023 50.392C81.7583 49.828 80.8223 48.46 80.8223 47.02V45.748H79.5742V47.008C79.5742 48.592 78.6503 50.056 76.9103 50.644L77.5823 51.604C78.8543 51.148 79.7543 50.224 80.2223 49.036C80.7023 50.092 81.5783 50.956 82.7783 51.376L83.4023 50.392ZM79.8743 52.3H78.6383V55.72H85.9103V54.712H79.8743V52.3ZM85.4783 48.328V45.076H84.2423V53.068H85.4783V49.348H87.0143V48.328H85.4783ZM33.079 64.3H30.427V62.92H33.079V64.3ZM34.303 60.544H33.079V61.972H30.427V60.544H29.191V65.284H34.303V60.544ZM31.519 68.896H37.279V66.124H30.283V67.084H36.055V67.984H30.307V70.828H37.639V69.856H31.519V68.896ZM37.279 62.308V60.088H36.043V65.644H37.279V63.328H38.803V62.308H37.279ZM46.7221 63.928H47.8501V66.916H49.0261V60.076H47.8501V62.908H46.7221V60.292H45.5701V66.544H46.7221V63.928ZM45.1981 61.3H43.1101V60.184H41.8981V61.3H39.7981V62.272H45.1981V61.3ZM41.2981 64.612C41.2981 64.024 41.7781 63.64 42.5101 63.64C43.2421 63.64 43.7341 64.024 43.7341 64.612C43.7341 65.2 43.2421 65.584 42.5101 65.584C41.7781 65.584 41.2981 65.2 41.2981 64.612ZM44.8381 64.612C44.8381 63.496 43.8781 62.74 42.5101 62.74C41.1541 62.74 40.1941 63.496 40.1941 64.612C40.1941 65.74 41.1541 66.484 42.5101 66.484C43.8781 66.484 44.8381 65.74 44.8381 64.612ZM45.4261 69.988C43.8781 69.988 42.9901 69.64 42.9901 68.992C42.9901 68.344 43.8781 68.008 45.4261 68.008C46.9861 68.008 47.8501 68.344 47.8501 68.992C47.8501 69.64 46.9861 69.988 45.4261 69.988ZM45.4261 67.072C43.1341 67.072 41.7541 67.768 41.7541 68.992C41.7541 70.216 43.1341 70.924 45.4261 70.924C47.7061 70.924 49.0861 70.216 49.0861 68.992C49.0861 67.768 47.7061 67.072 45.4261 67.072ZM62.5205 60.076H61.2725V66.268H62.5205V60.076ZM58.0805 64.276H55.3565V61.744H58.0805V64.276ZM59.2805 60.76H54.1445V65.26H59.2805V60.76ZM62.7245 67.888V66.94H59.6165V65.968H58.3565V66.94H55.2485V67.888H58.3565C58.2605 68.812 56.8565 69.76 54.8285 69.964L55.2365 70.9C56.9645 70.696 58.3325 70.012 58.9925 69.064C59.6525 70 60.9965 70.696 62.7125 70.9L63.1205 69.964C61.1165 69.748 59.7245 68.776 59.6285 67.888H62.7245ZM67.7468 61.228V62.236H71.5148C71.3108 64.696 70.0868 66.604 67.2668 67.996L67.9268 68.956C71.5988 67.132 72.7748 64.408 72.7748 61.228H67.7468ZM75.0548 60.088V64.348H72.7268V65.368H75.0548V70.936H76.3028V60.088H75.0548ZM79.8899 65.188H82.7459V61.204H78.6779V62.212H81.5579V64.192H78.7019V68.416H79.4339C80.7659 68.416 81.9659 68.38 83.4179 68.128L83.3099 67.12C82.0739 67.324 81.0179 67.384 79.8899 67.396V65.188ZM86.4299 60.088V64.276H85.1459V60.304H83.9819V70.384H85.1459V65.284H86.4299V70.912H87.6059V60.088H86.4299Z" fill="white"/>
</svg>
