<svg width="474" height="170" viewBox="0 0 474 170" fill="none" xmlns="http://www.w3.org/2000/svg">
<circle cx="389.205" cy="84.7943" r="84.2943" fill="white" fill-opacity="0.2" stroke="white"/>
<path d="M359.923 74.8597C359.923 73.9915 360.587 73.4623 361.523 73.4623C362.46 73.4623 363.124 73.9915 363.124 74.8597C363.124 75.7416 362.46 76.2707 361.523 76.2707C360.587 76.2707 359.923 75.7416 359.923 74.8597ZM364.847 74.8597C364.847 73.2181 363.436 72.0242 361.523 72.0242C359.624 72.0242 358.199 73.2181 358.199 74.8597C358.199 76.5285 359.624 77.7088 361.523 77.7088C363.436 77.7088 364.847 76.5285 364.847 74.8597ZM361.483 81.8197H367.941V78.4008H359.692V79.7846H366.177V80.5308H359.705V84.0175H368.307V82.6337H361.483V81.8197ZM367.941 74.0729V71.6715H366.15V77.9123H367.941V75.5381H369.582V74.0729H367.941ZM380.313 79.9203C380.815 77.2611 380.815 75.4974 380.815 73.9372V72.7433H371.738V74.1678H379.024C379.024 75.6195 378.997 77.3561 378.522 79.7168L380.313 79.9203ZM376.378 81.2227V76.9219H374.587V81.2227H370.599V82.6608H381.9V81.2227H376.378ZM385.562 77.5596H389.619V72.7297H383.717V74.1543H387.787V76.1486H383.731V81.2905H384.857C387.122 81.2905 388.954 81.2091 390.989 80.8564L390.799 79.4047C389.035 79.7032 387.462 79.7982 385.562 79.8117V77.5596ZM391.667 71.6579V84.1939H393.458V71.6579H391.667ZM396.645 76.8812C398.993 76.6642 400.526 75.7959 401.19 74.602C401.842 75.7959 403.388 76.6642 405.735 76.8812L406.359 75.4838C403.972 75.2803 402.751 74.4392 402.479 73.5844H405.817V72.1599H396.578V73.5844H399.902C399.63 74.4392 398.396 75.2803 396.035 75.4838L396.645 76.8812ZM398.613 81.087H403.727V82.6201H398.613V81.087ZM396.862 84.0175H405.491V79.6761H396.862V84.0175ZM395.546 77.329V78.7535H406.834V77.329H395.546ZM411.793 72.9604V74.3849H415.958C415.7 77.1526 414.316 79.1062 411.128 80.6393L412.064 82.0503C416.501 79.9067 417.79 76.7863 417.79 72.9604H411.793ZM419.702 71.6579V84.1532H421.507V71.6579H419.702ZM428.167 77.5053H425.712V75.728H428.167V77.5053ZM429.931 72.5669H428.167V74.3442H425.712V72.5669H423.948V78.9163H429.931V72.5669ZM427.15 79.961H425.359V83.9497H433.865V82.5252H427.15V79.961ZM433.418 75.1989V71.6715H431.627V80.87H433.418V76.6642H435.073V75.1989H433.418ZM352.864 94.2357H357.111V92.784H351.073V101.223H352.172C354.832 101.223 356.419 101.168 358.115 100.843L357.952 99.364C356.446 99.6489 355.049 99.7168 352.864 99.7303V94.2357ZM358.888 91.6715V104.207H360.679V91.6715H358.888ZM367.638 94.3442H370.216V92.8654H363.215V94.3442H365.82V95.0361C365.82 97.1662 364.802 99.459 362.713 100.395L363.731 101.82C365.196 101.155 366.2 99.7846 366.756 98.1566C367.312 99.6625 368.303 100.884 369.754 101.508L370.731 100.097C368.642 99.2283 367.638 97.0712 367.638 95.0361V94.3442ZM371.369 91.6715V104.167H373.16V91.6715H371.369ZM383.944 98.2651H385.735V91.6715H383.944V94.3171H381.964V95.728H383.944V98.2651ZM382.045 96.3928C380.634 96.5963 379.427 96.6235 377.636 96.637V95.823H381.245V94.5206H377.636V93.7472H381.624V92.3634H375.858V98.0344H376.835C379.142 98.0344 380.539 98.0209 382.181 97.7902L382.045 96.3928ZM379.277 102.729V102.023H385.735V98.7399H377.486V100.083H383.958V100.761H377.514V104.072H386.088V102.729H379.277ZM395.429 94.3442H397.912V92.8654H391.047V94.3442H393.638V95.0361C393.638 97.0983 392.62 99.4454 390.572 100.395L391.576 101.82C393 101.141 394.004 99.771 394.56 98.143C395.117 99.6218 396.094 100.87 397.477 101.508L398.468 100.097C396.419 99.1469 395.429 96.9355 395.429 95.0361V94.3442ZM402.443 96.4335H400.625V91.6715H398.834V104.167H400.625V97.9123H402.443V96.4335ZM410.799 97.6003C408.778 96.9491 407.937 95.3753 407.937 93.7879V92.4312H406.119V93.7744C406.119 95.4838 405.237 97.1526 403.134 97.8309L404.083 99.2283C405.508 98.7535 406.498 97.7767 407.055 96.5285C407.597 97.6546 408.52 98.55 409.877 98.9977L410.799 97.6003ZM406.905 99.9474H405.115V103.95H413.594V102.525H406.905V99.9474ZM413.16 95.2939V91.6715H411.369V100.816H413.16V96.7727H414.815V95.2939H413.16ZM425.553 97.0305C425.838 95.4567 425.838 94.2221 425.838 93.3538V92.5805H419.421V94.005H424.074C424.061 94.7512 424.007 95.6602 423.803 96.827L425.553 97.0305ZM426.381 97.5325C425.214 97.6953 423.966 97.7902 422.731 97.8445V95.4838H420.981V97.9123C420.167 97.9259 419.394 97.9259 418.702 97.9259L418.865 99.3505C421.008 99.3369 423.912 99.2826 426.489 98.8078L426.381 97.5325ZM422.311 100.192H420.52V103.95H429.243V102.525H422.311V100.192ZM428.85 95.4703V91.6579H427.059V101.019H428.85V96.9491H430.342V95.4703H428.85ZM433.855 97.5596H437.912V92.7297H432.01V94.1543H436.08V96.1486H432.024V101.291H433.15C435.415 101.291 437.247 101.209 439.282 100.856L439.092 99.4047C437.328 99.7032 435.755 99.7982 433.855 99.8117V97.5596ZM439.96 91.6579V104.194H441.751V91.6579H439.96Z" fill="white"/>
<circle cx="237.424" cy="84.7943" r="84.2943" fill="white" fill-opacity="0.2" stroke="white"/>
<path d="M207.114 74.7388H202.244V74.0061H207.114V74.7388ZM208.892 71.8761H207.114V72.7037H202.244V71.8761H200.466V76.0548H208.892V71.8761ZM202.108 82.0243H208.946V78.8496H200.317V80.1656H207.182V80.8032H200.331V84.0593H209.272V82.7298H202.108V82.0243ZM199.028 76.7331V78.1441H210.316V76.7331H199.028ZM212.757 81.8886H219.731V84.1136H221.522V80.4776H212.757V81.8886ZM218.062 78.3476V77.4522H221.698V76.0955H214.684V75.2814H221.44V71.9032H212.893V73.2599H219.676V74.0197H212.92V77.4522H216.271V78.3476H211.509V79.7721H222.824V78.3476H218.062ZM227.87 75.1865H229.783V73.7484H227.87V72.066H226.174V73.7484H224.22V75.1865H226.174V75.4442C226.174 77.3708 225.536 79.4194 223.759 80.4641L224.763 81.8072C225.889 81.156 226.622 80.0435 227.042 78.7411C227.49 79.935 228.209 80.9254 229.308 81.5087L230.271 80.1792C228.508 79.243 227.87 77.3301 227.87 75.4442V75.1865ZM230.488 76.3804H229.064V77.8321H230.488V83.5845H232.157V71.8625H230.488V76.3804ZM233.012 71.6455V84.1408H234.708V71.6455H233.012ZM246.849 71.6726H245.045V80.6404H246.849V71.6726ZM238.397 75.6342C238.397 74.6031 239.13 74.0061 240.052 74.0061C240.988 74.0061 241.694 74.6031 241.694 75.6342C241.694 76.6382 240.988 77.2487 240.052 77.2487C239.13 77.2487 238.397 76.6382 238.397 75.6342ZM243.444 75.6342C243.444 73.7891 241.965 72.4595 240.052 72.4595C238.139 72.4595 236.647 73.7891 236.647 75.6342C236.647 77.4522 238.139 78.7953 240.052 78.7953C241.965 78.7953 243.444 77.4522 243.444 75.6342ZM240.323 82.5127V79.7586H238.533V83.9372H247.161V82.5127H240.323ZM252.717 72.9479V74.3724H256.882C256.624 77.1401 255.24 79.0938 252.052 80.6269L252.988 82.0379C257.425 79.8943 258.713 76.7738 258.713 72.9479H252.717ZM260.626 71.6455V84.1408H262.431V71.6455H260.626ZM269.091 77.4929H266.636V75.7156H269.091V77.4929ZM270.855 72.5545H269.091V74.3317H266.636V72.5545H264.872V78.9039H270.855V72.5545ZM268.074 79.9485H266.283V83.9372H274.789V82.5127H268.074V79.9485ZM274.342 75.1865V71.659H272.551V80.8575H274.342V76.6517H275.997V75.1865H274.342ZM222.444 97.3572C219.595 96.8959 218.062 95.0237 218.062 93.2464V92.351H216.149V93.2464C216.149 94.983 214.602 96.8959 211.78 97.3572L212.513 98.836C214.697 98.4426 216.285 97.2622 217.099 95.7292C217.913 97.2758 219.514 98.4426 221.711 98.836L222.444 97.3572ZM218.008 101.237V98.4426H216.217V101.237H211.509V102.676H222.824V101.237H218.008ZM229.62 93.5042C231.248 93.5042 232.293 93.9926 232.293 94.8744C232.293 95.7699 231.248 96.2447 229.62 96.2447C227.978 96.2447 226.934 95.7699 226.934 94.8744C226.934 93.9926 227.978 93.5042 229.62 93.5042ZM229.62 97.6693C232.279 97.6693 234.138 96.5839 234.138 94.8744C234.138 93.1785 232.279 92.0796 229.62 92.0796C226.947 92.0796 225.102 93.1785 225.102 94.8744C225.102 96.5839 226.947 97.6693 229.62 97.6693ZM235.305 98.6054H223.99V100.057H226.554V104.141H228.358V100.057H230.868V104.141H232.686V100.057H235.305V98.6054ZM240.63 96.9502C242.99 96.7331 244.523 95.8648 245.188 94.6709C245.839 95.8648 247.386 96.7331 249.733 96.9502L250.357 95.5528C247.983 95.3493 246.762 94.5217 246.477 93.667H249.814V92.2424H240.575V93.667H243.899C243.614 94.5217 242.393 95.3493 240.033 95.5528L240.63 96.9502ZM245.161 102.784C243.492 102.784 242.637 102.486 242.637 101.834C242.637 101.183 243.492 100.898 245.161 100.898C246.83 100.898 247.684 101.183 247.684 101.834C247.684 102.486 246.83 102.784 245.161 102.784ZM245.161 99.5144C242.461 99.5144 240.833 100.369 240.833 101.834C240.833 103.313 242.461 104.154 245.161 104.154C247.861 104.154 249.502 103.313 249.502 101.834C249.502 100.369 247.861 99.5144 245.161 99.5144ZM239.544 97.425V98.836H250.832V97.425H239.544ZM256.678 96.8959H254.304V93.979H256.678V96.8959ZM260.681 94.888V95.9598H258.428V94.888H260.681ZM258.428 97.3843H260.681V98.9853H262.471V91.659H260.681V93.4635H258.428V92.5545H252.54V98.3069H258.428V97.3843ZM258.239 102.784C256.61 102.784 255.756 102.445 255.756 101.726C255.756 101.007 256.61 100.668 258.239 100.668C259.88 100.668 260.735 101.007 260.735 101.726C260.735 102.445 259.88 102.784 258.239 102.784ZM258.239 99.2973C255.593 99.2973 253.965 100.193 253.965 101.726C253.965 103.259 255.593 104.154 258.239 104.154C260.898 104.154 262.526 103.259 262.526 101.726C262.526 100.193 260.898 99.2973 258.239 99.2973Z" fill="white"/>
<circle cx="84.7943" cy="84.7943" r="84.2943" fill="white" fill-opacity="0.2" stroke="white"/>
<path d="M53.786 74.2357H58.0325V72.784H51.9951V81.2227H53.094C55.7532 81.2227 57.3405 81.1684 59.0364 80.8428L58.8736 79.364C57.3677 79.6489 55.9703 79.7168 53.786 79.7303V74.2357ZM59.8097 71.6715V84.2075H61.6006V71.6715H59.8097ZM68.5595 74.3442H71.1372V72.8654H64.1366V74.3442H66.7415V75.0361C66.7415 77.1662 65.7239 79.459 63.6346 80.3951L64.6521 81.8197C66.1174 81.1549 67.1213 79.7846 67.6776 78.1566C68.2338 79.6625 69.2242 80.8835 70.6759 81.5076L71.6527 80.0966C69.5634 79.2283 68.5595 77.0712 68.5595 75.0361V74.3442ZM72.2904 71.6715V84.1668H74.0813V71.6715H72.2904ZM84.866 78.2651H86.6569V71.6715H84.866V74.3171H82.8852V75.728H84.866V78.2651ZM82.9666 76.3928C81.5557 76.5963 80.3482 76.6235 78.5573 76.637V75.823H82.1662V74.5206H78.5573V73.7472H82.5461V72.3634H76.78V78.0344H77.7569C80.0633 78.0344 81.4607 78.0209 83.1023 77.7902L82.9666 76.3928ZM80.1989 82.7287V82.0232H86.6569V78.7399H78.4081V80.0831H84.8796V80.7614H78.4352V84.0718H87.0096V82.7287H80.1989ZM96.3504 74.3442H98.8331V72.8654H91.9682V74.3442H94.5595V75.0361C94.5595 77.0983 93.542 79.4454 91.4933 80.3951L92.4973 81.8197C93.9218 81.1413 94.9258 79.771 95.4821 78.143C96.0383 79.6218 97.0151 80.87 98.399 81.5076L99.3894 80.0966C97.3408 79.1469 96.3504 76.9355 96.3504 75.0361V74.3442ZM103.365 76.4335H101.547V71.6715H99.7557V84.1668H101.547V77.9123H103.365V76.4335ZM111.721 77.6003C109.699 76.9491 108.858 75.3753 108.858 73.7879V72.4312H107.04V73.7744C107.04 75.4838 106.158 77.1526 104.055 77.8309L105.005 79.2283C106.43 78.7535 107.42 77.7767 107.976 76.5285C108.519 77.6546 109.442 78.55 110.798 78.9977L111.721 77.6003ZM107.827 79.9474H106.036V83.9497H114.516V82.5252H107.827V79.9474ZM114.081 75.2939V71.6715H112.291V80.8157H114.081V76.7727H115.737V75.2939H114.081ZM55.8346 96.2979H53.3789V95.0497H55.8346V96.2979ZM57.5983 92.2142H55.8346V93.7065H53.3789V92.2142H51.6152V97.6953H57.5983V92.2142ZM54.6271 101.901H61.085V98.5093H52.8363V99.866H59.3213V100.626H52.8498V104.072H61.4514V102.688H54.6271V101.901ZM61.085 94.0864V91.6715H59.2942V98.0209H61.085V95.5381H62.7267V94.0864H61.085ZM71.7613 96.2029H72.6838V99.4861H74.3797V91.6715H72.6838V94.7512H71.7613V91.9021H70.0925V99.0927H71.7613V96.2029ZM69.7398 92.9468H67.5826V91.8072H65.8189V92.9468H63.6617V94.3306H69.7398V92.9468ZM65.6154 96.9084C65.6154 96.325 66.0631 96.013 66.7279 96.013C67.3927 96.013 67.8268 96.325 67.8268 96.9084C67.8268 97.4918 67.3927 97.8174 66.7279 97.8174C66.0631 97.8174 65.6154 97.4918 65.6154 96.9084ZM69.4142 96.9084C69.4142 95.6195 68.3017 94.7376 66.7279 94.7376C65.1405 94.7376 64.028 95.6195 64.028 96.9084C64.028 98.1973 65.1405 99.0927 66.7279 99.0927C68.3017 99.0927 69.4142 98.1973 69.4142 96.9084ZM70.1468 102.837C68.478 102.837 67.6369 102.552 67.6369 101.901C67.6369 101.25 68.478 100.965 70.1468 100.965C71.8156 100.965 72.6567 101.25 72.6567 101.901C72.6567 102.552 71.8156 102.837 70.1468 102.837ZM70.1468 99.6218C67.4605 99.6218 65.846 100.449 65.846 101.901C65.846 103.353 67.4605 104.167 70.1468 104.167C72.8331 104.167 74.4476 103.353 74.4476 101.901C74.4476 100.449 72.8331 99.6218 70.1468 99.6218ZM89.6493 91.6851H87.8584V98.7671H89.6493V91.6851ZM84.2224 96.3114H81.6718V93.8286H84.2224V96.3114ZM85.9726 92.4177H79.9081V97.7088H85.9726V92.4177ZM89.8528 100.761V99.4319H86.366V98.4143H84.548V99.4319H81.0477V100.761H84.5073C84.3174 101.63 83.0692 102.579 80.5729 102.796L81.1291 104.126C83.232 103.95 84.6973 103.217 85.457 102.254C86.2168 103.204 87.6685 103.95 89.7442 104.126L90.3141 102.796C87.8448 102.593 86.5967 101.589 86.4067 100.761H89.8528ZM95.2862 92.9604V94.3849H99.3427C99.0985 97.1119 97.8097 99.052 94.6892 100.626L95.6389 102.01C99.9533 99.8524 101.161 96.732 101.161 92.9604H95.2862ZM103.494 91.6715V96.4607H101.079V97.9123H103.494V104.167H105.285V91.6715H103.494ZM109.395 97.7224H112.366V92.879H107.645V94.3171H110.643V96.3114H107.658V101.399H108.54C110.046 101.399 111.403 101.358 113.004 101.101L112.868 99.6489C111.62 99.8389 110.535 99.9067 109.395 99.9338V97.7224ZM116.341 91.6579V96.3793H115.215V91.8886H113.546V103.57H115.215V97.8174H116.341V104.153H118.037V91.6579H116.341Z" fill="white"/>
</svg>
